<svg width="300" viewBox="0 0 715 676" fill="none" xmlns="http://www.w3.org/2000/svg">
<path d="M40.5549 456.998C44.2361 456.428 48.2807 456.126 52.3733 456.15H52.3858C64.0471 456.223 76.1077 458.923 81.1575 465.403C86.5707 472.318 88.9198 480.005 91.947 486.569C95.5799 494.428 100.183 500.69 112.206 502.069C113.502 502.215 114.773 502.312 116.045 502.347C120.613 502.501 124.987 502.048 129.056 501.594C141.366 500.22 150.872 498.845 154.469 514.3L211.914 441.886L311.09 316.857L111.685 401.089L40.458 455.157C38.5566 456.14 38.4235 457.325 40.5549 456.998" fill="#ED1B24"/>
<path d="M117.921 497.533C116.22 497.533 114.5 497.452 112.764 497.25C101.016 495.897 98.2947 489.379 94.1764 479.516C94.003 479.1 93.8275 478.679 93.6499 478.258C94.7067 475.304 96.3323 472.11 98.751 468.743C108.412 455.332 193.918 412.092 219.066 394.466C215.394 400.714 212.021 407.604 209.005 415.313C205.601 424.012 203.265 432.841 201.967 441.694C199.302 445.396 196.413 449.344 193.383 453.394C165.805 470.601 138.53 487.964 124.023 497.239C122.014 497.412 119.981 497.533 117.921 497.533V497.533ZM62.2737 451.944C59.8877 451.617 57.4467 451.417 54.998 451.328C67.1753 444.184 80.1369 436.594 91.7224 429.836C128.438 408.417 207.831 370.336 273.735 339.548C264.069 346.746 254.608 353.818 245.769 361.918C238.948 362.755 229.147 366.027 226.369 377.659C226.369 377.653 226.366 377.65 226.364 377.645C225.894 379.643 225.624 381.887 225.608 384.403C224.89 385.405 224.177 386.428 223.477 387.468C205.995 391.229 96.1277 437.574 62.2737 451.944" fill="#C91B2B"/>
<path d="M93.6496 478.258C91.5368 473.222 89.0639 467.655 84.9721 462.417C80.3589 456.509 71.7585 453.242 62.2734 451.944C96.1274 437.574 205.995 391.229 223.477 387.468C221.962 389.709 220.491 392.039 219.065 394.466C193.918 412.092 108.411 455.332 98.7507 468.743C96.332 472.11 94.7064 475.304 93.6496 478.258" fill="#961B34"/>
<path d="M152.314 500.23C148.48 496.901 143.69 495.989 138.695 495.989C135.558 495.989 132.337 496.351 129.229 496.699C127.512 496.891 125.778 497.085 124.023 497.239C138.531 487.964 165.806 470.601 193.384 453.393C183.037 467.22 171.033 482.24 160.533 492.722C157.941 495.311 155.184 497.817 152.314 500.23Z" fill="#961B34"/>
<path d="M138.894 500.295C146.292 500.295 151.962 502.655 154.716 513.169L309.45 318.094L111.881 401.556L40.6926 455.613C39.8548 456.04 39.5743 456.41 39.5141 456.542C39.5492 456.531 39.6485 456.55 39.8383 456.55C39.9882 456.55 40.1945 456.539 40.4699 456.496C55.3344 454.19 74.785 456.418 81.5555 465.085C85.6322 470.304 87.9421 475.836 90.1752 481.187C94.371 491.234 97.9945 499.915 112.267 501.559C118.444 502.272 124.43 501.6 129.711 501.008C132.978 500.641 136.064 500.295 138.894 500.295V500.295ZM154.214 515.437L153.976 514.411C150.55 499.696 141.853 500.671 129.825 502.018C124.49 502.615 118.442 503.295 112.151 502.569C97.2859 500.854 93.5562 491.923 89.2373 481.579C87.0297 476.29 84.7472 470.822 80.7539 465.711C74.222 457.349 55.2011 455.238 40.6254 457.5C39.1404 457.727 38.6649 457.271 38.5275 456.847C38.3091 456.172 38.9295 455.381 40.1891 454.727L111.376 400.681L312.717 315.61L154.214 515.437" fill="#371A45"/>
<path d="M40.4617 455.159H40.4749H40.4617ZM138.695 495.989C145.428 495.989 151.795 497.649 155.94 504.65L295.513 328.688L114.13 405.312L53.5675 451.29C66.2313 451.514 78.9726 454.735 84.9723 462.417C89.4086 468.095 91.9418 474.162 94.1763 479.516C98.2946 489.379 101.016 495.897 112.764 497.249C118.45 497.906 123.931 497.293 129.228 496.699C132.336 496.35 135.557 495.989 138.695 495.989V495.989ZM152.03 525.167L149.754 515.393C147.316 504.931 143.142 504.888 130.308 506.327C124.741 506.951 118.434 507.658 111.654 506.875C94.2654 504.872 89.6754 493.88 85.2371 483.247C83.1398 478.225 80.9717 473.03 77.3375 468.378C72.0946 461.666 54.546 459.73 41.2903 461.785C37.2741 462.414 35.0676 460.232 34.4034 458.183C33.709 456.039 34.2709 453.091 37.8289 451.077L109.24 396.861L109.799 396.626L326.655 305.015L152.03 525.167" fill="#371A45"/>
<path d="M376.116 287.122L46.4693 407.145C18.787 417.224 1.93792 445.304 6.06946 474.472C6.06946 474.472 53.7995 446.349 89.2802 425.651C158.58 385.226 376.116 287.122 376.116 287.122" fill="#ED1B24"/>
<path d="M10.3053 466.359C10.0785 442.34 25.1096 420.078 48.1263 411.697L266.987 332.009C254.737 337.739 242.052 343.703 229.281 349.762L52.3596 414.179C29.823 422.397 14.4549 442.545 11.7641 465.5C11.257 465.797 10.7705 466.083 10.3053 466.359" fill="#FABABD"/>
<path d="M266.988 332.01L48.1272 411.698C25.1105 420.078 10.0793 442.34 10.3061 466.359C24.7195 457.873 59.5782 437.369 86.8406 421.469C123.323 400.185 201.415 362.674 266.988 332.01ZM2.28979 482.324L1.27431 475.153C-3.1518 443.906 15.1588 413.391 44.8126 402.593L374.458 282.57L378.109 291.537C375.935 292.517 160.008 390 91.7219 429.836C56.6557 450.291 9.00604 478.366 8.52895 478.647L2.28979 482.324" fill="#371A45"/>
<path d="M242.356 663.327C262.663 677.677 306.754 675.909 299.815 616.779C299.815 616.779 342.318 611.824 377.073 595.138C394.339 586.844 409.694 575.655 416.973 560.735L324.566 422.495C324.566 422.495 301.184 477.58 281.385 506.327C270.061 522.762 253.483 537.69 239.17 547.378C235.271 550.018 231.543 552.27 228.127 554.052C203.922 566.704 214.795 643.854 242.356 663.327Z" fill="white"/>
<path d="M266.524 665.921C258.584 665.921 250.632 663.24 245.148 659.365C243.728 658.361 242.357 657.186 241.039 655.858C243.785 656.522 246.604 656.865 249.374 656.865C267.58 656.865 283.621 641.953 262.299 604.596C262.299 604.596 271.182 605.978 284.779 605.978C288.913 605.978 293.481 605.851 298.371 605.516C299.159 605.462 299.891 605.322 300.571 605.106C304.867 606.891 309.084 608.435 313.118 609.753C304.813 611.295 299.467 611.945 299.246 611.972L294.432 612.534L294.999 617.348C297.631 639.747 292.882 655.237 281.266 662.144C276.806 664.795 271.665 665.921 266.524 665.921V665.921ZM328.538 606.499C321.615 604.958 313.901 602.614 306.028 599.482C307.246 595.443 305.642 590.567 300.666 588.822C292.191 585.852 284.107 582.162 276.501 577.847C277.786 576.942 279.02 576.014 280.213 575.047C290.303 579.839 301.001 583.555 312.138 586.106C323.624 588.736 335.374 590.043 347.214 590.043C359.647 590.043 372.175 588.598 384.585 585.731C367.086 595.886 345.583 602.468 328.538 606.499Z" fill="#B9AFBE"/>
<path d="M266.526 675.609C256.498 675.609 246.605 672.255 239.555 667.277C219.527 653.126 208.152 612.513 210.093 583.458C211.246 566.21 216.705 554.557 225.88 549.762C240.703 542.016 263.145 524.258 277.393 503.579C296.698 475.558 319.87 421.148 320.102 420.602C321.147 418.14 323.995 416.99 326.452 418.035C328.915 419.079 330.065 421.923 329.02 424.385C328.056 426.653 305.227 480.253 285.372 509.073C270.187 531.113 246.216 550.064 230.367 558.348C224.514 561.407 220.647 570.795 219.759 584.103C218.028 609.996 228.029 647.272 245.147 659.366C254.181 665.748 269.914 668.894 281.265 662.144C292.88 655.237 297.63 639.748 294.997 617.348L294.43 612.534L299.244 611.973C300.17 611.862 392.113 600.638 412.623 558.607C413.797 556.201 416.697 555.205 419.1 556.377C421.503 557.551 422.502 560.451 421.327 562.854C401.129 604.253 325.083 618.015 305.082 620.958C307.412 651.069 296.269 664.493 286.217 670.471C280.155 674.073 273.311 675.609 266.526 675.609Z" fill="#371A45"/>
<path d="M331.454 614.446C331.23 614.446 331.001 614.424 330.774 614.381C303.93 609.278 250.198 588.423 238.955 546.017C238.439 544.078 239.595 542.089 241.533 541.576C243.469 541.06 245.462 542.215 245.978 544.157C255.544 580.245 302.742 601.656 332.129 607.242C334.1 607.618 335.396 609.518 335.021 611.489C334.689 613.234 333.166 614.446 331.454 614.446Z" fill="#371A45"/>
<path d="M300.204 621.336C297.666 621.56 295.484 621.495 293.165 621.282C292.02 621.198 290.88 621.053 289.752 620.861C288.615 620.704 287.487 620.488 286.369 620.224C281.876 619.273 277.515 617.648 273.339 615.65C269.183 613.576 265.268 610.957 261.834 607.844C258.456 604.631 255.718 600.8 253.939 596.688C253.785 596.331 253.947 595.918 254.303 595.765C254.565 595.651 254.857 595.708 255.054 595.889L255.089 595.921C258.308 598.848 261.602 601.286 265.214 603.165C268.851 604.998 272.62 606.4 276.489 607.504C280.391 608.549 284.371 609.221 288.348 609.904C290.338 610.228 292.341 610.515 294.342 610.798C296.305 611.082 298.432 611.352 300.204 611.649L300.584 611.713C303.228 612.156 305.01 614.662 304.564 617.305C304.191 619.532 302.353 621.147 300.204 621.336" fill="#371A45"/>
<path d="M495.937 507.998C506.086 516.174 516.038 522.505 523.742 525.983C588.539 555.213 621.73 497.271 615.42 467.687C606.896 427.751 566.947 444.497 566.947 444.497C552.38 442.985 539.944 435.743 531.782 420.91C521.779 402.768 518.172 373.282 524.868 329.023C525.969 321.744 527.349 314.054 529.02 305.954L516.549 323.936L451.932 417.105C436.734 446.724 467.117 484.786 495.937 507.998" fill="white"/>
<path d="M557.563 529.193C548.486 529.193 537.912 527.06 525.733 521.563C520.376 519.147 514.144 515.45 507.621 510.814L515.745 497.798C516.596 496.437 517.349 495.025 518 493.58C520.913 498.961 525.519 503.462 531.497 506.184C531.567 506.216 531.64 506.249 531.711 506.278C544.163 511.897 555.444 514.295 565.507 514.295C582.568 514.295 596.114 507.396 605.866 497.595C602.316 505.039 597.04 512.218 590.047 517.856C582.743 523.745 572.065 529.193 557.563 529.193V529.193ZM515.851 470.255C515.211 469.531 514.528 468.84 513.815 468.181C513.826 467.245 513.545 466.31 512.975 465.5L512.279 464.507C515.227 456.931 517.938 449.036 520.403 440.836C522.514 433.805 524.35 426.888 525.943 420.178C527.207 422.784 528.6 425.227 530.118 427.509C526.675 440.647 522.282 454.371 516.674 468.001C516.366 468.746 516.094 469.499 515.851 470.255" fill="#B9AFBE"/>
<path d="M557.59 538.794C546.266 538.794 534.181 536.005 521.748 530.395C498.368 519.846 458.092 486.126 446.42 452.753C441.52 438.74 441.928 426.002 447.625 414.897C448.848 412.515 451.766 411.576 454.148 412.799C456.526 414.019 457.466 416.938 456.246 419.319C451.804 427.973 451.577 438.144 455.565 449.554C465.944 479.235 503.428 511.5 525.733 521.563C557.377 535.841 578.175 527.43 590.047 517.856C606.668 504.456 613.591 482.335 610.683 468.692C608.577 458.82 604.208 452.081 597.701 448.66C585.443 442.218 568.981 448.903 568.814 448.973L567.68 449.443L566.449 449.319C551.755 447.785 540.008 441.13 531.535 429.539C514.447 406.168 512.006 364.256 524.277 304.966C524.82 302.347 527.385 300.662 530.001 301.205C532.62 301.748 534.305 304.31 533.765 306.929C522.236 362.63 524.169 403.049 539.354 423.82C545.929 432.811 554.998 438.101 566.327 439.553C571.044 437.839 587.951 432.628 602.151 440.055C611.358 444.869 617.416 453.825 620.157 466.672C623.626 482.95 616.385 509.065 596.127 525.4C585.076 534.31 571.943 538.794 557.59 538.794Z" fill="#371A45"/>
<path d="M284.183 571.524C318.718 587.365 361.281 590.85 404.816 574.578C482.679 545.466 512.735 463.594 524.323 404.742C531.613 367.76 531.613 339.872 531.613 339.872L358.195 233.867C348.907 265.339 336.193 287.028 321.939 303.689C294.632 335.671 261.743 349.209 236.811 378.077C228.104 388.164 220.365 400.117 214.191 415.386C213.958 415.944 213.729 416.514 213.513 417.081C211.55 422.095 209.976 427.12 208.764 432.134C194.729 490.005 229.327 546.349 284.183 571.524" fill="white"/>
<path d="M346.998 580.561C325.047 580.558 305.016 575.641 287.674 567.838C288.376 567.012 289.051 566.17 289.688 565.306C289.969 564.995 290.241 564.679 290.503 564.358C291.918 562.622 293.071 560.737 293.957 558.755C293.962 558.747 293.968 558.734 293.97 558.726C293.973 558.72 293.976 558.712 293.978 558.707C294.273 558.048 294.537 557.378 294.772 556.701C312.795 564.352 332.856 568.678 354.015 568.678C369.522 568.678 385.616 566.353 401.916 561.312L417.698 563.669C413.043 566.013 408.186 568.143 403.115 570.041C383.427 577.404 364.597 580.561 346.998 580.561Z" fill="#B9AFBE"/>
<path d="M360.983 241.255C341.859 300.9 310.453 324.288 280.048 346.927C255.462 365.233 232.239 382.524 218.026 418.845C201.869 460.136 211.962 504.826 245.024 538.392C276.608 570.46 334.726 595.614 403.114 570.042C466.68 546.271 496.899 485.267 511.055 438.279C524.436 393.859 526.423 353.186 526.717 342.553L360.983 241.255ZM347.213 590.043C335.374 590.043 323.623 588.737 312.137 586.107C283.655 579.586 258.062 565.438 238.122 545.191C202.299 508.822 191.415 460.268 209.005 415.313C224.228 376.409 248.531 358.313 274.262 339.157C304.394 316.72 335.552 293.521 353.542 232.501L355.327 226.445L536.456 337.153V339.87C536.456 341.811 536.273 388.011 520.402 440.836C499.21 511.363 459.825 559.177 406.508 579.117C387.081 586.38 367.026 590.043 347.213 590.043" fill="#371A45"/>
<path d="M488.361 408.59C448.76 408.59 409.961 394.941 378.357 371.521C378.754 371.035 379.151 370.549 379.545 370.063L380.974 368.241L382.297 366.356C383.172 365.098 384.068 363.851 384.905 362.566C385.75 361.283 386.619 360.019 387.429 358.715C388.215 357.403 389.004 356.094 389.76 354.765C390.505 353.493 391.231 352.216 391.947 350.931C400.892 358.119 410.514 364.631 420.737 370.379C451.606 387.735 485.502 396.675 519.127 396.675C519.716 396.675 520.305 396.672 520.893 396.667C520.367 399.637 519.792 402.68 519.165 405.782C508.916 407.677 498.613 408.593 488.361 408.59" fill="#B9AFBE"/>
<path d="M519.164 405.782C519.79 402.679 520.366 399.637 520.892 396.667C522.544 396.651 524.194 396.613 525.847 396.556C525.377 399.226 524.869 401.959 524.321 404.742C522.601 405.118 520.887 405.463 519.164 405.782" fill="#371A45"/>
<path d="M683.876 293.507C545.752 510.86 237.128 329.857 346.846 107.437C482.955 -118.407 801.796 68.9916 683.876 293.507Z" fill="white"/>
<path d="M683.876 293.507C545.752 510.86 237.128 329.857 346.846 107.437C482.955 -118.407 801.796 68.9916 683.876 293.507Z" fill="white"/>
<path d="M683.876 293.507C545.752 510.86 237.128 329.857 346.846 107.437C482.955 -118.407 801.796 68.9916 683.876 293.507Z" fill="white"/>
<path d="M683.872 293.507H683.889H683.872ZM350.082 109.211C294.095 222.889 349.693 320.27 425.077 362.654C502.238 406.035 611.178 400.903 680.678 291.658C740.875 176.894 685.203 77.8315 607.978 34.3291C531.503 -8.74944 418.203 -3.68422 350.082 109.211ZM519.127 395.189C485.755 395.189 452.107 386.315 421.462 369.083C378.467 344.91 346.156 307.097 330.483 262.609C312.957 212.867 317.472 158.648 343.537 105.806L343.686 105.533C375.659 52.4784 420.101 18.1209 472.206 6.17344C518.411 -4.42136 567.915 3.29527 611.599 27.9004C655.371 52.5595 687.987 91.0561 703.434 136.303C720.746 187.009 715.114 241.964 687.139 295.225L686.986 295.487C654.499 346.608 610.173 379.602 558.798 390.905C545.757 393.772 532.465 395.189 519.127 395.189" fill="#371A45"/>
<path d="M490.509 384.168C467.646 380.445 445.66 372.52 425.807 361.358C415.784 355.723 406.113 349.108 397.014 341.605C397.537 340.641 398.064 339.68 398.596 338.722C400.159 335.803 401.744 332.898 403.31 329.982C419.794 348.296 440.022 363.335 462.848 373.962C471.877 378.166 481.132 381.571 490.509 384.168V384.168ZM536.077 381.654C510.932 381.652 486.929 375.628 466.501 366.116C444.558 355.902 424.254 340.649 407.746 321.525C409.534 318.088 411.291 314.638 413.03 311.179C416.578 315.483 420.328 319.527 424.276 323.324C448.595 347.696 479.866 364.037 514.196 370.004C523.949 371.699 533.823 372.539 543.78 372.539C566.663 372.539 589.961 368.092 613.071 359.339C605.06 364.434 596.873 368.764 588.587 372.364C571.059 378.83 553.301 381.654 536.077 381.654" fill="#B4BAC4"/>
<path d="M683.874 293.507H683.89H683.874ZM351.39 109.924C295.862 222.716 351.023 319.311 425.808 361.358C502.347 404.391 610.412 399.283 679.394 290.913C739.078 177.054 683.855 78.7764 607.25 35.6223C531.394 -7.10515 419.001 -2.06425 351.39 109.924V109.924ZM519.128 396.674C485.502 396.674 451.606 387.735 420.737 370.379C377.426 346.03 344.875 307.931 329.08 263.103C311.42 212.974 315.958 158.356 342.205 105.15L342.413 104.767C374.602 51.3606 419.368 16.7655 471.875 4.72622C518.442 -5.94957 568.324 1.81834 612.329 26.607C656.42 51.4443 689.276 90.2298 704.842 135.822C722.289 186.925 716.624 242.283 688.455 295.913L688.242 296.283C655.537 347.748 610.887 380.968 559.117 392.354C545.974 395.246 532.571 396.674 519.128 396.674" fill="#371A45"/>
<path d="M654.227 332.933C462.735 453.156 291.226 230.565 435.241 94.7415C605.795 -47.5917 807.407 161.361 654.227 332.933Z" fill="#371A45"/>
<path d="M702.574 197.649C709.054 401.902 417.381 426.971 380.807 241.206C477.44 348.579 650.545 298.006 702.574 197.649Z" fill="#21102B"/>
<path d="M683.873 293.507H683.887H683.873ZM556.517 33.0817C531.156 33.0817 505.274 38.2171 480.609 48.4933C431.604 68.9026 393.685 106.951 376.575 152.881C343.265 249.838 396.59 333.57 466.502 366.116C527.346 394.442 619.805 391.844 680.153 291.302C722.494 219.501 711.826 104.759 628.534 48.1639C606.173 38.1091 581.597 33.0817 556.517 33.0817ZM535.819 390.392C511.197 390.392 486.266 384.862 462.848 373.962C423.788 355.775 392.322 324.66 374.248 286.344C354.308 244.076 352.297 196.918 368.429 149.965C386.411 101.694 426.074 61.834 477.28 40.504C528.669 19.1011 585.221 19.0741 632.436 40.4311L633.075 40.7875C672.83 67.6768 699.96 110.078 709.472 160.181C718.455 207.512 710.485 256.912 687.602 295.705L687.586 295.735C660.408 341.019 623.388 371.564 580.528 384.065C566.026 388.294 550.982 390.392 535.819 390.392" fill="#371A45"/>
<path d="M654.228 332.933H654.242H654.228ZM438.676 98.6133C368.104 165.276 377.659 248.317 418.461 301.067C463.403 359.171 552.635 390.243 650.856 328.939C727.555 242.548 709.894 148.79 660.913 98.1461C611.654 47.2187 523.848 27.6303 438.676 98.6133V98.6133ZM543.782 372.539C533.824 372.539 523.95 371.699 514.198 370.004C472.853 362.819 435.944 340.585 410.275 307.399C386.572 276.754 374.67 239.399 376.768 202.218C379.082 161.148 398.076 122.684 431.691 90.9776L431.926 90.7698C472.302 57.0738 517.295 40.3959 562.05 42.5586C602.291 44.4945 640.042 61.6826 668.352 90.9506C697.317 120.902 713.455 160.376 713.787 202.102C714.16 248.717 694.898 295.149 658.089 336.381L657.6 336.926L656.979 337.315C619.898 360.597 581.282 372.539 543.782 372.539" fill="#371A45"/>
<path d="M299.444 243.887C314.218 333.481 405.257 326.215 399.773 239.259C387.736 144.789 290.418 152.543 299.444 243.887Z" fill="white"/>
<path d="M304.576 243.212C311.906 287.306 337.715 304.848 358.592 302.466C378.324 300.223 397.099 279.962 394.618 239.751C388.897 195.306 362.993 174.64 340.335 177.205C320.222 179.481 300.474 201.106 304.576 243.212V243.212ZM354.871 313.023C330.28 313.023 302.202 292.425 294.337 244.73L294.294 244.395C289.434 195.203 314.15 169.753 339.171 166.924C353.775 165.271 368.857 171.041 380.556 182.754C393.479 195.689 401.897 215.003 404.905 238.606L404.937 238.933C407.905 286.04 384.388 309.948 359.761 312.748C358.152 312.932 356.518 313.023 354.871 313.023" fill="#371A45"/>
<path d="M295.999 248.955C308.047 321.547 376.34 317.257 371.918 246.924C362.414 169.464 288.199 174.211 295.999 248.955Z" fill="white"/>
<path d="M301.13 248.264C307.062 283.712 326.159 297.992 341.433 296.248C355.448 294.647 368.7 278.925 366.764 247.403C362.279 211.239 342.958 194.237 326.188 196.151C311.695 197.798 297.687 214.805 301.13 248.264V248.264ZM339.005 306.732C319.746 306.732 297.49 289.531 290.894 249.803L290.854 249.492C286.62 208.925 305.598 188.073 325.022 185.87C346.884 183.394 371.783 203.344 377.054 246.296L377.083 246.598C379.497 285.006 361.507 304.373 342.607 306.53C341.422 306.665 340.22 306.732 339.005 306.732" fill="#371A45"/>
<path d="M450.194 265.322C446.584 265.322 442.823 263.308 440.617 258.902C441.03 258.829 441.443 258.756 441.854 258.678C444.322 258.205 446.754 257.611 449.16 256.901C452.745 255.826 456.266 254.487 459.666 252.854C460.748 260.735 455.643 265.322 450.194 265.322" fill="#AFA3B5"/>
<path d="M674.539 211.077C644.156 149.541 604.323 94.9632 515.35 89.601C526.371 82.0221 544.126 77.5671 563.917 77.5671C619.224 77.5671 690.383 112.375 674.539 211.077" fill="#AFA3B5"/>
<path d="M311.397 277.81C306.856 270.382 303.194 260.605 301.129 248.263C300.556 242.707 300.467 237.607 300.778 232.954C305.352 241.873 312.312 249.468 320.167 254.606C317.315 262.393 314.48 270.163 311.397 277.81" fill="#B9AFBE"/>
<path d="M309.629 282.165C299.982 268.97 294.312 249.39 297.668 225.586C298.519 228.124 299.564 230.584 300.779 232.955C300.468 237.607 300.557 242.707 301.13 248.264C303.195 260.606 306.857 270.382 311.398 277.81C311.109 278.528 310.815 279.244 310.523 279.959C310.226 280.696 309.929 281.431 309.629 282.165Z" fill="#371A45"/>
<path d="M569.31 448.733C569.01 448.93 568.33 449.405 567.82 449.802C567.274 450.242 566.726 450.674 566.189 451.158C565.638 451.611 565.117 452.111 564.604 452.621C564.072 453.11 563.583 453.647 563.089 454.179C561.126 456.323 559.315 458.645 557.819 461.183C556.99 462.403 556.41 463.769 555.699 465.068C555.07 466.404 554.498 467.781 553.936 469.161C553.502 470.592 552.945 471.985 552.584 473.449C552.26 474.923 551.79 476.365 551.555 477.871C551.339 479.378 551.036 480.879 550.88 482.405C550.777 483.941 550.664 485.48 550.526 487.024C550.429 489.924 550.704 492.778 551.547 495.513C553.264 500.948 556.674 505.943 561.437 510.595L561.475 510.63C561.639 510.79 561.642 511.052 561.483 511.216C561.383 511.316 561.243 511.357 561.116 511.335C554.163 510.104 548.099 504.744 545.242 497.876C543.784 494.46 543.034 490.756 542.799 487.1C542.753 485.364 542.737 483.625 542.729 481.881C542.772 480.137 542.972 478.387 543.093 476.632C543.836 469.639 545.874 462.603 549.481 456.317C551.198 453.129 553.399 450.204 555.842 447.499C556.45 446.816 557.076 446.152 557.754 445.531C558.413 444.894 559.085 444.267 559.803 443.679C560.489 443.066 561.248 442.509 562.001 441.951C562.817 441.378 563.478 440.908 564.591 440.271C566.907 438.943 569.864 439.742 571.192 442.059C572.472 444.289 571.778 447.11 569.661 448.503L569.31 448.733" fill="#371A45"/>
<path d="M579.612 441.362C579.612 441.362 555.941 447.154 547.104 469.785C547.104 469.785 537.924 469.161 536.18 458.756C534.147 446.611 543.889 428.977 561.212 427.741C574.355 426.798 579.612 441.362 579.612 441.362Z" fill="white"/>
<path d="M544.399 469.148C541.546 468.125 537.307 465.489 536.178 458.75C535.657 455.637 535.911 452.176 536.856 448.722C536.856 448.728 536.859 448.731 536.859 448.733C535.911 452.189 535.662 455.651 536.181 458.756C537.309 465.484 541.546 468.122 544.399 469.148Z" fill="#B9AFBE"/>
<path d="M579.614 441.362C579.608 441.343 579.506 441.063 579.298 440.59C579.511 441.076 579.614 441.362 579.614 441.362ZM579.295 440.582C579.295 440.582 579.295 440.582 579.295 440.579C579.295 440.582 579.295 440.582 579.295 440.582ZM579.292 440.577C579.292 440.574 579.29 440.571 579.29 440.571C579.29 440.571 579.292 440.574 579.292 440.577ZM579.271 440.523C579.268 440.523 579.268 440.523 579.268 440.523C579.268 440.523 579.268 440.523 579.271 440.523ZM578.309 438.576C578.307 438.573 578.307 438.573 578.307 438.571C578.307 438.573 578.307 438.573 578.309 438.576ZM578.299 438.56C578.299 438.557 578.299 438.557 578.299 438.554C578.299 438.557 578.299 438.557 578.299 438.56ZM578.291 438.544C578.291 438.541 578.291 438.541 578.288 438.538C578.291 438.541 578.291 438.541 578.291 438.544ZM578.282 438.527C578.282 438.525 578.28 438.525 578.28 438.522C578.28 438.525 578.282 438.525 578.282 438.527ZM578.274 438.511C578.272 438.509 578.272 438.506 578.269 438.506C578.272 438.506 578.272 438.509 578.274 438.511ZM578.266 438.495C578.263 438.492 578.261 438.487 578.258 438.484C578.261 438.487 578.263 438.492 578.266 438.495ZM578.255 438.479C578.255 438.476 578.253 438.473 578.25 438.468C578.253 438.473 578.255 438.476 578.255 438.479Z" fill="#371A45"/>
<path d="M577.25 436.794C576.853 436.176 576.402 435.533 575.895 434.882C576.402 435.53 576.853 436.176 577.25 436.794Z" fill="#8DA5BE"/>
<path d="M578.246 438.462C577.96 437.944 577.631 437.382 577.25 436.794C577.631 437.382 577.96 437.944 578.246 438.462Z" fill="#371A45"/>
<path d="M544.668 469.24C544.581 469.21 544.492 469.18 544.4 469.148C544.492 469.18 544.581 469.21 544.668 469.24Z" fill="#371A45"/>
<path d="M547.1 469.783C547.1 469.783 546.085 469.715 544.668 469.24C544.581 469.21 544.492 469.181 544.4 469.148C541.546 468.122 537.31 465.484 536.182 458.756C535.663 455.651 535.912 452.189 536.859 448.733C536.881 448.787 536.902 448.841 536.924 448.895C538.034 451.606 540.577 453.035 543.177 453.035C545.127 453.035 547.111 452.23 548.542 450.561C557.314 440.35 568.957 436.4 575.896 434.882C576.404 435.533 576.854 436.176 577.251 436.794C577.632 437.383 577.961 437.944 578.248 438.463C578.248 438.465 578.25 438.468 578.25 438.468C578.253 438.473 578.256 438.476 578.256 438.479C578.258 438.482 578.258 438.482 578.258 438.484C578.261 438.487 578.264 438.492 578.267 438.495C578.267 438.498 578.269 438.503 578.269 438.506C578.272 438.506 578.272 438.509 578.275 438.511C578.275 438.514 578.277 438.519 578.28 438.522C578.28 438.525 578.283 438.525 578.283 438.527C578.285 438.53 578.288 438.536 578.288 438.538C578.291 438.541 578.291 438.541 578.291 438.544C578.294 438.546 578.296 438.552 578.299 438.554C578.299 438.557 578.299 438.557 578.299 438.56C578.302 438.563 578.304 438.565 578.307 438.571C578.307 438.573 578.307 438.573 578.31 438.576C578.736 439.362 579.055 440.034 579.268 440.523C579.268 440.523 579.268 440.523 579.271 440.523C579.274 440.528 579.276 440.536 579.279 440.542C579.282 440.552 579.287 440.561 579.29 440.571C579.29 440.571 579.293 440.574 579.293 440.577L579.295 440.579C579.295 440.582 579.295 440.582 579.295 440.582C579.298 440.585 579.298 440.588 579.298 440.59C579.506 441.063 579.608 441.344 579.614 441.362C579.6 441.365 555.937 447.157 547.1 469.783" fill="#B9AFBE"/>
<path d="M562.382 432.423C562.109 432.423 561.833 432.434 561.55 432.453C555.494 432.887 549.967 435.911 545.987 440.968C541.983 446.055 539.963 452.732 540.841 457.976C541.4 461.318 543.006 463.089 544.491 464.026C551.97 449.014 565.289 441.751 572.86 438.682C570.83 435.757 567.414 432.423 562.382 432.423V432.423ZM550.242 474.734L546.784 474.499C542.32 474.194 533.386 470.679 531.521 459.536C530.203 451.668 532.9 442.316 538.559 435.123C544.205 427.949 552.132 423.653 560.875 423.027C577.402 421.866 583.795 439.027 584.057 439.759L585.845 444.702L580.747 445.95C580.355 446.05 559.271 451.617 551.506 471.502L550.242 474.734" fill="#371A45"/>
<path d="M275.605 356.074L365.021 382.159C396.252 343.433 433.985 254.827 433.985 254.827C433.985 254.827 444.436 254.452 456.23 249.125C465.046 245.14 474.612 238.384 481.127 226.952C483.211 223.332 484.977 219.228 486.311 214.589C499.4 169.143 446.143 135.344 401.012 148.652C330.062 169.591 337.244 272.315 275.605 356.074" fill="white"/>
<path d="M442.984 248.525C431.064 247.605 418.641 245.499 409.186 241.144C382.324 228.77 380.731 211.525 382.513 201.659C383.036 202.65 383.606 203.611 384.2 204.54C386.276 207.68 388.382 210.717 390.764 213.493C391.252 214.117 392.181 215.14 392.945 215.796C393.345 216.174 393.75 216.506 394.155 216.822C394.56 217.157 394.968 217.459 395.378 217.743C397.014 218.904 398.672 219.878 400.341 220.732C407.023 224.101 413.873 226.14 420.823 227.66C427.77 229.145 434.822 230.017 441.956 230.187C442.763 230.203 443.573 230.214 444.383 230.214C445.811 230.214 447.245 230.184 448.681 230.119C451.403 232.104 454.84 233.581 458.426 234.61C459.554 234.934 460.696 235.214 461.838 235.452C463.685 235.838 465.456 236.194 467.147 236.483C464.476 238.824 461.536 240.882 458.382 242.618C454.616 244.702 450.577 246.363 446.397 247.613C445.269 247.948 444.132 248.253 442.984 248.525" fill="#B9AFBE"/>
<path d="M274.308 355.124C276.162 350.707 278.428 346.657 280.469 342.464C282.61 338.346 284.684 334.21 286.881 330.157C291.177 321.987 295.268 313.731 299.269 305.398C303.2 297.028 307.061 288.594 310.523 279.959C314.057 271.357 317.246 262.584 320.464 253.796C326.912 236.227 333.043 218.375 341.224 201.049C345.334 192.409 350.002 183.901 355.75 175.966C361.455 168.028 368.451 160.757 376.673 155.049L379.78 152.948C380.801 152.222 381.946 151.698 383.023 151.064L386.306 149.249C387.438 148.717 388.585 148.226 389.724 147.716C390.869 147.222 391.998 146.676 393.162 146.228L396.69 145.018C397.876 144.632 399.031 144.173 400.241 143.855L403.878 142.904C413.644 140.685 423.785 140.296 433.632 141.813C443.49 143.242 453.056 146.549 461.766 151.471C470.463 156.399 478.274 163.2 484.043 171.673C486.919 175.906 489.241 180.572 490.815 185.51C492.392 190.449 493.148 195.66 493.129 200.827C493.11 206.003 492.305 211.128 490.928 216.039C489.522 220.891 487.548 225.638 484.937 230.049C479.737 238.905 471.964 246.22 463.083 251.088C458.647 253.545 453.963 255.462 449.16 256.901C446.754 257.611 444.321 258.205 441.853 258.678C440.619 258.912 439.377 259.115 438.119 259.282C436.826 259.455 435.676 259.587 434.156 259.666L438.438 256.723C433.602 267.941 428.561 278.941 423.366 289.935C418.174 300.914 412.812 311.819 407.185 322.605C404.426 328.024 401.472 333.354 398.597 338.722C395.635 344.049 392.859 349.484 389.76 354.765C389.004 356.094 388.215 357.403 387.429 358.715C386.619 360.019 385.75 361.283 384.905 362.565C384.068 363.851 383.172 365.098 382.297 366.356L380.974 368.241L379.545 370.063C377.599 372.469 375.625 374.834 373.441 377.051C371.162 379.211 368.853 381.322 366.286 383.172C365.535 383.712 364.49 383.542 363.95 382.791C363.597 382.302 363.548 381.689 363.759 381.174L363.772 381.144C368.521 369.707 374.664 359.717 380.863 349.449C382.391 346.878 384.054 344.394 385.561 341.802C387.089 339.221 388.612 336.64 390.089 334.029C392.972 328.764 395.848 323.494 398.589 318.14C404.148 307.48 409.461 296.675 414.61 285.791C419.751 274.913 424.787 263.924 429.525 252.927L430.724 250.146L433.807 249.984C434.628 249.94 435.811 249.824 436.839 249.681C437.903 249.538 438.978 249.363 440.044 249.16C442.183 248.75 444.308 248.231 446.397 247.613C450.577 246.363 454.616 244.702 458.383 242.618C465.935 238.463 472.269 232.455 476.591 225.13C478.757 221.472 480.417 217.492 481.624 213.342C482.769 209.222 483.425 205.012 483.441 200.811C483.458 196.615 482.855 192.428 481.578 188.432C480.301 184.433 478.409 180.618 476.019 177.1C471.229 170.064 464.566 164.183 456.963 159.885C449.357 155.589 440.9 152.646 432.198 151.393C423.507 150.051 414.591 150.41 406.073 152.341L402.906 153.17C401.85 153.445 400.821 153.864 399.779 154.201L396.655 155.265C395.632 155.656 394.649 156.142 393.642 156.574L390.642 157.911L387.775 159.507C386.835 160.063 385.828 160.506 384.94 161.148L382.224 162.987C375.034 167.979 368.81 174.392 363.583 181.671C358.321 188.928 353.912 196.923 349.975 205.207C342.123 221.812 336.024 239.491 329.566 257.117C323.091 274.74 316.565 292.511 308.719 309.832C304.699 318.45 300.141 326.839 295.089 334.928C292.449 338.908 289.787 342.866 286.695 346.533C283.755 350.288 280.412 353.761 276.908 357.036C276.246 357.657 275.207 357.622 274.588 356.96C274.135 356.472 274.032 355.783 274.272 355.205L274.308 355.124" fill="#371A45"/>
<path d="M385.686 183.005C387.603 186.118 388.599 188.707 389.528 191.418C390.584 194.086 391.548 196.842 392.895 199.577C394.267 202.299 396.1 204.826 398.144 207.221C398.398 207.534 398.651 207.845 398.824 208.007C399.002 208.209 399.216 208.417 399.456 208.625C399.672 208.833 399.926 209.041 400.193 209.246C400.442 209.454 400.714 209.659 401.006 209.859C402.143 210.661 403.42 211.428 404.778 212.119C410.251 214.892 416.536 216.822 422.86 218.189C429.21 219.549 435.717 220.351 442.184 220.502C448.642 220.651 455.106 220.168 461.129 218.656C467.129 217.168 472.71 214.522 476.322 210.458C478.15 208.452 479.417 206.082 480.213 203.482C480.966 200.86 481.209 197.995 481.034 195.044C480.942 193.567 480.75 192.071 480.472 190.57C480.186 189.066 479.622 187.611 479.093 186.145C478.544 184.684 478.226 183.153 478.056 181.512C477.98 179.84 478.072 178.069 479.098 175.804L479.138 175.715C479.643 174.6 480.929 174.084 482.054 174.505C484.382 175.38 485.84 176.725 486.893 178.264C487.94 179.797 488.632 181.517 489.037 183.318C489.45 185.122 489.655 186.982 490.009 188.815C490.33 190.662 490.589 192.539 490.705 194.458C490.932 198.29 490.64 202.299 489.506 206.219C488.337 210.126 486.304 213.882 483.548 216.914C480.831 219.989 477.513 222.325 474.098 224.118C470.658 225.886 467.086 227.166 463.497 228.052C456.31 229.844 449.082 230.344 441.957 230.187C434.823 230.017 427.771 229.145 420.824 227.66C413.874 226.14 407.024 224.102 400.342 220.732C398.673 219.879 397.015 218.904 395.379 217.743C394.969 217.46 394.561 217.157 394.156 216.822C393.751 216.506 393.346 216.174 392.946 215.796C392.182 215.14 391.253 214.117 390.765 213.493C388.383 210.718 386.277 207.68 384.201 204.54C382.171 201.373 380.437 197.825 379.765 193.91C379.106 190.046 379.265 185.694 382.581 182.122C383.226 181.425 384.317 181.385 385.014 182.03C385.127 182.138 385.224 182.254 385.303 182.381L385.686 183.005" fill="#371A45"/>
<path d="M488.206 204.011C488.206 204.011 451.038 200.949 445.073 212.257C437.856 225.937 449.985 232.987 461.838 235.452C473.318 237.836 481.731 239.154 487.52 230.233C495.423 218.056 488.206 204.011 488.206 204.011" fill="white"/>
<path d="M467.147 236.483C465.457 236.195 463.685 235.838 461.839 235.452C460.697 235.214 459.554 234.934 458.426 234.61C459.554 234.934 460.697 235.214 461.839 235.452C463.688 235.835 465.457 236.192 467.15 236.483H467.147" fill="#8C7B94"/>
<path d="M472.5 237.153C470.81 237.045 469.028 236.805 467.148 236.484H467.151C469.028 236.805 470.81 237.045 472.5 237.153" fill="#371A45"/>
<path d="M483.9 234.296C485.205 233.276 486.411 231.942 487.521 230.233C488.715 228.394 489.562 226.512 490.143 224.644C489.562 226.512 488.715 228.394 487.521 230.233C486.411 231.942 485.207 233.276 483.9 234.296Z" fill="#371A45"/>
<path d="M474.343 237.215C473.741 237.215 473.125 237.194 472.499 237.153C470.808 237.045 469.026 236.805 467.15 236.484C465.457 236.192 463.689 235.836 461.839 235.452C460.697 235.215 459.555 234.934 458.426 234.61C448.139 231.651 439.1 225.027 444.545 213.328C447.669 218.453 454.803 221.528 461.839 222.992C466.502 223.961 470.663 224.755 474.343 224.755C479.724 224.752 484.087 223.065 487.521 217.773C488.998 215.51 489.943 213.172 490.502 210.871C491.323 214.659 491.707 219.609 490.143 224.644C489.563 226.512 488.715 228.394 487.521 230.233C486.412 231.942 485.205 233.276 483.901 234.297C481.163 236.44 477.988 237.215 474.343 237.215" fill="#B9AFBE"/>
<path d="M477.585 208.309C464.163 208.309 451.398 210.396 449.254 214.462C447.512 217.762 447.175 220.448 448.225 222.673C449.899 226.229 455.348 229.275 462.8 230.824C475.368 233.438 479.869 233.343 483.557 227.66C488.134 220.608 486.295 212.456 484.945 208.52C482.51 208.379 480.037 208.309 477.585 208.309V208.309ZM474.275 241.938C469.831 241.938 465.235 240.982 460.877 240.077C454.708 238.795 443.749 235.35 439.674 226.701C438.049 223.245 436.939 217.551 440.895 210.053C447.958 196.664 481.87 198.746 488.596 199.302L491.212 199.515L492.411 201.851C492.756 202.526 500.77 218.496 491.485 232.803C486.865 239.921 480.73 241.938 474.275 241.938" fill="#371A45"/>
<path d="M218.446 418.002C218.446 418.002 185.312 467.99 160.534 492.722C142.512 510.712 116.581 524.8 99.3494 530.155C73.2102 538.273 69.7069 616.061 93.2309 640.107C110.576 657.838 154.276 663.961 158.326 604.596C158.326 604.596 259.843 605.576 289.689 565.306C297.222 556.952 298.277 544.608 292.278 535.093L218.446 418.002" fill="white"/>
<path d="M122.24 652.365C111.17 652.365 100.119 647.154 93.2296 640.112C89.4817 636.281 86.4208 631.089 84.0312 625.03C86.4243 631.086 89.4847 636.278 93.2307 640.107C100.121 647.154 111.175 652.365 122.248 652.365C123.182 652.365 124.119 652.327 125.05 652.251C124.116 652.33 123.177 652.365 122.24 652.365V652.365ZM151.586 632.952C155.083 625.867 157.51 616.56 158.325 604.596C158.325 604.596 158.328 604.596 158.331 604.596C157.513 616.563 155.085 625.864 151.586 632.952" fill="#8DA5BE"/>
<path d="M290.502 564.358C291.917 562.622 293.07 560.738 293.955 558.756C293.07 560.738 291.917 562.622 290.502 564.358ZM293.969 558.726C293.971 558.718 293.974 558.713 293.977 558.707C293.974 558.713 293.971 558.721 293.969 558.726Z" fill="#8C7B94"/>
<path d="M122.248 652.365C111.175 652.365 100.121 647.154 93.2304 640.107C89.4844 636.278 86.424 631.086 84.031 625.03C82.931 622.241 81.973 619.268 81.1562 616.16C81.9797 617.262 83.2277 618.029 83.7839 619.225C87.8371 627.935 97.7942 632.63 107.684 632.63C126.384 632.63 144.841 615.845 122.661 577.702C122.661 577.702 146.596 584.889 177.727 584.889C210.435 584.889 251.081 576.951 280.235 544.413C280.835 543.749 281.502 543.088 282.209 542.44C283.867 540.925 285.859 540.242 287.814 540.242C292.059 540.242 296.119 543.463 296.146 548.342C296.146 548.388 296.146 548.434 296.146 548.482C296.146 551.979 295.417 555.47 293.978 558.707C293.976 558.713 293.973 558.718 293.97 558.726C293.968 558.737 293.962 558.745 293.957 558.756C293.071 560.738 291.918 562.622 290.503 564.358C290.242 564.677 289.972 564.993 289.693 565.301C261.227 603.708 167.594 604.599 158.97 604.599C158.549 604.599 158.33 604.596 158.33 604.596C158.328 604.596 158.325 604.596 158.325 604.596C157.51 616.56 155.082 625.867 151.586 632.952C145.206 645.871 135.27 651.414 125.05 652.251C124.119 652.327 123.182 652.365 122.248 652.365" fill="#B9AFBE"/>
<path d="M122.344 657.192C109.703 657.192 97.2988 651.193 89.7669 643.495C72.7834 626.132 68.9904 584.341 76.1027 556.202C80.3914 539.235 87.9325 528.629 97.9117 525.527C113.925 520.553 139.281 507.091 157.112 489.296C181.12 465.33 208.92 415.81 209.198 415.313C210.502 412.977 213.453 412.143 215.788 413.447C218.124 414.751 218.958 417.702 217.654 420.038C216.493 422.117 188.923 471.23 163.954 496.151C144.965 515.108 117.897 529.463 100.785 534.78C94.3885 536.767 88.8152 545.439 85.495 558.575C79.1581 583.644 82.1983 621.903 96.6924 636.721C104.578 644.78 119.12 650.526 131.654 645.901C144.403 641.203 151.955 626.804 153.491 604.267L153.802 599.709L158.37 599.753C159.369 599.782 257.768 600.241 285.797 562.422L286.191 561.955C286.212 561.931 289.979 557.873 290.886 552.581C291.34 549.946 293.848 548.18 296.48 548.628C299.118 549.082 300.89 551.587 300.436 554.222C299.148 561.704 294.604 567.104 293.416 568.408C265.622 605.485 183.213 609.097 162.768 609.416C159.561 639.672 146.05 650.92 135.004 654.992C130.876 656.512 126.594 657.192 122.344 657.192Z" fill="#371A45"/>
<path d="M418.275 293.035C418.167 293.035 418.057 293.03 417.946 293.022C414.457 292.706 332.447 284.895 324.509 247.84C324.088 245.877 325.338 243.947 327.301 243.525C329.27 243.107 331.195 244.354 331.613 246.317C337.278 272.75 396.324 283.769 418.599 285.783C420.597 285.964 422.069 287.732 421.888 289.73C421.72 291.615 420.136 293.035 418.275 293.035" fill="#371A45"/>
<path d="M190.789 606.537C190.605 606.537 190.421 606.524 190.235 606.494C189.59 606.397 174.246 603.937 158.983 591.231C144.997 579.588 128.459 556.779 129.113 514.24C129.142 512.234 130.746 510.601 132.801 510.663C134.807 510.693 136.408 512.345 136.378 514.351C135.89 546.027 144.964 569.936 163.349 585.41C177.073 596.963 191.199 599.29 191.339 599.315C193.319 599.622 194.677 601.477 194.369 603.459C194.093 605.252 192.549 606.537 190.789 606.537" fill="#371A45"/>
<path d="M158.44 608.643C157.087 608.765 156.088 608.762 154.96 608.705C153.861 608.649 152.778 608.533 151.703 608.357C150.626 608.203 149.57 607.941 148.512 607.696C147.472 607.382 146.419 607.102 145.402 606.721C141.3 605.274 137.504 602.941 134.259 600.084C131.024 597.225 128.232 593.883 126.332 590.135C125.252 588.339 124.593 586.341 123.866 584.435C123.461 583.498 123.318 582.456 123.065 581.476C122.83 580.488 122.63 579.494 122.43 578.517C122.365 578.201 122.568 577.896 122.884 577.831C123.119 577.782 123.348 577.882 123.478 578.069L123.521 578.133C124.658 579.778 125.584 581.465 126.712 583.007C127.925 584.495 128.918 586.08 130.282 587.367C132.704 590.162 135.611 592.368 138.603 594.215C141.608 596.072 144.875 597.371 148.204 598.394C149.044 598.624 149.886 598.851 150.721 599.102C151.576 599.264 152.419 599.507 153.272 599.677C154.128 599.836 154.976 600.03 155.829 600.155L158.21 600.549L158.74 600.635C160.94 600.997 162.43 603.076 162.069 605.276C161.764 607.134 160.23 608.487 158.44 608.643" fill="#371A45"/>
<path d="M511.695 469.553L505.196 460.284C502.032 455.775 497.561 452.343 492.382 450.459L405.852 418.944C404.424 418.431 400.496 436.91 399.996 438.341L408.671 461.01L511.695 469.553Z" fill="white"/>
<path d="M411.063 457.822L504.797 465.595L502.434 462.223C499.653 458.259 495.779 455.286 491.229 453.628L407.429 423.113C406.338 426.499 404.818 432.852 404.157 435.614C403.879 436.775 403.684 437.582 403.541 438.16L411.063 457.822V457.822ZM509.233 472.72C509.106 472.72 508.974 472.715 508.844 472.704L406.276 464.199L396.402 438.395L396.81 437.229C396.899 436.942 397.266 435.403 397.593 434.043C401.279 418.636 402.197 417.014 404.076 415.998C404.978 415.51 406.041 415.426 406.992 415.769L493.538 447.286C499.394 449.419 504.381 453.245 507.958 458.348L512.975 465.5C514.009 466.972 514.093 468.856 513.199 470.414C512.37 471.862 510.874 472.72 509.233 472.72" fill="#371A45"/>
<path d="M343.434 529.082C357.42 539.337 379.603 555.418 380.113 554.608L399.426 520.194L442.211 443.951C442.489 443.457 419.177 426.48 405.858 418.947C400.274 415.785 394.086 423.377 390.43 429.18L363.379 471.84L340.223 508.352C335.744 515.385 337.148 524.468 343.434 529.082" fill="white"/>
<path d="M365.641 541.014C360.665 537.466 354.099 532.714 345.435 526.358C340.588 522.805 339.549 515.69 343.075 510.158L356.834 488.458C357.603 488.509 358.357 488.536 359.088 488.536C359.099 488.536 359.113 488.536 359.124 488.536C367.08 488.536 371.546 485.156 373.938 480.531C378.026 482.629 382.287 483.42 386.393 483.42C390.983 483.42 395.379 482.429 399.119 481.165L368.239 531.531C366.459 534.434 365.587 537.722 365.641 541.014" fill="#B9AFBE"/>
<path d="M403.128 421.615C400.693 421.615 396.996 425.081 393.284 430.978L343.075 510.158C339.548 515.691 340.588 522.805 345.434 526.358C366.638 541.913 375.269 547.845 378.777 550.099L437.931 444.692C432.35 440.366 415.308 428.17 404.192 421.882C403.871 421.701 403.514 421.615 403.128 421.615V421.615ZM380.119 554.603H380.132H380.119ZM380.059 558.024C378.153 558.024 373.811 555.545 341.441 531.802C333.735 526.15 331.951 515.053 337.378 506.535L387.576 427.371C396.724 412.845 403.997 414.014 407.513 416.007C415.724 420.651 426.726 428.27 431.076 431.332C434.659 433.851 438.026 436.292 440.555 438.203C444.765 441.384 446.684 442.834 445.172 445.583L382.981 556.393L382.2 557.641L380.71 557.946C380.497 557.986 380.297 558.024 380.059 558.024" fill="#371A45"/>
<path d="M381.142 554.789L451.495 565.301C462.614 565.325 470.593 563.751 476.986 553.507L480.245 548.288L512.88 496.01C515.083 492.487 516.487 488.745 517.13 485.124C518.631 476.538 512.939 470.8 504.923 465.762L446.085 444.268C436.675 440.828 426.14 444.281 420.58 452.611L414.441 462.625L371.114 533.295C365.787 541.978 371.065 553.288 381.142 554.789" fill="white"/>
<path d="M451.748 561.931L381.637 551.457C377.973 550.909 374.974 548.671 373.408 545.312C371.842 541.956 372.055 538.217 373.991 535.06L412.477 472.285C411.726 476.797 411.178 481.568 410.981 486.439C409.439 488.283 408.06 490.362 406.893 492.614C400.805 504.386 402.438 516.919 410.608 521.147L421.39 526.72C422.008 527.554 422.658 528.375 423.342 529.18C436.793 545.004 454.924 548.944 469.628 548.944C471.845 548.944 473.98 548.855 476.011 548.703L474.129 551.719C468.766 560.311 462.37 561.925 451.748 561.931" fill="#B9AFBE"/>
<path d="M438.612 446.314C432.626 446.314 426.875 449.257 423.394 454.479L373.992 535.06C372.057 538.217 371.843 541.956 373.409 545.312C374.975 548.671 377.975 550.909 381.639 551.457L451.75 561.931C462.372 561.925 468.768 560.311 474.13 551.719L510.021 494.223C511.919 491.18 513.226 487.835 513.804 484.541C514.822 478.714 511.811 474.138 503.422 468.802L444.922 447.435C442.848 446.676 440.715 446.314 438.612 446.314ZM451.747 568.681C451.661 568.681 451.577 568.681 451.493 568.681L450.999 568.643L380.643 558.134C374.784 557.26 369.794 553.531 367.291 548.163C364.791 542.799 365.145 536.58 368.239 531.531L417.708 450.845C424.218 441.076 436.333 437.11 447.238 441.095L506.414 462.709L506.716 462.9C514.152 467.574 522.43 474.389 520.451 485.704C519.728 489.843 518.102 494.026 515.745 497.798L479.857 555.294C472.189 567.576 461.78 568.681 451.747 568.681" fill="#371A45"/>
<path d="M433.044 506.135C432.018 508.12 421.445 522.948 421.445 522.948C421.445 522.948 417.279 520.794 412.159 518.148C405.769 514.843 404.753 504.105 409.894 494.164C415.032 484.225 424.382 478.846 430.776 482.151C435.091 484.381 440.061 486.952 440.061 486.952C440.061 486.952 434.715 502.903 433.044 506.135" fill="#22A7F0"/>
<path d="M433.044 506.135C432.018 508.12 421.445 522.948 421.445 522.948C421.445 522.948 417.279 520.794 412.159 518.148C405.769 514.843 404.753 504.105 409.894 494.164C415.032 484.225 424.382 478.846 430.776 482.151C435.091 484.381 440.061 486.952 440.061 486.952C440.061 486.952 434.715 502.903 433.044 506.135" fill="#22A7F0"/>
<path d="M415.862 516.263L413.71 515.15C409.061 512.745 408.686 503.845 412.89 495.713C415.05 491.536 418.206 488.037 421.546 486.115C422.72 485.44 424.651 484.549 426.641 484.549C427.51 484.549 428.39 484.719 429.225 485.148L431.339 486.241C431.096 486.368 430.855 486.503 430.615 486.641C426.117 489.228 422.107 493.615 419.326 498.991C416.248 504.944 415.144 511.092 415.862 516.263Z" fill="#2976B4"/>
<path d="M433.043 506.135H433.056H433.043ZM426.641 484.548C424.651 484.548 422.721 485.439 421.546 486.114C418.206 488.037 415.05 491.536 412.89 495.713C408.686 503.845 409.061 512.745 413.711 515.15L420.391 518.604C424.97 512.148 429.495 505.627 430.046 504.585C431.029 502.679 433.826 494.798 435.932 488.62L429.225 485.148C428.391 484.719 427.511 484.548 426.641 484.548V484.548ZM422.494 527.29L410.609 521.147C402.438 516.919 400.805 504.385 406.893 492.613C409.674 487.238 413.681 482.853 418.182 480.264C423.153 477.404 428.177 477.01 432.325 479.154L444.178 485.283L443.26 488.026C442.703 489.684 437.781 504.321 436.04 507.685V507.688C434.987 509.723 426.703 521.382 424.192 524.908L422.494 527.29" fill="#371A45"/>
<path d="M445.475 512.512C440.335 522.451 430.984 527.829 424.594 524.525C418.2 521.217 417.185 510.479 422.326 500.541C427.466 490.599 436.816 485.221 443.207 488.528C449.601 491.833 450.616 502.571 445.475 512.512Z" fill="#22A7F0"/>
<path d="M445.475 512.513H445.489H445.475ZM439.074 490.924C437.084 490.924 435.156 491.817 433.979 492.492C430.639 494.415 427.482 497.911 425.322 502.091C421.119 510.221 421.494 519.123 426.143 521.526C430.793 523.934 438.272 519.093 442.478 510.963C446.682 502.831 446.307 493.929 441.657 491.526C440.823 491.094 439.943 490.924 439.074 490.924ZM428.743 528.886C426.756 528.886 424.828 528.446 423.041 527.522C414.871 523.297 413.24 510.763 419.326 498.991C422.107 493.616 426.116 489.228 430.614 486.642C435.585 483.78 440.61 483.385 444.757 485.529C452.93 489.757 454.561 502.288 448.472 514.063C443.715 523.264 435.852 528.886 428.743 528.886" fill="#371A45"/>
<path d="M441.964 511.886C445.25 504.275 444.62 496.456 440.309 494.226C439.474 493.794 438.594 493.624 437.725 493.624C435.735 493.624 433.807 494.515 432.63 495.192C430.829 496.229 429.085 497.725 427.521 499.539C427.602 499.078 427.7 498.613 427.808 498.146C429.625 495.74 431.76 493.769 433.98 492.492C435.157 491.817 437.085 490.924 439.075 490.924C439.944 490.924 440.824 491.094 441.659 491.526C442.385 491.901 443.006 492.436 443.524 493.1C444.769 494.706 445.403 497.071 445.403 499.812C445.403 499.939 445.403 500.068 445.401 500.198C445.333 503.5 444.367 507.31 442.479 510.96C442.315 511.276 442.136 511.578 441.964 511.886" fill="#A7DCF9"/>
<path d="M445.402 500.198C445.405 500.069 445.405 499.939 445.405 499.812C445.405 499.939 445.405 500.069 445.402 500.198ZM427.809 498.146V498.144C429.626 495.741 431.764 493.77 433.981 492.492C435.158 491.815 437.086 490.924 439.076 490.924C439.945 490.924 440.825 491.094 441.66 491.526C442.386 491.901 443.007 492.436 443.525 493.1C443.007 492.436 442.386 491.901 441.66 491.526C440.825 491.094 439.945 490.924 439.076 490.924C437.086 490.924 435.158 491.817 433.981 492.492C431.761 493.77 429.626 495.741 427.809 498.146Z" fill="#AFA3B5"/>
<path d="M428.801 522.146C427.851 522.146 426.954 521.946 426.144 521.525C421.522 519.135 421.122 510.323 425.253 502.228C424.978 502.771 424.727 503.319 424.489 503.864C425.38 502.296 426.403 500.838 427.521 499.539C426.293 506.516 428.11 512.704 432.694 515.075C433.969 515.733 435.359 516.047 436.812 516.047C437.641 516.047 438.486 515.944 439.342 515.747C436.091 519.716 432.119 522.146 428.801 522.146" fill="#2976B4"/>
<path d="M428.717 525.497C427.261 525.497 425.868 525.184 424.594 524.525C418.2 521.218 417.185 510.48 422.326 500.541C424.529 496.278 427.51 492.862 430.698 490.602C430.609 490.767 430.512 490.923 430.426 491.091C429.213 493.432 428.344 495.821 427.807 498.143C426.886 499.361 426.049 500.687 425.323 502.091C425.298 502.137 425.277 502.182 425.252 502.228C421.121 510.323 421.521 519.136 426.143 521.525C426.953 521.947 427.85 522.146 428.8 522.146C432.119 522.146 436.09 519.716 439.341 515.747C441.288 515.302 443.283 514.36 445.203 512.999C441.066 520.667 434.424 525.497 428.717 525.497" fill="#371A45"/>
<path d="M424.49 503.865C424.728 503.319 424.979 502.771 425.254 502.228C425.279 502.183 425.3 502.137 425.325 502.091C426.051 500.687 426.888 499.361 427.809 498.146C427.701 498.613 427.603 499.077 427.522 499.539C426.405 500.838 425.381 502.296 424.49 503.865Z" fill="#8098BA"/>
<path d="M425.254 502.229C425.278 502.183 425.3 502.137 425.324 502.091C426.05 500.687 426.887 499.361 427.808 498.143V498.146C426.887 499.361 426.05 500.687 425.324 502.091C425.3 502.137 425.278 502.183 425.254 502.229Z" fill="#85738E"/>
<path d="M252.673 361.769C252.673 361.769 290.057 421.898 361.44 450.146C372.583 454.555 378.825 466.675 375.045 477.896C373.05 483.817 368.511 488.55 359.091 488.534C319.779 488.469 226.505 414.832 225.627 385.767C224.809 358.61 252.673 361.769 252.673 361.769Z" fill="white"/>
<path d="M225.607 384.403C225.624 381.886 225.894 379.643 226.363 377.645C226.366 377.65 226.369 377.653 226.369 377.658C225.894 379.648 225.624 381.889 225.61 384.4L225.607 384.403Z" fill="#961B34"/>
<path d="M349.536 487.362C311.571 478.946 244.843 427.309 229.043 396.761L229.046 396.758C244.851 427.306 311.574 478.946 349.539 487.36L349.536 487.362" fill="#B9AFBE"/>
<path d="M229.043 396.761C226.926 392.668 225.721 388.95 225.627 385.769C225.611 385.305 225.605 384.848 225.608 384.403L225.611 384.4C225.608 384.848 225.613 385.302 225.627 385.766C225.724 388.947 226.926 392.662 229.045 396.758L229.043 396.761Z" fill="#371A45"/>
<path d="M373.938 480.531H373.936C374.37 479.689 374.737 478.806 375.045 477.896C375.782 475.709 376.139 473.484 376.152 471.292C376.139 473.487 375.782 475.712 375.045 477.901C374.74 478.811 374.373 479.692 373.938 480.531" fill="#B9AFBE"/>
<path d="M359.124 488.537C359.113 488.537 359.099 488.537 359.088 488.537C358.357 488.537 357.603 488.51 356.834 488.458L356.837 488.456C357.609 488.507 358.357 488.534 359.091 488.534C359.107 488.534 359.121 488.534 359.137 488.534C367.078 488.534 371.544 485.151 373.936 480.531H373.939C371.546 485.156 367.081 488.537 359.124 488.537" fill="#8C7B94"/>
<path d="M356.833 488.458C354.549 488.304 352.108 487.932 349.535 487.362L349.538 487.359C352.108 487.929 354.554 488.301 356.836 488.455L356.833 488.458Z" fill="#371A45"/>
<path d="M359.136 488.534C359.12 488.534 359.106 488.534 359.09 488.534C358.356 488.534 357.608 488.507 356.835 488.455C354.554 488.301 352.108 487.929 349.537 487.359C311.573 478.946 244.85 427.306 229.044 396.758C226.925 392.662 225.723 388.947 225.626 385.766C225.613 385.302 225.607 384.848 225.61 384.4C225.624 381.889 225.894 379.648 226.369 377.658C240.946 410.477 321.708 471.764 357.564 471.823C357.575 471.823 357.586 471.823 357.6 471.823C366.99 471.821 371.529 467.088 373.521 461.175C373.546 461.107 373.567 461.05 373.581 460.983C375.255 464.139 376.165 467.657 376.151 471.256C376.151 471.264 376.151 471.273 376.151 471.281C376.151 471.283 376.151 471.289 376.151 471.291C376.138 473.484 375.781 475.709 375.044 477.896C374.736 478.806 374.369 479.688 373.935 480.531C371.542 485.151 367.077 488.534 359.136 488.534" fill="#B9AFBE"/>
<path d="M250.038 366.383C246.606 366.389 239.751 366.982 235.191 371.211C231.786 374.367 230.158 379.214 230.349 385.623C231.105 410.652 320.829 483.747 359.099 483.809H359.14C365.314 483.809 368.838 481.519 370.569 476.386C373.493 467.703 368.719 458.107 359.701 454.538C294.429 428.71 257.53 377.588 250.038 366.383V366.383ZM359.134 493.259H359.086C336.408 493.221 300.803 471.794 275.045 451.754C249.225 431.666 221.445 403.821 220.905 385.907C220.624 376.616 223.289 369.321 228.824 364.226C238.306 355.497 252.603 357.006 253.205 357.074L255.478 357.33L256.685 359.271C257.052 359.86 294.172 418.445 363.179 445.752C376.876 451.171 384.055 465.954 379.525 479.405C376.511 488.339 369.273 493.259 359.134 493.259" fill="#371A45"/>
<path d="M432.506 564.709C431.914 564.709 431.315 564.558 430.767 564.242C429.098 563.281 428.526 561.148 429.49 559.479L455.037 515.178C456.06 513.401 457.81 512.202 459.838 511.889L467.336 510.728L495.988 464.596C497.003 462.96 499.152 462.457 500.789 463.473C502.425 464.488 502.927 466.64 501.912 468.276L473.2 514.505C472.163 516.174 470.454 517.305 468.513 517.602L461.02 518.763L435.53 562.962C434.884 564.083 433.712 564.709 432.506 564.709" fill="#371A45"/>
</svg>
