<svg width="416" height="209" viewBox="0 0 416 209" fill="none" xmlns="http://www.w3.org/2000/svg">
<path d="M78.5 176.01V141.26H0V116.95L75.95 4.03003H107.2V116.95H126.73V141.26H107.2V176.01H78.5ZM79.5 116.95L81.21 32.95L27.49 116.95H79.5Z" fill="black"/>
<g opacity="0.94">
<path opacity="0.94" d="M367.78 176.01V141.26H289.27V116.95L365.21 4.03003H396.47V116.95H416V141.26H396.47V176.01H367.78ZM368.78 116.95L370.48 32.95L316.76 116.95H368.78Z" fill="black"/>
</g>
<g opacity="0.94">
<path opacity="0.94" d="M272.62 91.8C272.62 119.4 266.9 141.007 255.46 156.62C244.02 172.233 228.29 180.043 208.27 180.05C188.003 180.05 172.233 172.16 160.96 156.38C149.686 140.6 144.05 118.44 144.05 89.9C144.05 61.6 149.746 39.54 161.14 23.72C172.533 7.90001 188.367 -0.00666245 208.64 4.2123e-06C229.146 4.2123e-06 244.936 7.92667 256.01 23.78C267.083 39.6333 272.62 62.3067 272.62 91.8ZM207.78 155.73C219.673 155.73 228.606 150.217 234.58 139.19C240.553 128.163 243.553 111.657 243.58 89.67C243.58 68.3367 240.63 52.0667 234.73 40.86C228.83 29.6533 220.22 24.06 208.9 24.08C197.1 24.08 188.186 29.6533 182.16 40.8C176.133 51.9467 173.133 68.3933 173.16 90.14C173.16 111.247 176.16 127.457 182.16 138.77C188.16 150.083 196.7 155.737 207.78 155.73Z" fill="black"/>
</g>
<path d="M181.85 77.9C181.85 77.9 179.17 69.75 180.03 68.59C180.89 67.43 192.74 62.27 207.84 59.07C222.94 55.87 223.67 57.07 224.84 57.94C226.01 58.81 227.43 68.04 227.4 69.94C227.37 71.84 181.85 77.9 181.85 77.9Z" fill="url(#paint0_linear)"/>
<path d="M253.41 139.69L252.36 142L245 158.15L238 173.6C234.51 171.15 233.43 162.21 233.59 155.4C233.728 151.61 233.469 147.816 232.82 144.08C230.793 142.999 229.041 141.466 227.7 139.6C226.936 138.58 226.244 137.507 225.63 136.39C225.18 135.57 224.95 135.04 224.95 135.04C216.76 135.44 211.18 130.13 209.86 129.27C208.54 128.41 206.06 129.22 203.59 134.76C201.37 139.76 195.75 141.76 194.64 142.12L194.46 142.18C194.22 143.52 193.96 144.73 193.7 145.82C191.61 154.65 189.06 155.82 189.06 155.82C188.78 158.68 190.49 162.82 191.01 168.17C191.299 172.699 191.299 177.241 191.01 181.77L183.64 177.19L169.22 168.19C169.22 168.19 163.76 155.29 164.1 151C164.19 149.885 164.436 148.787 164.83 147.74C165.196 146.752 165.662 145.804 166.22 144.91C166.519 144.42 166.854 143.952 167.22 143.51C167.22 143.51 167.22 142.83 167.22 141.75C167.22 141.27 167.22 140.75 167.3 140.1C167.402 138.574 167.612 137.056 167.93 135.56C168.009 135.166 168.116 134.779 168.25 134.4C168.482 133.746 168.763 133.111 169.09 132.5C169.392 131.961 169.726 131.44 170.09 130.94V130.89C170.114 130.852 170.141 130.815 170.17 130.78C170.193 130.741 170.22 130.704 170.25 130.67L170.53 130.32C170.873 129.887 171.244 129.476 171.64 129.09C171.64 129.09 171.96 127.96 172.4 126.34C172.74 125.09 173.15 123.55 173.52 122.01C174.39 118.47 174.3 117.21 176.52 115.48C178.74 113.75 179.28 112.33 180.58 111.3L180.64 111.25C181.4 110.67 182.79 109.79 183.86 109.14L185.33 108.25C185.332 106.673 185.599 105.108 186.12 103.62C185.842 103.152 185.629 102.647 185.49 102.12C185.27 101.45 185.14 100.84 185.14 100.84C184.77 101.09 184.41 101.31 184.07 101.51C180.25 103.68 177.55 102.94 177.55 102.94C176.585 103.347 175.579 103.652 174.55 103.85C173.275 104.095 171.973 104.159 170.68 104.04C166.622 103.441 162.871 101.531 160 98.6001L163.33 93.89L170.67 83.4901C171.699 83.6443 172.692 83.983 173.6 84.4901C173.811 84.6143 174.011 84.7548 174.2 84.91L174.46 85.14C174.709 85.3637 174.918 85.6273 175.08 85.9201V85.97C175.101 85.7417 175.134 85.5147 175.18 85.2901C175.259 84.8507 175.404 84.4259 175.61 84.03L175.73 83.83C175.906 83.5387 176.133 83.2813 176.4 83.0701C176.643 82.8761 176.927 82.7393 177.23 82.6701C177.23 82.4601 177.23 82.25 177.3 82.05C178.35 74.38 183.3 74.2001 183.3 74.2001C184.3 68.4401 190.17 68.3501 190.17 68.3501C190.17 68.3501 191.41 68.6401 193.36 68.9201C197.55 69.568 201.817 69.5444 206 68.8501C209.737 68.1588 213.147 66.2662 215.71 63.4601C216.094 63.038 216.446 62.5866 216.76 62.11C221.59 60.99 225.32 67.11 225.32 67.11C228.09 67.11 230.32 68.96 231.57 70.33C232.003 70.7966 232.401 71.2947 232.76 71.8201L232.85 71.7001C233.15 71.317 233.485 70.9622 233.85 70.64L234.04 70.4801C234.596 70.0481 235.196 69.676 235.83 69.3701C236.714 68.9357 237.652 68.6228 238.62 68.44L245.12 81.91L246.53 84.8201C246.164 86.2253 245.497 87.5347 244.577 88.6584C243.657 89.7821 242.505 90.6935 241.2 91.33C240.778 91.5488 240.344 91.7424 239.9 91.91C239.573 92.0293 239.239 92.1295 238.9 92.2101C235.25 93.0601 231.23 91.4301 228.9 90.2101L228.82 90.16H228.76L228.62 90.08C227.62 89.55 227.04 89.1501 227.04 89.1501C227.271 89.7847 227.452 90.4368 227.58 91.1001C227.58 91.2301 227.63 91.3701 227.65 91.4901C227.946 93.4768 227.983 95.4937 227.76 97.4901C228.322 98.958 228.702 100.49 228.89 102.05C229.092 103.042 228.947 104.072 228.48 104.97V105.03C228.597 104.953 228.721 104.886 228.85 104.83C229.262 104.647 229.691 104.503 230.13 104.4L230.39 104.34C230.7 104.28 231.06 104.23 231.45 104.19C233.364 104.068 235.282 104.351 237.08 105.02L237.25 105.09L237.6 105.21C243.6 107.49 246.15 117.12 246.15 117.12C247.207 117.879 248.112 118.829 248.82 119.92C250.557 122.39 251.641 125.259 251.97 128.26C252.69 133.89 253.41 139.69 253.41 139.69Z" fill="url(#paint1_linear)"/>
<path d="M170.82 103.91C166.728 103.376 162.926 101.51 160 98.6L163.33 93.89C165.104 96.2658 167.603 97.9998 170.45 98.83C171.533 99.1074 172.654 99.2087 173.77 99.13C173.068 100.881 172.07 102.497 170.82 103.91Z" fill="url(#paint2_linear)"/>
<path d="M224.91 104.33L219.91 111.92C219.91 111.92 215.49 119.04 207.23 118.34C198.97 117.64 191.49 110.09 185.56 113.5C179.63 116.91 176.19 124.6 176.19 124.6L179.59 123.6C179.59 123.6 173.59 127.6 172.53 130.07C172.389 130.292 172.33 130.555 172.36 130.815C172.391 131.076 172.511 131.318 172.7 131.5L169.09 132.56C169.392 132.021 169.726 131.5 170.09 131V130.95C170.114 130.912 170.141 130.875 170.17 130.84C170.193 130.801 170.22 130.764 170.25 130.73L170.53 130.38C170.873 129.947 171.244 129.536 171.64 129.15C171.64 129.15 171.96 128.02 172.4 126.4C172.74 125.15 173.15 123.61 173.52 122.07C174.39 118.53 174.3 117.27 176.52 115.54C178.74 113.81 179.28 112.39 180.58 111.36L180.64 111.31C181.4 110.73 182.79 109.85 183.86 109.2L185.33 108.31C185.332 106.733 185.599 105.168 186.12 103.68C185.841 103.212 185.629 102.707 185.49 102.18C185.27 101.51 185.14 100.9 185.14 100.9C184.77 101.15 184.41 101.37 184.07 101.57C180.25 103.74 177.55 103 177.55 103C176.584 103.407 175.579 103.712 174.55 103.91C175.432 102.291 176.053 100.543 176.39 98.73C177.137 98.452 177.836 98.0571 178.46 97.56C178.917 98.025 179.478 98.3746 180.097 98.5798C180.716 98.7849 181.375 98.8399 182.02 98.74C184.53 98.57 189.44 96.34 189.42 93.65C190.276 96.5098 191.843 99.1059 193.975 101.196C196.107 103.286 198.734 104.801 201.61 105.6C211.62 108.71 220.75 105.88 224.91 104.33Z" fill="url(#paint3_linear)"/>
<path d="M189.06 155.78C188.78 158.64 190.49 162.78 191.01 168.13C191.299 172.659 191.299 177.201 191.01 181.73L183.64 177.15C185.35 172.46 183.13 165.39 182.9 160.15C182.62 153.69 186.55 153.42 186.55 153.42C185.795 151.302 185.714 149.002 186.317 146.836C186.92 144.67 188.179 142.743 189.92 141.32C191.376 142.631 192.654 144.127 193.72 145.77C191.61 154.6 189.06 155.78 189.06 155.78Z" fill="url(#paint4_linear)"/>
<path d="M228.73 129.1C227.331 131.34 226.286 133.782 225.63 136.34C225.18 135.52 224.95 134.99 224.95 134.99C216.76 135.39 211.18 130.08 209.86 129.22C208.54 128.36 206.06 129.17 203.59 134.71C201.37 139.71 195.75 141.71 194.64 142.07C194.18 141.47 193.39 140.49 192.35 139.35C194.29 137.43 195.9 134.7 198.56 130.47C199.611 128.651 201.046 127.083 202.764 125.874C204.482 124.666 206.443 123.845 208.51 123.47C211.94 122.76 213.51 124.87 221.33 128.28C223.65 129.321 226.238 129.608 228.73 129.1Z" fill="url(#paint5_linear)"/>
<path d="M245 158.15L238 173.6C234.51 171.15 233.43 162.21 233.59 155.4C233.728 151.61 233.47 147.816 232.82 144.08C230.793 142.999 229.041 141.466 227.7 139.6C229.547 135.764 231.789 132.131 234.39 128.76C233.27 133.32 235.48 136.85 238.09 139.99C237.656 144.359 237.852 148.767 238.67 153.08C239.55 156.97 242.84 157.95 245 158.15Z" fill="url(#paint6_linear)"/>
<path d="M253.41 139.69L252.36 142C250.36 139.79 248.66 135.12 247.76 128.7C246.53 119.93 241.12 118.7 241.12 118.7C243.26 111.7 238.37 106.05 237.43 105.06L237.78 105.18C243.78 107.46 246.33 117.09 246.33 117.09C247.386 117.849 248.292 118.799 249 119.89C250.737 122.36 251.82 125.229 252.15 128.23C252.69 133.89 253.41 139.69 253.41 139.69Z" fill="url(#paint7_linear)"/>
<path d="M187.08 73.4C187.61 76.53 192.83 76.64 192.83 76.64C189.58 77.64 186.88 77.37 183.52 76.8C180.16 76.23 177.88 82.25 178.79 82.64C179.7 83.03 180.57 84.64 180.57 84.64C177.96 83.4 177.57 84.64 178.4 87.48C178.904 89.804 179.066 92.1892 178.88 94.56C178.37 91.66 176.46 87.74 175.24 85.43C175.319 84.9907 175.464 84.5658 175.67 84.17L175.79 83.97C175.966 83.6787 176.193 83.4213 176.46 83.21C176.703 83.016 176.987 82.8793 177.29 82.81C177.29 82.6 177.29 82.39 177.36 82.19C178.41 74.52 183.36 74.34 183.36 74.34C184.36 68.58 190.23 68.49 190.23 68.49C190.23 68.49 191.47 68.78 193.42 69.06C191 68.7 186.55 70.28 187.08 73.4Z" fill="url(#paint8_linear)"/>
<path d="M232.91 71.74L232.79 72.34C231.701 71.2506 230.389 70.4115 228.943 69.8813C227.498 69.3511 225.954 69.1425 224.42 69.27C223.81 72 219.11 72.48 219.11 72.48C219.11 72.48 222.76 70.48 222.29 68.15C221.82 65.82 215.82 63.7 215.82 63.7C215.798 63.6516 215.782 63.6014 215.77 63.55C216.154 63.1279 216.505 62.6766 216.82 62.2C221.65 61.08 225.38 67.2 225.38 67.2C228.15 67.2 230.38 69.05 231.63 70.42C232.062 70.8866 232.46 71.3846 232.82 71.91L232.91 71.74Z" fill="url(#paint9_linear)"/>
<path d="M171.1 135.83C170.99 136.09 167.41 144.71 164.81 147.74C165.176 146.752 165.642 145.804 166.2 144.91C166.499 144.42 166.833 143.952 167.2 143.51C167.2 143.51 167.2 142.83 167.2 141.75C167.2 141.27 167.2 140.75 167.28 140.1C168.874 139.001 170.184 137.537 171.1 135.83Z" fill="#CEC4D6"/>
<path d="M236.35 87.75C237.091 89.3236 237.986 90.8208 239.02 92.22C235.37 93.07 231.35 91.44 229.02 90.22L228.94 90.17H228.88L228.74 90.09C227.74 89.56 227.16 89.16 227.16 89.16C227.391 89.7947 227.572 90.4467 227.7 91.11C227.7 91.24 227.75 91.38 227.77 91.5C223.07 84.98 220.99 76.42 220.89 76.01C221.04 76.42 224.04 84.86 231.29 87.14C232.92 87.6752 234.639 87.8825 236.35 87.75Z" fill="#E5DFE9"/>
<path d="M246.66 84.83C246.294 86.2353 245.628 87.5447 244.708 88.6684C243.788 89.792 242.636 90.7034 241.33 91.34C240.362 90.0547 239.522 88.6783 238.82 87.23C241.5 86.2336 243.765 84.3628 245.25 81.92L246.66 84.83Z" fill="#E5DFE9"/>
<path d="M230.26 104.39C230.26 104.39 223.55 108.15 222.47 109.39C221.39 110.63 220.47 112.44 215.3 114.02C213.869 114.444 212.413 114.778 210.94 115.02C206.45 115.78 200.86 115.81 196.28 113.23C194.852 111.064 192.812 109.373 190.42 108.37C192.42 108.819 194.448 109.133 196.49 109.31H197.06C197.36 109.31 197.65 109.31 197.91 109.31C198.174 108.951 198.516 108.657 198.91 108.45C200.163 108.225 201.439 108.151 202.71 108.23H203.44C204.51 108.23 205.7 108.18 206.94 108.07C208.18 107.96 209.11 107.85 210.08 107.72L210.81 107.62C212.54 107.37 213.81 107.13 214.15 107.11C214.818 107.099 215.465 107.342 215.96 107.79L216.1 107.92L216.58 107.75C217.16 107.54 218.21 107.15 219.49 106.65L220.04 106.43L221.18 105.97L221.58 105.8C222.58 105.4 223.58 104.95 224.58 104.5L224.89 104.35C226.329 103.698 227.711 102.925 229.02 102.04C229.02 102.28 229.02 102.5 229.02 102.7C229.116 103.482 228.958 104.274 228.57 104.96V105.02C228.687 104.943 228.811 104.876 228.94 104.82C229.365 104.634 229.807 104.49 230.26 104.39Z" fill="url(#paint10_linear)"/>
<path d="M229.09 102.71C227.44 103.71 221.47 107.24 216.68 108.45L216.6 110.6C216.6 110.37 216.54 107.97 211.6 108.75C208.217 109.266 204.803 109.553 201.38 109.61C201.38 109.61 202.77 115.72 210.92 115.07C206.43 115.83 200.84 115.86 196.26 113.28C194.833 111.114 192.793 109.423 190.4 108.42C192.4 108.869 194.428 109.183 196.47 109.36H197.04C197.34 109.36 197.63 109.36 197.89 109.36C198.154 109.001 198.496 108.707 198.89 108.5C200.144 108.275 201.419 108.201 202.69 108.28H203.42C204.49 108.28 205.68 108.23 206.92 108.12C208.16 108.01 209.09 107.9 210.06 107.77L210.79 107.67C212.52 107.42 213.79 107.18 214.13 107.16C214.798 107.149 215.445 107.392 215.94 107.84L216.08 107.97L216.56 107.8C217.14 107.59 218.19 107.2 219.47 106.7L220.02 106.48L221.16 106.02L221.56 105.85C222.56 105.45 223.56 105 224.56 104.55L224.87 104.4C226.31 103.748 227.691 102.975 229 102.09C229.07 102.29 229.08 102.51 229.09 102.71Z" fill="url(#paint11_linear)"/>
<path d="M203.49 108.24V114.8L202.75 108.25L203.49 108.24Z" fill="#5C479E"/>
<path d="M210.86 107.6L210.58 114.29L210.13 107.7L210.86 107.6Z" fill="#5C479E"/>
<path d="M197.06 109.35L196.68 112.1L196.49 109.32L197.06 109.35Z" fill="#5C479E"/>
<path d="M216.31 112.66C216.31 110.76 216.11 108.79 216.01 107.8L216.15 107.93L216.63 107.76C216.731 109.4 216.624 111.047 216.31 112.66Z" fill="#5C479E"/>
<path d="M220.09 106.44L219.8 110.53L219.54 106.66L220.09 106.44Z" fill="#5C479E"/>
<path d="M221.63 105.81L221.43 108.81L221.23 105.95L221.63 105.81Z" fill="#5C479E"/>
<path d="M224.92 104.36L224.76 106.71L224.61 104.51L224.92 104.36Z" fill="#5C479E"/>
<path d="M201.18 115.6C197.77 116.6 193.75 108.68 187.18 109.29C184.954 109.586 182.788 110.227 180.76 111.19L180.82 111.14C181.58 110.56 182.97 109.68 184.04 109.03C185.878 108.361 187.845 108.122 189.79 108.33C194.54 108.6 197.83 115.19 201.18 115.6Z" fill="#ACA5B5"/>
<path d="M237.25 105C227.97 103.84 219.19 113.1 219.19 113.1C223.01 108.16 226.38 105.95 228.64 104.97L228.97 104.83C229.472 104.632 229.987 104.468 230.51 104.34C230.857 104.252 231.213 104.201 231.57 104.19C233.5 104.055 235.436 104.331 237.25 105Z" fill="#ACA5B5"/>
<path d="M179.59 123.6C175.871 125.223 172.613 127.745 170.11 130.94C170.595 130.253 171.144 129.613 171.75 129.03C171.75 129.03 172.07 127.9 172.51 126.28C174.77 125.142 177.143 124.244 179.59 123.6Z" fill="#ACA5B5"/>
<path d="M169.16 139.75C168.446 141.621 167.432 143.363 166.16 144.91C166.46 144.42 166.794 143.952 167.16 143.51C167.16 143.51 167.16 142.83 167.16 141.75C167.965 141.237 168.647 140.554 169.16 139.75Z" fill="#ACA5B5"/>
<path d="M233.94 70.68C233.59 71.01 230.61 74.01 231.52 83.01C231.52 83.01 229.62 76.27 231.63 70.37C232.063 70.8366 232.461 71.3346 232.82 71.86C233.149 71.4268 233.524 71.0311 233.94 70.68Z" fill="#C0B8CC"/>
<path d="M175.12 86.02C174.861 85.6582 174.566 85.3232 174.24 85.02C174.599 85.2892 174.899 85.6297 175.12 86.02Z" fill="#ACA5B5"/>
<path d="M178.88 94.51C177.44 89.87 176.11 87.38 175.14 86.06C175.187 85.3847 175.367 84.7255 175.67 84.12C177.273 87.3954 178.356 90.9009 178.88 94.51Z" fill="#ACA5B5"/>
<path d="M180.54 84.12C180.009 83.6072 179.352 83.2444 178.635 83.0687C177.918 82.893 177.168 82.9107 176.46 83.12C176.703 82.926 176.987 82.7893 177.29 82.72C177.29 82.51 177.29 82.3 177.36 82.1C178.643 82.3329 179.784 83.0578 180.54 84.12Z" fill="#ACA5B5"/>
<path d="M189.67 97.6C188.45 99.1727 187.113 100.65 185.67 102.02C185.45 101.35 185.32 100.74 185.32 100.74C184.94 100.96 189.67 97.6 189.67 97.6Z" fill="#ACA5B5"/>
<path d="M227.2 89.16C227.431 89.7947 227.611 90.4468 227.74 91.11C226.452 89.588 225.483 87.8232 224.89 85.92C225.764 87.651 227.114 89.0973 228.78 90.09C227.79 89.6 227.2 89.16 227.2 89.16Z" fill="#ACA5B5"/>
<path d="M194.26 101.09L195.76 103.32C193.36 105.22 189.11 107.72 186.76 108.04C184.41 108.36 182.96 107.98 182.7 106.58C182.51 105.51 184.41 103.68 185.32 102.86C185.61 102.6 185.81 102.45 185.81 102.45L186.29 103.45C186.29 103.45 183.51 106.31 185.38 106.65H185.57C187.81 106.83 194.18 100.83 194.18 100.83" fill="#34254C"/>
<path d="M185.38 106.69C185.38 106.69 183.67 106.83 183.74 105.56C184.038 104.544 184.581 103.617 185.32 102.86C185.61 102.6 185.81 102.45 185.81 102.45L186.29 103.45C186.29 103.45 183.51 106.35 185.38 106.69Z" fill="#51347F"/>
<path d="M232.93 98.82C232.288 99.6601 231.464 100.344 230.52 100.82C227.52 102.51 221.37 101.12 221.37 101.12L220.68 97.85C223.115 99.0916 225.816 99.723 228.55 99.69C229.266 99.6557 229.973 99.5175 230.65 99.28C232 98.78 232.25 97.95 231.87 97.41C231.34 96.65 227.95 97.25 227.95 97.25L228.03 94.51C229.043 94.5697 230.048 94.7305 231.03 94.99C231.759 95.1309 232.421 95.511 232.91 96.07C233.209 96.4651 233.372 96.9462 233.376 97.4417C233.38 97.9372 233.223 98.4206 232.93 98.82Z" fill="#34254C"/>
<path d="M232.93 98.82C232.247 99.2328 231.437 99.3855 230.65 99.25C233.22 98.48 231.65 95.9 231 94.96C231.73 95.1009 232.391 95.4809 232.88 96.04C233.191 96.4344 233.364 96.9196 233.373 97.4216C233.382 97.9235 233.227 98.4146 232.93 98.82Z" fill="#51347F"/>
<path d="M188.37 65.85C188.37 65.85 183.71 67.94 184.26 78.33C184.81 88.72 193.4 94.15 193.4 94.15L193.55 96.35C193.55 96.35 186.92 94.28 183.19 85.84C179.46 77.4 182.37 66.92 188.19 64.79L188.37 65.85Z" fill="url(#paint12_linear)"/>
<path d="M216.6 58.7401C216.6 58.7401 222.6 61.02 225.21 69.22C227.82 77.42 223.15 83.11 218.5 86.75L220 90.28C220 90.28 228.2 85.28 229 76.55C229.8 67.82 223.74 59.68 217.67 56.3L216.6 58.7401Z" fill="url(#paint13_linear)"/>
<path d="M221.63 102.5C221.63 102.97 217.47 103.69 215.87 103.98C209.322 105.176 202.712 106.001 196.07 106.45C195.953 106.458 195.837 106.428 195.739 106.362C195.641 106.297 195.568 106.201 195.53 106.09C193.88 100.828 192.699 95.4303 192 89.9601C191.8 88.3401 191.63 86.7 191.5 85.05C191.481 84.8008 191.548 84.5525 191.69 84.3468C191.832 84.1411 192.04 83.9904 192.28 83.9201C200.727 81.44 209.477 80.141 218.28 80.0601C218.528 80.0603 218.769 80.1444 218.963 80.2988C219.158 80.4531 219.294 80.6685 219.35 80.91C220.76 87.21 221.86 99.01 221.63 102.5Z" fill="url(#paint14_linear)"/>
<path d="M221.369 101.09C221.369 101.57 217.219 102.28 215.619 102.58C209.071 103.771 202.46 104.595 195.82 105.05C195.701 105.058 195.583 105.025 195.486 104.958C195.388 104.891 195.315 104.793 195.279 104.68C193.629 99.4362 192.454 94.0545 191.769 88.5999C191.559 86.9699 191.39 85.3299 191.26 83.6899C191.239 83.439 191.306 83.1888 191.451 82.9825C191.595 82.7762 191.807 82.6267 192.049 82.56C200.497 80.0809 209.246 78.7786 218.049 78.6899C218.298 78.6912 218.538 78.7771 218.731 78.9335C218.924 79.0898 219.057 79.3073 219.109 79.5499C220.509 85.7999 221.609 97.6 221.369 101.09Z" fill="url(#paint15_linear)"/>
<path d="M215.62 102.6C209.16 103.779 202.64 104.597 196.09 105.05C195.894 105.065 195.699 105.013 195.537 104.902C195.375 104.791 195.256 104.628 195.2 104.44C193.594 99.2707 192.447 93.9703 191.77 88.6C195.2 94.49 202.75 103.93 215.62 102.6Z" fill="url(#paint16_linear)"/>
<path d="M195 86.93C195 86.93 196.42 96.16 197.88 101.43L199.76 101.15C199.76 101.15 198.18 91.93 197.76 86.27L195 86.93Z" fill="url(#paint17_linear)"/>
<path d="M202.59 85.3C202.59 85.3 203.91 95.3 205.19 100.14L207.38 99.84C207.38 99.84 205.79 90.46 205.38 84.84L202.59 85.3Z" fill="url(#paint18_linear)"/>
<path d="M199.25 87.27C199.25 87.27 199.64 90.72 200.12 93.06L202 92.77L201.13 86.98C200.497 87.0279 199.868 87.1248 199.25 87.27Z" fill="url(#paint19_linear)"/>
<path d="M215.17 86.6001C215.193 86.9277 215.119 87.2547 214.956 87.5398C214.793 87.825 214.549 88.0553 214.255 88.2018C213.961 88.3483 213.63 88.4044 213.305 88.3628C212.979 88.3213 212.673 88.1841 212.425 87.9685C212.177 87.7529 211.999 87.4687 211.913 87.1518C211.826 86.8349 211.836 86.4996 211.941 86.1883C212.045 85.8769 212.24 85.6035 212.499 85.4027C212.759 85.2019 213.073 85.0826 213.4 85.0601C213.839 85.0299 214.272 85.1751 214.604 85.4638C214.936 85.7526 215.14 86.1612 215.17 86.6001Z" fill="url(#paint20_linear)"/>
<path d="M216.28 93.6001C216.301 93.925 216.225 94.2488 216.062 94.5307C215.899 94.8126 215.657 95.0401 215.365 95.1844C215.073 95.3288 214.745 95.3835 214.422 95.3419C214.099 95.3002 213.796 95.1639 213.55 94.9502C213.305 94.7365 213.128 94.455 213.042 94.1409C212.956 93.8269 212.965 93.4945 213.067 93.1855C213.17 92.8765 213.362 92.6048 213.618 92.4045C213.875 92.2043 214.185 92.0844 214.51 92.0601C214.949 92.0299 215.382 92.1751 215.714 92.4638C216.046 92.7526 216.249 93.1612 216.28 93.6001Z" fill="url(#paint21_linear)"/>
<path d="M219.63 73.16C219.674 73.828 219.519 74.4939 219.185 75.0738C218.85 75.6537 218.352 76.1217 217.752 76.4188C217.152 76.7159 216.478 76.8288 215.814 76.7432C215.15 76.6576 214.526 76.3774 214.022 75.9379C213.517 75.4984 213.153 74.9193 212.977 74.2736C212.801 73.6278 212.82 72.9444 213.031 72.3093C213.243 71.6743 213.638 71.1161 214.166 70.7052C214.694 70.2942 215.333 70.0488 216 70C216.446 69.9688 216.894 70.0257 217.318 70.1677C217.742 70.3096 218.133 70.5337 218.471 70.8273C218.808 71.1208 219.084 71.4779 219.283 71.8782C219.482 72.2785 219.6 72.7141 219.63 73.16Z" fill="url(#paint22_linear)"/>
<path d="M190.71 81.6001C192.25 81.2501 196.02 80.4901 200.13 79.6001C200.277 79.5779 200.416 79.5235 200.539 79.4408C200.662 79.3582 200.765 79.2493 200.84 79.122C200.916 78.9948 200.962 78.8524 200.976 78.7051C200.99 78.5577 200.971 78.4092 200.92 78.2701L200.14 75.6801C200.099 75.478 199.981 75.2997 199.812 75.1823C199.642 75.0649 199.434 75.0175 199.23 75.0501C197.37 75.3601 192.56 75.6801 189.59 76.6701C189.22 76.7901 188.82 76.8801 189.04 78.0901C189.213 79.1059 189.457 80.1084 189.77 81.0901C189.835 81.2774 189.967 81.4338 190.141 81.5283C190.315 81.6228 190.518 81.6484 190.71 81.6001Z" fill="url(#paint23_linear)"/>
<path d="M188.37 65.85C188.751 67.1643 189.299 68.4246 190 69.6C190 69.6 206.16 77.03 218.74 62.26C218.324 60.5428 217.681 58.8884 216.83 57.34C216.83 57.34 209.25 69.77 188.37 65.85Z" fill="url(#paint24_linear)"/>
<path d="M182.23 50.97C182.23 50.97 179.04 52.77 178.58 53.12C177.58 53.86 181.44 64.63 182.85 64.68C184.121 64.4719 185.367 64.1369 186.57 63.68L182.23 50.97Z" fill="url(#paint25_linear)"/>
<path d="M181.19 54.2C181.196 54.2828 181.185 54.3658 181.158 54.4443C181.131 54.5228 181.089 54.5953 181.034 54.6576C180.98 54.7198 180.913 54.7706 180.839 54.8071C180.764 54.8435 180.683 54.8649 180.6 54.87C180.518 54.8783 180.434 54.8696 180.355 54.8445C180.276 54.8194 180.203 54.7785 180.14 54.7242C180.078 54.6699 180.027 54.6034 179.991 54.5288C179.955 54.4541 179.934 54.3729 179.93 54.29C179.918 54.1229 179.973 53.9579 180.083 53.8313C180.193 53.7048 180.348 53.6269 180.515 53.615C180.682 53.6031 180.847 53.658 180.974 53.7677C181.101 53.8774 181.178 54.0329 181.19 54.2Z" fill="#C8B8D3"/>
<path d="M214.69 40.6C214.69 40.6 218.32 40.13 218.89 40.13C220.13 40.13 223.49 51.07 222.38 51.96C221.237 52.551 220.038 53.0267 218.8 53.38L214.69 40.6Z" fill="url(#paint26_linear)"/>
<path d="M217.45 42.6C217.518 42.705 217.614 42.7876 217.729 42.8375C217.843 42.8874 217.969 42.9022 218.092 42.8802C218.215 42.8583 218.328 42.8004 218.418 42.7139C218.508 42.6274 218.57 42.5163 218.596 42.3945C218.623 42.2728 218.613 42.1459 218.567 42.0299C218.522 41.9139 218.443 41.814 218.34 41.7428C218.238 41.6717 218.117 41.6325 217.992 41.6302C217.868 41.628 217.745 41.6627 217.64 41.73C217.502 41.822 217.405 41.9642 217.369 42.1266C217.334 42.2889 217.363 42.4587 217.45 42.6Z" fill="#C8B8D3"/>
<path d="M190.52 35.92L190.13 34.62C192.739 32.717 195.902 31.726 199.13 31.8L199.88 33.49L190.52 35.92Z" fill="url(#paint27_linear)"/>
<path d="M219.21 55.4L211.3 57.95L187.5 65.6C178.28 55.6 180.5 39.37 192.64 34.42C193.21 34.19 193.77 33.99 194.33 33.82C207.72 29.6 220.29 40.16 219.21 55.4Z" fill="url(#paint28_linear)"/>
<path d="M211.3 57.9501L187.5 65.6001C178.28 55.6001 180.5 39.3701 192.64 34.4201C193.21 34.1901 193.77 33.9901 194.33 33.8201C186.18 37.2001 185.46 42.6601 192.74 40.4201C196.765 39.0691 201.073 38.7865 205.24 39.6001L211.3 57.9501Z" fill="url(#paint29_linear)"/>
<path d="M219.21 55.4C218.113 58.5634 216.22 61.3914 213.714 63.612C211.208 65.8326 208.172 67.3713 204.9 68.08C193.38 70.76 187.5 65.63 187.5 65.63L219.21 55.4Z" fill="url(#paint30_linear)"/>
<path d="M219.21 55.4C217.418 58.1786 215.077 60.5609 212.33 62.4C207.23 65.89 199.13 68.78 187.5 65.63C182.44 56.12 185.37 46.51 192.5 41.93C193.044 41.5834 193.608 41.2695 194.19 40.99C203 36.68 216.27 40.11 219.21 55.4Z" fill="url(#paint31_linear)"/>
<path d="M212.33 62.4001C207.23 65.8901 199.13 68.7801 187.5 65.6301C182.44 56.1201 185.37 46.5101 192.5 41.9301C191.59 44.1701 190.39 48.6801 191.39 55.5601C192.88 65.8901 200.03 68.9801 212.31 62.4001H212.33Z" fill="url(#paint32_linear)"/>
<path d="M199.09 40.97C199.09 40.97 208.95 39.28 214.45 48.35C214.662 48.6976 214.735 49.1127 214.653 49.5116C214.571 49.9105 214.341 50.2637 214.01 50.5C213.826 50.6299 213.617 50.7199 213.397 50.7641C213.176 50.8083 212.949 50.8059 212.729 50.7569C212.51 50.7079 212.303 50.6135 212.122 50.4797C211.942 50.3459 211.791 50.1757 211.68 49.98C210.35 47.6634 208.537 45.6599 206.365 44.1053C204.193 42.5507 201.712 41.4814 199.09 40.97Z" fill="url(#paint33_linear)"/>
<path d="M216.08 52.6C216.163 52.7438 216.216 52.9025 216.238 53.067C216.259 53.2315 216.248 53.3986 216.205 53.5588C216.162 53.719 216.087 53.8691 215.986 54.0005C215.885 54.132 215.759 54.2422 215.615 54.325C215.471 54.4077 215.313 54.4613 215.148 54.4827C214.983 54.5041 214.816 54.4929 214.656 54.4497C214.496 54.4066 214.346 54.3323 214.214 54.2311C214.083 54.1299 213.973 54.0038 213.89 53.86C213.723 53.5696 213.678 53.2247 213.765 52.9012C213.852 52.5777 214.065 52.3021 214.355 52.135C214.645 51.9679 214.99 51.923 215.314 52.0102C215.637 52.0974 215.913 52.3096 216.08 52.6Z" fill="url(#paint34_linear)"/>
<path d="M236.44 126.23C235.829 127.114 235.143 127.944 234.39 128.71C231.786 132.096 229.543 135.746 227.7 139.6C226.936 138.58 226.244 137.507 225.63 136.39C226.286 133.832 227.332 131.39 228.73 129.15C231.427 128.552 234.023 127.568 236.44 126.23Z" fill="#2D2244"/>
<path d="M249 119.9C243.189 120.875 237.965 124.025 234.39 128.71C235.049 128.056 235.639 127.335 236.15 126.56C233.8 127.729 231.305 128.583 228.73 129.1C229.614 127.667 230.617 126.312 231.73 125.05C237.15 118.83 246.36 117.1 246.36 117.1C247.406 117.862 248.301 118.811 249 119.9Z" fill="url(#paint35_linear)"/>
<path d="M194.64 142.07L194.46 142.13C194.22 143.47 193.96 144.68 193.7 145.77C192.634 144.127 191.356 142.631 189.9 141.32C190.12 141.13 190.35 140.97 190.57 140.81C191.21 140.382 191.806 139.893 192.35 139.35C193.39 140.49 194.18 141.47 194.64 142.07Z" fill="#2D2244"/>
<path d="M192.35 139.35C191.806 139.893 191.209 140.382 190.57 140.81C190.35 140.97 190.12 141.13 189.9 141.32C188.002 139.594 185.908 138.097 183.66 136.86C179.016 134.131 173.513 133.252 168.25 134.4C168.482 133.746 168.763 133.111 169.09 132.5C169.392 131.961 169.726 131.44 170.09 130.94V130.89C170.114 130.852 170.141 130.815 170.17 130.78C170.193 130.741 170.22 130.704 170.25 130.67L170.53 130.32C171.08 130.24 171.72 130.16 172.43 130.12C175.902 129.836 179.39 130.42 182.58 131.82C186.29 133.679 189.607 136.236 192.35 139.35Z" fill="url(#paint36_linear)"/>
<path d="M241.33 91.34C240.909 91.5587 240.475 91.7524 240.03 91.92C239.703 92.0392 239.369 92.1394 239.03 92.22C237.996 90.8208 237.102 89.3236 236.36 87.75C237.202 87.6766 238.031 87.502 238.83 87.23C239.528 88.6778 240.366 90.0543 241.33 91.34Z" fill="#2D2244"/>
<path d="M238.82 87.23C238.02 87.502 237.191 87.6766 236.35 87.75C233.901 82.3476 233.141 76.3316 234.17 70.49C234.726 70.058 235.326 69.686 235.96 69.38C235.27 74.4807 235.844 79.6727 237.63 84.5C238 85.5 238.42 86.41 238.82 87.23Z" fill="url(#paint37_linear)"/>
<path d="M176.53 98.54C176.194 100.353 175.573 102.101 174.69 103.72C173.416 103.965 172.113 104.029 170.82 103.91C172.084 102.513 173.099 100.91 173.82 99.17C174.749 99.0911 175.662 98.8789 176.53 98.54Z" fill="#2D2244"/>
<path d="M176.53 98.5401C175.655 98.8808 174.735 99.093 173.8 99.1701C176.11 93.5301 175.06 87.5601 174.5 85.2401C174.749 85.4637 174.958 85.7273 175.12 86.0201V86.0701C175.167 85.3948 175.347 84.7355 175.65 84.1301L175.77 83.9301C177.34 90.3301 177.21 95.1301 176.53 98.5401Z" fill="url(#paint38_linear)"/>
<path d="M190.82 80.93C192.37 80.58 196.31 79.68 200.24 78.93C200.345 78.911 200.444 78.8711 200.533 78.8125C200.622 78.754 200.698 78.678 200.757 78.5893C200.816 78.5006 200.856 78.4009 200.876 78.2962C200.895 78.1915 200.893 78.0839 200.87 77.98L200.26 74.98C200.216 74.7772 200.097 74.5987 199.925 74.4815C199.754 74.3643 199.545 74.3172 199.34 74.35C196.077 74.8588 192.85 75.577 189.68 76.5C189.5 76.5614 189.348 76.6846 189.251 76.8477C189.154 77.0107 189.118 77.2029 189.15 77.39C189.323 78.4059 189.567 79.4083 189.88 80.39C189.938 80.5829 190.068 80.7463 190.243 80.8467C190.417 80.9471 190.624 80.9769 190.82 80.93Z" fill="url(#paint39_linear)"/>
<path d="M165.66 97.6C164.226 98.1622 162.701 98.4571 161.16 98.47C159.322 98.4992 157.502 98.1057 155.84 97.32C155.69 97.5613 155.475 97.7553 155.22 97.88C153.962 98.4286 152.563 98.5685 151.22 98.28C147.22 97.76 145.82 95.64 145.87 94.06C145.893 93.8504 145.967 93.6497 146.086 93.4754C146.204 93.301 146.364 93.1584 146.55 93.06C147.682 92.5355 148.913 92.2561 150.16 92.24C151.26 92.17 151.56 91.83 151.03 91.08L150.94 90.97C150.27 90.32 148.07 90.29 146.82 89.63C146.149 89.182 145.61 88.563 145.259 87.837C144.907 87.1109 144.756 86.3041 144.82 85.5C144.82 84.64 145.61 84.15 146.65 83.99C147.835 83.8401 149.038 84.0164 150.13 84.5C152.25 85.5 153.01 85.09 153.13 83.98C153.18 83.19 151.55 82.12 150.06 81.1C149.45 80.67 148.86 80.26 148.42 79.88C146.91 78.56 147.83 75.81 150.48 75.31C150.738 75.2588 151.003 75.2588 151.26 75.31C153.34 75.71 154.26 79.31 155.46 78.77C156.66 78.23 155.81 77 153.94 75.08C153.7 74.82 153.44 74.55 153.2 74.25C151.57 72.32 150.15 69.69 151.98 68.33C152.198 68.1766 152.447 68.0713 152.709 68.0213C152.971 67.9713 153.241 67.9777 153.5 68.04C155.82 68.46 159.12 71.95 161.05 76.25C161.515 77.3398 162.074 78.3871 162.72 79.38C163.45 80.38 163.79 80.28 163.92 80.12C163.955 80.0862 163.982 80.0452 164 80C164.5 79.25 164.81 74.49 165.08 71.47C165.08 70.98 165.18 70.47 165.25 70.05C165.62 67.72 166.4 65.96 167.84 65.59C168.069 65.5301 168.304 65.4965 168.54 65.49C169.79 65.49 170.45 66.49 170.75 68.87C170.816 69.4408 170.833 70.0163 170.8 70.59C170.67 72.59 169.99 74.46 170.02 76.82C170.07 79.82 171.87 83.02 172.45 86.93C173.03 90.84 171 95.52 165.66 97.6Z" fill="url(#paint40_linear)"/>
<path d="M156.35 72.4899C156.15 74.1899 154.35 74.3199 153.1 74.2099C152.92 73.9999 152.74 73.79 152.57 73.56C151.2 71.73 150.25 69.51 151.88 68.29C152.098 68.1365 152.346 68.0313 152.608 67.9813C152.871 67.9313 153.14 67.9377 153.4 67.9999C153.9 68.6099 154.91 69.3899 155.62 70.3199C156.14 70.9183 156.403 71.6986 156.35 72.4899Z" fill="url(#paint41_linear)"/>
<path d="M153.15 78.88C153 79.5836 152.585 80.2025 151.991 80.6084C151.397 81.0143 150.67 81.176 149.96 81.06C149.45 80.7 148.96 80.35 148.54 80.06L148.32 79.88C146.81 78.56 147.73 75.81 150.38 75.31C150.638 75.2588 150.903 75.2588 151.16 75.31C151.738 75.9242 152.254 76.5941 152.7 77.31C153.042 77.7581 153.203 78.3187 153.15 78.88Z" fill="url(#paint42_linear)"/>
<path d="M151.77 90.98C151.479 91.031 151.182 91.031 150.89 90.98L149.42 90.62C148.501 90.3912 147.612 90.0556 146.77 89.62C146.099 89.172 145.56 88.553 145.209 87.827C144.857 87.1009 144.706 86.2941 144.77 85.49C144.77 84.63 145.56 84.14 146.6 83.98C147.469 84.7967 148.462 85.4716 149.54 85.98C149.83 86.09 150.14 86.21 150.44 86.35C151.66 86.9 152.85 87.68 153.03 88.43C153.23 89.3 153.17 90.73 151.77 90.98Z" fill="url(#paint43_linear)"/>
<path d="M155.22 97.9C154.128 98.3988 152.913 98.559 151.73 98.36L151.17 98.3C147.17 97.78 145.77 95.66 145.82 94.08C145.843 93.8704 145.917 93.6697 146.035 93.4953C146.154 93.321 146.313 93.1784 146.5 93.08C146.59 93.08 148.19 92.45 151.97 94.08L152.3 94.22C155.93 95.67 156.81 96.75 155.22 97.9Z" fill="url(#paint44_linear)"/>
<path d="M161.29 90.41C161.19 90.21 158.18 84.41 162.62 79.34C163.35 80.34 163.69 80.24 163.82 80.08L163.92 80.28C163.92 80.28 159.75 86.25 161.29 90.41Z" fill="url(#paint45_linear)"/>
<path d="M165.66 97.6001C164.226 98.1623 162.701 98.4571 161.16 98.47C170.85 96.26 169.63 87.1901 168.47 84.3701C166.963 80.3374 166.995 75.8906 168.56 71.8801C169.84 68.4201 168.99 66.3101 168.44 65.4301C169.69 65.4301 170.35 66.4301 170.65 68.8101C170.716 69.3809 170.733 69.9563 170.7 70.53C170.57 72.53 169.89 74.4001 169.92 76.7601C169.97 79.7601 171.77 82.9601 172.35 86.8701C172.93 90.7801 171 95.5201 165.66 97.6001Z" fill="url(#paint46_linear)"/>
<path d="M244.91 86.7C246.424 86.9802 247.976 86.9802 249.49 86.7C251.296 86.3809 253.005 85.656 254.49 84.5799C254.681 84.7881 254.927 84.9373 255.2 85.0099C256.539 85.3079 257.938 85.1785 259.2 84.6399C263.02 83.3899 264.01 81.0499 263.67 79.4999C263.614 79.2896 263.506 79.0967 263.356 78.9393C263.205 78.782 263.018 78.6652 262.81 78.5999C261.601 78.289 260.339 78.2412 259.11 78.4599C258.01 78.5899 257.66 78.3199 258.04 77.4599C258.059 77.4179 258.083 77.3777 258.11 77.34C258.64 76.57 260.8 76.1399 261.9 75.2499C262.481 74.688 262.9 73.9807 263.115 73.2015C263.329 72.4224 263.331 71.6 263.12 70.8199C262.94 69.9799 262.12 69.6399 261.05 69.6799C259.856 69.753 258.705 70.1506 257.72 70.8299C255.82 72.1699 255 71.9499 254.72 70.8299C254.51 70.0599 255.92 68.71 257.19 67.42C257.681 66.9467 258.145 66.4459 258.58 65.92C259.82 64.34 258.41 61.8099 255.71 61.8199C255.447 61.8172 255.185 61.8647 254.94 61.9599C252.94 62.7399 252.77 66.3999 251.46 66.1399C249.99 65.8299 250.78 64.4699 252.26 62.2299C252.45 61.9299 252.65 61.6199 252.84 61.2299C254.08 59.0299 254.99 56.2299 252.94 55.2299C252.696 55.121 252.432 55.0647 252.165 55.0647C251.898 55.0647 251.634 55.121 251.39 55.2299C249.19 56.0799 246.59 60.12 245.49 64.7C245.242 65.8602 244.887 66.995 244.43 68.09C243.91 69.24 243.55 69.17 243.43 69.09C243.392 69.0641 243.362 69.0299 243.34 68.9899C242.7 68.3499 241.52 63.73 240.69 60.81C240.56 60.33 240.41 59.88 240.26 59.45C239.45 57.22 238.36 55.6299 236.89 55.5399C236.65 55.5189 236.409 55.5189 236.17 55.5399C234.94 55.7499 234.48 56.8599 234.63 59.2799C234.67 59.8501 234.761 60.4156 234.9 60.9699C235.41 62.9699 236.42 64.6299 236.82 66.9699C237.34 69.9699 236.16 73.3999 236.32 77.3499C236.48 81.2999 239.23 85.6 244.91 86.7Z" fill="url(#paint47_linear)"/>
<path d="M249.38 60.28C249.89 61.91 251.73 61.69 252.9 61.36C253.04 61.12 253.17 60.88 253.29 60.62C254.29 58.56 254.82 56.21 253 55.32C252.756 55.2111 252.492 55.1548 252.225 55.1548C251.958 55.1548 251.693 55.2111 251.45 55.32C251.07 56.02 250.22 56.97 249.7 58.01C249.303 58.6967 249.188 59.5105 249.38 60.28Z" fill="url(#paint48_linear)"/>
<path d="M253.71 65.95C253.986 66.6154 254.508 67.1482 255.168 67.4371C255.828 67.726 256.574 67.7486 257.25 67.5C257.69 67.06 258.12 66.62 258.45 66.22C258.52 66.15 258.58 66.07 258.64 66C259.88 64.42 258.47 61.89 255.77 61.9C255.506 61.8973 255.245 61.9448 255 62.04C254.543 62.7399 254.158 63.4836 253.85 64.26C253.585 64.7838 253.535 65.3899 253.71 65.95Z" fill="url(#paint49_linear)"/>
<path d="M257.32 77.5999C257.616 77.5744 257.906 77.5035 258.18 77.3899L259.55 76.7599C260.413 76.3728 261.225 75.8825 261.97 75.2999C262.551 74.738 262.97 74.0307 263.185 73.2515C263.399 72.4724 263.401 71.65 263.19 70.8699C263.01 70.0299 262.19 69.6899 261.12 69.7299C260.405 70.6779 259.552 71.5138 258.59 72.2099C258.311 72.3725 258.041 72.5494 257.78 72.7399C256.68 73.5099 255.65 74.4999 255.62 75.2699C255.57 76.2099 255.9 77.5999 257.32 77.5999Z" fill="url(#paint50_linear)"/>
<path d="M255.22 85.0299C256.384 85.319 257.607 85.2493 258.73 84.8299C258.9 84.8299 259.08 84.73 259.27 84.66C263.09 83.41 264.08 81.07 263.74 79.52C263.684 79.3096 263.576 79.1167 263.426 78.9594C263.276 78.802 263.088 78.6852 262.88 78.62C262.78 78.62 261.1 78.31 257.68 80.57L257.38 80.77C254.1 82.97 253.44 84.1999 255.22 85.0299Z" fill="url(#paint51_linear)"/>
<path d="M247.86 78.8C247.93 78.59 249.8 72.31 244.49 68.17C243.97 69.32 243.61 69.25 243.49 69.17L243.43 69.38C243.43 69.38 248.6 74.42 247.86 78.8Z" fill="url(#paint52_linear)"/>
<path d="M244.91 86.7C246.424 86.9802 247.977 86.9802 249.49 86.7C239.56 86.33 239.08 77.18 239.69 74.2C240.418 69.9548 239.557 65.5902 237.27 61.94C235.38 58.78 235.82 56.55 236.19 55.58C234.96 55.79 234.5 56.9 234.65 59.32C234.691 59.8901 234.781 60.4556 234.92 61.01C235.43 63.01 236.44 64.67 236.84 67.01C237.36 70.01 236.18 73.44 236.34 77.39C236.5 81.34 239.23 85.6 244.91 86.7Z" fill="url(#paint53_linear)"/>
<path d="M236.67 174.16C236.67 174.16 235.29 169.61 235.6 167.22C235.91 164.83 249.6 131.49 267.47 131.54L236.67 174.16Z" fill="#ACA5B5"/>
<path d="M240.89 185.68C240.89 185.68 236.89 182.49 236.53 171.99C236.17 161.49 257.53 124.99 270.53 132.59L240.89 185.68Z" fill="url(#paint54_linear)"/>
<path d="M273.9 145.68C273.9 146.11 273.9 146.54 273.9 146.99C273.808 149.35 273.588 151.704 273.24 154.04C273.18 154.46 273.12 154.88 273.04 155.3C272.69 157.48 272.22 159.76 271.61 162.12C271.51 162.52 271.4 162.93 271.29 163.34C270.537 166.08 269.646 168.78 268.62 171.43C268.47 171.82 268.32 172.21 268.16 172.61C267.22 174.94 266.16 177.31 264.92 179.7C264.73 180.08 264.53 180.46 264.33 180.84C263.24 182.84 262.05 184.94 260.74 186.99L260.41 187.5L259.6 187.95C250.13 192.95 238.72 186.46 238.68 181.71V181.6C238.712 181.174 238.769 180.75 238.85 180.33C239.12 178.82 239.7 176.44 240.51 173.58C240.63 173.19 240.74 172.78 240.87 172.37C241.53 170.11 242.32 167.6 243.21 165.01C243.35 164.61 243.49 164.22 243.62 163.82C244.56 161.15 245.62 158.44 246.67 155.82L247.16 154.65C248.16 152.39 249.16 150.24 250.16 148.32C250.36 147.94 250.57 147.56 250.78 147.19C250.99 146.82 251.29 146.33 251.54 145.92C252.548 144.281 253.647 142.698 254.83 141.18L255.68 140.12C257.552 137.793 259.743 135.743 262.19 134.03C262.68 133.71 263.19 133.41 263.65 133.16C266.24 131.75 268.65 131.38 270.51 132.16C271.44 132.53 272.27 133.88 272.88 136C273.01 136.45 273.12 136.92 273.23 137.43C273.743 140.149 273.968 142.914 273.9 145.68Z" fill="url(#paint55_linear)"/>
<path d="M273.23 137.39L262.23 134.01C262.72 133.69 263.23 133.39 263.69 133.14L272.92 135.96C273 136.41 273.12 136.88 273.23 137.39Z" fill="#988CA5"/>
<path d="M273.9 145.68C273.9 146.11 273.9 146.54 273.9 146.99L254.9 141.16L255.75 140.1L273.9 145.68Z" fill="#988CA5"/>
<path d="M273.21 154.04C273.15 154.46 273.09 154.88 273.01 155.3L250.16 148.3C250.36 147.92 250.57 147.54 250.78 147.17L273.21 154.04Z" fill="#988CA5"/>
<path d="M271.58 162.12C271.48 162.52 271.37 162.93 271.26 163.34L246.64 155.8L247.13 154.63L271.58 162.12Z" fill="#988CA5"/>
<path d="M268.59 171.43C268.44 171.82 268.29 172.21 268.13 172.61L243.18 164.97C243.32 164.57 243.46 164.18 243.59 163.78L268.59 171.43Z" fill="#988CA5"/>
<path d="M264.89 179.7C264.7 180.08 264.5 180.46 264.3 180.84L240.48 173.54C240.6 173.15 240.71 172.74 240.84 172.33L264.89 179.7Z" fill="#988CA5"/>
<path d="M260.71 186.99L260.38 187.5L259.57 187.95L238.65 181.6C238.683 181.174 238.74 180.75 238.82 180.33L260.71 186.99Z" fill="#988CA5"/>
<path d="M193.3 182.97C193.3 182.97 191.52 178.56 189.77 176.9C188.02 175.24 156.43 157.9 142.56 169.15L193.3 182.97Z" fill="#ACA5B5"/>
<path d="M197.25 194.6C197.25 194.6 198.35 189.6 192.05 181.21C185.75 172.82 146.15 157.8 140.83 171.93L197.25 194.6Z" fill="url(#paint56_linear)"/>
<path d="M146.44 184.19C146.71 184.52 146.99 184.86 147.29 185.19C148.842 186.973 150.491 188.668 152.23 190.27L153.17 191.13C154.816 192.603 156.616 194.07 158.57 195.53L159.57 196.27C161.874 197.933 164.264 199.475 166.73 200.89L167.83 201.52C170.03 202.747 172.363 203.907 174.83 205L176.01 205.52C178.14 206.43 180.36 207.28 182.67 208.05L183.24 208.24C183.55 208.24 183.85 208.15 184.15 208.09C194.66 206.03 199.46 193.82 196.51 190.09L196.41 189.97C196.118 189.655 195.808 189.357 195.48 189.08C194.32 188.08 192.38 186.59 189.95 184.88L188.95 184.16C187.01 182.82 184.82 181.36 182.5 179.91C182.15 179.68 181.79 179.46 181.43 179.24C179.03 177.75 176.52 176.29 174.05 174.95C173.68 174.74 173.3 174.54 172.93 174.35C170.75 173.2 168.61 172.16 166.6 171.35L165.41 170.86L164.02 170.35C162.204 169.711 160.354 169.17 158.48 168.73C158.03 168.62 157.58 168.53 157.15 168.44C154.233 167.799 151.239 167.58 148.26 167.79C147.67 167.85 147.11 167.92 146.58 168.02C143.68 168.56 141.58 169.77 140.58 171.55C140.09 172.42 140.29 173.99 141.15 176.02C141.33 176.45 141.54 176.89 141.78 177.35C143.083 179.791 144.645 182.084 146.44 184.19Z" fill="url(#paint57_linear)"/>
<path d="M141.76 177.32L148.22 167.76C147.63 167.82 147.07 167.89 146.54 167.99L141.13 175.99C141.31 176.42 141.52 176.86 141.76 177.32Z" fill="#988CA5"/>
<path d="M146.44 184.19C146.71 184.52 146.99 184.86 147.29 185.19L158.44 168.7C157.99 168.59 157.54 168.5 157.11 168.41L146.44 184.19Z" fill="#988CA5"/>
<path d="M152.23 190.27L153.17 191.13L166.56 171.32L165.37 170.83L152.23 190.27Z" fill="#988CA5"/>
<path d="M158.57 195.53L159.57 196.27L174 174.95C173.63 174.74 173.25 174.54 172.88 174.35L158.57 195.53Z" fill="#988CA5"/>
<path d="M166.75 200.89L167.85 201.52L182.46 179.91C182.11 179.68 181.75 179.46 181.39 179.24L166.75 200.89Z" fill="#988CA5"/>
<path d="M174.82 205L176 205.52L190 184.88L189 184.16L174.82 205Z" fill="#988CA5"/>
<path d="M182.66 208.05L183.23 208.24C183.54 208.24 183.84 208.15 184.14 208.09L196.4 189.97C196.109 189.655 195.798 189.358 195.47 189.08L182.66 208.05Z" fill="#988CA5"/>
<path style="mix-blend-mode:overlay" d="M273.23 137.39C273.12 136.88 273.01 136.39 272.88 135.96C272.27 133.84 271.44 132.49 270.51 132.12C269.837 131.86 269.121 131.731 268.4 131.74C268.07 131.669 267.736 131.619 267.4 131.59V131.54H266.77C265.912 131.533 265.057 131.644 264.23 131.87C260.23 132.72 256.54 135.13 253.17 138.31C252.93 136.26 252.46 132.21 252.08 128.23C251.77 125.239 250.71 122.374 249 119.9C248.292 118.809 247.386 117.859 246.33 117.1C246.33 117.1 243.78 107.47 237.78 105.19L237.43 105.07L237.26 105C235.462 104.331 233.544 104.048 231.63 104.17C231.272 104.181 230.917 104.231 230.57 104.32L230.31 104.38C229.871 104.483 229.442 104.627 229.03 104.81L228.7 104.95V104.9V104.84V104.77V104.68C228.7 104.54 228.79 104.37 228.83 104.17C228.83 104.17 228.83 104.08 228.83 104.04V103.98C228.83 103.98 228.83 103.89 228.83 103.85V103.6C228.83 103.6 228.83 103.5 228.83 103.45V103.38C228.835 103.327 228.835 103.273 228.83 103.22V102.92C228.83 102.76 228.83 102.59 228.83 102.4C228.83 102.21 228.83 102.17 228.83 102.04C228.83 101.91 228.78 101.6 228.74 101.35C229.283 101.232 229.808 101.04 230.3 100.78C231.244 100.304 232.068 99.6201 232.71 98.78C233.006 98.3746 233.161 97.8835 233.152 97.3816C233.143 96.8796 232.97 96.3944 232.66 96C232.171 95.4409 231.509 95.0609 230.78 94.92C229.818 94.6617 228.833 94.5009 227.84 94.44C227.832 93.4351 227.748 92.4323 227.59 91.44C227.59 91.32 227.59 91.18 227.52 91.05C227.392 90.3867 227.211 89.7347 226.98 89.1C226.98 89.1 227.57 89.5 228.56 90.03L228.7 90.11H228.76L228.84 90.16C231.13 91.35 235.15 92.98 238.84 92.16C239.179 92.0794 239.513 91.9792 239.84 91.86C240.284 91.6923 240.718 91.4987 241.14 91.28C243.102 90.3023 244.702 88.7264 245.71 86.78C246.906 86.9097 248.115 86.8693 249.3 86.66C251.105 86.3409 252.815 85.6161 254.3 84.54C254.491 84.7481 254.737 84.8973 255.01 84.97H255.13H255.24H255.29H255.39H255.45H255.56H255.63H255.74H256.74L257.3 84.9L257.6 84.85H257.67L257.92 84.79H258.01L258.25 84.73H258.36H258.51H258.63H258.68L259.05 84.61C262.87 83.36 263.86 81.02 263.52 79.47C263.464 79.2596 263.356 79.0667 263.206 78.9094C263.055 78.752 262.867 78.6352 262.66 78.57C261.451 78.259 260.189 78.2112 258.96 78.43C257.86 78.56 257.51 78.29 257.89 77.43C257.909 77.3879 257.933 77.3477 257.96 77.31L259.33 76.68C260.192 76.2928 261.005 75.8025 261.75 75.22C262.331 74.658 262.75 73.9507 262.965 73.1716C263.179 72.3924 263.181 71.57 262.97 70.79C262.79 69.95 261.97 69.61 260.9 69.65C259.706 69.723 258.554 70.1206 257.57 70.8C255.67 72.14 254.85 71.92 254.57 70.8C254.36 70.03 255.77 68.68 257.04 67.39L257.13 67.31C257.386 67.1953 257.617 67.0298 257.808 66.8236C257.998 66.6173 258.145 66.3746 258.24 66.11C258.302 66.048 258.359 65.9811 258.41 65.91C259.65 64.33 258.24 61.8 255.54 61.81C255.277 61.8073 255.015 61.8548 254.77 61.95C252.77 62.73 252.6 66.39 251.29 66.13C249.82 65.82 250.61 64.46 252.09 62.22C252.28 61.92 252.48 61.61 252.67 61.22L252.72 61.13C252.818 61.0503 252.898 60.9517 252.957 60.8399C253.015 60.7282 253.05 60.6057 253.06 60.48C253.082 60.4214 253.109 60.3646 253.14 60.31C253.14 60.26 253.19 60.21 253.21 60.15L253.28 59.99C253.35 59.83 253.41 59.67 253.47 59.5V59.43V59.31V59.21C253.47 59.21 253.47 59.14 253.47 59.1V59V58.9V58.79V58.69C253.474 58.6568 253.474 58.6231 253.47 58.59V58.48C253.47 58.48 253.47 58.41 253.47 58.38C253.47 58.35 253.47 58.31 253.47 58.28C253.47 58.25 253.47 58.21 253.47 58.17C253.47 58.13 253.47 58.11 253.47 58.08C253.465 58.0201 253.465 57.9599 253.47 57.9C253.47 57.9 253.47 57.83 253.47 57.8C253.47 57.77 253.47 57.73 253.47 57.69V57.6C253.475 57.5668 253.475 57.5331 253.47 57.5V57.31C253.47 57.31 253.47 57.25 253.47 57.22V57.13C253.47 57.04 253.47 57.04 253.47 56.95C253.47 56.95 253.47 56.89 253.47 56.86C253.474 56.8301 253.474 56.7998 253.47 56.77C253.47 56.77 253.47 56.72 253.47 56.69V56.6C253.47 56.6 253.47 56.6 253.47 56.52V56.42L253.42 56.3C253.425 56.2736 253.425 56.2464 253.42 56.22C253.422 56.1967 253.422 56.1733 253.42 56.15V56.07L253.37 56L253.32 55.93V55.86L253.26 55.8L253.2 55.74C253.182 55.7118 253.158 55.6879 253.13 55.67L253.07 55.62C253.048 55.5916 253.021 55.5678 252.99 55.55L252.93 55.5L252.83 55.44H252.77L252.6 55.35C252.356 55.241 252.092 55.1847 251.825 55.1847C251.558 55.1847 251.294 55.241 251.05 55.35C248.85 56.2 246.25 60.24 245.15 64.82C244.902 65.9802 244.547 67.115 244.09 68.21C243.57 69.36 243.21 69.29 243.09 69.21C243.052 69.1841 243.022 69.1499 243 69.11C242.36 68.47 241.18 63.85 240.35 60.93C240.22 60.45 240.07 60 239.92 59.57C239.11 57.34 238.02 55.75 236.55 55.66H235.82H235.63L235.46 55.72L235.32 55.79L235.18 55.89L235.05 56L234.95 56.12C234.913 56.1676 234.88 56.2177 234.85 56.27C234.817 56.3237 234.79 56.3806 234.77 56.44C234.77 56.51 234.72 56.57 234.7 56.64L234.65 56.84C234.65 56.84 234.65 56.84 234.65 56.9C234.65 56.96 234.65 57.06 234.6 57.14V57.21V57.48V57.54C234.6 57.62 234.6 57.71 234.6 57.81V58.67C234.6 58.8 234.6 58.93 234.6 59.07C234.64 59.6401 234.731 60.2056 234.87 60.76C235.38 62.76 236.39 64.42 236.79 66.76C236.894 67.3977 236.938 68.044 236.92 68.69C236.6 68.81 236.26 68.95 235.92 69.12C235.286 69.4259 234.686 69.798 234.13 70.23L233.94 70.39L233.66 70.65L233.57 70.74L233.39 70.91L233.25 71.06L233.13 71.19C233.071 71.2521 233.018 71.319 232.97 71.39L232.91 71.45L232.82 71.57C232.46 71.0446 232.063 70.5465 231.63 70.08C230.514 68.8257 229.115 67.8556 227.55 67.25C227.39 66.85 227.21 66.47 227.03 66.08C226.53 62.7 225.62 58.24 224.83 57.65C224.04 57.06 223.5 56.38 219.03 56.83L218.65 56.58C218.868 56.1027 219.055 55.6116 219.21 55.11C219.26 54.39 219.28 53.67 219.27 52.97C220.349 52.6584 221.391 52.2327 222.38 51.7C223.49 50.81 220.13 39.88 218.89 39.87C218.45 39.87 216.2 40.15 215.19 40.27C213.42 37.8125 211.071 35.8295 208.352 34.4968C205.633 33.1642 202.626 32.5229 199.6 32.63L199.1 31.51C195.871 31.4359 192.709 32.427 190.1 34.33L190.38 35.26C187.698 36.8827 185.492 39.184 183.984 41.9317C182.476 44.6794 181.719 47.7763 181.79 50.91C180.92 51.41 178.91 52.56 178.55 52.83C177.55 53.57 181.41 64.34 182.82 64.39C183.907 64.2379 184.974 63.9628 186 63.57C186.34 64.02 186.68 64.45 187.06 64.88C182.97 66.46 180.39 67.77 180 68.3C179.47 69.01 180.28 72.38 181 74.86C179.57 75.81 177.91 77.77 177.35 81.86C177.35 82.06 177.3 82.27 177.28 82.48C176.977 82.5493 176.693 82.686 176.45 82.88C176.183 83.0912 175.956 83.3486 175.78 83.64L175.66 83.84L175.54 84.08C175.54 84.08 175.54 84.08 175.54 84.14L175.45 84.37L175.36 84.67V84.73L175.3 85.02V85.08C175.3 85.16 175.3 85.24 175.25 85.32C175.255 85.3463 175.255 85.3736 175.25 85.4C175.25 85.51 175.25 85.62 175.25 85.74V85.69V85.63L175.19 85.55C175.154 85.5085 175.121 85.4651 175.09 85.42L175 85.32L174.91 85.24L174.83 85.17L174.67 85.03C174.481 84.8747 174.28 84.7342 174.07 84.61C173.443 84.2432 172.771 83.9607 172.07 83.77C171.32 81.22 170.39 78.97 170.35 76.77C170.35 74.41 171 72.58 171.13 70.54C171.163 69.9663 171.146 69.3908 171.08 68.82L171.02 68.43V68.36L170.96 68.02V67.94C170.96 67.84 170.96 67.73 170.89 67.63C170.872 67.5418 170.849 67.455 170.82 67.37V67.31C170.82 67.22 170.76 67.13 170.74 67.05V66.99L170.65 66.76V66.71L170.56 66.52L170.46 66.34C170.46 66.29 170.38 66.23 170.34 66.19L170.22 66.06L170.1 65.96L169.96 65.87L169.8 65.8H169.65H169.47H168.85H168.76H168.69H168.52C167.08 66.17 166.3 67.93 165.93 70.26C165.86 70.72 165.8 71.19 165.76 71.68C165.49 74.68 165.18 79.46 164.68 80.21C164.663 80.2537 164.64 80.2942 164.61 80.33C164.47 80.49 164.13 80.62 163.4 79.59C162.753 78.5971 162.195 77.5498 161.73 76.46C159.8 72.16 156.5 68.67 154.18 68.25C153.92 68.1877 153.651 68.1813 153.389 68.2313C153.127 68.2813 152.878 68.3865 152.66 68.54C152.603 68.5752 152.553 68.6191 152.51 68.67H152.45L152.37 68.76V68.82C152.344 68.8407 152.321 68.8642 152.3 68.89L152.25 68.96L152.19 69.04C152.188 69.0633 152.188 69.0867 152.19 69.11L152.14 69.18C152.143 69.2065 152.143 69.2334 152.14 69.26V69.34V69.41V69.5C152.144 69.5231 152.144 69.5468 152.14 69.57V69.67C152.14 69.67 152.14 69.75 152.14 69.79C152.14 69.83 152.14 69.86 152.14 69.9C152.14 69.94 152.14 69.9 152.14 69.98C152.145 70.0098 152.145 70.0402 152.14 70.07V70.33C152.14 70.33 152.14 70.39 152.14 70.42C152.135 70.4498 152.135 70.4802 152.14 70.51C152.135 70.5432 152.135 70.5768 152.14 70.61C152.14 70.61 152.14 70.67 152.14 70.7C152.14 70.73 152.14 70.76 152.14 70.79C152.14 70.82 152.14 70.85 152.14 70.88V70.98C152.135 71.0098 152.135 71.0401 152.14 71.07V71.18V71.27C152.152 71.3279 152.169 71.3847 152.19 71.44V71.53C152.186 71.5632 152.186 71.5967 152.19 71.63V71.73L152.24 71.82C152.234 71.8531 152.234 71.8869 152.24 71.92V72.02L152.29 72.12V72.21L152.34 72.31C152.353 72.342 152.369 72.3722 152.39 72.4L152.44 72.5C152.46 72.5277 152.477 72.558 152.49 72.59L152.55 72.7V72.77C152.64 72.92 152.73 73.07 152.83 73.21L152.93 73.35L153.03 73.49L153.13 73.64C153.164 73.7609 153.223 73.8737 153.302 73.9716C153.381 74.0695 153.479 74.1506 153.59 74.21C153.608 74.241 153.631 74.2682 153.66 74.29C153.9 74.59 154.16 74.86 154.4 75.12C156.27 77.04 157.3 78.24 155.92 78.81C154.54 79.38 153.8 75.75 151.72 75.35C151.462 75.2988 151.197 75.2988 150.94 75.35C148.29 75.85 147.37 78.6 148.88 79.92L149.08 80.09C149.22 80.3378 149.41 80.5543 149.637 80.7263C149.864 80.8982 150.123 81.022 150.4 81.09L150.5 81.16C151.99 82.16 153.62 83.25 153.57 84.04C153.48 85.15 152.72 85.52 150.57 84.56C149.478 84.0764 148.275 83.9 147.09 84.05C146.09 84.21 145.28 84.7 145.26 85.56C145.195 86.3641 145.347 87.1709 145.698 87.8969C146.05 88.623 146.589 89.242 147.26 89.69C148.101 90.1255 148.99 90.4612 149.91 90.69L151.38 91.05L151.47 91.16C152 91.91 151.7 92.25 150.6 92.32C149.352 92.3361 148.122 92.6155 146.99 93.14C146.803 93.2384 146.644 93.381 146.525 93.5553C146.407 93.7297 146.333 93.9304 146.31 94.14C146.26 95.72 147.67 97.84 151.66 98.36H152.04H153C153.186 98.3707 153.373 98.3707 153.56 98.36H153.62H153.81H153.88H154.04H154.11H154.25H154.33H154.45H154.52H154.63H154.69H154.8H154.86H154.95L155.05 98.31L155.17 98.24C155.425 98.1153 155.64 97.9212 155.79 97.68C157.144 98.328 158.611 98.7083 160.11 98.8L160 98.6C162.923 101.49 166.714 103.341 170.79 103.87C172.082 103.989 173.385 103.925 174.66 103.68C175.689 103.482 176.694 103.177 177.66 102.77C177.66 102.77 180.36 103.51 184.18 101.34C184.52 101.14 184.88 100.92 185.25 100.67C185.25 100.67 185.38 101.28 185.6 101.95C185.6 102.11 185.7 102.26 185.75 102.42L185.67 102.48L185.54 102.59L185.26 102.83C184.35 103.65 182.45 105.48 182.64 106.55C182.83 107.62 183.82 108.14 185.41 108.11L183.97 108.98C182.9 109.63 181.51 110.51 180.75 111.09L180.69 111.14C179.39 112.14 178.84 113.61 176.63 115.32C174.42 117.03 174.46 118.32 173.63 121.85C173.26 123.39 172.85 124.93 172.51 126.18C172.07 127.8 171.75 128.93 171.75 128.93C171.194 129.465 170.686 130.048 170.23 130.67V130.73L170.17 130.82C169.806 131.32 169.472 131.841 169.17 132.38C168.842 132.991 168.562 133.626 168.33 134.28C168.196 134.659 168.089 135.046 168.01 135.44C167.692 136.936 167.482 138.454 167.38 139.98C167.38 140.59 167.31 141.15 167.3 141.63C167.3 142.71 167.3 143.39 167.3 143.39C166.933 143.832 166.599 144.3 166.3 144.79C165.742 145.684 165.276 146.632 164.91 147.62C164.516 148.667 164.27 149.765 164.18 150.88C163.88 154.64 168.05 165.03 169.08 167.53C160.85 165.12 151.84 164.03 145.34 167.31C144.558 167.655 143.825 168.102 143.16 168.64L142.66 169.03H142.72C142.487 169.258 142.266 169.498 142.06 169.75C141.494 170.199 141.019 170.753 140.66 171.38C140.17 172.25 140.37 173.82 141.23 175.85C141.41 176.28 141.62 176.72 141.86 177.18C143.167 179.632 144.737 181.935 146.54 184.05C146.81 184.38 147.09 184.72 147.39 185.05C148.942 186.833 150.591 188.528 152.33 190.13L153.27 190.99C154.916 192.463 156.716 193.93 158.67 195.39L159.67 196.13C161.975 197.793 164.364 199.335 166.83 200.75L167.93 201.38C170.13 202.607 172.463 203.767 174.93 204.86L176.11 205.38C178.24 206.29 180.46 207.14 182.77 207.91L183.34 208.1C183.65 208.1 183.95 208.01 184.25 207.95C191.93 206.45 196.56 199.52 197.35 194.44C197.35 194.44 197.35 194.33 197.35 194.11C197.53 192.988 197.423 191.839 197.04 190.77C196.304 187.922 195.057 185.232 193.36 182.83C192.747 181.348 192.025 179.915 191.2 178.54C191.369 175.024 191.326 171.501 191.07 167.99C190.55 162.65 188.84 158.5 189.12 155.64C189.12 155.64 191.67 154.46 193.76 145.64C194.02 144.55 194.28 143.34 194.52 142L194.7 141.94C195.81 141.59 201.43 139.57 203.65 134.58C206.12 129.04 208.59 128.24 209.92 129.1C211.25 129.96 216.82 135.26 225.01 134.86C225.01 134.86 225.24 135.39 225.69 136.21C226.277 137.387 226.949 138.52 227.7 139.6C229.038 141.494 230.798 143.051 232.84 144.15C233.489 147.886 233.747 151.68 233.61 155.47C233.49 160.6 234.07 166.92 235.85 170.78C236.064 171.937 236.338 173.081 236.67 174.21C236.857 177.149 237.578 180.03 238.8 182.71C239.169 183.782 239.806 184.743 240.65 185.5L240.89 185.73C244.69 189.18 252.65 191.67 259.57 188.01L260.38 187.56L260.71 187.05C262.02 185 263.21 182.94 264.3 180.9C264.5 180.52 264.7 180.14 264.89 179.76C266.11 177.37 267.19 175 268.13 172.67C268.29 172.27 268.44 171.88 268.59 171.49C269.616 168.84 270.507 166.14 271.26 163.4C271.37 162.99 271.48 162.58 271.58 162.18C272.19 159.82 272.66 157.54 273.01 155.36C273.09 154.94 273.15 154.52 273.21 154.1C273.558 151.764 273.779 149.41 273.87 147.05C273.87 146.6 273.87 146.17 273.87 145.74C273.955 142.942 273.74 140.143 273.23 137.39ZM185.57 106.71H185.38C185.234 106.684 185.095 106.63 184.97 106.55C184.885 106.479 184.817 106.39 184.77 106.29C184.759 106.214 184.759 106.136 184.77 106.06C184.793 105.779 184.874 105.507 185.01 105.26L185.17 104.98C185.29 104.79 185.42 104.6 185.55 104.43C185.58 104.384 185.613 104.341 185.65 104.3L185.83 104.07C186.11 103.73 186.33 103.51 186.33 103.51C185.955 104.544 185.7 105.618 185.57 106.71ZM227.95 97.21C227.95 97.21 231.34 96.61 231.87 97.37C232.25 97.91 232 98.74 230.65 99.24C230.006 99.4685 229.332 99.6032 228.65 99.64C228.48 98.99 228.26 98.28 227.97 97.48C227.985 97.3907 227.995 97.3005 228 97.21H227.95Z" fill="url(#paint58_linear)"/>
<path style="mix-blend-mode:overlay" opacity="0.57" d="M273.23 137.39C273.12 136.88 273.01 136.39 272.88 135.96C272.27 133.84 271.44 132.49 270.51 132.12C269.837 131.86 269.121 131.731 268.4 131.74C268.07 131.669 267.736 131.619 267.4 131.59V131.54H266.77C265.912 131.533 265.057 131.644 264.23 131.87C260.23 132.72 256.54 135.13 253.17 138.31C252.93 136.26 252.46 132.21 252.08 128.23C251.77 125.239 250.71 122.374 249 119.9C248.292 118.809 247.386 117.859 246.33 117.1C246.33 117.1 243.78 107.47 237.78 105.19L237.43 105.07L237.26 105C235.462 104.331 233.544 104.048 231.63 104.17C231.272 104.181 230.917 104.231 230.57 104.32L230.31 104.38C229.871 104.483 229.442 104.627 229.03 104.81L228.7 104.95V104.9V104.84V104.77V104.68C228.7 104.54 228.79 104.37 228.83 104.17C228.83 104.17 228.83 104.08 228.83 104.04V103.98C228.83 103.98 228.83 103.89 228.83 103.85V103.6C228.83 103.6 228.83 103.5 228.83 103.45V103.38C228.835 103.327 228.835 103.273 228.83 103.22V102.92C228.83 102.76 228.83 102.59 228.83 102.4C228.83 102.21 228.83 102.17 228.83 102.04C228.83 101.91 228.78 101.6 228.74 101.35C229.283 101.232 229.808 101.04 230.3 100.78C231.244 100.304 232.068 99.6201 232.71 98.78C233.006 98.3746 233.161 97.8835 233.152 97.3816C233.143 96.8796 232.97 96.3944 232.66 96C232.171 95.4409 231.509 95.0609 230.78 94.92C229.818 94.6617 228.833 94.5009 227.84 94.44C227.832 93.4351 227.748 92.4323 227.59 91.44C227.59 91.32 227.59 91.18 227.52 91.05C227.392 90.3867 227.211 89.7347 226.98 89.1C226.98 89.1 227.57 89.5 228.56 90.03L228.7 90.11H228.76L228.84 90.16C231.13 91.35 235.15 92.98 238.84 92.16C239.179 92.0794 239.513 91.9792 239.84 91.86C240.284 91.6923 240.718 91.4987 241.14 91.28C243.102 90.3023 244.702 88.7264 245.71 86.78C246.906 86.9097 248.115 86.8693 249.3 86.66C251.105 86.3409 252.815 85.6161 254.3 84.54C254.491 84.7481 254.737 84.8973 255.01 84.97H255.13H255.24H255.29H255.39H255.45H255.56H255.63H255.74H256.74L257.3 84.9L257.6 84.85H257.67L257.92 84.79H258.01L258.25 84.73H258.36H258.51H258.63H258.68L259.05 84.61C262.87 83.36 263.86 81.02 263.52 79.47C263.464 79.2596 263.356 79.0667 263.206 78.9094C263.055 78.752 262.867 78.6352 262.66 78.57C261.451 78.259 260.189 78.2112 258.96 78.43C257.86 78.56 257.51 78.29 257.89 77.43C257.909 77.3879 257.933 77.3477 257.96 77.31L259.33 76.68C260.192 76.2928 261.005 75.8025 261.75 75.22C262.331 74.658 262.75 73.9507 262.965 73.1716C263.179 72.3924 263.181 71.57 262.97 70.79C262.79 69.95 261.97 69.61 260.9 69.65C259.706 69.723 258.554 70.1206 257.57 70.8C255.67 72.14 254.85 71.92 254.57 70.8C254.36 70.03 255.77 68.68 257.04 67.39L257.13 67.31C257.386 67.1953 257.617 67.0298 257.808 66.8236C257.998 66.6173 258.145 66.3746 258.24 66.11C258.302 66.048 258.359 65.9811 258.41 65.91C259.65 64.33 258.24 61.8 255.54 61.81C255.277 61.8073 255.015 61.8548 254.77 61.95C252.77 62.73 252.6 66.39 251.29 66.13C249.82 65.82 250.61 64.46 252.09 62.22C252.28 61.92 252.48 61.61 252.67 61.22L252.72 61.13C252.818 61.0503 252.898 60.9517 252.957 60.8399C253.015 60.7282 253.05 60.6057 253.06 60.48C253.082 60.4214 253.109 60.3646 253.14 60.31C253.14 60.26 253.19 60.21 253.21 60.15L253.28 59.99C253.35 59.83 253.41 59.67 253.47 59.5V59.43V59.31V59.21C253.47 59.21 253.47 59.14 253.47 59.1V59V58.9V58.79V58.69C253.474 58.6568 253.474 58.6231 253.47 58.59V58.48C253.47 58.48 253.47 58.41 253.47 58.38C253.47 58.35 253.47 58.31 253.47 58.28C253.47 58.25 253.47 58.21 253.47 58.17C253.47 58.13 253.47 58.11 253.47 58.08C253.465 58.0201 253.465 57.9599 253.47 57.9C253.47 57.9 253.47 57.83 253.47 57.8C253.47 57.77 253.47 57.73 253.47 57.69V57.6C253.475 57.5668 253.475 57.5331 253.47 57.5V57.31C253.47 57.31 253.47 57.25 253.47 57.22V57.13C253.47 57.04 253.47 57.04 253.47 56.95C253.47 56.95 253.47 56.89 253.47 56.86C253.474 56.8301 253.474 56.7998 253.47 56.77C253.47 56.77 253.47 56.72 253.47 56.69V56.6C253.47 56.6 253.47 56.6 253.47 56.52V56.42L253.42 56.3C253.425 56.2736 253.425 56.2464 253.42 56.22C253.422 56.1967 253.422 56.1733 253.42 56.15V56.07L253.37 56L253.32 55.93V55.86L253.26 55.8L253.2 55.74C253.182 55.7118 253.158 55.6879 253.13 55.67L253.07 55.62C253.048 55.5916 253.021 55.5678 252.99 55.55L252.93 55.5L252.83 55.44H252.77L252.6 55.35C252.356 55.241 252.092 55.1847 251.825 55.1847C251.558 55.1847 251.294 55.241 251.05 55.35C248.85 56.2 246.25 60.24 245.15 64.82C244.902 65.9802 244.547 67.115 244.09 68.21C243.57 69.36 243.21 69.29 243.09 69.21C243.052 69.1841 243.022 69.1499 243 69.11C242.36 68.47 241.18 63.85 240.35 60.93C240.22 60.45 240.07 60 239.92 59.57C239.11 57.34 238.02 55.75 236.55 55.66H235.82H235.63L235.46 55.72L235.32 55.79L235.18 55.89L235.05 56L234.95 56.12C234.913 56.1676 234.88 56.2177 234.85 56.27C234.817 56.3237 234.79 56.3806 234.77 56.44C234.77 56.51 234.72 56.57 234.7 56.64L234.65 56.84C234.65 56.84 234.65 56.84 234.65 56.9C234.65 56.96 234.65 57.06 234.6 57.14V57.21V57.48V57.54C234.6 57.62 234.6 57.71 234.6 57.81V58.67C234.6 58.8 234.6 58.93 234.6 59.07C234.64 59.6401 234.731 60.2056 234.87 60.76C235.38 62.76 236.39 64.42 236.79 66.76C236.894 67.3977 236.938 68.044 236.92 68.69C236.6 68.81 236.26 68.95 235.92 69.12C235.286 69.4259 234.686 69.798 234.13 70.23L233.94 70.39L233.66 70.65L233.57 70.74L233.39 70.91L233.25 71.06L233.13 71.19C233.071 71.2521 233.018 71.319 232.97 71.39L232.91 71.45L232.82 71.57C232.46 71.0446 232.063 70.5465 231.63 70.08C230.514 68.8257 229.115 67.8556 227.55 67.25C227.39 66.85 227.21 66.47 227.03 66.08C226.53 62.7 225.62 58.24 224.83 57.65C224.04 57.06 223.5 56.38 219.03 56.83L218.65 56.58C218.868 56.1027 219.055 55.6116 219.21 55.11C219.26 54.39 219.28 53.67 219.27 52.97C220.349 52.6584 221.391 52.2327 222.38 51.7C223.49 50.81 220.13 39.88 218.89 39.87C218.45 39.87 216.2 40.15 215.19 40.27C213.42 37.8125 211.071 35.8295 208.352 34.4968C205.633 33.1642 202.626 32.5229 199.6 32.63L199.1 31.51C195.871 31.4359 192.709 32.427 190.1 34.33L190.38 35.26C187.698 36.8827 185.492 39.184 183.984 41.9317C182.476 44.6794 181.719 47.7763 181.79 50.91C180.92 51.41 178.91 52.56 178.55 52.83C177.55 53.57 181.41 64.34 182.82 64.39C183.907 64.2379 184.974 63.9628 186 63.57C186.34 64.02 186.68 64.45 187.06 64.88C182.97 66.46 180.39 67.77 180 68.3C179.47 69.01 180.28 72.38 181 74.86C179.57 75.81 177.91 77.77 177.35 81.86C177.35 82.06 177.3 82.27 177.28 82.48C176.977 82.5493 176.693 82.686 176.45 82.88C176.183 83.0912 175.956 83.3486 175.78 83.64L175.66 83.84L175.54 84.08C175.54 84.08 175.54 84.08 175.54 84.14L175.45 84.37L175.36 84.67V84.73L175.3 85.02V85.08C175.3 85.16 175.3 85.24 175.25 85.32C175.255 85.3463 175.255 85.3736 175.25 85.4C175.25 85.51 175.25 85.62 175.25 85.74V85.69V85.63L175.19 85.55C175.154 85.5085 175.121 85.4651 175.09 85.42L175 85.32L174.91 85.24L174.83 85.17L174.67 85.03C174.481 84.8747 174.28 84.7342 174.07 84.61C173.443 84.2432 172.771 83.9607 172.07 83.77C171.32 81.22 170.39 78.97 170.35 76.77C170.35 74.41 171 72.58 171.13 70.54C171.163 69.9663 171.146 69.3908 171.08 68.82L171.02 68.43V68.36L170.96 68.02V67.94C170.96 67.84 170.96 67.73 170.89 67.63C170.872 67.5418 170.849 67.455 170.82 67.37V67.31C170.82 67.22 170.76 67.13 170.74 67.05V66.99L170.65 66.76V66.71L170.56 66.52L170.46 66.34C170.46 66.29 170.38 66.23 170.34 66.19L170.22 66.06L170.1 65.96L169.96 65.87L169.8 65.8H169.65H169.47H168.85H168.76H168.69H168.52C167.08 66.17 166.3 67.93 165.93 70.26C165.86 70.72 165.8 71.19 165.76 71.68C165.49 74.68 165.18 79.46 164.68 80.21C164.663 80.2537 164.64 80.2942 164.61 80.33C164.47 80.49 164.13 80.62 163.4 79.59C162.753 78.5971 162.195 77.5498 161.73 76.46C159.8 72.16 156.5 68.67 154.18 68.25C153.92 68.1877 153.651 68.1813 153.389 68.2313C153.127 68.2813 152.878 68.3865 152.66 68.54C152.603 68.5752 152.553 68.6191 152.51 68.67H152.45L152.37 68.76V68.82C152.344 68.8407 152.321 68.8642 152.3 68.89L152.25 68.96L152.19 69.04C152.188 69.0633 152.188 69.0867 152.19 69.11L152.14 69.18C152.143 69.2065 152.143 69.2334 152.14 69.26V69.34V69.41V69.5C152.144 69.5231 152.144 69.5468 152.14 69.57V69.67C152.14 69.67 152.14 69.75 152.14 69.79C152.14 69.83 152.14 69.86 152.14 69.9C152.14 69.94 152.14 69.9 152.14 69.98C152.145 70.0098 152.145 70.0402 152.14 70.07V70.33C152.14 70.33 152.14 70.39 152.14 70.42C152.135 70.4498 152.135 70.4802 152.14 70.51C152.135 70.5432 152.135 70.5768 152.14 70.61C152.14 70.61 152.14 70.67 152.14 70.7C152.14 70.73 152.14 70.76 152.14 70.79C152.14 70.82 152.14 70.85 152.14 70.88V70.98C152.135 71.0098 152.135 71.0401 152.14 71.07V71.18V71.27C152.152 71.3279 152.169 71.3847 152.19 71.44V71.53C152.186 71.5632 152.186 71.5967 152.19 71.63V71.73L152.24 71.82C152.234 71.8531 152.234 71.8869 152.24 71.92V72.02L152.29 72.12V72.21L152.34 72.31C152.353 72.342 152.369 72.3722 152.39 72.4L152.44 72.5C152.46 72.5277 152.477 72.558 152.49 72.59L152.55 72.7V72.77C152.64 72.92 152.73 73.07 152.83 73.21L152.93 73.35L153.03 73.49L153.13 73.64C153.164 73.7609 153.223 73.8737 153.302 73.9716C153.381 74.0695 153.479 74.1506 153.59 74.21C153.608 74.241 153.631 74.2682 153.66 74.29C153.9 74.59 154.16 74.86 154.4 75.12C156.27 77.04 157.3 78.24 155.92 78.81C154.54 79.38 153.8 75.75 151.72 75.35C151.462 75.2988 151.197 75.2988 150.94 75.35C148.29 75.85 147.37 78.6 148.88 79.92L149.08 80.09C149.22 80.3378 149.41 80.5543 149.637 80.7263C149.864 80.8982 150.123 81.022 150.4 81.09L150.5 81.16C151.99 82.16 153.62 83.25 153.57 84.04C153.48 85.15 152.72 85.52 150.57 84.56C149.478 84.0764 148.275 83.9 147.09 84.05C146.09 84.21 145.28 84.7 145.26 85.56C145.195 86.3641 145.347 87.1709 145.698 87.8969C146.05 88.623 146.589 89.242 147.26 89.69C148.101 90.1255 148.99 90.4612 149.91 90.69L151.38 91.05L151.47 91.16C152 91.91 151.7 92.25 150.6 92.32C149.352 92.3361 148.122 92.6155 146.99 93.14C146.803 93.2384 146.644 93.381 146.525 93.5553C146.407 93.7297 146.333 93.9304 146.31 94.14C146.26 95.72 147.67 97.84 151.66 98.36H152.04H153C153.186 98.3707 153.373 98.3707 153.56 98.36H153.62H153.81H153.88H154.04H154.11H154.25H154.33H154.45H154.52H154.63H154.69H154.8H154.86H154.95L155.05 98.31L155.17 98.24C155.425 98.1153 155.64 97.9212 155.79 97.68C157.144 98.328 158.611 98.7083 160.11 98.8L160 98.6C162.923 101.49 166.714 103.341 170.79 103.87C172.082 103.989 173.385 103.925 174.66 103.68C175.689 103.482 176.694 103.177 177.66 102.77C177.66 102.77 180.36 103.51 184.18 101.34C184.52 101.14 184.88 100.92 185.25 100.67C185.25 100.67 185.38 101.28 185.6 101.95C185.6 102.11 185.7 102.26 185.75 102.42L185.67 102.48L185.54 102.59L185.26 102.83C184.35 103.65 182.45 105.48 182.64 106.55C182.83 107.62 183.82 108.14 185.41 108.11L183.97 108.98C182.9 109.63 181.51 110.51 180.75 111.09L180.69 111.14C179.39 112.14 178.84 113.61 176.63 115.32C174.42 117.03 174.46 118.32 173.63 121.85C173.26 123.39 172.85 124.93 172.51 126.18C172.07 127.8 171.75 128.93 171.75 128.93C171.194 129.465 170.686 130.048 170.23 130.67V130.73L170.17 130.82C169.806 131.32 169.472 131.841 169.17 132.38C168.842 132.991 168.562 133.626 168.33 134.28C168.196 134.659 168.089 135.046 168.01 135.44C167.692 136.936 167.482 138.454 167.38 139.98C167.38 140.59 167.31 141.15 167.3 141.63C167.3 142.71 167.3 143.39 167.3 143.39C166.933 143.832 166.599 144.3 166.3 144.79C165.742 145.684 165.276 146.632 164.91 147.62C164.516 148.667 164.27 149.765 164.18 150.88C163.88 154.64 168.05 165.03 169.08 167.53C160.85 165.12 151.84 164.03 145.34 167.31C144.558 167.655 143.825 168.102 143.16 168.64L142.66 169.03H142.72C142.487 169.258 142.266 169.498 142.06 169.75C141.494 170.199 141.019 170.753 140.66 171.38C140.17 172.25 140.37 173.82 141.23 175.85C141.41 176.28 141.62 176.72 141.86 177.18C143.167 179.632 144.737 181.935 146.54 184.05C146.81 184.38 147.09 184.72 147.39 185.05C148.942 186.833 150.591 188.528 152.33 190.13L153.27 190.99C154.916 192.463 156.716 193.93 158.67 195.39L159.67 196.13C161.975 197.793 164.364 199.335 166.83 200.75L167.93 201.38C170.13 202.607 172.463 203.767 174.93 204.86L176.11 205.38C178.24 206.29 180.46 207.14 182.77 207.91L183.34 208.1C183.65 208.1 183.95 208.01 184.25 207.95C191.93 206.45 196.56 199.52 197.35 194.44C197.35 194.44 197.35 194.33 197.35 194.11C197.53 192.988 197.423 191.839 197.04 190.77C196.304 187.922 195.057 185.232 193.36 182.83C192.747 181.348 192.025 179.915 191.2 178.54C191.369 175.024 191.326 171.501 191.07 167.99C190.55 162.65 188.84 158.5 189.12 155.64C189.12 155.64 191.67 154.46 193.76 145.64C194.02 144.55 194.28 143.34 194.52 142L194.7 141.94C195.81 141.59 201.43 139.57 203.65 134.58C206.12 129.04 208.59 128.24 209.92 129.1C211.25 129.96 216.82 135.26 225.01 134.86C225.01 134.86 225.24 135.39 225.69 136.21C226.277 137.387 226.949 138.52 227.7 139.6C229.038 141.494 230.798 143.051 232.84 144.15C233.489 147.886 233.747 151.68 233.61 155.47C233.49 160.6 234.07 166.92 235.85 170.78C236.064 171.937 236.338 173.081 236.67 174.21C236.857 177.149 237.578 180.03 238.8 182.71C239.169 183.782 239.806 184.743 240.65 185.5L240.89 185.73C244.69 189.18 252.65 191.67 259.57 188.01L260.38 187.56L260.71 187.05C262.02 185 263.21 182.94 264.3 180.9C264.5 180.52 264.7 180.14 264.89 179.76C266.11 177.37 267.19 175 268.13 172.67C268.29 172.27 268.44 171.88 268.59 171.49C269.616 168.84 270.507 166.14 271.26 163.4C271.37 162.99 271.48 162.58 271.58 162.18C272.19 159.82 272.66 157.54 273.01 155.36C273.09 154.94 273.15 154.52 273.21 154.1C273.558 151.764 273.779 149.41 273.87 147.05C273.87 146.6 273.87 146.17 273.87 145.74C273.955 142.942 273.74 140.143 273.23 137.39ZM185.57 106.71H185.38C185.234 106.684 185.095 106.63 184.97 106.55C184.885 106.479 184.817 106.39 184.77 106.29C184.759 106.214 184.759 106.136 184.77 106.06C184.793 105.779 184.874 105.507 185.01 105.26L185.17 104.98C185.29 104.79 185.42 104.6 185.55 104.43C185.58 104.384 185.613 104.341 185.65 104.3L185.83 104.07C186.11 103.73 186.33 103.51 186.33 103.51C185.955 104.544 185.7 105.618 185.57 106.71ZM227.95 97.21C227.95 97.21 231.34 96.61 231.87 97.37C232.25 97.91 232 98.74 230.65 99.24C230.006 99.4685 229.332 99.6032 228.65 99.64C228.48 98.99 228.26 98.28 227.97 97.48C227.985 97.3907 227.995 97.3005 228 97.21H227.95Z" fill="url(#paint59_linear)"/>
<defs>
<linearGradient id="paint0_linear" x1="181.061" y1="68.7091" x2="228.471" y2="65.3904" gradientUnits="userSpaceOnUse">
<stop stop-color="#34254C"/>
<stop offset="1" stop-color="#51397F"/>
</linearGradient>
<linearGradient id="paint1_linear" x1="176.999" y1="123.801" x2="232.119" y2="119.942" gradientUnits="userSpaceOnUse">
<stop stop-color="#E1DAE5"/>
<stop offset="1" stop-color="#F7F4F9"/>
</linearGradient>
<linearGradient id="paint2_linear" x1="158.566" y1="99.4962" x2="174.076" y2="98.4105" gradientUnits="userSpaceOnUse">
<stop stop-color="#C8B8D3"/>
<stop offset="1" stop-color="#C8B8D3" stop-opacity="0.3"/>
</linearGradient>
<linearGradient id="paint3_linear" x1="18321.8" y1="10297.4" x2="21962.9" y2="10297.4" gradientUnits="userSpaceOnUse">
<stop stop-color="#C8B8D3"/>
<stop offset="1" stop-color="#C8B8D3" stop-opacity="0.3"/>
</linearGradient>
<linearGradient id="paint4_linear" x1="184.019" y1="162.078" x2="197.409" y2="161.141" gradientUnits="userSpaceOnUse">
<stop stop-color="#C8B8D3" stop-opacity="0.9"/>
<stop offset="1" stop-color="#C8B8D3" stop-opacity="0.3"/>
</linearGradient>
<linearGradient id="paint5_linear" x1="13274.2" y1="5434.6" x2="14752.4" y2="5434.6" gradientUnits="userSpaceOnUse">
<stop stop-color="#C8B8D3" stop-opacity="0.9"/>
<stop offset="1" stop-color="#C8B8D3" stop-opacity="0.3"/>
</linearGradient>
<linearGradient id="paint6_linear" x1="7058.43" y1="13769.1" x2="7363.08" y2="13769.1" gradientUnits="userSpaceOnUse">
<stop stop-color="#C8B8D3" stop-opacity="0.9"/>
<stop offset="1" stop-color="#C8B8D3" stop-opacity="0.3"/>
</linearGradient>
<linearGradient id="paint7_linear" x1="256.018" y1="117.405" x2="240.982" y2="126.698" gradientUnits="userSpaceOnUse">
<stop stop-color="white"/>
<stop offset="1" stop-color="white" stop-opacity="0"/>
</linearGradient>
<linearGradient id="paint8_linear" x1="6536.25" y1="5784.08" x2="6839.73" y2="6135.51" gradientUnits="userSpaceOnUse">
<stop stop-color="#C8B8D3"/>
<stop offset="1" stop-color="#C8B8D3" stop-opacity="0.3"/>
</linearGradient>
<linearGradient id="paint9_linear" x1="7104.51" y1="2253.68" x2="7036.21" y2="2453.16" gradientUnits="userSpaceOnUse">
<stop stop-color="white"/>
<stop offset="1" stop-color="white" stop-opacity="0"/>
</linearGradient>
<linearGradient id="paint10_linear" x1="14184.2" y1="3602.39" x2="15778.6" y2="3602.39" gradientUnits="userSpaceOnUse">
<stop stop-color="#34254C"/>
<stop offset="1" stop-color="#51397F"/>
</linearGradient>
<linearGradient id="paint11_linear" x1="190.423" y1="111.867" x2="237.405" y2="106.599" gradientUnits="userSpaceOnUse">
<stop stop-color="#2D2244"/>
<stop offset="1" stop-color="#3E2C5E" stop-opacity="0"/>
</linearGradient>
<linearGradient id="paint12_linear" x1="184.419" y1="68.4439" x2="194.117" y2="93.8623" gradientUnits="userSpaceOnUse">
<stop stop-color="#CE1D3B"/>
<stop offset="1" stop-color="#ED202E"/>
</linearGradient>
<linearGradient id="paint13_linear" x1="5074.2" y1="7075.55" x2="5421.04" y2="7658.9" gradientUnits="userSpaceOnUse">
<stop stop-color="#CE1D3B"/>
<stop offset="1" stop-color="#ED202E"/>
</linearGradient>
<linearGradient id="paint14_linear" x1="193.019" y1="94.9643" x2="216.156" y2="91.8675" gradientUnits="userSpaceOnUse">
<stop stop-color="#A193AD"/>
<stop offset="1" stop-color="#CEC4D6"/>
</linearGradient>
<linearGradient id="paint15_linear" x1="11607.8" y1="6769.41" x2="11534.4" y2="6119.47" gradientUnits="userSpaceOnUse">
<stop stop-color="#E1DAE5"/>
<stop offset="1" stop-color="#F7F4F9"/>
</linearGradient>
<linearGradient id="paint16_linear" x1="194.915" y1="105.986" x2="206.825" y2="93.5254" gradientUnits="userSpaceOnUse">
<stop stop-color="#CEC4D6"/>
<stop offset="1" stop-color="#CEC4D6" stop-opacity="0"/>
</linearGradient>
<linearGradient id="paint17_linear" x1="200.605" y1="100.553" x2="198.13" y2="89.3206" gradientUnits="userSpaceOnUse">
<stop stop-color="#34254C"/>
<stop offset="1" stop-color="#432A68"/>
</linearGradient>
<linearGradient id="paint18_linear" x1="2006.79" y1="3913.36" x2="1938.2" y2="3768.15" gradientUnits="userSpaceOnUse">
<stop stop-color="#34254C"/>
<stop offset="1" stop-color="#432A68"/>
</linearGradient>
<linearGradient id="paint19_linear" x1="1221.56" y1="1587.65" x2="1210.91" y2="1536.69" gradientUnits="userSpaceOnUse">
<stop stop-color="#A193AD"/>
<stop offset="1" stop-color="#CEC4D6"/>
</linearGradient>
<linearGradient id="paint20_linear" x1="213.023" y1="88.7505" x2="215.753" y2="85.394" gradientUnits="userSpaceOnUse">
<stop stop-color="#3492B7"/>
<stop offset="1" stop-color="#4CC8E5"/>
</linearGradient>
<linearGradient id="paint21_linear" x1="214.35" y1="93.6419" x2="217.66" y2="93.4102" gradientUnits="userSpaceOnUse">
<stop stop-color="#D733DB"/>
<stop offset="1" stop-color="#F43EF9"/>
</linearGradient>
<linearGradient id="paint22_linear" x1="213.581" y1="74.4719" x2="219.61" y2="72.4521" gradientUnits="userSpaceOnUse">
<stop stop-color="#1E45A5"/>
<stop offset="1" stop-color="#2265C6"/>
</linearGradient>
<linearGradient id="paint23_linear" x1="4486.48" y1="1592.69" x2="4609.02" y2="1537.8" gradientUnits="userSpaceOnUse">
<stop stop-color="#34254C"/>
<stop offset="1" stop-color="#51397F"/>
</linearGradient>
<linearGradient id="paint24_linear" x1="11140.1" y1="3105.49" x2="12067.3" y2="3105.49" gradientUnits="userSpaceOnUse">
<stop stop-color="#34254C"/>
<stop offset="1" stop-color="#51397F"/>
</linearGradient>
<linearGradient id="paint25_linear" x1="3088.77" y1="2890.72" x2="3060.3" y2="2894.96" gradientUnits="userSpaceOnUse">
<stop stop-color="#E1DAE5"/>
<stop offset="1" stop-color="#F7F4F9"/>
</linearGradient>
<linearGradient id="paint26_linear" x1="3309.27" y1="2673.83" x2="3333.24" y2="2670.87" gradientUnits="userSpaceOnUse">
<stop stop-color="#E1DAE5"/>
<stop offset="1" stop-color="#F7F4F9"/>
</linearGradient>
<linearGradient id="paint27_linear" x1="3743.91" y1="791.991" x2="3839.16" y2="791.991" gradientUnits="userSpaceOnUse">
<stop stop-color="#E1DAE5"/>
<stop offset="1" stop-color="#F7F4F9"/>
</linearGradient>
<linearGradient id="paint28_linear" x1="13607.9" y1="6681.97" x2="14809.9" y2="6218.59" gradientUnits="userSpaceOnUse">
<stop stop-color="#E1DAE5"/>
<stop offset="1" stop-color="#F7F4F9"/>
</linearGradient>
<linearGradient id="paint29_linear" x1="195.87" y1="62.638" x2="202.035" y2="32.994" gradientUnits="userSpaceOnUse">
<stop stop-color="#C8B8D3"/>
<stop offset="1" stop-color="#C8B8D3" stop-opacity="0"/>
</linearGradient>
<linearGradient id="paint30_linear" x1="11807.9" y1="2986.73" x2="12243" y2="2732.05" gradientUnits="userSpaceOnUse">
<stop stop-color="#E1DAE5"/>
<stop offset="1" stop-color="#F7F4F9"/>
</linearGradient>
<linearGradient id="paint31_linear" x1="184.568" y1="57.0781" x2="224.127" y2="47.1239" gradientUnits="userSpaceOnUse">
<stop stop-color="#201D21"/>
<stop offset="1" stop-color="#524B56"/>
</linearGradient>
<linearGradient id="paint32_linear" x1="179.156" y1="56.432" x2="197.804" y2="54.0916" gradientUnits="userSpaceOnUse">
<stop stop-color="#111011"/>
<stop offset="1" stop-color="#111011" stop-opacity="0"/>
</linearGradient>
<linearGradient id="paint33_linear" x1="205.55" y1="38.4155" x2="211.892" y2="53.4973" gradientUnits="userSpaceOnUse">
<stop stop-color="#EDE7F2"/>
<stop offset="1" stop-color="#EDE7F2" stop-opacity="0"/>
</linearGradient>
<linearGradient id="paint34_linear" x1="1188.28" y1="561.909" x2="1201.55" y2="580.227" gradientUnits="userSpaceOnUse">
<stop stop-color="#EDE7F2"/>
<stop offset="1" stop-color="#EDE7F2" stop-opacity="0"/>
</linearGradient>
<linearGradient id="paint35_linear" x1="8267.2" y1="3432.46" x2="8689.83" y2="3432.46" gradientUnits="userSpaceOnUse">
<stop stop-color="#34254C"/>
<stop offset="1" stop-color="#51397F"/>
</linearGradient>
<linearGradient id="paint36_linear" x1="8767.86" y1="3404.41" x2="8509.42" y2="3058.24" gradientUnits="userSpaceOnUse">
<stop stop-color="#34254C"/>
<stop offset="1" stop-color="#51397F"/>
</linearGradient>
<linearGradient id="paint37_linear" x1="2313.96" y1="4524.65" x2="2187.11" y2="4215.74" gradientUnits="userSpaceOnUse">
<stop stop-color="#34254C"/>
<stop offset="1" stop-color="#51397F"/>
</linearGradient>
<linearGradient id="paint38_linear" x1="1277.67" y1="3749.76" x2="1289.46" y2="3749.76" gradientUnits="userSpaceOnUse">
<stop stop-color="#34254C"/>
<stop offset="1" stop-color="#51397F"/>
</linearGradient>
<linearGradient id="paint39_linear" x1="4398.78" y1="1595.86" x2="4519.76" y2="1543.04" gradientUnits="userSpaceOnUse">
<stop stop-color="#A193AD"/>
<stop offset="1" stop-color="#CEC4D6"/>
</linearGradient>
<linearGradient id="paint40_linear" x1="9623.38" y1="8019.64" x2="9019.78" y2="7515.78" gradientUnits="userSpaceOnUse">
<stop stop-color="#E1DAE5"/>
<stop offset="1" stop-color="#F7F4F9"/>
</linearGradient>
<linearGradient id="paint41_linear" x1="1874.85" y1="1443.7" x2="1902.6" y2="1443.7" gradientUnits="userSpaceOnUse">
<stop stop-color="#E1DAE5"/>
<stop offset="1" stop-color="#F7F4F9"/>
</linearGradient>
<linearGradient id="paint42_linear" x1="1923.65" y1="1389.17" x2="1954.65" y2="1389.17" gradientUnits="userSpaceOnUse">
<stop stop-color="#E1DAE5"/>
<stop offset="1" stop-color="#F7F4F9"/>
</linearGradient>
<linearGradient id="paint43_linear" x1="2784" y1="1736.07" x2="2851.79" y2="1736.07" gradientUnits="userSpaceOnUse">
<stop stop-color="#E1DAE5"/>
<stop offset="1" stop-color="#F7F4F9"/>
</linearGradient>
<linearGradient id="paint44_linear" x1="3358.56" y1="1425.09" x2="3459.85" y2="1425.09" gradientUnits="userSpaceOnUse">
<stop stop-color="#E1DAE5"/>
<stop offset="1" stop-color="#F7F4F9"/>
</linearGradient>
<linearGradient id="paint45_linear" x1="1407.78" y1="2542.52" x2="1316.38" y2="2656.47" gradientUnits="userSpaceOnUse">
<stop stop-color="#C8B8D3"/>
<stop offset="1" stop-color="#C8B8D3" stop-opacity="0.3"/>
</linearGradient>
<linearGradient id="paint46_linear" x1="4085.62" y1="7944.48" x2="3882.3" y2="7894.67" gradientUnits="userSpaceOnUse">
<stop stop-color="#C8B8D3"/>
<stop offset="1" stop-color="#C8B8D3" stop-opacity="0.3"/>
</linearGradient>
<linearGradient id="paint47_linear" x1="10360.3" y1="6992.95" x2="10880" y2="6392.62" gradientUnits="userSpaceOnUse">
<stop stop-color="#E1DAE5"/>
<stop offset="1" stop-color="#F7F4F9"/>
</linearGradient>
<linearGradient id="paint48_linear" x1="1419.66" y1="1398.6" x2="1394.36" y2="1401.67" gradientUnits="userSpaceOnUse">
<stop stop-color="#E1DAE5"/>
<stop offset="1" stop-color="#F7F4F9"/>
</linearGradient>
<linearGradient id="paint49_linear" x1="1628.47" y1="1263.49" x2="1598.21" y2="1267.16" gradientUnits="userSpaceOnUse">
<stop stop-color="#E1DAE5"/>
<stop offset="1" stop-color="#F7F4F9"/>
</linearGradient>
<linearGradient id="paint50_linear" x1="2534.65" y1="1741.55" x2="2472.57" y2="1749.07" gradientUnits="userSpaceOnUse">
<stop stop-color="#E1DAE5"/>
<stop offset="1" stop-color="#F7F4F9"/>
</linearGradient>
<linearGradient id="paint51_linear" x1="3163.88" y1="1409.46" x2="3069.64" y2="1420.88" gradientUnits="userSpaceOnUse">
<stop stop-color="#E1DAE5"/>
<stop offset="1" stop-color="#F7F4F9"/>
</linearGradient>
<linearGradient id="paint52_linear" x1="1451.31" y1="2431.85" x2="1545.62" y2="2553.56" gradientUnits="userSpaceOnUse">
<stop stop-color="#C8B8D3"/>
<stop offset="1" stop-color="#C8B8D3" stop-opacity="0.3"/>
</linearGradient>
<linearGradient id="paint53_linear" x1="5405.94" y1="7376.54" x2="5647.51" y2="7260.36" gradientUnits="userSpaceOnUse">
<stop stop-color="#C8B8D3"/>
<stop offset="1" stop-color="#C8B8D3" stop-opacity="0.3"/>
</linearGradient>
<linearGradient id="paint54_linear" x1="13886.6" y1="17062.2" x2="15132.5" y2="17062.2" gradientUnits="userSpaceOnUse">
<stop stop-color="#E1DAE5"/>
<stop offset="1" stop-color="#F7F4F9"/>
</linearGradient>
<linearGradient id="paint55_linear" x1="237.951" y1="184.31" x2="278.037" y2="145.85" gradientUnits="userSpaceOnUse">
<stop stop-color="#BBAEC4"/>
<stop offset="1" stop-color="#DED1E8"/>
</linearGradient>
<linearGradient id="paint56_linear" x1="78267.2" y1="-23628.5" x2="76569.8" y2="-22448.6" gradientUnits="userSpaceOnUse">
<stop stop-color="#E1DAE5"/>
<stop offset="1" stop-color="#F7F4F9"/>
</linearGradient>
<linearGradient id="paint57_linear" x1="17937.9" y1="13891.4" x2="20741.3" y2="13332" gradientUnits="userSpaceOnUse">
<stop stop-color="#BBAEC4"/>
<stop offset="1" stop-color="#DED1E8"/>
</linearGradient>
<linearGradient id="paint58_linear" x1="261.026" y1="83.4306" x2="161.875" y2="162.704" gradientUnits="userSpaceOnUse">
<stop stop-color="#04074A"/>
<stop offset="0.89" stop-opacity="0"/>
</linearGradient>
<linearGradient id="paint59_linear" x1="251.393" y1="80.4772" x2="154.753" y2="184.707" gradientUnits="userSpaceOnUse">
<stop stop-color="#04074A"/>
<stop offset="1" stop-color="#04074A"/>
</linearGradient>
</defs>
</svg>
