<svg width="200" viewBox="0 0 3304 3660" fill="none" xmlns="http://www.w3.org/2000/svg">
<path d="M1947.28 3659.68C1256.4 3659.68 696.334 3592.87 696.334 3510.43C696.334 3459.97 906.214 3415.36 1227.52 3388.35C1229.97 3397.47 1233.32 3406.43 1237.56 3415.11C1246.68 3433.2 1260 3449.37 1275.67 3461.49C1291.23 3473.87 1308.57 3482.81 1326.17 3489.37C1361.51 3502.52 1397.71 3507.49 1433.31 3509.73C1445.57 3510.41 1457.8 3510.73 1469.99 3510.73C1493.23 3510.73 1516.33 3509.61 1539.28 3507.83C1556.76 3506.32 1574.21 3504.65 1591.53 3502.41L1643.04 3495.68C1677.48 3490.87 1712.27 3485.27 1746.95 3476C1764.27 3471.39 1781.57 3465.68 1798.61 3458.36C1815.6 3450.93 1832.4 3441.71 1847.75 3429.17C1855.35 3422.81 1862.53 3415.64 1868.88 3407.55C1875.21 3399.67 1880.65 3389.91 1884.44 3381.07C1887.4 3374.56 1889.97 3367.96 1892.25 3361.32C1910.49 3361.23 1928.85 3361.19 1947.28 3361.19C1973.88 3361.19 2000.27 3361.28 2026.47 3361.48C2028.75 3368.07 2031.29 3374.61 2034.24 3381.07C2038.01 3389.91 2043.45 3399.67 2049.79 3407.55C2056.15 3415.64 2063.32 3422.81 2070.92 3429.17C2086.27 3441.71 2103.07 3450.93 2120.07 3458.36C2137.09 3465.68 2154.4 3471.39 2171.73 3476C2206.41 3485.27 2241.2 3490.87 2275.64 3495.68L2327.13 3502.41C2344.45 3504.65 2361.91 3506.32 2379.39 3507.83C2402.35 3509.61 2425.44 3510.73 2448.68 3510.73C2460.88 3510.73 2473.11 3510.41 2485.37 3509.73C2520.97 3507.49 2557.17 3502.52 2592.49 3489.37C2610.09 3482.81 2627.44 3473.87 2643 3461.49C2658.67 3449.37 2671.99 3433.2 2681.11 3415.11C2685.04 3407.07 2688.2 3398.8 2690.59 3390.37C2998.57 3417.56 3198.21 3461.21 3198.21 3510.43C3198.21 3592.87 2638.15 3659.68 1947.28 3659.68" fill="#DCDCDC"/>
<path d="M1297.69 1571.84V2412.88C1297.69 2461.09 1310.41 2506.55 1332.65 2545.97C1379.49 2629.05 1468.64 2685.41 1570.28 2685.41H2353.41C2451.33 2685.41 2537.65 2633.09 2585.72 2555.03C2611.27 2513.56 2626 2464.87 2626 2412.88V1571.84C2626 1553.37 2624.15 1535.39 2620.57 1517.93C2610.84 1469.65 2588.21 1425.97 2556.44 1390.52C2506.47 1334.64 2433.88 1299.31 2353.41 1299.31H1570.28C1453.36 1299.31 1352.99 1373.87 1314.51 1477.8C1303.65 1507.19 1297.69 1538.85 1297.69 1571.84" fill="white"/>
<path d="M1570.27 1319.64C1431.2 1319.64 1318.05 1432.77 1318.05 1571.84V2412.87C1318.05 2551.93 1431.2 2665.08 1570.27 2665.08H2353.43C2492.49 2665.08 2605.64 2551.93 2605.64 2412.87V1571.84C2605.64 1432.77 2492.49 1319.64 2353.43 1319.64H1570.27ZM2353.43 2705.76H1570.27C1408.76 2705.76 1277.37 2574.37 1277.37 2412.87V1571.84C1277.37 1410.33 1408.76 1278.95 1570.27 1278.95H2353.43C2514.93 1278.95 2646.32 1410.33 2646.32 1571.84V2412.87C2646.32 2574.37 2514.93 2705.76 2353.43 2705.76" fill="#371A45"/>
<path d="M1472.63 1378.89C1472.63 1378.89 1133.45 1764.59 1133.45 2086.71C1133.45 2362.4 1472.63 2457.24 1472.63 2457.24L1942.71 1661.11L1472.63 1378.89" fill="white"/>
<path d="M1133.45 2086.68C1133.45 2362.43 1472.63 2457.24 1472.63 2457.24L1484.23 2437.63L1942.72 1661.11L1588.32 1448.32L1472.63 1378.87C1472.63 1378.87 1133.45 1764.6 1133.45 2086.68" fill="white"/>
<path d="M1315.83 2277.87C1308.88 2265.63 1302.67 2252.77 1297.29 2239.32C1302.39 2240.65 1307.6 2241.64 1312.91 2242.28C1314.64 2242.49 1316.39 2242.69 1318.13 2242.91C1317.29 2254.56 1316.52 2266.2 1315.83 2277.87V2277.87ZM1286.6 2018.44C1304.28 1928.96 1341.44 1838.39 1384.63 1755.61C1373.12 1808.97 1363.43 1862.32 1355.13 1916.23C1350.16 1948.03 1345.76 1979.93 1341.73 2011.88C1338.52 2011.73 1335.35 2011.6 1332.21 2011.45C1330.33 2011.36 1328.47 2011.32 1326.6 2011.32C1312.61 2011.32 1299.12 2013.81 1286.6 2018.44" fill="#B9AFBE"/>
<path d="M1476.96 1405.23C1419.31 1474.45 1153.8 1808.4 1153.8 2086.71C1153.8 2311.99 1399.95 2411.12 1463.36 2432.91L1914.92 1668.16L1476.96 1405.23V1405.23ZM1482.19 2481.04L1467.15 2476.84C1463.55 2475.83 1378.11 2451.53 1291.53 2392.13C1174.8 2312.07 1113.11 2206.45 1113.11 2086.71C1113.11 1760.65 1443.29 1381.44 1457.35 1365.45L1468.55 1352.72L1970.49 1654.07L1482.19 2481.04" fill="#371A45"/>
<path d="M2483.21 1846.39C2483.21 1846.39 2626.92 2026.35 2857.11 1986.63C3095.81 1945.44 3053.56 1548.17 3053.56 1548.17L2690.87 1408.52C2690.87 1408.52 2713.4 1532.61 2660.88 1532.59C2602.05 1532.56 2497.05 1394.16 2405.35 1352.63L2483.21 1846.39Z" fill="white"/>
<path d="M2791.93 1971.92C2689.01 1971.92 2608.25 1926.97 2557.84 1888.33L2555.48 1874.31C2552.37 1857.08 2548.89 1839.91 2545.59 1822.72C2538.91 1788.35 2531.36 1754.13 2523.36 1720.05C2522.81 1717.76 2522.27 1715.45 2521.72 1713.15C2578.87 1800.47 2666.75 1895.05 2779.31 1895.05C2790.73 1895.05 2802.45 1894.08 2814.4 1892.01C2985.05 1862.55 2999.29 1658.09 2887 1637.72C2896.23 1638.45 2905.2 1638.79 2913.79 1638.79C2944.04 1638.79 2969.59 1634.77 2984.52 1631.13C3003.69 1626.47 3020.79 1619.56 3035.95 1611.31C3036.4 1720 3016.67 1938.45 2853.65 1966.59C2832.31 1970.27 2811.72 1971.92 2791.93 1971.92" fill="#B9AFBE"/>
<path d="M2790.21 2012.8C2592.57 2012.8 2472.87 1866.03 2467.32 1859.08C2460.31 1850.31 2461.73 1837.49 2470.52 1830.48C2479.29 1823.48 2492.08 1824.91 2499.09 1833.67C2500.47 1835.37 2638.48 2003.69 2853.65 1966.59C3048.36 1932.99 3038.65 1627.87 3034.29 1562.56L2715.27 1439.72C2717.6 1470.65 2716.52 1513.04 2697.45 1535.87C2688.13 1547.04 2675.48 1552.95 2660.89 1552.95H2660.87C2621.76 1552.92 2575.87 1512.29 2522.73 1465.25C2480.53 1427.88 2436.89 1389.25 2396.95 1371.16C2386.72 1366.52 2382.17 1354.47 2386.81 1344.24C2391.45 1334 2403.52 1329.45 2413.73 1334.09C2459.28 1354.72 2505.25 1395.43 2549.71 1434.79C2590.72 1471.09 2637.19 1512.24 2660.89 1512.25C2663.37 1512.25 2664.67 1511.65 2666.23 1509.79C2678.71 1494.85 2676.36 1442.69 2670.85 1412.15L2664.43 1376.56L3072.47 1533.65L3073.79 1546.01C3075.59 1563.01 3115.13 1962.75 2860.57 2006.68C2836.15 2010.89 2812.67 2012.8 2790.21 2012.8Z" fill="#371A45"/>
<path d="M1243.09 3360.56C1243.41 3364.01 1243.89 3367.48 1244.53 3370.77C1261.77 3472.91 1381.41 3509.41 1596.73 3481.21C1694.23 3468.55 1829.04 3453.48 1864.59 3375.83C1935.59 3220.85 1863.15 2907.28 1871.56 2706.33V2706.01C1871.56 2706.01 1910.73 2710.8 1959.32 2710.8C2007.96 2710.8 2047.13 2706.01 2047.13 2706.01C2047.19 2707.65 2047.24 2709.25 2047.29 2710.91C2054.48 2911.97 1983.69 3222.03 2054.11 3375.83C2089.65 3453.48 2224.41 3468.55 2321.96 3481.21C2537.55 3509.41 2657.19 3472.85 2674.28 3370.45C2674.8 3367.16 2675.28 3363.91 2675.65 3360.56C2688.05 3235.76 2513.97 3177.8 2513.97 3177.8C2513.97 3177.8 2551.92 2912.97 2576.99 2674.03C2587.53 2573.55 2589.92 2469.6 2586.63 2366.2C2585.83 2339.43 2584.6 2312.67 2583.05 2286C2580.83 2248.05 2577.95 2210.37 2574.49 2173.07C2571.45 2140.71 2568.05 2108.72 2564.21 2077.16C2550.05 1958.53 2531.01 1846.29 2511.37 1747.57C2493.8 1659.01 2475.76 1581.27 2460.28 1519.53C2456.81 1505.91 2453.57 1493.08 2450.43 1481.05C2431.53 1408.29 2418.45 1365.93 2418.45 1365.93H1500.25C1500.25 1365.93 1487.05 1408.61 1468.11 1481.75C1456.93 1524.59 1443.79 1577.96 1430.11 1639.37C1424.79 1663.37 1419.35 1688.61 1413.92 1714.95C1391.95 1821.55 1370.17 1945.81 1354.43 2078.07C1350.76 2108.93 1347.4 2140.23 1344.41 2171.84C1340.8 2210.48 1337.83 2249.6 1335.59 2288.92C1333.93 2316.81 1332.71 2344.8 1331.91 2372.85C1331.39 2391.43 1331.01 2410 1330.85 2428.63C1330.11 2511.28 1333.35 2593.83 1341.76 2674.03C1366.77 2912.97 1404.72 3177.8 1404.72 3177.8C1404.72 3177.8 1230.69 3235.76 1243.09 3360.56" fill="white"/>
<path d="M2448.72 3470.04C2426.79 3470.04 2404.69 3468.99 2382.63 3467.27C2365.8 3465.81 2348.97 3464.21 2332.15 3462.03L2281.23 3455.37C2247.51 3450.68 2214.17 3445.24 2182.29 3436.71C2150.68 3428.13 2119.65 3416.48 2096.83 3397.79C2091.24 3393.09 2086.21 3388.01 2081.92 3382.57L2078.84 3378.41L2076.15 3374.08C2075.17 3372.67 2074.57 3371.09 2073.75 3369.6L2072.59 3367.36L2071.45 3364.63C2064.93 3350.39 2060.45 3334.83 2056.51 3319.12C2048.95 3287.47 2045.47 3254.19 2043.96 3220.64C2042.37 3187.08 2042.85 3153.15 2044.24 3119.13C2047.01 3051.08 2053.43 2982.73 2059.04 2913.95C2064.04 2850.96 2069.11 2787.59 2067.95 2723.03C2083.91 2719.72 2098.95 2715.23 2114.2 2710.09C2134.64 2703.03 2154.55 2694.56 2173.77 2684.75C2183.43 2679.95 2192.79 2674.52 2202.15 2669.24C2211.29 2663.49 2220.43 2657.83 2228.96 2651.16C2246.35 2638.45 2262.28 2623.57 2275.88 2606.71C2275.87 2606.71 2275.85 2606.71 2275.85 2606.72C2275.87 2606.71 2275.88 2606.69 2275.89 2606.68C2275.89 2606.68 2267.6 2794.08 2160.51 2937.59C2053.36 3081.15 2064.52 3196.31 2133.41 3311.53C2167.84 3369.12 2310.29 3406.21 2454.37 3406.2C2523.69 3406.2 2593.41 3397.61 2651.64 3378.59C2649.85 3384.99 2647.53 3391.13 2644.71 3396.92C2632.15 3422.32 2607.49 3440.57 2578.12 3451.31C2548.8 3462.28 2516 3467.09 2483.01 3469.12C2471.64 3469.75 2460.2 3470.04 2448.72 3470.04" fill="#B9AFBE"/>
<path d="M1469.96 3470.04C1458.47 3470.04 1447.03 3469.75 1435.65 3469.12C1402.67 3467.09 1369.88 3462.28 1340.56 3451.31C1311.17 3440.57 1286.52 3422.32 1273.96 3396.92C1270.79 3390.43 1268.24 3383.45 1266.4 3376.21C1324.71 3389.52 1390.07 3395.71 1454.25 3395.71C1602.8 3395.71 1744.93 3362.52 1777.79 3307.56C1846.68 3192.4 1839.35 3074.17 1738.67 2925.57C1613.88 2741.41 1643.2 2606.68 1643.2 2606.68C1643.23 2606.69 1643.24 2606.71 1643.25 2606.72C1643.24 2606.71 1643.24 2606.71 1643.23 2606.71C1656.83 2623.57 1672.76 2638.45 1690.15 2651.16C1698.68 2657.83 1707.81 2663.49 1716.96 2669.24C1726.32 2674.52 1735.68 2679.95 1745.33 2684.75C1764.55 2694.56 1784.47 2703.03 1804.91 2710.09C1820.01 2715.17 1834.92 2719.64 1850.73 2722.93C1849.56 2787.52 1854.63 2850.92 1859.63 2913.95C1865.24 2982.73 1871.65 3051.08 1874.44 3119.13C1875.83 3153.15 1876.29 3187.08 1874.71 3220.64C1873.21 3254.19 1869.72 3287.47 1862.17 3319.12C1858.23 3334.83 1853.73 3350.39 1847.21 3364.63L1846.09 3367.36L1844.92 3369.6C1844.11 3371.09 1843.51 3372.67 1842.52 3374.08L1839.83 3378.41L1836.76 3382.57C1832.47 3388.01 1827.44 3393.09 1821.85 3397.79C1799.03 3416.48 1767.99 3428.13 1736.39 3436.71C1704.51 3445.24 1671.17 3450.68 1637.44 3455.37L1586.52 3462.03C1569.71 3464.21 1552.87 3465.81 1536.05 3467.27C1513.97 3468.99 1491.89 3470.04 1469.96 3470.04" fill="#B9AFBE"/>
<path d="M2466.8 1517.87C2489.01 1584.29 2507.2 1651.95 2523.36 1720.05C2531.36 1754.13 2538.91 1788.35 2545.59 1822.72C2548.89 1839.91 2552.37 1857.08 2555.48 1874.31L2564.21 1926.12C2567.23 1943.37 2569.87 1960.71 2572.41 1978.04L2580.11 2030.04C2582.43 2047.41 2584.59 2064.81 2586.65 2082.23C2588.91 2099.61 2590.63 2117.07 2592.32 2134.52C2600.07 2204.24 2603.99 2274.4 2606.96 2344.55C2608.53 2414.77 2609.75 2485.08 2605.76 2555.4L2604.53 2581.76L2603.93 2594.95L2602.84 2608.11L2598.45 2660.77C2595.44 2695.84 2591.21 2730.35 2587.41 2765.12C2571.49 2903.95 2553.59 3042.31 2534.11 3180.68L2520.4 3158.49C2529.85 3161.79 2537.8 3165.12 2546.23 3168.85C2554.51 3172.56 2562.64 3176.55 2570.67 3180.77C2586.67 3189.32 2602.23 3198.92 2616.97 3210.05C2631.76 3221.05 2645.64 3233.81 2658 3248.39C2670.33 3262.96 2680.72 3279.93 2687.73 3298.63C2694.73 3317.33 2697.47 3337.88 2696.13 3357.73C2694.96 3377.29 2690.05 3396.84 2681.11 3415.11C2671.99 3433.2 2658.67 3449.37 2643 3461.49C2627.44 3473.87 2610.09 3482.81 2592.49 3489.37C2557.17 3502.52 2520.97 3507.49 2485.37 3509.73C2449.72 3511.72 2414.39 3510.55 2379.39 3507.83C2361.91 3506.32 2344.45 3504.65 2327.13 3502.41L2275.64 3495.68C2241.2 3490.87 2206.41 3485.27 2171.73 3476C2154.4 3471.39 2137.09 3465.68 2120.07 3458.36C2103.07 3450.93 2086.27 3441.71 2070.92 3429.17C2063.32 3422.81 2056.15 3415.64 2049.79 3407.55C2043.45 3399.67 2038.01 3389.91 2034.24 3381.07C2026.45 3363.95 2021.36 3346.25 2016.93 3328.61C2008.52 3293.23 2004.92 3257.71 2003.31 3222.51C2001.65 3187.27 2002.16 3152.28 2003.57 3117.51C2006.43 3047.93 2012.91 2979.11 2018.49 2910.64C2023.95 2842.25 2029.28 2773.87 2026.8 2706.88L2049.61 2726.21C2034.13 2727.97 2019.48 2729.08 2004.4 2729.92C1989.41 2730.73 1974.4 2731.15 1959.33 2731.17C1944.27 2731.15 1929.25 2730.73 1914.27 2729.92C1899.2 2729.08 1884.55 2727.97 1869.07 2726.21L1891.88 2706.88C1889.39 2773.87 1894.72 2842.25 1900.19 2910.64C1905.76 2979.11 1912.25 3047.93 1915.09 3117.51C1916.51 3152.28 1917.01 3187.27 1915.36 3222.51C1913.76 3257.71 1910.16 3293.23 1901.73 3328.61C1897.31 3346.25 1892.23 3363.95 1884.44 3381.07C1880.65 3389.91 1875.21 3399.67 1868.88 3407.55C1862.53 3415.64 1855.35 3422.81 1847.75 3429.17C1832.4 3441.71 1815.6 3450.93 1798.61 3458.36C1781.57 3465.68 1764.27 3471.39 1746.95 3476C1712.27 3485.27 1677.48 3490.87 1643.04 3495.68L1591.53 3502.41C1574.21 3504.65 1556.76 3506.32 1539.28 3507.83C1504.28 3510.55 1468.96 3511.72 1433.31 3509.73C1397.71 3507.49 1361.51 3502.52 1326.17 3489.37C1308.57 3482.81 1291.23 3473.87 1275.67 3461.49C1260 3449.37 1246.68 3433.2 1237.56 3415.11C1228.61 3396.84 1223.71 3377.29 1222.55 3357.73C1221.21 3337.88 1223.95 3317.33 1230.93 3298.63C1237.96 3279.93 1248.35 3262.96 1260.67 3248.39C1273.03 3233.81 1286.91 3221.05 1301.71 3210.05C1316.45 3198.92 1332 3189.32 1348.01 3180.77C1356.04 3176.55 1364.17 3172.56 1372.45 3168.85C1380.87 3165.12 1388.81 3161.79 1398.28 3158.49L1384.56 3180.68C1364.95 3041.23 1346.88 2901.77 1330.89 2761.85C1327.07 2726.8 1322.83 2692.07 1319.79 2656.64C1318.36 2638.96 1316.37 2621.28 1315.43 2603.57L1312.43 2550.44C1309.65 2479.56 1310.04 2408.69 1312.85 2337.99C1315.55 2267.27 1321.16 2196.73 1328.49 2126.45C1330.11 2108.87 1332.17 2091.32 1334.21 2073.77C1336.16 2056.21 1338.28 2038.68 1340.57 2021.17C1344.92 1986.12 1349.68 1951.12 1355.13 1916.23C1365.91 1846.28 1379 1777.29 1395.39 1707.99C1399.68 1690.8 1404.23 1673.76 1409.12 1656.79C1413.87 1639.76 1418.97 1622.85 1424.32 1605.99C1435.13 1572.31 1446.68 1538.75 1461.47 1506.24C1463.03 1502.81 1467.07 1501.29 1470.49 1502.85C1473.45 1504.2 1474.99 1507.39 1474.36 1510.43L1474.33 1510.52C1460.24 1579.07 1447.29 1647.99 1433.65 1716.55C1421.44 1784.84 1409.25 1854.16 1397.95 1923.04C1374.99 2060.96 1358.85 2200.15 1353.51 2339.64C1350.73 2409.36 1350.36 2479.13 1353.08 2548.73C1355.95 2618.28 1363.37 2687.33 1371.32 2757.27C1387.24 2896.64 1405.29 3036 1424.84 3174.91L1427.17 3191.51L1411.13 3197.09C1404.33 3199.47 1396.36 3202.73 1389.07 3206C1381.63 3209.33 1374.29 3212.92 1367.09 3216.72C1352.73 3224.39 1338.92 3232.93 1326.17 3242.56C1300.69 3261.64 1279.17 3285.41 1269.13 3312.67C1264.08 3326.23 1262.21 3340.56 1263.15 3355.01C1263.97 3369.81 1267.79 3384.27 1273.96 3396.92C1286.52 3422.32 1311.17 3440.57 1340.56 3451.31C1369.88 3462.28 1402.67 3467.09 1435.65 3469.12C1468.77 3470.96 1502.41 3469.88 1536.05 3467.27C1552.87 3465.81 1569.71 3464.21 1586.52 3462.03L1637.44 3455.37C1671.17 3450.68 1704.51 3445.24 1736.39 3436.71C1767.99 3428.13 1799.03 3416.48 1821.85 3397.79C1827.44 3393.09 1832.47 3388.01 1836.76 3382.57L1839.83 3378.41L1842.52 3374.08C1843.51 3372.67 1844.11 3371.09 1844.92 3369.6L1846.09 3367.36L1847.21 3364.63C1853.73 3350.39 1858.23 3334.83 1862.17 3319.12C1869.72 3287.47 1873.21 3254.19 1874.71 3220.64C1876.29 3187.08 1875.83 3153.15 1874.44 3119.13C1871.65 3051.08 1865.24 2982.73 1859.63 2913.95C1854.17 2845.15 1848.63 2775.91 1851.21 2705.16L1852.03 2683.31L1874.03 2685.83C1887.68 2687.39 1902.28 2688.51 1916.48 2689.28C1930.77 2690.07 1945.08 2690.47 1959.33 2690.48C1973.59 2690.47 1987.89 2690.07 2002.19 2689.28C2016.39 2688.51 2030.99 2687.39 2044.64 2685.83L2066.65 2683.31L2067.45 2705.16C2070.05 2775.91 2064.51 2845.15 2059.04 2913.95C2053.43 2982.73 2047.01 3051.08 2044.24 3119.13C2042.85 3153.15 2042.37 3187.08 2043.96 3220.64C2045.47 3254.19 2048.95 3287.47 2056.51 3319.12C2060.45 3334.83 2064.93 3350.39 2071.45 3364.63L2072.59 3367.36L2073.75 3369.6C2074.57 3371.09 2075.17 3372.67 2076.15 3374.08L2078.84 3378.41L2081.92 3382.57C2086.21 3388.01 2091.24 3393.09 2096.83 3397.79C2119.65 3416.48 2150.68 3428.13 2182.29 3436.71C2214.17 3445.24 2247.51 3450.68 2281.23 3455.37L2332.15 3462.03C2348.97 3464.21 2365.8 3465.81 2382.63 3467.27C2416.25 3469.88 2449.91 3470.96 2483.01 3469.12C2516 3467.09 2548.8 3462.28 2578.12 3451.31C2607.49 3440.57 2632.15 3422.32 2644.71 3396.92C2650.89 3384.27 2654.69 3369.81 2655.53 3355.01C2656.45 3340.56 2654.6 3326.23 2649.55 3312.67C2639.49 3285.41 2617.97 3261.64 2592.51 3242.56C2579.76 3232.93 2565.93 3224.39 2551.57 3216.72C2544.37 3212.92 2537.04 3209.33 2529.61 3206C2522.32 3202.73 2514.35 3199.47 2507.55 3197.09L2491.49 3191.51L2493.83 3174.91C2513.24 3037.08 2531.13 2898.81 2546.99 2760.52C2550.76 2725.99 2555 2691.27 2557.95 2656.85L2562.24 2605.28L2563.32 2592.39L2563.85 2579.45L2564.92 2553.56C2568.36 2484.57 2567.15 2415.32 2564.76 2346.17C2558.04 2207.87 2543.19 2069.89 2522.96 1932.59C2502.36 1795.31 2477.44 1658.71 2453.65 1521.16C2453.01 1517.45 2455.49 1513.93 2459.19 1513.29C2462.55 1512.72 2465.76 1514.72 2466.8 1517.87" fill="#371A45"/>
<path d="M1583.79 3026.91C1417.01 3026.91 1359.65 2954.28 1356.29 2949.83C1349.55 2940.84 1351.35 2928.09 1360.33 2921.33C1369.25 2914.61 1381.91 2916.36 1388.69 2925.2C1390.48 2927.43 1499.69 3057.16 1870.31 2930.41C1880.97 2926.79 1892.51 2932.45 1896.13 2943.08C1899.77 2953.72 1894.11 2965.28 1883.47 2968.92C1757.61 3011.96 1659.44 3026.91 1583.79 3026.91" fill="#371A45"/>
<path d="M2351.57 3036.43C2202.29 3036.43 2042.31 2983.76 2032.13 2980.35C2021.48 2976.79 2015.73 2965.27 2019.31 2954.61C2022.85 2943.95 2034.43 2938.2 2045.04 2941.76C2048.64 2942.96 2405.59 3060.48 2529.32 2946.12C2537.57 2938.49 2550.45 2939 2558.07 2947.25C2565.69 2955.49 2565.2 2968.37 2556.93 2976C2507.77 3021.44 2431.2 3036.43 2351.57 3036.43" fill="#371A45"/>
<path d="M1192.77 1132.81C1201.37 1131.64 1207.39 1123.72 1206.2 1115.12L1144.65 666.92C1143.48 658.334 1135.55 652.32 1126.96 653.494C1036.8 665.88 973.747 749 986.133 839.16L1007.12 991.987C1019.49 1082.15 1102.63 1145.2 1192.77 1132.81" fill="white"/>
<path d="M1129.12 657C1128.57 657 1128.01 657.04 1127.45 657.12C1084.81 662.974 1047.01 685.08 1021.01 719.374C995 753.654 983.893 796.014 989.746 838.654L1010.75 991.493C1016.6 1034.13 1038.71 1071.93 1073 1097.95C1107.28 1123.96 1149.64 1135.04 1192.28 1129.2C1198.87 1128.29 1203.48 1122.2 1202.59 1115.61L1141.04 667.413C1140.6 664.227 1138.95 661.4 1136.37 659.454C1134.27 657.854 1131.73 657 1129.12 657ZM1170.01 1138.04C1133.51 1138.04 1098.16 1126.21 1068.57 1103.77C1032.72 1076.57 1009.63 1037.07 1003.51 992.493L982.506 839.654C976.386 795.08 987.987 750.8 1015.19 714.947C1042.37 679.107 1081.88 656 1126.47 649.88C1131.53 649.173 1136.67 650.507 1140.79 653.627C1144.92 656.76 1147.57 661.293 1148.28 666.427L1209.83 1114.63C1211.28 1125.2 1203.85 1134.99 1193.27 1136.44C1185.51 1137.51 1177.73 1138.04 1170.01 1138.04" fill="#371A45"/>
<path d="M1170.08 1114.03C1138.75 1114.03 1108.45 1103.89 1083.08 1084.65C1052.35 1061.33 1032.52 1027.44 1027.28 989.227L1022.85 957.027C1052.25 988.894 1093.8 1008.73 1138.89 1010.05C1141.48 1019.08 1144.21 1028.07 1147.09 1036.96C1154.77 1063.21 1163.95 1088.91 1174.55 1113.96C1173.05 1114 1171.57 1114.03 1170.08 1114.03" fill="#B9AFBE"/>
<path d="M1125.13 674.36C1088.8 680.507 1056.68 699.96 1034.31 729.454C1010.99 760.187 1001.04 798.174 1006.29 836.387L1027.28 989.227C1032.52 1027.44 1052.35 1061.33 1083.08 1084.65C1112.57 1107.03 1148.72 1117.08 1185.41 1113.23L1125.13 674.36V674.36ZM1169.97 1154.73C1129.85 1154.73 1091.01 1141.73 1058.49 1117.07C1019.09 1087.19 993.693 1043.75 986.959 994.76L965.973 841.92C959.253 792.934 971.999 744.267 1001.88 704.867C1031.77 665.467 1075.2 640.067 1124.19 633.347C1133.71 632.014 1143.2 634.507 1150.88 640.334C1158.55 646.16 1163.51 654.614 1164.81 664.16L1226.36 1112.36C1229.07 1132.05 1215.24 1150.27 1195.55 1152.97C1187 1154.15 1178.45 1154.73 1169.97 1154.73Z" fill="#371A45"/>
<path d="M2606.37 450.347C2597.77 451.52 2591.76 459.44 2592.95 468.04L2654.49 916.24C2655.67 924.84 2663.6 930.84 2672.19 929.667C2762.35 917.28 2825.4 834.16 2813.01 744L2792.03 591.174C2779.64 501.014 2696.52 437.96 2606.37 450.347" fill="white"/>
<path d="M2606.87 453.96C2600.28 454.867 2595.67 460.96 2596.56 467.547L2658.11 915.747C2658.55 918.934 2660.2 921.76 2662.76 923.707C2665.33 925.654 2668.49 926.48 2671.69 926.04C2714.33 920.187 2752.13 898.08 2778.13 863.787C2804.15 829.507 2815.24 787.147 2809.39 744.507L2788.4 591.667C2782.55 549.027 2760.44 511.227 2726.15 485.214C2691.87 459.214 2649.52 448.134 2606.87 453.96ZM2670.01 933.467C2665.81 933.467 2661.75 932.107 2658.35 929.534C2654.23 926.4 2651.57 921.867 2650.87 916.734L2589.32 468.534C2587.87 457.96 2595.29 448.174 2605.87 446.72C2650.43 440.6 2694.73 452.2 2730.57 479.387C2766.41 506.587 2789.52 546.107 2795.64 590.667L2816.63 743.507C2822.75 788.08 2811.15 832.374 2783.96 868.214C2756.77 904.054 2717.25 927.16 2672.68 933.28C2671.79 933.414 2670.89 933.467 2670.01 933.467" fill="#371A45"/>
<path d="M2682.32 907.147C2687.97 869.12 2690.88 830.427 2690.85 791.32C2732.99 779.494 2767.53 751.68 2788.57 715.613L2792.85 746.774C2798.11 785 2788.16 822.974 2764.84 853.707C2744.19 880.934 2715.23 899.6 2682.32 907.147Z" fill="#B9AFBE"/>
<path d="M2613.73 469.934L2674.01 908.8C2710.35 902.654 2742.47 883.214 2764.84 853.707C2788.16 822.974 2798.11 785 2792.85 746.774L2771.87 593.934C2766.61 555.72 2746.8 521.827 2716.07 498.507C2686.57 476.147 2650.41 466.067 2613.73 469.934V469.934ZM2670.03 950.16C2652.31 950.16 2636.81 937.04 2634.33 919L2572.79 470.8C2570.08 451.12 2583.91 432.894 2603.59 430.187H2603.6C2652.56 423.454 2701.25 436.213 2740.65 466.093C2780.05 495.973 2805.45 539.414 2812.17 588.4L2833.17 741.24C2839.89 790.227 2827.15 838.907 2797.27 878.293C2767.37 917.693 2723.95 943.093 2674.96 949.827C2673.29 950.053 2671.65 950.16 2670.03 950.16" fill="#371A45"/>
<path d="M1346.13 1509.16C1340.81 1504.17 1335.55 1499.11 1330.36 1493.96C1342.39 1457.01 1362.73 1423.77 1389.16 1396.48C1397.52 1403.51 1406.05 1410.39 1414.73 1417.09C1395.83 1441 1372.01 1472.31 1346.13 1509.16ZM2533.83 1420.76C2507.29 1397.43 2480.31 1374.52 2453.28 1356.48C2457.01 1352.81 2460.69 1349.11 2464.36 1345.36C2495.01 1360.44 2522.19 1381.56 2544.29 1407.16C2540.87 1411.72 2537.37 1416.27 2533.83 1420.76Z" fill="#B9AFBE"/>
<path d="M1330.36 1493.96C1325.01 1488.65 1319.73 1483.27 1314.51 1477.8C1327.67 1442.27 1348.05 1410.17 1373.87 1383.31C1378.89 1387.75 1384 1392.16 1389.16 1396.48C1362.73 1423.77 1342.39 1457.01 1330.36 1493.96V1493.96ZM2544.29 1407.16C2522.19 1381.56 2495.01 1360.44 2464.36 1345.36C2469.27 1340.35 2474.12 1335.25 2478.89 1330.11C2508.27 1345.45 2534.53 1366.01 2556.44 1390.52C2552.48 1396.12 2548.43 1401.67 2544.29 1407.16" fill="#371A45"/>
<path d="M1432.89 1579.92C1413.73 1566.4 1395.15 1552.01 1377.2 1536.83C1404.03 1498.29 1428.64 1465.73 1447.81 1441.32C1454.2 1445.76 1460.67 1450.11 1467.2 1454.36C1469.49 1455.87 1471.8 1457.35 1474.11 1458.83C1472.19 1466.09 1470.17 1473.73 1468.11 1481.75C1466.15 1489.24 1464.13 1497.05 1462.07 1505.19C1461.84 1505.52 1461.64 1505.87 1461.47 1506.24C1450.51 1530.35 1441.32 1555.04 1432.89 1579.92Z" fill="#B9AFBE"/>
<path d="M1377.2 1536.83C1370.29 1530.99 1363.48 1525.03 1356.77 1518.95C1353.19 1515.72 1349.64 1512.45 1346.13 1509.16C1372.01 1472.31 1395.83 1441 1414.73 1417.09C1425.52 1425.43 1436.55 1433.51 1447.81 1441.32C1428.64 1465.73 1404.03 1498.29 1377.2 1536.83Z" fill="#371A45"/>
<path d="M2456.71 1505.48C2454.55 1497 2452.47 1488.85 2450.43 1481.05C2439.25 1437.99 2430.09 1405.57 2424.49 1386.29C2451.67 1403.53 2479.92 1427.52 2507.83 1452.07C2491.65 1470.63 2474.6 1488.45 2456.71 1505.48" fill="#B9AFBE"/>
<path d="M2507.83 1452.07C2479.92 1427.52 2451.67 1403.53 2424.49 1386.29C2424.27 1385.51 2424.04 1384.75 2423.83 1384.01C2433.88 1375.08 2443.72 1365.89 2453.28 1356.48C2480.31 1374.52 2507.29 1397.43 2533.83 1420.76C2529.63 1426.08 2525.36 1431.35 2521 1436.56C2516.68 1441.79 2512.28 1446.96 2507.83 1452.07Z" fill="#371A45"/>
<path d="M1899.31 1728.41C1895.03 1728.41 1890.73 1728.37 1886.47 1728.31C1731.09 1726 1582.75 1678.63 1457.16 1596.43C1462.77 1567.77 1468.45 1539.11 1474.33 1510.52L1474.36 1510.43C1474.99 1507.39 1473.45 1504.2 1470.49 1502.85C1469.59 1502.44 1468.63 1502.24 1467.68 1502.24C1465.48 1502.24 1463.35 1503.32 1462.07 1505.19C1464.13 1497.05 1466.15 1489.24 1468.11 1481.75C1470.17 1473.73 1472.19 1466.09 1474.11 1458.83C1602.6 1540.79 1748.73 1583.15 1897.88 1583.15C1952.57 1583.13 2007.69 1577.44 2062.47 1565.91C2201.57 1536.63 2324.45 1472.27 2423.83 1384.01C2424.04 1384.75 2424.27 1385.51 2424.49 1386.29C2430.09 1405.57 2439.25 1437.99 2450.43 1481.05C2452.47 1488.85 2454.55 1497 2456.71 1505.48C2448.95 1512.93 2441.01 1520.21 2432.92 1527.35C2331.85 1616.33 2207.05 1681.27 2065.87 1710.96C2009.97 1722.71 1954.24 1728.41 1899.31 1728.41" fill="#B9AFBE"/>
<path d="M1457.16 1596.43C1452.15 1593.15 1447.17 1589.81 1442.24 1586.43C1439.11 1584.28 1435.99 1582.12 1432.89 1579.92C1441.32 1555.04 1450.51 1530.35 1461.47 1506.24C1461.64 1505.87 1461.84 1505.52 1462.07 1505.19C1463.35 1503.32 1465.48 1502.24 1467.68 1502.24C1468.63 1502.24 1469.59 1502.44 1470.49 1502.85C1473.45 1504.2 1474.99 1507.39 1474.36 1510.43L1474.33 1510.52C1468.45 1539.11 1462.77 1567.77 1457.16 1596.43" fill="#371A45"/>
<path d="M1145.07 950.387C1232.77 1367.04 1641.63 1633.71 2058.27 1546C2474.92 1458.31 2741.59 1049.45 2653.89 632.8C2566.19 216.147 2157.33 -50.5195 1740.69 37.1871C1324.04 124.88 1057.37 533.734 1145.07 950.387Z" fill="white"/>
<path d="M1899.67 24.2136C1847.47 24.2136 1794.51 29.5869 1741.44 40.7602C1540.88 82.9735 1368.77 200.76 1256.81 372.427C1144.84 544.094 1106.43 749.08 1148.64 949.627C1190.85 1150.19 1308.64 1322.29 1480.31 1434.27C1651.99 1546.23 1856.97 1584.64 2057.52 1542.43C2471.53 1455.28 2737.45 1047.56 2650.32 633.547C2574.35 272.614 2254.69 24.2136 1899.67 24.2136ZM1897.92 1566.45C1749.29 1566.45 1603.72 1523.48 1476.31 1440.39C1303.01 1327.36 1184.11 1153.6 1141.49 951.134C1098.88 748.667 1137.65 541.734 1250.68 368.427C1363.72 195.134 1537.47 76.227 1739.93 33.6003C2157.88 -54.373 2569.48 214.094 2657.47 632.054C2745.44 1050 2476.97 1461.6 2059.03 1549.59C2005.41 1560.87 1951.45 1566.44 1897.92 1566.45" fill="#371A45"/>
<path d="M1897.99 1542.43C1777.68 1542.43 1659.39 1513.37 1551.73 1456.85C1632.68 1480.04 1731.08 1496.36 1839.92 1496.36C1902.72 1496.36 1968.99 1490.92 2037.39 1478.24C2213.6 1445.56 2367.39 1359.91 2474.15 1273.99C2369.92 1398.41 2224.87 1490.15 2054.08 1526.09C2002.12 1537.03 1949.88 1542.44 1897.99 1542.43" fill="#B9AFBE"/>
<path d="M1899.67 40.9072C1848.6 40.9072 1796.79 46.1603 1744.88 57.0937C1548.68 98.387 1380.32 213.614 1270.79 381.534C1161.27 549.467 1123.68 750 1164.97 946.2C1206.28 1142.39 1321.49 1310.76 1489.43 1420.28C1657.36 1529.81 1857.91 1567.39 2054.08 1526.09C2459.09 1440.85 2719.23 1042 2633.99 636.987C2559.65 283.907 2246.97 40.9072 1899.67 40.9072V40.9072ZM1897.88 1583.15C1746.05 1583.15 1597.35 1539.25 1467.2 1454.36C1290.17 1338.91 1168.69 1161.4 1125.16 954.574C1081.63 747.747 1121.24 536.347 1236.71 359.32C1352.17 182.28 1529.67 60.8137 1736.49 17.2804C2163.43 -72.5863 2583.92 201.654 2673.8 628.614C2763.67 1055.57 2489.41 1476.04 2062.47 1565.91C2007.69 1577.44 1952.57 1583.13 1897.88 1583.15Z" fill="#371A45"/>
<path d="M1151.56 969.254C1180.4 1117.33 1255.24 1245.45 1359.6 1343.19C1437.84 1416.45 1720.27 1516.36 2033.67 1458.24C2324.25 1404.35 2558.07 1198.28 2603.09 1101C2663.15 971.254 2684.44 824.414 2655.6 676.334C2579.28 284.467 2210.97 187.587 1795.63 268.48C1380.28 349.374 1075.24 577.4 1151.56 969.254Z" fill="#371A45"/>
<path d="M1171.53 965.36C1198.61 1104.45 1268.47 1229.96 1373.51 1328.33C1443.25 1393.65 1715.87 1496.49 2029.96 1438.24C2313.37 1385.68 2541.71 1185.19 2584.63 1092.47C2645.08 961.84 2662.71 819.294 2635.63 680.227C2600.95 502.174 2503.17 378.934 2345.01 313.947C2202.72 255.467 2014.09 246.654 1799.51 288.454C1584.93 330.241 1413.39 409.201 1303.45 516.801C1181.24 636.387 1136.85 787.307 1171.53 965.36ZM1839.92 1496.36C1597.61 1496.36 1407.03 1415.47 1345.69 1358.04C1234.36 1253.77 1160.32 1120.68 1131.6 973.147C1094.13 780.814 1142.37 617.494 1274.99 487.707C1390.63 374.547 1569.32 291.827 1791.73 248.507C2014.15 205.201 2210.81 214.801 2360.48 276.307C2532.11 346.827 2638.11 480.107 2675.56 672.441C2704.31 819.974 2685.63 971.12 2621.56 1109.55C2574.24 1211.77 2338.57 1422.39 2037.39 1478.24C1968.99 1490.92 1902.72 1496.36 1839.92 1496.36" fill="#371A45"/>
<path d="M1408.2 1000.55C1378.79 1000.55 1348.11 983.974 1324.12 955.974C1308.67 926.334 1294.84 895.64 1282.76 864C1274.61 808.067 1294.95 757.32 1336.07 741.294C1344.76 737.907 1353.83 736.294 1363.01 736.294C1407.56 736.294 1455.03 774.307 1477.72 832.52C1505.08 902.734 1486.01 975.72 1435.15 995.547C1426.45 998.934 1417.39 1000.55 1408.2 1000.55" fill="#C3BAC7"/>
<path d="M1563.44 1171.17C1542.77 1171.17 1521.4 1158.51 1509.24 1136.79C1492.36 1106.61 1499.65 1070.39 1525.56 1055.89C1532.81 1051.83 1540.77 1049.91 1548.83 1049.91C1569.51 1049.91 1590.88 1062.59 1603.04 1084.29C1619.92 1114.48 1612.63 1150.69 1586.72 1165.19C1579.45 1169.25 1571.51 1171.17 1563.44 1171.17Z" fill="#C3BAC7"/>
<path d="M1841.41 1455.47C1611.59 1455.45 1428.79 1380.11 1373.51 1328.33C1268.47 1229.96 1198.61 1104.45 1171.53 965.36C1145.35 830.894 1164.24 711.894 1227.72 610.187C1229.65 645.467 1234.17 681.92 1241.53 719.56C1251.27 769.587 1265.15 817.814 1282.76 864C1284.71 877.28 1288.24 890.854 1293.49 904.32C1301.2 924.107 1311.77 941.561 1324.12 955.974C1370.87 1045.6 1432.51 1125.73 1505.55 1194.13C1584.05 1267.65 1824.33 1362.23 2118.07 1362.23C2169.43 1362.23 2222.47 1359.33 2276.52 1352.93C2202.45 1390.67 2118.92 1421.73 2029.96 1438.24C1964.84 1450.32 1901.53 1455.47 1841.41 1455.47" fill="#2A1A3B"/>
<path d="M1842.4 1475.67C1610.93 1475.67 1421.44 1401.11 1359.59 1343.19C1255.28 1245.44 1180.41 1117.33 1151.56 969.227C1120.93 811.84 1151.77 680.827 1226.63 575.2C1226.71 586.734 1227.07 598.387 1227.72 610.187C1164.24 711.894 1145.35 830.894 1171.53 965.36C1198.61 1104.45 1268.47 1229.96 1373.51 1328.33C1428.79 1380.11 1611.59 1455.45 1841.41 1455.47C1901.53 1455.47 1964.84 1450.32 2029.96 1438.24C2118.92 1421.73 2202.45 1390.67 2276.52 1352.93C2295.44 1350.68 2314.49 1348.01 2333.64 1344.88C2246.73 1395.19 2144.35 1437.77 2033.69 1458.27C1968.03 1470.43 1903.76 1475.67 1842.4 1475.67Z" fill="#2A1A3B"/>
<path d="M1324.12 955.974C1311.77 941.56 1301.2 924.107 1293.49 904.32C1288.24 890.854 1284.71 877.28 1282.76 864C1294.84 895.64 1308.67 926.334 1324.12 955.974" fill="#858290"/>
<path d="M1149.29 633.374C1144.75 633.374 1140.16 631.854 1136.37 628.734C1128.77 622.467 1126.88 611.854 1131.33 603.48C1229.69 388.507 1466.27 230.174 1780.63 168.947C2097.51 107.227 2377.23 169.107 2548.08 338.694L2533.87 353.214L2521.04 369.014L2533.87 353.214L2521.03 369L2519.43 367.574C2358.28 207.64 2091.85 149.774 1788.4 208.88C1486.64 267.654 1260.48 417.987 1167.91 621.347L1167 623.36L1165.01 625.96C1160.99 630.84 1155.17 633.374 1149.29 633.374" fill="#371A45"/>
<path d="M2532.11 942.334C2532.11 942.334 2480.57 817.587 2341.05 634.787C2160.12 397.747 1812.65 382.041 1812.65 382.041C1806.84 372.401 1891.52 350.76 2008.21 350.76C2107.6 350.76 2230.23 366.467 2339.85 418.654C2578.19 532.134 2532.11 942.334 2532.11 942.334" fill="#C3BAC7"/>
<path d="M2043.72 2685.96L2072.36 2678.6C2082.07 2675.87 2091.85 2673.33 2101.55 2670.37C2121.03 2664.8 2140.39 2658.57 2159.57 2651.75C2178.88 2645.11 2197.72 2637.31 2216.97 2629.79C2236.37 2622.45 2255.24 2613.91 2275.88 2606.71C2262.28 2623.57 2246.35 2638.45 2228.96 2651.16C2220.43 2657.83 2211.29 2663.49 2202.15 2669.24C2192.79 2674.52 2183.43 2679.95 2173.77 2684.75C2154.55 2694.56 2134.64 2703.03 2114.2 2710.09C2093.53 2717.04 2073.25 2722.84 2050.53 2726.08C2039.41 2727.67 2029.12 2719.93 2027.53 2708.81C2026.05 2698.48 2032.63 2688.85 2042.49 2686.27L2043.72 2685.96" fill="#371A45"/>
<path d="M1868.57 2726.08C1845.85 2722.84 1825.57 2717.04 1804.91 2710.09C1784.47 2703.03 1764.55 2694.56 1745.33 2684.75C1735.68 2679.95 1726.32 2674.52 1716.96 2669.24C1707.81 2663.49 1698.68 2657.83 1690.15 2651.16C1672.76 2638.45 1656.83 2623.57 1643.23 2606.71C1663.87 2613.91 1682.72 2622.45 1702.13 2629.79C1721.37 2637.31 1740.23 2645.11 1759.53 2651.75C1778.72 2658.57 1798.08 2664.8 1817.56 2670.37C1827.25 2673.33 1837.04 2675.87 1846.75 2678.6L1875.39 2685.96L1876.51 2686.25C1887.39 2689.04 1893.93 2700.13 1891.13 2711C1888.53 2721.12 1878.67 2727.48 1868.57 2726.08" fill="#371A45"/>
<path d="M2510.32 3197.81C2498.48 3196.37 2485.36 3195.04 2472.76 3193.95C2460.04 3192.92 2447.28 3191.87 2434.49 3191.36C2408.95 3190.03 2383.39 3189.87 2357.85 3190.91C2332.33 3192.2 2307.13 3195.49 2281.77 3199.6C2256.53 3204.33 2231.84 3211.16 2206.05 3219.75C2225.51 3200.96 2249.52 3186.72 2274.85 3176.09C2300.36 3165.93 2327.19 3159.55 2354.2 3155.17C2381.25 3151.21 2408.55 3149.44 2435.79 3149.69C2449.4 3149.96 2463.01 3150.45 2476.59 3151.85C2490.29 3153.07 2503.41 3154.87 2517.61 3157.77C2528.61 3160.03 2535.72 3170.77 2533.47 3181.79C2531.33 3192.21 2521.56 3199.13 2511.17 3197.91L2510.32 3197.81" fill="#371A45"/>
<path d="M1401 3157.77C1415.21 3154.87 1428.32 3153.07 1442.03 3151.85C1455.6 3150.45 1469.21 3149.96 1482.83 3149.69C1510.07 3149.44 1537.36 3151.21 1564.41 3155.17C1591.43 3159.55 1618.27 3165.93 1643.77 3176.09C1669.11 3186.72 1693.11 3200.96 1712.57 3219.75C1686.77 3211.16 1662.08 3204.33 1636.85 3199.6C1611.48 3195.49 1586.28 3192.2 1560.77 3190.91C1535.24 3189.87 1509.67 3190.03 1484.12 3191.36C1471.35 3191.87 1458.57 3192.92 1445.85 3193.95C1433.25 3195.04 1420.13 3196.37 1408.29 3197.81L1407.52 3197.91C1396.37 3199.25 1386.24 3191.31 1384.88 3180.15C1383.6 3169.57 1390.76 3159.89 1401 3157.77" fill="#371A45"/>
<path d="M1959.33 2690.48C1945.08 2690.47 1930.77 2690.07 1916.48 2689.28C1902.79 2688.53 1888.73 2687.47 1875.49 2685.99L1875.39 2685.96L1846.75 2678.6C1837.04 2675.87 1827.25 2673.33 1817.56 2670.37C1798.08 2664.8 1778.72 2658.57 1759.53 2651.75C1740.23 2645.11 1721.37 2637.31 1702.13 2629.79C1690.03 2625.21 1678.12 2620.16 1665.87 2615.25C1712.28 2621.25 1872.31 2640.87 1978.36 2640.87C2081.88 2640.87 2210.64 2622.19 2252.11 2615.71C2240.25 2620.47 2228.71 2625.36 2216.97 2629.79C2197.72 2637.31 2178.88 2645.11 2159.57 2651.75C2140.39 2658.57 2121.03 2664.8 2101.55 2670.37C2091.85 2673.33 2082.07 2675.87 2072.36 2678.6L2043.95 2685.91C2030.49 2687.43 2016.15 2688.52 2002.19 2689.28C1987.89 2690.07 1973.59 2690.47 1959.33 2690.48" fill="#B9AFBE"/>
<path d="M1952.87 2706.15C1931.47 2706.15 1910.99 2704.91 1891.52 2702.71C1890.28 2694.97 1884.59 2688.32 1876.51 2686.25L1875.49 2685.99C1888.73 2687.47 1902.79 2688.53 1916.48 2689.28C1930.77 2690.07 1945.08 2690.47 1959.33 2690.48C1973.59 2690.47 1987.89 2690.07 2002.19 2689.28C2016.15 2688.52 2030.49 2687.43 2043.95 2685.91L2043.72 2685.96L2042.49 2686.27C2034.99 2688.24 2029.37 2694.29 2027.79 2701.63C2008.01 2703.99 1987.05 2705.53 1964.91 2706.01C1960.85 2706.11 1956.85 2706.15 1952.87 2706.15" fill="#371A45"/>
<path d="M2027.79 2701.63C2029.37 2694.29 2034.99 2688.24 2042.49 2686.27L2043.72 2685.96L2043.95 2685.91L2072.36 2678.6C2082.07 2675.87 2091.85 2673.33 2101.55 2670.37C2121.03 2664.8 2140.39 2658.57 2159.57 2651.75C2178.88 2645.11 2197.72 2637.31 2216.97 2629.79C2228.71 2625.36 2240.25 2620.47 2252.11 2615.71C2260.79 2614.36 2265.64 2613.55 2265.64 2613.55C2265.64 2613.55 2183.63 2683 2027.79 2701.63" fill="#371A45"/>
<path d="M1891.52 2702.71C1742.95 2685.93 1652.81 2613.55 1652.81 2613.55C1652.81 2613.55 1657.49 2614.17 1665.87 2615.25C1678.12 2620.16 1690.03 2625.21 1702.13 2629.79C1721.37 2637.31 1740.23 2645.11 1759.53 2651.75C1778.72 2658.57 1798.08 2664.8 1817.56 2670.37C1827.25 2673.33 1837.04 2675.87 1846.75 2678.6L1875.39 2685.96L1875.49 2685.99L1876.51 2686.25C1884.59 2688.32 1890.28 2694.97 1891.52 2702.71" fill="#371A45"/>
<path d="M2260.44 2428.2H1665.55C1605.63 2428.2 1556.56 2379.13 1556.56 2319.27V2275.88C1555.39 2276.25 1554.27 2276.52 1553.09 2276.84H1553.04C1550.91 2277.43 1548.79 2277.91 1546.6 2278.39C1544.73 2278.87 1542.77 2279.24 1540.8 2279.72C1540.53 2279.77 1540.21 2279.83 1539.95 2279.88C1536.49 2280.63 1532.92 2281.32 1529.36 2281.96C1525.84 2282.64 1522.28 2283.28 1518.67 2283.81C1518.08 2283.97 1517.44 2284.03 1516.8 2284.08C1513.71 2284.61 1510.63 2285.09 1507.43 2285.52C1504.13 2286 1500.72 2286.48 1497.32 2286.85C1495.19 2287.12 1493.01 2287.39 1490.83 2287.55C1488.27 2287.87 1485.67 2288.12 1483.11 2288.39C1479.17 2288.76 1475.19 2289.13 1471.24 2289.4H1470.97C1467.04 2289.72 1463.05 2289.99 1459.11 2290.2C1455.97 2290.41 1452.83 2290.57 1449.69 2290.73C1447.08 2290.84 1444.41 2290.95 1441.71 2291C1437.72 2291.21 1433.72 2291.32 1429.73 2291.37C1425.89 2291.48 1422.17 2291.53 1418.35 2291.53C1415.48 2291.56 1412.61 2291.57 1409.75 2291.57C1391.6 2291.57 1373.52 2291.04 1355.85 2290.13C1356.67 2275.77 1357.57 2261.4 1358.6 2247.04C1388.23 2249.61 1419.8 2251.32 1451.49 2251.32C1490.72 2251.32 1530.11 2248.71 1566.13 2241.89V2256.48C1566.13 2323.09 1620.32 2377.29 1686.93 2377.29H2235.6C2302.21 2377.29 2356.4 2323.09 2356.4 2256.48V2247.65C2380.83 2250.24 2406.11 2251.32 2431.35 2251.32C2475.55 2251.32 2519.56 2248 2558.32 2243.64C2559.45 2258.37 2560.49 2273.12 2561.45 2287.87C2533.09 2290.09 2502.96 2291.56 2472.63 2291.56C2437.59 2291.56 2402.31 2289.61 2369.32 2284.61V2319.27C2369.32 2379.13 2320.25 2428.2 2260.44 2428.2" fill="#B9AFBE"/>
<path d="M1355.85 2290.13C1349.03 2289.79 1342.27 2289.37 1335.59 2288.92C1336.41 2274.29 1337.35 2259.69 1338.39 2245.13C1345 2245.81 1351.75 2246.45 1358.6 2247.04C1357.57 2261.4 1356.67 2275.77 1355.85 2290.13ZM2561.45 2287.87C2560.49 2273.12 2559.45 2258.37 2558.32 2243.64C2562.25 2243.2 2566.12 2242.75 2569.93 2242.28C2573.35 2241.87 2576.73 2241.31 2580.07 2240.61C2581.16 2255.69 2582.16 2270.83 2583.05 2286C2575.99 2286.67 2568.79 2287.29 2561.45 2287.87" fill="#371A45"/>
<path d="M2369.32 2012.17C2364.99 2011.95 2360.68 2011.68 2356.4 2011.4V1958.53C2356.4 1953.32 2356.08 1948.19 2355.43 1943.15C2364.27 1958.85 2369.32 1976.97 2369.32 1996.21V2012.17ZM1556.56 2008.89V1996.21C1556.56 1980.19 1560.07 1964.93 1566.35 1951.2C1566.2 1953.63 1566.13 1956.07 1566.13 1958.53V2007.85C1562.97 2008.21 1559.79 2008.56 1556.56 2008.89" fill="#B9AFBE"/>
<path d="M2263.8 2205.87C2348.09 2239.99 2478.55 2232.85 2567.48 2222.08C2620.83 2215.63 2658.27 2166.4 2650.41 2113.25C2643.24 2064.75 2600.55 2029.48 2551.57 2031.77C2468.39 2035.67 2343.6 2037.49 2264.59 2019.96L2263.8 2205.87Z" fill="white"/>
<path d="M2430.49 2210.73C2405.36 2210.73 2380.29 2209.6 2356.4 2206.85V2131.36C2380.72 2134.04 2406 2135.13 2431.17 2135.13C2479.68 2135.13 2527.72 2131.04 2567.47 2126.23C2590.36 2123.48 2610.29 2112.85 2624.99 2097.43C2627.51 2103.31 2629.31 2109.6 2630.29 2116.23C2633.28 2136.51 2628.09 2156.63 2615.67 2172.91C2603.28 2189.15 2585.31 2199.44 2565.04 2201.88C2524.64 2206.77 2477.44 2210.73 2430.49 2210.73" fill="#B9AFBE"/>
<path d="M2271.43 2187C2350.67 2219.08 2474.84 2212.8 2565.04 2201.88C2585.31 2199.44 2603.28 2189.15 2615.67 2172.91C2628.09 2156.63 2633.28 2136.51 2630.29 2116.23C2624.61 2077.87 2591.16 2050.35 2552.52 2052.09C2464.32 2056.24 2342.99 2057.52 2263.07 2040.45C2255.01 2048.53 2241.05 2087.59 2244.83 2131.72C2246.01 2145.59 2250.99 2178.73 2271.43 2187V2187ZM2431.35 2251.32C2368.53 2251.32 2305.33 2244.63 2256.16 2224.72C2197.4 2200.93 2195.68 2107.35 2213.01 2051.59C2229.8 1997.63 2257.76 1997.63 2268.99 2000.11C2344.47 2016.85 2463.81 2015.52 2550.63 2011.45C2610.01 2008.63 2661.8 2051.13 2670.53 2110.28C2675.16 2141.51 2667.16 2172.52 2648.01 2197.6C2628.91 2222.63 2601.19 2238.51 2569.93 2242.28C2528.47 2247.29 2480.03 2251.32 2431.35 2251.32" fill="#371A45"/>
<path d="M1315.36 2222.08C1357.08 2227.13 1408.01 2231.39 1459 2230.92C1462.51 2230.92 1465.97 2230.87 1469.48 2230.75C1473.15 2230.69 1476.88 2230.59 1480.55 2230.44C1483.05 2230.39 1485.49 2230.28 1487.89 2230.17C1490.81 2230.01 1493.69 2229.85 1496.57 2229.69C1500.24 2229.48 1503.91 2229.21 1507.53 2228.95H1507.8C1511.41 2228.68 1515.09 2228.36 1518.71 2227.99C1521.11 2227.77 1523.49 2227.51 1525.84 2227.24C1527.87 2227.08 1529.88 2226.81 1531.85 2226.6C1534.99 2226.23 1538.13 2225.8 1541.16 2225.37C1544.09 2224.96 1546.96 2224.53 1549.79 2224.05C1550.37 2224 1550.96 2223.95 1551.49 2223.79C1554.84 2223.31 1558.15 2222.72 1561.39 2222.08C1564.69 2221.49 1567.93 2220.85 1571.13 2220.16C1571.4 2220.11 1571.65 2220.05 1571.93 2220C1573.73 2219.57 1575.55 2219.2 1577.31 2218.77C1579.27 2218.36 1581.24 2217.88 1583.21 2217.35H1583.27C1589.28 2215.85 1595.19 2214.15 1600.93 2212.35C1604.01 2211.39 1607.11 2210.32 1610.13 2209.25C1613.17 2208.19 1616.15 2207.01 1619.03 2205.85L1618.65 2116.6L1618.23 2019.95C1598 2024.47 1574.75 2027.67 1550 2029.91C1478.05 2036.45 1393.16 2034.64 1331.27 2031.76C1329.77 2031.72 1328.29 2031.67 1326.75 2031.67C1279.69 2031.67 1239.36 2066.25 1232.44 2113.24C1224.56 2166.41 1262.03 2215.64 1315.36 2222.08" fill="white"/>
<path d="M1452.35 2210.73C1405.41 2210.73 1358.19 2206.77 1317.79 2201.88C1297.53 2199.44 1279.55 2189.15 1267.17 2172.92C1254.73 2156.64 1249.55 2136.51 1252.55 2116.23C1253.12 2112.33 1253.99 2108.55 1255.11 2104.91C1270.03 2121.95 1291.04 2133.79 1315.36 2136.72C1354.93 2141.51 1402.77 2145.59 1451.09 2145.59C1453.73 2145.59 1456.36 2145.57 1459 2145.55C1462.52 2145.55 1465.97 2145.49 1469.48 2145.39C1473.16 2145.33 1476.88 2145.23 1480.56 2145.07C1483.05 2145.01 1485.51 2144.91 1487.91 2144.8C1490.83 2144.64 1493.71 2144.49 1496.57 2144.33C1500.25 2144.12 1503.92 2143.85 1507.53 2143.59H1507.8C1511.43 2143.32 1515.09 2143 1518.72 2142.63C1521.11 2142.41 1523.51 2142.15 1525.84 2141.88C1527.87 2141.72 1529.89 2141.45 1531.87 2141.24C1535 2140.87 1538.13 2140.44 1541.17 2140.01C1544.11 2139.59 1546.97 2139.16 1549.8 2138.68C1550.39 2138.63 1550.96 2138.57 1551.49 2138.41C1554.85 2137.95 1558.15 2137.36 1561.4 2136.72C1562.99 2136.44 1564.56 2136.13 1566.13 2135.83V2200.49C1531.21 2207.93 1491.88 2210.73 1452.35 2210.73" fill="#B9AFBE"/>
<path d="M1326.72 2052.01C1289.6 2052.01 1258.04 2079.04 1252.55 2116.23C1249.55 2136.51 1254.73 2156.64 1267.17 2172.92C1279.55 2189.15 1297.53 2199.44 1317.79 2201.88C1408 2212.8 1532.16 2219.08 1611.4 2187L1619.04 2205.87L1611.4 2187C1631.85 2178.72 1636.83 2145.59 1638.01 2131.72C1641.79 2087.57 1627.83 2048.53 1619.77 2040.45C1539.84 2057.51 1418.53 2056.23 1330.31 2052.09C1329.11 2052.04 1327.91 2052.01 1326.72 2052.01V2052.01ZM1451.49 2251.32C1402.8 2251.32 1354.37 2247.29 1312.91 2242.28C1281.65 2238.51 1253.92 2222.64 1234.81 2197.6C1215.68 2172.52 1207.68 2141.51 1212.29 2110.28C1221.03 2051.15 1272.72 2008.61 1332.21 2011.45C1419.03 2015.52 1538.36 2016.85 1613.84 2000.11C1625.08 1997.63 1653.03 1997.63 1669.81 2051.59C1687.16 2107.35 1685.44 2200.93 1626.67 2224.72C1577.51 2244.63 1514.29 2251.32 1451.49 2251.32Z" fill="#371A45"/>
<path d="M1586.45 1958.53V2256.44C1586.45 2311.72 1631.71 2356.96 1686.97 2356.96H2235.61C2290.81 2356.96 2336.07 2311.72 2336.07 2256.44V1958.53C2336.07 1903.25 2290.81 1858.09 2235.61 1858.09H1686.97C1654.44 1858.09 1625.39 1873.76 1606.96 1897.91C1594.11 1914.77 1586.45 1935.8 1586.45 1958.53" fill="white"/>
<path d="M2086.76 2247.87C2080.53 2247.87 2074.04 2247.68 2067.29 2247.28C1895.17 2237.16 1869.48 2098.45 1869.48 2098.45H1853.09C1851.4 2082.24 1845.24 2067.36 1835.87 2055.05C1820.04 2034.27 1795.04 2020.87 1766.91 2020.87C1731.85 2020.87 1701.67 2041.68 1688.01 2071.63C1684.23 2079.95 1681.71 2088.97 1680.72 2098.45H1664.69C1664.69 2098.45 1665.25 2187.85 1631.84 2188.44C1631.71 2188.44 1631.56 2188.44 1631.43 2188.44C1621.12 2188.44 1613.17 2182.13 1606.83 2171.25V1958.53C1606.83 1914.35 1642.76 1878.41 1686.93 1878.41H2235.6C2279.77 1878.41 2315.72 1914.35 2315.72 1958.53V2039.33C2237.21 2094.52 2262.65 2247.87 2086.76 2247.87" fill="white"/>
<path d="M2235.6 2336.6H1686.93C1642.76 2336.6 1606.83 2300.65 1606.83 2256.48V2171.25C1613.17 2182.13 1621.12 2188.44 1631.43 2188.44C1631.56 2188.44 1631.71 2188.44 1631.84 2188.44C1665.25 2187.85 1664.69 2098.45 1664.69 2098.45H1680.72C1680.41 2101.43 1680.25 2104.47 1680.25 2107.53C1680.25 2111.6 1680.52 2115.59 1681.08 2119.51C1686.93 2161.68 1723.12 2194.15 1766.91 2194.15C1810.4 2194.15 1846.4 2162.09 1852.6 2120.33C1853.25 2116.15 1853.56 2111.88 1853.56 2107.53C1853.56 2104.47 1853.4 2101.43 1853.09 2098.45H1869.48C1869.48 2098.45 1895.17 2237.16 2067.29 2247.28C2074.04 2247.68 2080.53 2247.87 2086.76 2247.87C2262.65 2247.87 2237.21 2094.52 2315.72 2039.33V2256.48C2315.72 2300.65 2279.77 2336.6 2235.6 2336.6" fill="#B9AFBE"/>
<path d="M1686.93 1878.41C1642.76 1878.41 1606.83 1914.35 1606.83 1958.53V2256.48C1606.83 2300.65 1642.76 2336.6 1686.93 2336.6H2235.6C2279.77 2336.6 2315.72 2300.65 2315.72 2256.48V1958.53C2315.72 1914.35 2279.77 1878.41 2235.6 1878.41H1686.93ZM2235.6 2377.29H1686.93C1620.32 2377.29 1566.13 2323.09 1566.13 2256.48V1958.53C1566.13 1891.92 1620.32 1837.72 1686.93 1837.72H2235.6C2302.21 1837.72 2356.4 1891.92 2356.4 1958.53V2256.48C2356.4 2323.09 2302.21 2377.29 2235.6 2377.29" fill="#371A45"/>
<path d="M1680.27 2107.51C1680.27 2155.35 1719.05 2194.15 1766.91 2194.15C1814.75 2194.15 1853.55 2155.35 1853.55 2107.51C1853.55 2059.65 1814.75 2020.87 1766.91 2020.87C1719.05 2020.87 1680.27 2059.65 1680.27 2107.51Z" fill="#22A7F0"/>
<path d="M1680.25 2107.53C1680.25 2112.23 1680.61 2116.83 1681.37 2121.33C1687.97 2080.03 1723.76 2048.48 1766.91 2048.48C1810.05 2048.48 1845.84 2080.03 1852.44 2121.33C1853.2 2116.83 1853.56 2112.23 1853.56 2107.53C1853.56 2059.68 1814.76 2020.87 1766.91 2020.87C1719.05 2020.87 1680.25 2059.68 1680.25 2107.53Z" fill="white"/>
<path d="M1766.91 2194.11C1723.76 2194.11 1687.99 2162.57 1681.39 2121.28C1683.2 2109.92 1687.23 2099.31 1693.01 2089.88C1708.17 2114.75 1735.6 2131.33 1766.91 2131.33C1798.21 2131.33 1825.64 2114.76 1840.81 2089.89C1846.59 2099.33 1850.61 2109.96 1852.44 2121.33C1852.45 2121.24 1852.47 2121.15 1852.48 2121.05C1845.97 2162.45 1810.13 2194.11 1766.91 2194.11" fill="#2976B4"/>
<path d="M1852.44 2121.33C1850.61 2109.96 1846.59 2099.33 1840.81 2089.89C1843.45 2085.55 1845.73 2080.95 1847.6 2076.13C1851.45 2085.87 1853.53 2096.41 1853.53 2107.48C1853.53 2112.11 1853.17 2116.64 1852.48 2121.05C1852.47 2121.15 1852.45 2121.24 1852.44 2121.33V2121.33ZM1681.39 2121.28C1680.67 2116.79 1680.29 2112.19 1680.29 2107.48C1680.29 2096.41 1682.37 2085.87 1686.23 2076.13C1688.09 2080.95 1690.36 2085.53 1693.01 2089.88C1687.23 2099.31 1683.2 2109.92 1681.39 2121.28Z" fill="#B9AFBE"/>
<path d="M1766.89 2036.12C1727.53 2036.12 1695.52 2068.15 1695.52 2107.51C1695.52 2146.87 1727.53 2178.88 1766.89 2178.88C1806.27 2178.88 1838.28 2146.87 1838.28 2107.51C1838.28 2068.15 1806.27 2036.12 1766.89 2036.12ZM1766.89 2209.4C1710.72 2209.4 1665 2163.69 1665 2107.51C1665 2051.32 1710.72 2005.6 1766.89 2005.6C1823.08 2005.6 1868.8 2051.32 1868.8 2107.51C1868.8 2163.69 1823.08 2209.4 1766.89 2209.4" fill="#371A45"/>
<path d="M2012.43 2377.28C2001.19 2377.28 1992.08 2368.17 1992.08 2356.95V2183.99C1992.08 2152.91 2006.91 2123.19 2031.73 2104.51L2078.36 2069.39C2093.04 2058.35 2101.8 2040.79 2101.8 2022.41V1858.07C2101.8 1846.83 2110.91 1837.72 2122.15 1837.72C2133.39 1837.72 2142.49 1846.83 2142.49 1858.07V2022.41C2142.49 2053.51 2127.67 2083.21 2102.84 2101.91L2056.21 2137.01C2041.53 2148.05 2032.77 2165.61 2032.77 2183.99V2356.95C2032.77 2368.17 2023.67 2377.28 2012.43 2377.28" fill="#371A45"/>
<path d="M2680.09 1463.89C2728.11 1663.17 2929.16 1644.6 2984.49 1631.13C3099.92 1603.03 3139.52 1494.25 3139.52 1494.25L3046.43 1371.21L3005.03 1304.64L2955.59 1289.77C2916.73 1218.96 2833.97 1138.65 2786.45 1166.99C2786.45 1166.99 2638.69 1292.12 2680.09 1463.89Z" fill="white"/>
<path d="M2956.57 1532.03C2939 1531.6 2920.25 1530.27 2900.24 1527.93C2860.89 1523.35 2825.99 1504.12 2805.88 1474.67C2837.79 1444.55 2844.01 1409.03 2842.81 1382.31C2864.05 1401.19 2884.27 1411.05 2902.27 1414.29L2916.43 1448.88C2917.25 1450.88 2918.37 1452.72 2919.75 1454.33C2917.48 1460.84 2916.11 1467.79 2916.12 1475.03C2916.15 1487.79 2920.63 1506.45 2941.87 1522.92C2946.25 1526.33 2951.19 1529.37 2956.57 1532.03" fill="#B9AFBE"/>
<path d="M3150.48 1228.99C3104.52 1275.12 3064.27 1309.13 3064.27 1309.13L2935.27 1441.15L2848.2 1228.53C2848.2 1228.53 2847.69 1185.63 2851.04 1128.83C2857.56 1016.37 2878.97 849.56 2948.47 853.867C3073.45 861.64 2990.76 1190.79 2990.76 1190.79C2990.76 1190.79 3190.28 924.773 3270.19 1000.33C3316.96 1044.55 3225.99 1153.15 3150.48 1228.99" fill="white"/>
<path d="M2951.68 1282.83C2931.03 1247.45 2900.21 1210.69 2868.88 1186.96C2869.19 1173.81 2869.69 1159.37 2870.45 1144.13C2904.75 1171.2 2950.76 1208.28 2968.88 1232C2979.83 1246.35 2995.52 1251.27 3013.49 1251.27C3033.08 1251.27 3055.39 1245.43 3077.25 1239.6C3092.53 1235.52 3107.59 1231.45 3121.37 1229.36C3112.61 1237.95 3103.88 1246.28 3095.31 1254.27C3089.44 1253.47 3082.99 1253.08 3076.08 1253.08C3039.49 1253.08 2990.4 1264.03 2951.68 1282.83" fill="#B9AFBE"/>
<path d="M2868.52 1224.43L2942.36 1404.8L3049.72 1294.89C3050.17 1294.44 3050.65 1294 3051.15 1293.57C3132.01 1225.2 3260.95 1093.97 3262.64 1032.92C3262.92 1022.8 3259.36 1018.11 3256.23 1015.15C3249.69 1008.96 3241.85 1006.48 3231.61 1007.36C3163.49 1013.15 3046.39 1150.56 3007.01 1203.03C3001.2 1210.77 2990.73 1213.33 2981.99 1209.17C2973.24 1205 2968.65 1195.25 2971.01 1185.85C2986.75 1123.15 3018.4 947.827 2976.43 890.427C2968.88 880.107 2959.6 874.947 2947.21 874.174C2943.23 873.921 2936.97 874.454 2929.16 881.88C2877.65 930.827 2867.96 1141.99 2868.52 1224.43V1224.43ZM2935.25 1461.52C2933.96 1461.52 2932.67 1461.39 2931.36 1461.13C2924.64 1459.83 2919.03 1455.21 2916.43 1448.88L2829.37 1236.21C2828.4 1233.84 2827.89 1231.31 2827.85 1228.73C2827.51 1197.68 2826.59 923.227 2901.12 852.387C2915.24 838.974 2932.13 832.494 2949.73 833.56C2974.08 835.08 2994.67 846.44 3009.28 866.427C3049.2 921.014 3039.87 1035.33 3027 1114.36C3080.37 1053.67 3163.23 972.347 3228.15 966.814C3249.81 964.96 3269.25 971.454 3284.19 985.574C3297.24 997.921 3303.85 1014.68 3303.31 1034.05C3300.57 1132.25 3104.28 1301.88 3078.16 1324.03L2949.81 1455.39C2945.95 1459.35 2940.68 1461.52 2935.25 1461.52" fill="#371A45"/>
<path d="M3163.12 1471.24C3132.52 1521.01 3002.55 1544.24 2954.31 1506.84C2913.27 1474.99 2954.25 1434.4 2965.93 1424.08C2967.75 1422.44 2968.88 1421.59 2968.88 1421.59C2968.88 1421.59 2918.95 1406.28 2910.21 1364.23C2909.64 1361.51 2909.25 1358.67 2909.08 1355.67C2906.01 1307.15 3035.59 1265.27 3094.43 1274.73C3138.41 1281.81 3155.19 1299.72 3159.32 1318.88C3163.75 1339.29 3153.83 1361.11 3147.2 1372.79C3144.13 1378.12 3141.81 1381.29 3141.81 1381.29C3141.81 1381.29 3187.67 1431.4 3163.12 1471.24" fill="white"/>
<path d="M2989.17 1422.29C2989.21 1420.85 2989.12 1419.4 2988.85 1417.96C2987.51 1410.52 2982.12 1404.44 2974.92 1402.16C2974.76 1402.11 2968.71 1400.15 2961.05 1395.96C2966.93 1389.48 2971.35 1381.73 2974 1373.27C2982.25 1373.83 2990.88 1374.15 2999.76 1374.15C3045.37 1374.15 3097.64 1365.64 3139.6 1335.51C3137.55 1349.44 3129.27 1363.89 3125.39 1369.29C3122 1373.91 3120.83 1379.57 3121.79 1384.91C3088.59 1399.65 3041.29 1416.52 2989.17 1422.29Z" fill="#B9AFBE"/>
<path d="M3025.31 1504.91C3000.2 1504.91 2978.67 1499.97 2966.8 1490.77C2957.88 1483.85 2956.83 1478.45 2956.81 1474.99C2956.8 1473.81 2956.92 1472.61 2957.15 1471.4C2973.31 1480.01 2995.15 1483.93 3018.6 1483.93C3067.85 1483.93 3124.17 1466.64 3149.53 1439.21C3150.61 1446.64 3149.83 1454.05 3145.8 1460.6C3135.09 1478 3102.04 1494.39 3063.56 1501.37C3050.43 1503.76 3037.45 1504.91 3025.31 1504.91" fill="#B9AFBE"/>
<path d="M3075.45 1293.68C3033.89 1293.68 2968.31 1312.43 2939.43 1338.68C2932.8 1344.69 2929.15 1350.43 2929.4 1354.4C2931.56 1388.08 2974.48 1402.03 2974.92 1402.16C2982.12 1404.44 2987.51 1410.52 2988.85 1417.96C2990.2 1425.39 2987.36 1432.96 2981.41 1437.61C2973.39 1443.97 2956.73 1461.55 2956.81 1474.99C2956.83 1478.45 2957.88 1483.85 2966.8 1490.77C2984.4 1504.43 3023.28 1508.68 3063.56 1501.37C3102.04 1494.39 3135.09 1478 3145.8 1460.6C3161.69 1434.8 3127.11 1395.4 3126.76 1395.01C3120.27 1387.85 3119.67 1377.08 3125.39 1369.29C3130.88 1361.65 3145.16 1335.92 3138.2 1319.13C3132.04 1304.28 3109.24 1297.69 3091.21 1294.8C3086.53 1294.04 3081.23 1293.68 3075.45 1293.68ZM3024.96 1545.71C2990.61 1545.71 2961.11 1537.85 2941.87 1522.92C2920.63 1506.45 2916.15 1487.79 2916.12 1475.03C2916.08 1456.57 2925.12 1440 2934.68 1427.64C2914.69 1415.12 2891.08 1392.88 2888.8 1357C2888.04 1345.23 2891.47 1327.27 2912.07 1308.56C2955.47 1269.13 3049.12 1246.84 3097.67 1254.63C3138.89 1261.25 3165.2 1277.79 3175.87 1303.75C3187.68 1332.49 3175.81 1362.83 3166.56 1379.91C3181.13 1400.48 3204.33 1443.17 3180.45 1481.93C3163.27 1509.83 3122.29 1532.07 3070.83 1541.41C3054.95 1544.29 3039.51 1545.71 3024.96 1545.71" fill="#371A45"/>
<path d="M2985.19 1442.41C2979.43 1442.41 2973.59 1442.25 2967.69 1441.89C2956.47 1441.24 2947.91 1431.61 2948.56 1420.4C2949.23 1409.17 2958.87 1400.49 2970.07 1401.28C3057.49 1406.4 3130.76 1364.2 3131.48 1363.77C3141.19 1358.11 3153.64 1361.33 3159.32 1371C3165 1380.68 3161.8 1393.12 3152.13 1398.83C3148.95 1400.71 3077.16 1442.41 2985.19 1442.41" fill="#371A45"/>
<path d="M2786.47 1167C2849.55 1129.39 2974.59 1283.04 2976.88 1352C2978.64 1404.63 2916.29 1448.55 2841.79 1381.39C2766.29 1313.33 2687.4 1226.08 2786.47 1167" fill="white"/>
<path d="M3139.52 1494.28C3139.52 1494.28 3099.91 1603.01 2984.52 1631.12C2929.16 1644.6 2728.12 1663.19 2680.09 1463.88C2638.69 1292.12 2786.47 1167 2786.47 1167C2849.55 1129.39 2974.59 1283.04 2976.88 1352C2978.64 1404.63 2900.4 1434.48 2834.88 1341.85C2834.88 1341.85 2869.4 1425.99 2795.69 1483.39L2969.36 1583.43L3100.69 1557.79L3139.52 1494.28" fill="white"/>
<path d="M2830.01 1443.07L2826.55 1441.09C2829.16 1439.05 2831.53 1437.07 2833.8 1434.96C2832.67 1437.63 2831.43 1440.35 2830.01 1443.07Z" fill="white"/>
<path d="M2966.07 1384.03C2972.37 1376.55 2976.24 1367.11 2976.83 1356.6C2976.84 1356.59 2976.85 1356.59 2976.87 1356.57C2976.27 1367.11 2972.4 1376.55 2966.07 1384.03Z" fill="#B9AFBE"/>
<path d="M2925.53 1401.61C2906.59 1401.61 2884.27 1393.27 2861.97 1372.96C2858.63 1345.57 2837.6 1326.25 2837.6 1326.25C2836.05 1320.55 2837.51 1318.24 2841.25 1318.24C2849.24 1318.24 2867.61 1328.75 2889.32 1339.25C2911.04 1349.77 2936.09 1360.28 2957.44 1360.28C2964.37 1360.28 2970.92 1359.17 2976.83 1356.6C2976.24 1367.11 2972.37 1376.55 2966.07 1384.03C2956.91 1394.87 2942.57 1401.61 2925.53 1401.61" fill="#B9AFBE"/>
<path d="M3076.29 1582.91C3076.29 1582.89 3076.29 1582.89 3076.29 1582.88C3085.56 1574.68 3093.65 1566.17 3100.69 1557.8L3100.72 1557.79C3093.68 1566.16 3085.56 1574.69 3076.29 1582.91V1582.91ZM2673.77 1380.15C2674.08 1376.61 2674.47 1373.09 2674.91 1369.63C2674.47 1373.09 2674.08 1376.61 2673.77 1380.15Z" fill="#845EBE"/>
<path d="M2887 1637.72C2822.77 1632.53 2746.55 1606.83 2703.59 1526.83V1526.81C2745.48 1604.83 2818.99 1631.2 2882.16 1637.28C2883.75 1637.43 2885.32 1637.57 2886.89 1637.69C2886.93 1637.71 2886.96 1637.71 2887 1637.72Z" fill="#B9AFBE"/>
<path d="M2913.79 1638.79C2905.2 1638.79 2896.23 1638.45 2887 1637.72C2886.96 1637.71 2886.93 1637.71 2886.89 1637.69C2896.15 1638.44 2905.15 1638.77 2913.77 1638.77C2944.05 1638.77 2969.57 1634.77 2984.49 1631.13C3003.68 1626.45 3020.79 1619.56 3035.95 1611.29C3035.95 1611.31 3035.95 1611.29 3035.95 1611.31C3020.79 1619.56 3003.69 1626.47 2984.52 1631.13C2969.59 1634.77 2944.04 1638.79 2913.79 1638.79Z" fill="#8C7B94"/>
<path d="M3035.95 1611.31C3035.95 1611.29 3035.95 1611.31 3035.95 1611.29C3037.79 1610.29 3039.6 1609.27 3041.37 1608.23C3054.49 1600.57 3066.09 1591.92 3076.29 1582.88C3076.29 1582.89 3076.29 1582.89 3076.29 1582.91C3064.71 1593.16 3051.32 1602.93 3035.95 1611.31V1611.31ZM2703.59 1526.83C2693.88 1508.75 2685.87 1487.89 2680.08 1463.87C2673 1434.47 2671.45 1406.43 2673.77 1380.15C2671.47 1406.43 2673 1434.47 2680.09 1463.88C2685.88 1487.89 2693.88 1508.73 2703.59 1526.81V1526.83" fill="#371A45"/>
<path d="M2913.77 1638.77C2905.15 1638.77 2896.15 1638.44 2886.89 1637.69C2885.32 1637.57 2883.75 1637.43 2882.16 1637.28C2893.08 1638.32 2903.68 1638.77 2913.76 1638.77C2944.04 1638.77 2969.59 1634.76 2984.52 1631.12C3006.03 1625.88 3024.91 1617.84 3041.37 1608.23C3039.6 1609.27 3037.79 1610.29 3035.95 1611.29C3020.79 1619.56 3003.68 1626.45 2984.49 1631.13C2969.57 1634.77 2944.05 1638.77 2913.77 1638.77ZM3078.52 1562.12C3078.53 1562.11 3078.55 1562.11 3078.56 1562.11L3093.55 1559.19L3078.52 1562.12Z" fill="#B9AFBE"/>
<path d="M2674.92 1369.57C2674.93 1369.44 2674.95 1369.32 2674.97 1369.2C2674.95 1369.32 2674.93 1369.44 2674.92 1369.57ZM2674.97 1369.15C2674.99 1369.03 2675 1368.91 2675.03 1368.79C2675 1368.91 2674.99 1369.03 2674.97 1369.15ZM2675.05 1368.59C2675.05 1368.53 2675.05 1368.49 2675.07 1368.44C2675.07 1368.49 2675.05 1368.53 2675.05 1368.59Z" fill="#845EBE"/>
<path d="M2913.76 1638.77C2903.68 1638.77 2893.08 1638.32 2882.16 1637.28C2818.99 1631.2 2745.48 1604.83 2703.59 1526.81C2693.88 1508.73 2685.88 1487.89 2680.09 1463.88C2673 1434.47 2671.47 1406.43 2673.77 1380.15C2674.08 1376.61 2674.47 1373.09 2674.91 1369.63C2674.92 1369.6 2674.92 1369.59 2674.92 1369.57C2674.93 1369.44 2674.95 1369.32 2674.97 1369.2C2674.97 1369.17 2674.97 1369.16 2674.97 1369.15C2674.99 1369.03 2675 1368.91 2675.03 1368.79C2675.03 1368.72 2675.04 1368.65 2675.05 1368.59C2675.05 1368.53 2675.07 1368.49 2675.07 1368.44C2684.76 1295.72 2723.2 1237.51 2752.24 1202.75C2718.97 1255.8 2689.44 1332.43 2710.92 1421.59C2745.99 1567.13 2862.67 1596.49 2944.63 1596.49C2974.89 1596.49 3000.41 1592.49 3015.36 1588.85C3039.65 1582.91 3060.63 1573.45 3078.52 1562.12L3093.55 1559.19L3100.69 1557.8C3093.65 1566.17 3085.56 1574.68 3076.29 1582.88C3066.09 1591.92 3054.49 1600.57 3041.37 1608.23C3024.91 1617.84 3006.03 1625.88 2984.52 1631.12C2969.59 1634.76 2944.04 1638.77 2913.76 1638.77" fill="#B9AFBE"/>
<path d="M3139.48 1494.37C3139.09 1495.44 3135.92 1503.77 3129.28 1515.96L3125.88 1516.64L3139.48 1494.37Z" fill="white"/>
<path d="M3131.55 1515.51C3129.73 1517.67 3127.87 1519.88 3125.88 1522.03C3127.07 1519.93 3128.21 1517.89 3129.28 1515.96L3131.55 1515.51Z" fill="white"/>
<path d="M2760.77 1602.03C2749.36 1599.81 2739.01 1594.89 2729.56 1588.71C2720.11 1582.48 2711.59 1574.83 2704.37 1566.13C2689.56 1548.99 2678.64 1528.8 2671.24 1507.89C2657.05 1466.28 2649.51 1421.84 2653.67 1377.67C2657.53 1333.57 2672.08 1291.24 2692.97 1253.37C2703.43 1234.39 2715.43 1216.39 2728.73 1199.47C2735.37 1190.99 2742.33 1182.76 2749.65 1174.81C2753.33 1170.85 2757.04 1166.93 2760.92 1163.09C2764.89 1159.17 2768.52 1155.65 2773.32 1151.48C2774.07 1150.84 2774.84 1150.27 2775.65 1149.76L2776.04 1149.53C2789.16 1141.63 2805.11 1139.71 2818.25 1141.56C2831.6 1143.35 2843.08 1147.89 2853.49 1153.16C2863.95 1158.44 2873.2 1164.76 2881.99 1171.44C2890.79 1178.09 2898.92 1185.28 2906.64 1192.77C2922.15 1207.69 2935.91 1223.95 2948.55 1241.05C2961.03 1258.29 2972.37 1276.4 2981.69 1296.25C2986.29 1306.23 2990.44 1316.6 2993.48 1328C2994.97 1333.71 2996.24 1339.64 2996.8 1346.17L2997.19 1351.05C2997.19 1352.77 2997.08 1354.59 2996.99 1356.35C2996.67 1359.88 2996.83 1363.43 2995.88 1366.93C2993.53 1381.2 2985.33 1394.57 2974.57 1404.04C2963.76 1413.48 2950.19 1419.61 2936.75 1421.05C2933.37 1421.79 2930.07 1421.75 2926.75 1421.76C2923.47 1421.68 2920.03 1422.01 2916.88 1421.45C2910.52 1420.47 2903.99 1419.72 2898.19 1417.52C2895.21 1416.56 2892.2 1415.65 2889.29 1414.57L2881.08 1410.65C2875.43 1408.2 2870.6 1404.84 2865.68 1401.59C2846.25 1388.25 2831.27 1371.28 2818.27 1353.61L2853.69 1334.13C2855.49 1338.8 2856.44 1341.99 2857.51 1345.8C2858.53 1349.47 2859.39 1353.13 2860.09 1356.81C2861.61 1364.16 2862.45 1371.6 2863 1379.11C2863.75 1394.12 2862.8 1409.47 2859.63 1424.71C2858.33 1432.39 2855.35 1439.75 2852.32 1446.95C2850.49 1450.41 2848.44 1453.77 2846.49 1457.16C2844.55 1460.56 2841.76 1463.37 2839.39 1466.43C2829.41 1478.33 2815.6 1486.56 2799.87 1488.75C2795.61 1489.33 2791.69 1486.36 2791.11 1482.12C2790.97 1481.15 2791.03 1480.19 2791.23 1479.29L2791.53 1478.04C2793.35 1470.32 2796.4 1464.83 2798.68 1459.05C2800.93 1453.31 2803.77 1448.47 2805.87 1443.37C2810.76 1433.61 2814.85 1424.13 2818.27 1413.95C2821.76 1403.83 2823.21 1392.69 2822.39 1381.51C2821.96 1375.92 2821.35 1370.31 2820.2 1364.8C2819.67 1362.03 2819.03 1359.31 2818.28 1356.64C2817.63 1354.13 2816.6 1351.04 2816.05 1349.59L2815.95 1349.29C2812.03 1338.73 2817.43 1326.99 2827.99 1323.08C2836.71 1319.85 2846.23 1322.97 2851.48 1330.11C2862.36 1344.88 2874.6 1358.4 2888.53 1367.92C2902.27 1377.29 2917.97 1382.81 2931.12 1380.75C2937.83 1380.2 2943.36 1377.16 2947.67 1373.52C2951.83 1369.72 2955.12 1365.01 2955.92 1359.2C2956.47 1357.87 2956.08 1356.24 2956.33 1354.79L2956.53 1352.53L2956.28 1349.88C2956 1346.36 2955.2 1342.37 2954.12 1338.33C2951.97 1330.23 2948.67 1321.77 2944.81 1313.45C2928.89 1280.07 2905.28 1248.28 2878.37 1222.04C2864.91 1208.99 2850.12 1197.23 2834.95 1189.37C2827.43 1185.53 2819.77 1182.79 2813.11 1181.93C2806.35 1181.08 2801.23 1181.99 2796.88 1184.48L2799.61 1182.53C2796.68 1185.08 2792.91 1188.65 2789.61 1191.95C2786.2 1195.32 2782.88 1198.84 2779.59 1202.39C2773.03 1209.51 2766.73 1216.93 2760.75 1224.59C2748.73 1239.87 2737.93 1256.08 2728.61 1272.99C2709.99 1306.79 2697.48 1343.65 2694.19 1381.33C2690.75 1418.84 2696.31 1457.44 2711.51 1492.25C2718.89 1509.53 2727.45 1525.83 2737.25 1541.47C2747.21 1557.11 2757.84 1571.99 2768.59 1590.95L2768.65 1591.05C2770.68 1594.63 2769.43 1599.17 2765.85 1601.19C2764.25 1602.11 2762.45 1602.35 2760.77 1602.03" fill="#371A45"/>
<path d="M3158.64 1501.24C3156.56 1506.85 3154.88 1511.01 3152.68 1515.55C3150.57 1519.99 3148.35 1524.31 3145.95 1528.51C3143.59 1532.75 3140.95 1536.79 3138.44 1540.92C3135.76 1544.93 3132.92 1548.84 3130.15 1552.77L3121.19 1564.13L3111.45 1574.84C3104.67 1581.72 3097.84 1588.52 3090.13 1594.39C3082.8 1600.64 3074.67 1605.95 3066.67 1611.21C3058.13 1615.76 3050.03 1620.84 3041.07 1624.35C3023.88 1632.59 3004.25 1635.99 2984.92 1632.77C2983.92 1632.6 2983.24 1631.65 2983.41 1630.65C2983.48 1630.21 2983.71 1629.84 2984.03 1629.56L2984.12 1629.48C2999.11 1616.53 3013.77 1608.89 3027.73 1599.4C3034.97 1595.24 3041.28 1589.61 3047.91 1584.72C3053.96 1578.97 3060.49 1573.96 3066.03 1567.76C3068.91 1564.8 3071.81 1561.91 3074.4 1558.67C3077.07 1555.51 3079.93 1552.56 3082.44 1549.28L3089.93 1539.47L3097.04 1529.36C3101.48 1522.41 3105.91 1515.48 3109.81 1508.29C3111.75 1504.68 3113.77 1501.15 3115.52 1497.51C3117.28 1494.04 3119.23 1490.03 3120.41 1487.32L3120.95 1486.07C3125.44 1475.77 3137.41 1471.07 3147.71 1475.55C3157.63 1479.87 3162.33 1491.21 3158.64 1501.24" fill="#371A45"/>
<path d="M2823.48 2005.57C2785.79 2005.57 2657.73 1995.52 2616.61 1862.6C2557.43 1671.32 2644.24 1530.36 2647.97 1524.45C2652.47 1517.32 2661.89 1515.19 2669.01 1519.69C2676.13 1524.19 2678.28 1533.59 2673.8 1540.72C2672.79 1542.32 2590.95 1676.4 2645.76 1853.57C2686.59 1985.52 2825.47 1975.36 2831.35 1974.85C2839.8 1974.2 2847.13 1980.36 2847.85 1988.75C2848.57 1997.13 2842.39 2004.52 2834 2005.25C2833.76 2005.28 2829.95 2005.57 2823.48 2005.57" fill="#371A45"/>
<path d="M1360.57 2048.24C1359.24 2048.24 1357.89 2048.07 1356.55 2047.69C1201.49 2005.33 1162.37 1879.57 1160.77 1874.24C1158.37 1866.16 1162.97 1857.67 1171.04 1855.25C1179.11 1852.85 1187.6 1857.43 1190.01 1865.49C1191.49 1870.33 1226.55 1980.53 1364.59 2018.25C1372.72 2020.48 1377.51 2028.87 1375.28 2037C1373.43 2043.77 1367.28 2048.24 1360.57 2048.24" fill="#371A45"/>
<path d="M681.533 953.947C677.386 953.947 673.213 952.88 669.439 950.68L518.893 862.774C510.389 857.814 500.746 855.187 491.007 855.187C486.281 855.187 481.586 855.814 477.042 857.027C447.778 864.88 417.485 869 387.003 869.254L383.911 869.267C189.059 869.267 28.0261 710.841 24.9448 516.107C23.4101 419.081 60.0235 327.587 128.032 258.494C196.058 189.387 286.918 151.321 383.879 151.321C386.235 151.321 388.578 151.347 390.949 151.387C586.506 155.161 744.373 317.427 742.839 513.134C742.159 601.027 709.346 685.36 650.426 750.614C633.799 769.054 631.119 796 643.786 817.68L702.266 917.854C707.759 927.28 706.213 939.214 698.506 946.92C693.879 951.547 687.733 953.947 681.533 953.947" fill="#F9195A"/>
<path d="M383.88 127.334H383.873C280.435 127.334 183.501 167.947 110.929 241.667C38.3707 315.387 -0.685378 412.987 0.955956 516.48C4.24262 724.24 176.04 893.267 383.912 893.267L387.219 893.254C419.725 892.974 452.036 888.587 483.261 880.2C485.78 879.52 488.384 879.187 491.008 879.187C496.503 879.187 501.959 880.68 506.796 883.494L657.347 971.4C664.893 975.8 673.24 977.947 681.533 977.947C693.947 977.947 706.227 973.134 715.48 963.894C730.893 948.467 733.973 924.587 722.987 905.76L664.493 805.587C657.133 792.96 658.627 777.334 668.24 766.694C731.093 697.08 766.107 607.094 766.84 513.334C768.467 304.547 600.04 131.414 391.411 127.4C388.892 127.347 386.385 127.334 383.88 127.334V127.334ZM383.88 175.307C386.08 175.307 388.273 175.334 390.487 175.374C572.96 178.894 720.267 330.454 718.853 512.947C718.187 598.187 685.653 675.787 632.613 734.547C608.973 760.734 605.267 799.307 623.053 829.787L681.547 929.96L530.987 842.054C518.76 834.907 504.933 831.2 491.008 831.2C484.244 831.2 477.46 832.067 470.819 833.854C443.996 841.054 415.839 845.014 386.803 845.267C385.839 845.28 384.876 845.28 383.912 845.28C202.155 845.28 51.8213 697.8 48.9373 515.72C45.9693 328.24 197.069 175.32 383.88 175.307" fill="#371A45"/>
<path d="M99.6102 681.227C96.9356 678.667 94.3022 676.054 91.7129 673.4C65.3209 626.574 49.8435 572.88 48.9395 515.72C48.1795 467.76 57.5062 422.054 74.9342 380.587C124.854 261.84 241.244 177.907 377.53 175.374C379.644 175.334 381.753 175.307 383.877 175.307C384.534 175.307 385.178 175.32 385.837 175.32C387.384 175.334 388.93 175.347 390.486 175.374C402.96 175.614 415.265 176.547 427.374 178.134H427.385C427.548 178.16 427.702 178.174 427.864 178.2C427.878 178.2 427.896 178.2 427.91 178.213C428.061 178.227 428.197 178.24 428.348 178.267C428.404 178.28 428.468 178.28 428.524 178.293C428.61 178.307 428.67 178.307 428.756 178.32C428.932 178.347 429.109 178.374 429.285 178.387L429.305 178.4C504.68 188.72 572.16 224.427 622.986 276.44C626.426 282.534 629.679 288.747 632.746 295.067C574.039 238.774 495.063 203.44 408.074 201.76C405.873 201.72 403.656 201.693 401.464 201.693C214.642 201.693 63.5569 354.614 66.5276 542.107C67.3142 591.854 79.1609 638.973 99.6102 681.227" fill="#FC8CAD"/>
<path d="M74.9336 380.587C124.846 261.84 241.246 177.907 377.53 175.374C241.243 177.907 124.854 261.84 74.9336 380.587ZM429.304 178.4L429.284 178.387C429.292 178.387 429.298 178.4 429.304 178.4ZM428.755 178.32C428.67 178.307 428.61 178.307 428.523 178.293C428.602 178.293 428.678 178.307 428.755 178.32ZM428.347 178.267C428.196 178.24 428.06 178.227 427.91 178.213C428.058 178.227 428.199 178.24 428.347 178.267ZM427.863 178.2C427.702 178.174 427.547 178.16 427.384 178.134C427.547 178.16 427.702 178.174 427.863 178.2ZM427.374 178.134C415.264 176.547 402.959 175.614 390.486 175.374C388.93 175.347 387.383 175.334 385.836 175.32C387.384 175.334 388.934 175.347 390.486 175.374C402.96 175.614 415.264 176.547 427.374 178.134Z" fill="#9B8DA2"/>
<path d="M681.546 929.96L626.039 897.56L530.986 842.054C518.759 834.907 504.932 831.2 491.007 831.2C484.243 831.2 477.459 832.067 470.818 833.854C470.802 833.867 470.784 833.867 470.768 833.867C470.652 833.894 470.536 833.934 470.42 833.96C457.178 837.494 443.615 840.24 429.78 842.147C429.768 842.147 429.754 842.147 429.742 842.147C429.668 842.16 429.595 842.174 429.522 842.187C429.466 842.187 429.408 842.2 429.352 842.214C429.316 842.214 429.284 842.214 429.248 842.227C429.168 842.227 429.088 842.24 429.007 842.254C428.988 842.254 428.971 842.254 428.952 842.267C415.151 844.12 401.082 845.147 386.802 845.267C385.838 845.28 384.875 845.28 383.911 845.28C347.179 845.28 311.746 839.254 278.539 828.147C278.512 828.134 278.467 828.12 278.44 828.107C278.33 828.08 278.2 828.027 278.09 827.987C278.055 827.987 278.026 827.974 277.991 827.96C277.871 827.92 277.73 827.867 277.61 827.827C277.54 827.814 277.478 827.787 277.408 827.76C277.348 827.747 277.291 827.72 277.231 827.707C198.175 800.88 131.95 745.16 91.5137 673.2C91.5817 673.267 91.6444 673.334 91.7124 673.4C98.4697 685.387 105.946 696.934 114.072 707.974C108.866 699.307 104.035 690.374 99.6097 681.227C159.992 739.174 241.746 774.92 331.148 774.92C332.111 774.92 333.07 774.92 334.034 774.907C363.074 774.667 391.226 770.707 418.054 763.507C420.894 762.734 425.162 762.214 430.4 761.867C480.307 758.56 524.932 731.747 555.372 692.054C562.866 682.28 571.412 673.534 579.852 664.187C632.892 605.44 665.426 527.827 666.079 442.6C666.492 389.88 654.426 339.787 632.746 295.067C646.746 308.494 659.599 323.12 671.132 338.774C657.532 316.16 641.346 295.227 622.986 276.44C622.972 276.414 622.959 276.4 622.946 276.387C682.799 337.587 719.559 421.374 718.852 512.947C718.199 597.4 686.252 674.347 634.092 732.894L634.079 732.907C633.986 733.014 633.879 733.12 633.786 733.24C633.772 733.254 633.772 733.254 633.759 733.267C633.666 733.374 633.586 733.467 633.492 733.56C633.199 733.894 632.906 734.214 632.612 734.547C618.759 749.894 611.746 769.507 611.906 789.24C611.906 802.96 615.426 816.707 622.719 829.214L638.692 856.56L681.546 929.96" fill="#B31D61"/>
<path d="M681.547 929.96L638.694 856.56L681.547 929.96ZM626.04 897.56L530.987 842.054C518.747 834.907 504.946 831.254 491.02 831.254C484.244 831.254 477.439 832.12 470.77 833.867C470.786 833.867 470.803 833.867 470.819 833.854C477.46 832.067 484.244 831.2 491.008 831.2C504.934 831.2 518.76 834.907 530.987 842.054L626.04 897.56V897.56ZM383.914 845.28C347.183 845.28 311.747 839.254 278.54 828.147C311.747 839.254 347.18 845.28 383.912 845.28C384.876 845.28 385.839 845.28 386.803 845.267C401.083 845.147 415.152 844.12 428.954 842.267C415.152 844.12 401.083 845.147 386.8 845.267C385.839 845.28 384.874 845.28 383.914 845.28V845.28ZM429.008 842.254C429.09 842.24 429.17 842.227 429.25 842.227C429.17 842.227 429.088 842.24 429.008 842.254ZM429.354 842.214C429.41 842.2 429.467 842.187 429.523 842.187C429.467 842.187 429.41 842.2 429.354 842.214ZM429.743 842.147C429.755 842.147 429.77 842.147 429.782 842.147C429.77 842.147 429.755 842.147 429.743 842.147ZM278.442 828.107C278.323 828.067 278.21 828.027 278.091 827.987C278.202 828.027 278.331 828.08 278.442 828.107ZM277.992 827.96C277.867 827.92 277.736 827.88 277.611 827.827C277.731 827.867 277.872 827.92 277.992 827.96ZM277.41 827.76C277.354 827.747 277.288 827.72 277.232 827.707C277.292 827.72 277.35 827.747 277.41 827.76ZM611.907 789.24C611.747 769.507 618.76 749.894 632.614 734.547C632.907 734.214 633.2 733.894 633.494 733.56C633.494 733.574 633.48 733.574 633.48 733.587C619.374 749.32 611.907 769.24 611.907 789.24ZM633.76 733.267C633.774 733.254 633.774 733.254 633.787 733.24C633.774 733.254 633.774 733.254 633.76 733.267ZM634.08 732.907L634.094 732.894L634.08 732.907Z" fill="#2B1E52"/>
<path d="M114.073 707.974C105.946 696.934 98.4702 685.387 91.7129 673.4C94.3022 676.054 96.9356 678.667 99.6102 681.227C104.036 690.373 108.866 699.307 114.073 707.974ZM671.133 338.774C659.6 323.12 646.746 308.494 632.746 295.067C629.679 288.747 626.426 282.534 622.986 276.44C641.346 295.227 657.533 316.16 671.133 338.774Z" fill="#B56E9B"/>
<path d="M506.029 398.347C471.805 364.12 416.319 370.254 382.095 404.467L376.768 409.8L371.441 404.467C337.218 370.254 281.732 364.12 247.508 398.347C213.284 432.56 213.284 488.054 247.508 522.28L252.833 527.6L360.432 635.2C369.455 644.227 384.083 644.227 393.105 635.2L500.702 527.6L506.029 522.28C540.253 488.054 540.253 432.56 506.029 398.347" fill="white"/>
<path d="M493.583 488.094C488.003 488.094 481.737 474.494 472.462 461.734C461.928 447.227 451.499 439.267 457.676 434.787C459.764 433.267 463.483 432.334 467.9 432.334C476.544 432.334 487.857 435.88 494.828 445.48C505.361 459.987 501.997 482.814 495.82 487.307C495.083 487.84 494.34 488.094 493.583 488.094Z" fill="#FDF2F2"/>
<path d="M439.431 426.067C438.161 426.067 436.882 425.841 435.69 425.387C431.802 423.827 428.85 419.881 429.413 415.587C429.819 412.374 433.074 410 437.158 410C438.493 410 439.915 410.254 441.357 410.814C447.206 413.094 449.422 418.894 446.938 422.4C445.207 424.867 442.337 426.067 439.431 426.067" fill="#FDF2F2"/>
</svg>
