<svg width="200" viewBox="0 0 3149 3487" fill="none" xmlns="http://www.w3.org/2000/svg">
<path d="M2223.17 692.187C2223.17 692.187 2488.4 455.894 2765.47 542.374C3384.32 735.533 3085.76 1848.17 2769.01 1981.52C2465.23 2109.41 2254.6 1462.93 2254.6 1462.93L2223.17 692.187Z" fill="#B3C2D1"/>
<path d="M2689.35 2001.67C2659.92 2001.67 2630.51 1994.99 2601.28 1981.63C2390.68 1885.39 2252.69 1468.2 2251.32 1464L2257.88 1461.87C2259.24 1466.04 2396.31 1880.37 2604.16 1975.36C2658.44 2000.17 2713.45 2001.16 2767.68 1978.33C2858.88 1939.93 2951.6 1818.87 3022.05 1646.19C3093.87 1470.19 3130.2 1268.25 3121.75 1092.16C3108.07 807.387 2981.17 613.307 2764.44 545.667C2492.4 460.76 2228.11 692.427 2225.47 694.774L2220.88 689.613C2223.55 687.24 2490.75 453.014 2766.49 539.067C2986.2 607.654 3114.81 803.96 3128.63 1091.84C3146.25 1458.89 2968.79 1901.16 2770.36 1984.69C2743.48 1996 2716.41 2001.67 2689.35 2001.67" fill="#000072"/>
<path d="M3092.45 988.613C3044.53 827.253 2942.56 696.72 2765.44 641.44C2722.59 628.053 2679.99 622.4 2638.64 622.4C2533.83 622.4 2436.87 658.72 2363.01 697.68C2352.31 679.4 2340.84 661.453 2328.69 643.92C2403.27 598.387 2516.32 545.587 2639.52 545.587C2678.57 545.587 2718.69 550.907 2758.88 563.44C2980.47 632.613 3064.72 816.427 3092.45 988.613Z" fill="#D9E1E8"/>
<path d="M2689.32 2020.36C2657.32 2020.36 2625.31 2013.09 2593.53 1998.57C2375.57 1898.96 2239.31 1487.25 2233.61 1469.77C2229.83 1458.19 2236.17 1445.72 2247.76 1441.95C2259.35 1438.16 2271.81 1444.49 2275.6 1456.09C2276.93 1460.19 2411.55 1866.89 2611.93 1958.43C2661.96 1981.28 2710.53 1982.19 2760.45 1961.16C2845.85 1925.2 2937.21 1804.83 3004.81 1639.15C3075.63 1465.59 3111.47 1266.53 3103.13 1093.05C3093.75 897.533 3026.4 646.947 2758.88 563.44C2497.25 481.813 2240.4 706.4 2237.85 708.693C2228.73 716.787 2214.79 715.973 2206.68 706.867C2198.57 697.76 2199.39 683.813 2208.48 675.707C2219.69 665.72 2486.33 432.093 2772.04 521.293C2999.77 592.36 3133.03 794.667 3147.24 1090.93C3165.17 1464.57 2982.08 1915.77 2777.59 2001.87C2748.29 2014.2 2718.81 2020.36 2689.32 2020.36" fill="#000072"/>
<path d="M2265.47 921.787C2265.47 921.787 2379.88 787.76 2646.44 767.507C2913.01 747.267 3002.11 991.547 2941.36 1343.41C2880.6 1695.28 2757.83 1877.55 2622.4 1846.27C2504.37 1819 2300.91 1588.96 2299.21 1260.8C2297.87 998.92 2265.47 921.787 2265.47 921.787" fill="#FF5A99"/>
<path d="M2937.44 1155.43C2900.01 1027.08 2814.56 950.16 2676.61 950.16C2666.81 950.16 2656.76 950.547 2646.43 951.333C2576.01 956.68 2516.2 969.96 2466.33 986.6C2458.51 936.72 2446.15 887.907 2429.44 840.573C2485.2 816.947 2557.61 796.4 2648.12 789.533C2657.8 788.8 2667.24 788.426 2676.47 788.426C2751.11 788.426 2810.71 812.413 2853.92 859.933C2910.27 921.907 2938.6 1024 2937.44 1155.43" fill="#B23F8D"/>
<path d="M2290.57 927.653C2300.04 960.707 2320.24 1055.08 2321.29 1260.69C2322.01 1401.43 2362.65 1541.25 2435.73 1654.39C2506.37 1763.79 2583.11 1814.53 2627.36 1824.76C2658.21 1831.87 2688.71 1825.61 2718.04 1806.13C2804.91 1748.41 2878.37 1578.39 2919.6 1339.65C2957.73 1118.83 2934.4 948.467 2853.92 859.933C2805.37 806.533 2736.12 782.867 2648.12 789.533C2433.76 805.813 2320.77 898.827 2290.57 927.653V927.653ZM2652.4 1871.84C2640.84 1871.84 2629.17 1870.49 2617.43 1867.77C2547.49 1851.63 2463.65 1779.04 2398.63 1678.35C2343.75 1593.36 2278.12 1451.96 2277.13 1260.92C2275.84 1009.59 2245.35 930.947 2245.04 930.173L2240.04 917.773L2248.67 907.44C2253.59 901.693 2372.19 766.213 2644.77 745.493C2747.08 737.733 2828.41 766.24 2886.6 830.227C2977.73 930.48 3004.2 1109.24 2963.12 1347.17C2919.2 1601.49 2840.84 1777.56 2742.47 1842.92C2713.48 1862.17 2683.31 1871.84 2652.4 1871.84Z" fill="#000072"/>
<path d="M1373.64 3390.63C1658.71 3314.33 1973.76 3339.04 2171.75 3363.73C2272.89 3376.36 2343.48 3388.97 2363.92 3388.13C2557.89 3380.11 2644.11 3009.8 2487.44 2844.09C2409.35 2761.49 2103.95 2718.8 1914.87 3005.97L1373.64 3390.63Z" fill="#C2C6D2"/>
<path d="M1374.53 3393.96L1372.75 3387.29C1717.79 3294.95 2111.23 3350.92 2279.25 3374.83C2321.47 3380.83 2351.96 3385.15 2363.77 3384.68C2435.12 3381.73 2497.27 3327.81 2534.28 3236.77C2582.03 3119.27 2580.41 2947.47 2484.93 2846.47C2451.97 2811.61 2368.41 2778.39 2262.69 2787.61C2183.44 2794.57 2033.25 2832.44 1917.76 3007.87L1911.99 3004.08C2029.09 2826.23 2181.6 2787.81 2262.08 2780.75C2370.08 2771.24 2455.89 2805.72 2489.95 2841.73C2587.43 2944.84 2589.25 3119.81 2540.67 3239.36C2502.6 3333.03 2438.23 3388.51 2364.05 3391.57C2351.59 3392.12 2322.45 3387.93 2278.28 3381.65C2110.68 3357.81 1718.21 3301.99 1374.53 3393.96" fill="#000072"/>
<path d="M1373.63 3412.71C1363.87 3412.71 1354.95 3406.2 1352.31 3396.33C1349.16 3384.55 1356.15 3372.44 1367.93 3369.29C1716.64 3275.97 2112.73 3332.31 2281.88 3356.39C2319.99 3361.8 2352.8 3366.56 2363 3366.07C2426.75 3363.43 2482.88 3313.75 2517.01 3229.76C2562.53 3117.76 2561.47 2954.55 2471.39 2859.27C2441.41 2827.57 2363.8 2797.45 2264.32 2806.17C2188.43 2812.84 2044.51 2849.23 1933.31 3018.12C1926.61 3028.31 1912.91 3031.11 1902.73 3024.41C1892.55 3017.71 1889.72 3004.01 1896.43 2993.83C2017.84 2809.43 2176.61 2769.55 2260.45 2762.19C2359.83 2753.48 2457.48 2780.29 2503.48 2828.93C2606.37 2937.76 2608.76 3121.31 2557.92 3246.39C2516.99 3347.11 2446.61 3406.81 2364.83 3410.19C2350.73 3410.71 2322.45 3406.76 2275.65 3400.11C2109.19 3376.43 1719.36 3320.97 1379.35 3411.95C1377.44 3412.47 1375.52 3412.71 1373.63 3412.71" fill="#000072"/>
<path d="M1955.45 1976.2C2337.73 1956.01 2457.29 1741.69 2540.07 1726.61C2644.89 1707.51 2788.49 1814.73 2763.27 1971.15C2738.04 2127.57 2500.47 2457.85 2079.47 2445.47L1955.45 1976.2Z" fill="#B3C2D1"/>
<path d="M2197.71 2417.51C2193.49 2384.69 2188.75 2351.95 2183.01 2319.33L2182.32 2315.25C2476.8 2290.04 2668.05 2094.53 2743.97 1943.32C2743.64 1951.13 2742.83 1959.24 2741.47 1967.64C2721.24 2093.09 2538.63 2372.41 2197.71 2417.51" fill="#7D87B4"/>
<path d="M2102.63 2467.89C2094.76 2467.89 2086.84 2467.77 2078.81 2467.53C2066.63 2467.17 2057.03 2457 2057.39 2444.81C2057.75 2432.63 2067.87 2423 2080.12 2423.4C2496.71 2435.39 2719.01 2106.83 2741.47 1967.64C2755.23 1882.39 2713.07 1826.32 2686.71 1800.51C2645.84 1760.45 2589.83 1739.93 2544.01 1748.33C2524.85 1751.83 2498.15 1772.99 2464.33 1799.8C2377.57 1868.57 2232.36 1983.69 1956.63 1998.24C1944.51 1998.92 1934.05 1989.53 1933.41 1977.36C1932.76 1965.17 1942.11 1954.79 1954.29 1954.15C2215.96 1940.33 2348.92 1834.93 2436.91 1765.19C2477.07 1733.36 2506.08 1710.36 2536.11 1704.88C2596.48 1693.85 2666.05 1718.44 2717.61 1768.96C2772.84 1823.08 2797.43 1898.05 2785.07 1974.67C2772.15 2054.77 2705.05 2182.8 2584.31 2288.24C2489.45 2371.07 2329.92 2467.88 2102.63 2467.89" fill="#000072"/>
<path d="M2393.43 1998.17C2389.79 1992.63 2387.28 1986.76 2385.12 1980.76C2382.99 1974.76 2381.33 1968.64 2380.12 1962.43C2378.89 1956.21 2378.25 1949.93 2377.69 1943.61C2377.49 1937.32 2377.4 1930.97 2377.67 1924.65C2378.72 1899.35 2383.33 1873.81 2392.25 1849.55C2400.93 1825.27 2413.21 1801.76 2429.6 1781.55C2437.11 1770.8 2446.61 1761.93 2455.69 1752.65C2460.05 1747.79 2465.47 1744.21 2470.4 1740.05C2475.43 1736.01 2480.57 1732.13 2485.65 1728.2C2495.28 1720.75 2509.11 1722.49 2516.56 1732.11C2523.81 1741.45 2522.35 1754.8 2513.43 1762.39L2511.56 1763.96C2507.33 1767.53 2503.19 1771.17 2498.89 1774.65C2494.72 1778.23 2490.11 1781.37 2486.43 1785.44C2478.73 1793.21 2470.48 1800.52 2463.84 1809.19C2460.47 1813.45 2456.48 1817.32 2453.56 1821.92L2444.19 1835.36C2440.96 1839.8 2438.75 1844.83 2435.93 1849.55L2431.8 1856.69L2428.37 1864.2C2419 1884.12 2412 1905.56 2408.19 1927.87C2404.4 1950.24 2401.72 1972.73 2397.01 1997.36L2396.99 1997.47C2396.79 1998.53 2395.76 1999.23 2394.69 1999.03C2394.16 1998.92 2393.71 1998.6 2393.43 1998.17" fill="#000072"/>
<path d="M2184.19 2913.28L1466.65 3339.09L1395.61 3360.51L1194.31 3421.17L699.334 3140.27L900.027 2115.53L927.254 2055.48L1027.65 1833.75L1039.36 1832.87L1977.96 1761.44C1977.96 1761.44 2033.05 1876.59 2085.05 2022.48C2091.73 2041.24 2098.08 2060.28 2104.04 2079.55C2202.8 2397 2207.81 2769.88 2184.19 2913.28" fill="#B3C2D1"/>
<path d="M2115.33 2746.45C2115.33 2979.59 1949.29 3168.57 1744.48 3168.57C1539.67 3168.57 1373.64 2979.59 1373.64 2746.45C1373.64 2513.33 1539.67 2324.35 1744.48 2324.35C1949.29 2324.35 2115.33 2513.33 2115.33 2746.45" fill="white"/>
<path d="M1114.41 2835.33C1031.01 2737.05 978.854 2595.12 998.68 2425.61C999.12 2428.6 999.56 2431.6 999.987 2434.59C1001.08 2443.17 1002.53 2451.71 1003.87 2460.27C1005.04 2468.83 1006.52 2477.36 1008.2 2485.85L1010.59 2498.61L1013.47 2511.27C1028.83 2578.77 1054.57 2644 1090.21 2703.57C1117.8 2749.81 1151.48 2792.69 1190.93 2829.85C1188.52 2829.81 1186.11 2829.8 1183.69 2829.8C1183.23 2829.8 1182.77 2829.8 1182.31 2829.8C1159.52 2829.83 1136.83 2831.72 1114.41 2835.33Z" fill="#7D87B4"/>
<path d="M1444.65 2979.6C1439.31 2968.85 1433.41 2958.32 1427 2948.09C1438.12 2949.33 1449.33 2949.95 1460.53 2949.95C1482.47 2949.95 1504.41 2947.56 1525.84 2942.67C1534.01 2940.83 1542.15 2938.6 1550.16 2936.01C1521.41 2958.03 1484.72 2973.17 1444.65 2979.6Z" fill="#B2B2D4"/>
<path d="M1020.2 2306.71C996.12 2630.44 1203.95 2890.51 1416.27 2924.36C1544.61 2944.81 1671.6 2873.92 1671.57 2762.95C1671.55 2684.47 1495.16 2572.13 1480.68 2344.71L1020.2 2306.71" fill="#B3C2D1"/>
<path d="M1460.56 2905.79C1448.41 2905.79 1436.25 2904.93 1424.23 2903.24C1411.21 2901.41 1398.28 2898.63 1385.51 2895L1380.08 2889.83C1377.97 2887.88 1375.73 2886.28 1373.56 2884.51C1369.24 2880.87 1364.69 2877.91 1360.15 2874.89C1341.89 2863.09 1322.6 2854.68 1302.96 2848.13C1292.75 2844.79 1282.44 2841.92 1272.07 2839.53C1265.85 2835.13 1259.75 2830.56 1253.77 2825.81C1203.52 2786.24 1161.13 2736.31 1128.09 2680.89C1107.24 2646.03 1089.99 2608.99 1076.47 2570.59C1151.53 2718.43 1277.2 2819.99 1404.44 2840.25C1419.31 2842.63 1434.16 2843.76 1448.79 2843.76C1534.28 2843.76 1612.47 2804.69 1644.45 2742.37C1646.08 2746.21 1647.31 2749.92 1648.21 2753.47C1648.92 2756.36 1649.33 2759.08 1649.44 2761.59C1649.51 2762.6 1649.44 2764.53 1649.4 2766.31C1649.4 2768.08 1649.27 2769.84 1649.13 2771.6C1648.63 2778.65 1647.51 2785.61 1645.75 2792.4C1638.84 2819.63 1621.23 2843.89 1597.88 2862.07C1574.55 2880.32 1545.97 2892.88 1516.11 2899.6C1497.92 2903.76 1479.25 2905.79 1460.56 2905.79" fill="#7D87B4"/>
<path d="M1488.03 2344.27C1502.15 2376.28 1510.03 2406.69 1520.19 2437C1530.93 2466.96 1542.33 2496.65 1556.56 2525.55C1570.67 2554.52 1588.69 2581.68 1607.72 2608.53C1626.68 2635.59 1647.4 2661.48 1666.6 2691.33C1668.96 2695.13 1671.4 2698.79 1673.68 2702.75L1680.28 2715.03C1684.61 2723.17 1688.51 2732.57 1691.11 2742.99C1692.39 2748.23 1693.29 2753.8 1693.56 2759.67C1693.69 2762.84 1693.59 2765.09 1693.53 2767.51C1693.52 2769.92 1693.36 2772.33 1693.17 2774.75C1692.49 2784.41 1690.93 2794.05 1688.49 2803.47C1683.64 2822.32 1675.2 2840.19 1664.2 2855.91C1661.47 2859.84 1658.47 2863.75 1655.81 2866.96C1652.28 2871.36 1649.37 2874.39 1646.08 2877.93C1639.55 2884.8 1632.47 2891 1625.13 2896.81C1595.6 2919.87 1561.23 2934.65 1525.84 2942.67C1490.52 2950.73 1453.77 2952 1418.03 2946.96C1382.33 2941.91 1348.08 2930.95 1316.07 2915.97C1283.97 2901.04 1253.91 2882.31 1226.48 2860.53C1171.41 2817.13 1125.75 2763.15 1090.21 2703.57C1054.57 2644 1028.83 2578.77 1013.47 2511.27L1010.59 2498.61L1008.2 2485.85C1006.52 2477.36 1005.04 2468.83 1003.87 2460.27C1002.53 2451.71 1001.08 2443.17 999.987 2434.59C998.787 2426.01 997.32 2417.44 996.693 2408.8C994.92 2391.55 994.96 2374.13 996.933 2356.87C998.133 2348.24 999.6 2339.63 1002.19 2331.15C1005 2322.68 1008.08 2314.28 1012.87 2306.15C1015.16 2302.25 1020.19 2300.95 1024.09 2303.24C1025.61 2304.13 1026.73 2305.44 1027.4 2306.93L1027.55 2307.24C1031.43 2315.83 1033.59 2324.16 1035.49 2332.41C1037.4 2340.65 1038.96 2348.81 1039.84 2356.92C1041.92 2373.15 1042.87 2389.23 1043.71 2405.37C1043.89 2413.47 1044.47 2421.53 1045.01 2429.61C1045.32 2433.64 1045.52 2437.69 1045.99 2441.72L1047.59 2453.75C1048.6 2461.79 1050.04 2469.75 1051.6 2477.69L1053.83 2489.63L1056.53 2501.47C1070.88 2564.57 1094.96 2625.47 1128.09 2680.89C1161.13 2736.31 1203.52 2786.24 1253.77 2825.81C1278.8 2845.69 1306 2862.57 1334.64 2875.91C1363.27 2889.31 1393.55 2898.92 1424.23 2903.24C1454.8 2907.55 1486.09 2906.45 1516.11 2899.6C1545.97 2892.88 1574.55 2880.32 1597.88 2862.07C1621.23 2843.89 1638.84 2819.63 1645.75 2792.4C1647.51 2785.61 1648.63 2778.65 1649.13 2771.6C1649.27 2769.84 1649.4 2768.08 1649.4 2766.31C1649.44 2764.53 1649.51 2762.6 1649.44 2761.59C1649.33 2759.08 1648.92 2756.36 1648.21 2753.47C1646.73 2747.64 1644.36 2741.36 1640.77 2734.76L1635.49 2724.92C1633.59 2721.61 1631.36 2718.31 1629.32 2714.99C1612.32 2688.45 1591.21 2661.85 1571.69 2634.08C1551.99 2606.32 1533.19 2577.32 1516.23 2546.89C1499.25 2516.52 1484.87 2484.11 1476.19 2449.95C1467.37 2415.92 1464.83 2379.92 1473.33 2345.2C1474.35 2341.05 1478.52 2338.53 1482.65 2339.55C1485.05 2340.13 1486.92 2341.79 1487.85 2343.88L1488.03 2344.27" fill="#000072"/>
<path d="M1671.56 2762.97C1671.56 2798.03 1658.92 2829.11 1637.49 2854.49C1635.84 2853.67 1634.24 2852.79 1632.69 2851.89C1623.36 2846.55 1615.31 2840.08 1608.52 2832.91C1587.88 2810.83 1580.2 2782.19 1591.63 2759C1603.21 2735.48 1631.32 2724.11 1662 2727.64C1668.08 2740.23 1671.56 2751.93 1671.56 2762.97Z" fill="white"/>
<path d="M1651.15 2730.47C1625.53 2730.47 1604.01 2741.68 1594.72 2760.52C1584.25 2781.76 1590.51 2808.6 1611.04 2830.56C1617.81 2837.72 1625.68 2843.89 1634.41 2848.91C1635.13 2849.32 1635.87 2849.73 1636.63 2850.15C1657.23 2824.79 1668.11 2794.71 1668.11 2762.97C1668.11 2753.49 1665.36 2742.97 1659.72 2730.88C1656.83 2730.6 1653.96 2730.47 1651.15 2730.47V2730.47ZM1638.37 2858.8L1635.95 2857.57C1634.23 2856.72 1632.59 2855.81 1630.97 2854.89C1621.67 2849.55 1613.27 2842.95 1606.01 2835.28C1583.45 2811.16 1576.77 2781.35 1588.53 2757.48C1600.37 2733.47 1629.36 2720.39 1662.4 2724.23L1664.28 2724.44L1665.11 2726.15C1671.77 2739.93 1675 2751.99 1675 2762.97C1675 2797.25 1662.95 2829.67 1640.13 2856.72L1638.37 2858.8Z" fill="#000072"/>
<path d="M1636.33 2855.88C1608.68 2888.05 1567.01 2911.01 1519.43 2921.51C1500.49 2894.07 1497.84 2861.28 1515.4 2839.64C1535.27 2815.19 1574.57 2813.09 1608.52 2832.91C1613.37 2835.67 1618.17 2838.99 1622.76 2842.68C1626.35 2845.6 1629.72 2848.69 1632.69 2851.89C1634.01 2853.17 1635.24 2854.49 1636.33 2855.88Z" fill="white"/>
<path d="M1561.76 2822.97C1544.05 2822.97 1528.21 2829.35 1518.08 2841.83C1502.48 2861.05 1503.71 2891.28 1520.97 2917.63C1566.28 2907.2 1605.43 2885.37 1631.76 2855.87C1631.29 2855.36 1630.81 2854.88 1630.31 2854.39C1627.43 2851.31 1624.2 2848.31 1620.57 2845.35C1616.09 2841.73 1611.45 2838.55 1606.81 2835.92C1591.96 2827.24 1576.24 2822.97 1561.76 2822.97V2822.97ZM1517.91 2925.37L1516.59 2923.47C1496.35 2894.13 1494.79 2859.57 1512.72 2837.47C1533.31 2812.13 1574.33 2808.96 1610.25 2829.93C1615.19 2832.73 1620.13 2836.12 1624.92 2840C1628.81 2843.17 1632.27 2846.37 1635.23 2849.55C1636.52 2850.79 1637.84 2852.23 1639.03 2853.72L1640.81 2855.96L1638.96 2858.12C1611.23 2890.4 1569.04 2914.11 1520.17 2924.88L1517.91 2925.37" fill="#000072"/>
<path d="M1500.83 2924.93C1473.67 2928.96 1444.96 2928.96 1416.25 2924.37C1400.2 2921.84 1384.13 2917.97 1368.24 2912.84C1369.45 2880 1386.56 2852.51 1413.17 2845.49C1448.05 2836.23 1486.08 2865.64 1498.12 2911.13C1499.33 2915.76 1500.27 2920.35 1500.83 2924.93" fill="white"/>
<path d="M1371.81 2910.36C1386.73 2915.04 1401.85 2918.61 1416.8 2920.97C1443.55 2925.24 1470.48 2925.57 1496.92 2922C1496.41 2918.83 1495.71 2915.53 1494.79 2912C1488.17 2887.04 1473.41 2866.35 1454.29 2855.24C1441.08 2847.57 1427.17 2845.35 1414.05 2848.83C1390.17 2855.12 1373.79 2879.12 1371.81 2910.36V2910.36ZM1460.47 2931.35C1445.56 2931.35 1430.6 2930.16 1415.72 2927.79C1399.57 2925.23 1383.24 2921.31 1367.17 2916.12L1364.69 2915.32L1364.79 2912.71C1366.11 2877.11 1384.75 2849.41 1412.29 2842.16C1427.19 2838.19 1442.92 2840.65 1457.76 2849.28C1478.45 2861.29 1494.39 2883.52 1501.45 2910.24C1502.79 2915.36 1503.71 2920.01 1504.25 2924.51L1504.65 2927.84L1501.33 2928.33C1487.81 2930.35 1474.16 2931.35 1460.47 2931.35" fill="#000072"/>
<path d="M1650.4 2744.27C1630.4 2744.45 1613.95 2752.73 1607.09 2766.63C1599.36 2782.35 1604.85 2803.75 1621.12 2821.13C1624.76 2824.99 1628.8 2828.52 1633.17 2831.69C1647.21 2810.99 1654.31 2787.93 1654.31 2762.97C1654.31 2757.45 1653.03 2751.28 1650.4 2744.27V2744.27ZM1641.91 2876.03L1629.75 2869.91C1627.8 2868.93 1625.93 2867.91 1624.12 2866.87C1613.63 2860.85 1604.17 2853.41 1595.99 2844.77C1569.36 2816.28 1561.79 2780.53 1576.16 2751.37C1590.6 2722.08 1625.08 2706.01 1663.97 2710.51L1673.41 2711.6L1677.53 2720.15C1685.12 2735.85 1688.8 2749.87 1688.8 2762.97C1688.8 2800.55 1675.63 2836.04 1650.68 2865.61L1641.91 2876.03" fill="#000072"/>
<path d="M1561.63 2836.71C1548.08 2836.71 1536.24 2841.35 1528.79 2850.52C1518.53 2863.16 1518.37 2882.79 1527.72 2901.69C1561.04 2892.56 1590.25 2876.81 1612.12 2856.27L1611.85 2856.04C1608 2852.93 1603.99 2850.17 1600 2847.92C1587.15 2840.41 1573.72 2836.71 1561.63 2836.71V2836.71ZM1511.81 2940.85L1505.23 2931.31C1481.48 2896.88 1480.17 2855.68 1502 2828.77C1526.92 2798.11 1575.36 2793.59 1617.21 2818.01C1622.65 2821.11 1628.21 2824.92 1633.59 2829.25C1637.88 2832.76 1641.69 2836.28 1645 2839.8C1646.72 2841.48 1648.33 2843.25 1649.81 2845.11L1658.73 2856.28L1649.43 2867.12C1619.75 2901.64 1574.91 2926.95 1523.15 2938.35L1511.81 2940.85" fill="#000072"/>
<path d="M1387.04 2900.44C1397.67 2903.36 1408.36 2905.67 1418.95 2907.35C1439.23 2910.56 1459.61 2911.44 1479.77 2909.92C1473.55 2891.24 1461.71 2875.49 1447.36 2867.17C1440.4 2863.13 1429.59 2858.97 1417.6 2862.17C1402.52 2866.15 1391.11 2880.88 1387.04 2900.44V2900.44ZM1460.47 2945.15C1444.83 2945.15 1429.16 2943.91 1413.55 2941.41C1396.72 2938.76 1379.68 2934.67 1362.93 2929.25L1350.52 2925.25L1351 2912.2C1352.55 2870.39 1375.23 2837.65 1408.77 2828.81C1426.99 2823.96 1446.87 2826.99 1464.69 2837.35C1488.53 2851.19 1506.79 2876.48 1514.8 2906.72C1516.31 2912.47 1517.33 2917.73 1517.95 2922.85L1519.96 2939.52L1503.36 2941.99C1489.16 2944.09 1474.83 2945.15 1460.47 2945.15" fill="#000072"/>
<path d="M283.68 3026.87C283.68 3026.87 429.96 2936.47 417.507 2816.68C403.094 2678.08 355.547 2707.68 324.6 2516.81C324.6 2516.81 63.9204 2676.56 130.004 2888.69C164.946 3000.85 283.68 3026.87 283.68 3026.87Z" fill="#83909D"/>
<path d="M322.053 2522.56C288.4 2544.76 73.4761 2695.64 133.297 2887.67C165.221 2990.15 269.893 3019.81 283.067 3023.16C296.96 3014.16 425.56 2927.56 414.067 2817.04C407.24 2751.33 392.96 2723.93 376.413 2692.21C358.453 2657.76 338.133 2618.79 322.053 2522.56ZM283.68 3030.31C283.427 3030.31 283.187 3030.28 282.947 3030.23C281.733 3029.96 161.843 3002.49 126.708 2889.72C60.5946 2677.48 320.16 2515.48 322.8 2513.87C323.773 2513.27 324.987 2513.2 326.04 2513.68C327.08 2514.16 327.827 2515.13 328 2516.25C344.04 2615.2 364.493 2654.41 382.533 2689.03C399.4 2721.37 413.973 2749.32 420.933 2816.32C433.467 2936.87 286.973 3028.88 285.493 3029.8C284.947 3030.13 284.32 3030.31 283.68 3030.31" fill="#000072"/>
<path d="M387.747 2770.52C369.267 2746.25 348.934 2722.08 325.534 2673.27C314.614 2650.48 292.334 2638.25 269.827 2638.25C253.347 2638.25 236.76 2644.79 224.374 2658.52C199.486 2686.11 172.066 2721 149.944 2760.56C177.275 2663.65 264.214 2588.19 308.96 2554.63C324.574 2633.09 343.214 2668.84 359.894 2700.83C371.134 2722.37 380.747 2740.8 387.747 2770.52Z" fill="#C1C8CE"/>
<path d="M326.467 2964.44C310.773 2939.91 305.04 2914.55 309 2887.49C311.187 2872.47 307.027 2858.31 298.173 2847.65C332.973 2838.84 365.2 2817.13 386.547 2782.16C387.48 2780.63 388.4 2779.08 389.307 2777.53C391.773 2789.35 393.867 2802.91 395.547 2818.96C401.64 2877.64 362.32 2929.83 326.467 2964.44V2964.44ZM186.307 2944.31C171.715 2927.95 158.992 2907.52 151.083 2882.13C141.049 2849.92 139.447 2818.85 143.751 2789.44C162.205 2817.93 189.292 2836.84 219.253 2845.92C215.907 2849.71 213.027 2854.08 210.76 2858.97C198.291 2885.8 189.907 2914.83 186.307 2944.31Z" fill="#5B6590"/>
<path d="M308.96 2554.63C246.814 2601.24 103.283 2728.69 151.083 2882.13C176.83 2964.77 253.6 2994.89 279.76 3002.92C308.174 2983.09 404.867 2908.6 395.547 2818.96C389.08 2756.8 376.2 2732.09 359.894 2700.83C343.214 2668.84 324.574 2633.09 308.96 2554.63V2554.63ZM283.68 3048.93C282.107 3048.93 280.52 3048.77 278.96 3048.43C273.6 3047.25 147.242 3018.27 108.922 2895.27C38.5391 2669.32 301.814 2504.88 313.067 2497.99C319.347 2494.15 327.12 2493.68 333.8 2496.75C340.494 2499.81 345.214 2506.01 346.387 2513.28C361.947 2609.25 381.667 2647.05 399.054 2680.41C416.067 2713.04 432.134 2743.85 439.467 2814.39C453.187 2946.45 301.747 3041.65 295.294 3045.64C291.774 3047.81 287.747 3048.93 283.68 3048.93Z" fill="#000072"/>
<path d="M701.187 3109.77C701.187 3109.77 499.04 3250.77 313.387 3155.31C198.622 3096.29 185.563 2965.57 230.787 2868.28C245.04 2837.57 292.04 2850.81 287.147 2884.31C281.88 2920.39 290.44 2960.75 327.133 3001.35C443.213 3129.8 710.773 2950.89 710.773 2950.89L701.187 3109.77Z" fill="#B3C2D1"/>
<path d="M453.36 3166.16C411.013 3166.16 366.587 3157.84 323.48 3135.68C270 3108.17 241.32 3062.95 232.04 3013.37C249.333 3044.23 275.933 3071.11 313.373 3090.36C360.333 3114.49 408.347 3123.51 453.88 3123.51C487.76 3123.51 520.267 3118.52 549.947 3111.04C551.653 3124.47 554.053 3137.75 556.613 3151.07C525.187 3159.92 490.053 3166.16 453.36 3166.16" fill="#7D87B4"/>
<path d="M454.507 3210.84C405.787 3210.84 354.16 3201.11 303.28 3174.95C176.445 3109.72 160.729 2966.61 210.76 2858.97C221.893 2835.01 247.427 2823.57 272.893 2831.19C297.907 2838.65 312.747 2861.81 309 2887.49C303.84 2922.75 315.133 2955.15 343.507 2986.55C445.44 3099.36 695.987 2934.21 698.507 2932.53C708.64 2925.77 722.36 2928.49 729.133 2938.63C735.893 2948.76 733.173 2962.47 723.04 2969.24C714.707 2974.83 570.507 3069.88 442.907 3069.89C393.387 3069.89 346.373 3055.57 310.747 3016.16C273.52 2974.96 258.227 2929.52 265.293 2881.12C265.533 2879.52 266.16 2875.25 260.267 2873.51C257.24 2872.59 253.133 2872.57 250.8 2877.57C209.667 2966.11 221.413 3083.19 323.48 3135.68C494.813 3223.79 686.653 3092.97 688.573 3091.64C698.587 3084.71 712.333 3087.16 719.293 3097.16C726.253 3107.16 723.813 3120.91 713.813 3127.88C707.387 3132.37 592.747 3210.84 454.507 3210.84" fill="#000072"/>
<path d="M1053.12 1761.44C1053.12 1761.44 500.667 2594.27 571.627 3107.33C588.48 3229.24 632.654 3335.39 732.107 3407.88C798.56 3456.31 882.174 3474.65 1050.88 3458.73C1085.41 3455.47 1139.89 3456.31 1191.51 3457.13C1229.91 3457.75 1266.71 3458.37 1292.49 3457.31C1486.48 3449.28 1529.36 3078.99 1372.68 2913.28C1294.59 2830.68 989.187 2787.97 800.121 3075.15L1053.12 1761.44" fill="#B3C2D1"/>
<path d="M830.413 3055.49C849.533 3036.56 868.2 3018.07 887.84 3000.79C915.186 2975.99 944.24 2953.64 975.28 2934.51C1006.2 2915.24 1039.51 2899.59 1074.56 2889.41C1109.63 2879.39 1146.04 2873.99 1182.43 2873.96C1182.96 2873.96 1183.48 2873.95 1184.01 2873.95C1195.65 2873.95 1207.31 2874.49 1218.87 2875.6C1196.36 2883.35 1165.65 2895.15 1147.59 2907.19C1116.56 2927.88 1111.55 2956.01 1111.55 2956.01C1111.55 2956.01 1111.39 2956.01 1111.07 2956.01C1104.83 2956.01 1038.83 2956.65 966.573 2983.07C923.346 2998.88 865.293 3033.49 830.413 3055.49" fill="#D1DAE3"/>
<path d="M945.72 3442.23C924.267 3442.23 902.987 3441.29 882.053 3439.07C845.533 3435.31 810.413 3426.61 779 3410.79C763.253 3402.79 748.573 3393.35 734.44 3381.73C727.106 3376.39 720.653 3370.05 713.773 3364.2C710.426 3361.17 707.346 3357.87 704.12 3354.72C700.933 3351.53 697.64 3348.44 694.746 3344.97C682.44 3331.76 671.6 3317.29 661.466 3302.32C651.813 3287.01 642.586 3271.37 635.186 3254.68C604.64 3188.48 591.173 3113.21 588.306 3039.07C586.08 2976.4 591.56 2913.19 601.746 2850.55C599.613 2897.44 601.173 2942.76 607.146 2985.81C623.986 3107.75 652.173 3220.19 740.226 3306.12C785.213 3350.03 856.426 3370.08 923.906 3370.08C961.466 3370.08 997.866 3363.87 1027.96 3352.11C1098.48 3324.53 1119.77 3246.21 1119.77 3246.21C1119.77 3246.21 1191.4 3341.65 1290.03 3341.67C1299.21 3341.67 1308.61 3340.84 1318.24 3339.03C1375.97 3328.16 1409.21 3311.68 1433.84 3284.53C1431.63 3293.48 1429.07 3302.31 1425.97 3310.91C1420.15 3327.87 1413.07 3344.36 1404.03 3359.35C1386.61 3389.75 1361.59 3414.57 1331.49 3426.67C1327.65 3427.95 1323.91 3429.51 1320.04 3430.68L1308.16 3433.36C1299.93 3434.4 1292.45 3435.41 1282.71 3435.52C1274.28 3435.72 1265.76 3435.8 1257.17 3435.8C1246.79 3435.8 1236.32 3435.69 1225.85 3435.56C1191.76 3435.15 1157.51 3434.32 1122.89 3434.32C1118.6 3434.32 1114.31 3434.33 1110 3434.36C1090.45 3434.53 1070.89 3434.89 1050.52 3436.61L1022.07 3439L993.787 3440.84C977.72 3441.71 961.68 3442.23 945.72 3442.23" fill="#7D87B4"/>
<path d="M1059.25 1765.51C1027.12 1835.89 990.253 1903.03 953.56 1970.25L898.693 2071.13C880.733 2104.92 862.52 2138.6 845.093 2172.67C810.186 2240.77 777.586 2310.04 747.72 2380.39C717.786 2450.69 690.306 2522 666.44 2594.37C642.626 2666.75 622.373 2740.21 608.106 2814.61C593.933 2888.93 585.653 2964.39 588.306 3039.07C591.173 3113.21 604.64 3188.48 635.186 3254.68C642.586 3271.37 651.813 3287.01 661.466 3302.32C671.6 3317.29 682.44 3331.76 694.746 3344.97C697.64 3348.44 700.933 3351.53 704.12 3354.72C707.346 3357.87 710.426 3361.17 713.773 3364.2C720.653 3370.05 727.106 3376.39 734.44 3381.73C748.573 3393.35 763.253 3402.79 779 3410.79C810.413 3426.61 845.533 3435.31 882.053 3439.07C918.56 3442.96 956.12 3442.89 993.786 3440.84L1022.07 3439L1050.52 3436.61C1070.89 3434.89 1090.45 3434.53 1110 3434.36C1149 3434.11 1187.53 3435.09 1225.85 3435.56C1244.97 3435.79 1264.09 3435.97 1282.71 3435.52C1292.45 3435.41 1299.93 3434.4 1308.16 3433.36L1320.04 3430.68C1323.91 3429.51 1327.65 3427.95 1331.49 3426.67C1361.59 3414.57 1386.61 3389.75 1404.03 3359.35C1413.07 3344.36 1420.15 3327.87 1425.97 3310.91C1432.05 3294 1436.08 3276.21 1439.49 3258.37C1445.67 3222.48 1447.57 3185.52 1444.57 3148.95C1443.45 3130.61 1440.45 3112.49 1437.15 3094.49C1433.24 3076.64 1428.91 3058.83 1422.72 3041.71C1411.04 3007.23 1394.09 2974.84 1372.21 2946.75C1369.67 2943.07 1366.57 2939.89 1363.69 2936.52L1359.32 2931.52C1357.87 2929.84 1356.4 2928.09 1355 2926.91L1350.83 2922.91C1349.41 2921.57 1347.69 2920.4 1346.15 2919.12C1343.13 2916.52 1339.59 2914.27 1336.12 2911.95C1322.05 2902.83 1305.85 2895.61 1289.01 2890.03C1255.2 2878.91 1218.75 2873.8 1182.43 2873.96C1146.04 2873.99 1109.63 2879.39 1074.56 2889.41C1039.51 2899.59 1006.2 2915.24 975.28 2934.51C944.24 2953.64 915.186 2975.99 887.84 3000.79C860.053 3025.24 834.213 3052.12 806.266 3079.2L806.16 3079.31C803.186 3082.19 798.426 3082.11 795.546 3079.13C793.413 3076.93 792.906 3073.77 793.973 3071.11C823.693 2997.37 881.266 2935.37 950.88 2894.17C1020.92 2853.69 1101.05 2829.92 1182.31 2829.8C1222.87 2829.67 1263.64 2835.23 1302.96 2848.13C1322.6 2854.68 1341.89 2863.09 1360.15 2874.89C1364.69 2877.91 1369.24 2880.87 1373.56 2884.51C1375.73 2886.28 1377.97 2887.88 1380.08 2889.83L1386.33 2895.79C1388.55 2897.8 1390.17 2899.75 1391.88 2901.69L1397.01 2907.55C1400.39 2911.48 1403.97 2915.25 1406.95 2919.47C1432.39 2952.12 1451.43 2988.91 1464.45 3027.28C1471.32 3046.39 1476.15 3066.04 1480.44 3085.75C1484.11 3105.56 1487.35 3125.48 1488.6 3145.59C1491.87 3185.71 1489.84 3226.21 1482.96 3266.13C1479.17 3286.04 1474.65 3305.91 1467.73 3325.25C1461.08 3344.63 1452.91 3363.72 1442.11 3381.72C1431.39 3399.68 1418.93 3417.13 1402.95 3431.92C1387.19 3446.79 1368.55 3459.32 1347.88 3467.67C1342.63 3469.52 1337.43 3471.57 1332.11 3473.16L1315.83 3476.85C1305.05 3478.41 1293.35 3479.59 1283.85 3479.65C1264.01 3480.15 1244.64 3479.95 1225.29 3479.72C1186.67 3479.24 1148.27 3478.27 1110.31 3478.52C1091.39 3478.68 1072.44 3479.07 1054.48 3480.6L1025.41 3483.04L996.106 3484.93C956.973 3487.05 917.32 3487.23 877.266 3482.96C837.386 3478.87 796.466 3469.07 759.053 3450.17C740.493 3440.8 722.666 3429.2 707.066 3416.39C698.853 3410.36 691.48 3403.24 683.746 3396.59C679.973 3393.16 676.466 3389.44 672.813 3385.87C669.2 3382.24 665.493 3378.73 662.186 3374.83C648.266 3359.84 635.96 3343.47 624.56 3326.56C613.666 3309.37 603.36 3291.75 595.12 3273.24C577.826 3236.55 566.52 3197.77 558.133 3158.88C554.32 3139.35 550.613 3119.91 548.72 3100.11C546.946 3080.32 544.12 3060.52 544.186 3040.73C541.373 2961.52 550.12 2883.03 564.733 2806.32C579.453 2729.55 600.226 2654.36 624.493 2580.57C673.066 2432.88 736.32 2291.13 804.32 2152.2C821.253 2117.41 838.72 2082.89 856.986 2048.79C866.066 2031.72 875.293 2014.72 884.64 1997.8C894.36 1981.07 903.626 1964.11 913.693 1947.59C953.2 1881.11 995.213 1816 1046.99 1757.37C1049.71 1754.29 1054.4 1754 1057.47 1756.72C1059.99 1758.93 1060.64 1762.47 1059.32 1765.36L1059.25 1765.51" fill="#000072"/>
<path d="M925.467 692.187C925.467 692.187 660.24 455.894 383.187 542.374C-235.679 735.533 62.8885 1848.17 379.627 1981.52C683.414 2109.41 894.04 1462.93 894.04 1462.93L925.467 692.187Z" fill="#B3C2D1"/>
<path d="M459.293 2001.67C432.227 2001.67 405.16 1996 378.293 1984.69C179.852 1901.16 2.38546 1458.89 20.0095 1091.84C33.8281 803.96 162.441 607.654 382.147 539.067C657.88 453.014 925.107 687.24 927.773 689.613L923.173 694.774C920.533 692.414 656.2 460.774 384.213 545.667C167.464 613.307 40.5694 807.387 26.9014 1092.16C18.4467 1268.25 54.7788 1470.19 126.581 1646.19C197.044 1818.87 289.76 1939.93 380.96 1978.33C435.187 2001.16 490.2 2000.17 544.48 1975.36C752.333 1880.37 889.4 1466.04 890.76 1461.87L897.32 1464C895.947 1468.2 757.96 1885.39 547.36 1981.63C518.147 1994.99 488.72 2001.67 459.293 2001.67Z" fill="#000072"/>
<path d="M45.548 1195.84C43.9387 1160.88 43.9025 1126.48 45.5079 1093.05C54.8959 897.534 122.24 646.947 389.76 563.44C429.96 550.894 470.04 545.587 509.12 545.587C638.987 545.587 757.627 604.307 831.76 651.28C823.627 662.507 815.8 673.894 808.28 685.4C734.44 646.467 637.48 610.174 532.707 610.174C491.36 610.174 448.8 615.827 405.947 629.187C153.476 708.027 53.6947 939.88 45.548 1195.84" fill="#D9E1E8"/>
<path d="M459.32 2020.36C429.827 2020.36 400.347 2014.2 371.054 2001.87C166.566 1915.77 -16.5358 1464.57 1.40019 1090.93C15.6215 794.667 148.871 592.36 376.6 521.293C662.307 432.107 928.947 665.72 940.16 675.707C949.267 683.813 950.067 697.773 941.96 706.88C933.84 715.987 919.894 716.787 910.787 708.68C907.6 705.867 651.054 481.907 389.76 563.44C122.24 646.947 54.8961 897.533 45.5081 1093.05C37.1815 1266.53 73.0176 1465.59 143.831 1639.15C211.427 1804.83 302.787 1925.2 388.187 1961.16C438.107 1982.17 486.694 1981.28 536.72 1958.43C737.094 1866.89 871.707 1460.19 873.054 1456.09C876.827 1444.49 889.293 1438.16 900.88 1441.95C912.48 1445.72 918.813 1458.19 915.027 1469.77C909.334 1487.25 773.067 1898.96 555.107 1998.57C523.333 2013.09 491.32 2020.36 459.32 2020.36" fill="#000072"/>
<path d="M883.174 921.787C883.174 921.787 768.76 787.76 502.2 767.507C235.64 747.267 146.531 991.547 207.287 1343.41C268.04 1695.28 390.814 1877.55 526.24 1846.27C644.267 1819 847.734 1588.96 849.427 1260.8C850.774 998.92 883.174 921.787 883.174 921.787" fill="#FF5A99"/>
<path d="M222.907 1300.87C193.888 1098.89 219.014 943.213 294.72 859.933C337.92 812.413 397.507 788.427 472.12 788.427C481.36 788.427 490.827 788.787 500.52 789.533C595.574 796.747 670.68 819.053 727.494 844.16C704.36 905.467 689.027 969.04 682 1033.73C638.534 1021.4 588.467 1011.85 531.413 1007.52C521.093 1006.73 511.027 1006.35 501.24 1006.35C333.76 1006.35 243.68 1119.72 222.907 1300.87" fill="#B23F8D"/>
<path d="M472.12 788.427C397.507 788.427 337.92 812.413 294.72 859.933C214.24 948.467 190.915 1118.83 229.04 1339.65C270.267 1578.39 343.733 1748.41 430.613 1806.13C459.933 1825.61 490.44 1831.87 521.28 1824.76C565.533 1814.53 642.267 1763.79 712.907 1654.39C785.987 1541.25 826.627 1401.43 827.347 1260.69C828.4 1055.08 848.6 960.707 858.067 927.653C827.867 898.827 714.88 805.813 500.52 789.533C490.827 788.787 481.36 788.427 472.12 788.427V788.427ZM496.24 1871.84C465.333 1871.84 435.16 1862.17 406.173 1842.92C307.8 1777.56 229.44 1601.49 185.527 1347.17C144.447 1109.24 170.904 930.48 262.04 830.227C320.227 766.24 401.573 737.733 503.867 745.493C776.453 766.213 895.053 901.693 899.973 907.44L908.8 917.787L903.587 930.213C902.773 932.307 872.787 1011.75 871.507 1260.92C870.52 1451.96 804.893 1593.36 750.013 1678.35C684.987 1779.04 601.147 1851.63 531.213 1867.77C519.467 1870.49 507.8 1871.84 496.24 1871.84" fill="#000072"/>
<path d="M1594.11 2172.01C1360.36 2172.01 1148.4 2141.09 991.307 2082.43L1005.96 2006.29C1161.04 2059.88 1368.21 2089.21 1594.12 2089.21C1766.39 2089.21 1923.72 2061.07 2056.32 2015.72C2059.65 2025.12 2062.93 2034.52 2066.12 2043.95C2071.03 2058.79 2076.28 2073.51 2081.16 2088.37C1944.45 2139.41 1777.76 2172.01 1594.11 2172.01" fill="#7D87B4"/>
<path d="M991.307 2082.43C991.294 2082.43 991.294 2082.43 991.28 2082.41C968.76 2074.03 947.4 2065.03 927.254 2055.48C921.88 2052.96 916.587 2050.39 911.4 2047.77L946.4 1983.43C955.96 1987.49 965.774 1991.47 975.867 1995.33C985.654 1999.09 995.707 2002.75 1005.96 2006.29L991.307 2082.43" fill="#7D87B4"/>
<path d="M911.4 2047.77C904.213 2044.15 897.2 2040.44 890.373 2036.67C902.266 2014.76 913.866 1993.81 925.053 1973.97C932.013 1977.19 939.133 1980.33 946.4 1983.43L911.4 2047.77Z" fill="#000072"/>
<path d="M1981.01 1759.97C2018.11 1797.41 2038.91 1842.91 2058.52 1888.56C2078.47 1934.19 2096.83 1980.36 2112.84 2027.8C2120.36 2051.75 2128.91 2075.41 2134.93 2099.73L2144.77 2136C2148.11 2148.07 2150.56 2160.33 2153.49 2172.49L2162.08 2208.99L2169.51 2245.71C2171.87 2257.96 2174.69 2270.13 2176.68 2282.45L2183.01 2319.33C2191.64 2368.47 2198.07 2417.91 2203.75 2467.41C2206.11 2492.21 2208.69 2517 2210.59 2541.84C2212.25 2566.71 2214.65 2591.51 2216.11 2616.41C2216.87 2628.85 2217.91 2641.29 2218.43 2653.75C2218.92 2666.21 2219.11 2678.71 2219.33 2691.17C2219.44 2703.65 2219.19 2716.15 2218.53 2728.64C2217.97 2741.13 2217.49 2753.59 2216.17 2766.08C2215.15 2778.56 2213.83 2791.01 2212.35 2803.44C2210.69 2815.89 2208.6 2828.29 2206.56 2840.65C2205.69 2846.84 2204.09 2853.01 2202.79 2859.17C2201.41 2865.32 2200.12 2871.48 2198.57 2877.57C2195.57 2889.81 2191.57 2901.93 2187.53 2913.83C2186.92 2915.61 2184.97 2916.57 2183.17 2915.97C2181.8 2915.49 2180.91 2914.24 2180.85 2912.87V2912.72C2178.84 2862.84 2177.08 2814.17 2174.73 2765.19C2174.57 2759.09 2174.29 2752.99 2173.88 2746.87C2173.51 2740.76 2173.36 2734.65 2173.09 2728.55C2172.51 2716.33 2172.51 2704.13 2171.81 2691.92L2170.21 2618.6C2169.95 2594.12 2168.15 2569.69 2166.56 2545.27C2164.69 2520.87 2162.15 2496.51 2159.84 2472.15C2154.25 2423.52 2147.96 2374.96 2139.49 2326.79C2135.25 2302.71 2130.87 2278.65 2125.43 2254.84L2117.69 2219.03L2108.69 2183.56C2105.52 2171.79 2102.83 2159.87 2099.28 2148.23L2088.8 2113.24C2082.21 2089.77 2073.75 2067 2066.12 2043.95C2050.48 1997.8 2032.83 1951.92 2015.81 1905.96C1997.99 1860.2 1979.83 1814.88 1974.91 1762.89L1974.89 1762.84C1974.71 1760.87 1976.16 1759.12 1978.12 1758.93C1979.23 1758.83 1980.28 1759.25 1981.01 1759.97" fill="#000072"/>
<path d="M2454.21 1656.77C2430.64 1849.16 2069.13 2067.13 1594.12 2067.13C1119.09 2067.13 733.96 1939.56 716.867 1710.47C713.094 1659.92 722.12 1609.84 761.907 1518.41C777.747 1482.03 778.614 1448.76 770.254 1410.13C745.974 1298.08 700.6 1245.23 699.667 1121.01C696.254 664.173 1116.71 288.494 1591.32 287.04C2067.61 285.587 2454.21 656.787 2454.21 1114.92C2454.21 1241.48 2424.75 1318.41 2372.03 1410.2C2352.21 1444.71 2355.89 1469.87 2380.48 1501.39C2427.89 1562.15 2464.12 1575.97 2454.21 1656.77" fill="#B3C2D1"/>
<path d="M1594.15 290.48C1593.2 290.48 1592.28 290.48 1591.32 290.493C1348.23 291.24 1110.44 391.067 938.961 564.373C785.347 719.613 701.601 917.28 703.121 1120.99C703.694 1197.81 721.614 1247.72 740.574 1300.55C752.307 1333.21 764.427 1366.97 773.627 1409.41C782.827 1451.88 780.267 1484.88 765.081 1519.79C723.147 1616.13 716.854 1664.08 720.307 1710.21C736.081 1921.64 1087.24 2063.68 1594.12 2063.68C1813.28 2063.68 2025.56 2016.57 2191.88 1931.03C2342.41 1853.6 2439.2 1750.92 2450.8 1656.35C2458.28 1595.31 2439.29 1574.07 2407.83 1538.89C2398.77 1528.76 2388.51 1517.28 2377.76 1503.51C2351.52 1469.88 2349.08 1443.24 2369.04 1408.49C2420.8 1318.37 2450.77 1241.45 2450.77 1114.92C2450.77 900.187 2365.44 696.853 2210.52 542.4C2047.52 379.88 1828.71 290.48 1594.15 290.48V290.48ZM1594.12 2070.59C1355.49 2070.59 1138.29 2037.68 982.534 1977.93C814.721 1913.56 721.667 1821.17 713.427 1710.72C709.267 1655.01 721.547 1602.52 758.747 1517.04C773.321 1483.56 775.747 1451.81 766.881 1410.87C757.787 1368.88 745.734 1335.33 734.081 1302.88C714.907 1249.48 696.801 1199.05 696.214 1121.04C694.681 915.48 779.147 716.067 934.054 559.52C1106.83 384.92 1346.39 284.347 1591.31 283.587C1592.24 283.587 1593.21 283.587 1594.15 283.587C1830.56 283.587 2051.07 373.693 2215.39 537.507C2371.63 693.267 2457.67 898.333 2457.67 1114.92C2457.67 1242.99 2427.36 1320.8 2375.03 1411.92C2356.49 1444.19 2358.71 1467.87 2383.2 1499.27C2393.8 1512.85 2403.99 1524.24 2412.97 1534.29C2444.61 1569.67 2465.51 1593.03 2457.64 1657.19C2445.77 1754.03 2347.61 1858.69 2195.04 1937.16C2027.76 2023.2 1814.36 2070.59 1594.12 2070.59" fill="#000072"/>
<path d="M746.32 929.667C780.84 800.76 851 679.747 952.2 577.48C1107.11 420.933 1317.17 325.573 1535.67 311.053C1535.39 329.227 1536.41 346.227 1538.12 361.547C1180.57 383.733 862.347 616.08 746.32 929.667V929.667ZM2405.41 912.067C2303.36 633.84 2051.09 423.787 1742.45 372.093C1766.41 361.747 1795.79 358.56 1822.91 358.56C1854.21 358.56 1882.52 362.813 1896.07 365.227C1897.79 365.533 1899.48 365.8 1901.16 366.027C1902.99 366.267 1904.79 366.453 1906.55 366.573C2014.77 408.307 2113.61 472.093 2197.36 555.587C2298.76 656.68 2369.65 779.173 2405.41 912.067V912.067ZM1675.12 363.44C1673.83 363.32 1672.55 363.213 1671.25 363.107C1671.45 362.667 1671.64 362.213 1671.81 361.76L1675.12 363.44ZM1630.12 360.52C1626.76 360.387 1623.43 360.28 1620.07 360.187L1629.53 358.267C1629.69 359.027 1629.88 359.787 1630.12 360.52Z" fill="#D9E1E8"/>
<path d="M1594.12 2045.05C1097.59 2045.05 753.893 1909.93 738.88 1708.83C737.88 1695.49 737.773 1681.96 739.28 1666.89C829.827 1845.67 1177.39 1943.87 1594.11 1943.87C1738.24 1943.87 1871.88 1923.81 1988.84 1890.48C2086.87 1889.45 2177.4 1873.47 2246.4 1852.92C2273.55 1844.83 2299.13 1834.75 2323.21 1822.97C2179.21 1945.56 1908.12 2045.05 1594.12 2045.05" fill="#7D87B4"/>
<path d="M1594.15 309.12C1593.23 309.12 1592.31 309.12 1591.39 309.12C1353.2 309.853 1120.23 407.666 952.2 577.48C802.107 729.16 720.266 922.133 721.746 1120.85C722.306 1194.51 738.893 1240.73 758.12 1294.25C770.04 1327.48 782.373 1361.83 791.827 1405.47C801.787 1451.43 798.8 1488.99 782.16 1527.23C741.76 1620.05 735.653 1665.53 738.88 1708.83C753.893 1909.93 1097.59 2045.05 1594.12 2045.05C2046.43 2045.05 2409.69 1838.64 2432.31 1654.08C2438.76 1601.43 2424.71 1585.72 2393.95 1551.31C2384.69 1540.96 2374.2 1529.23 2363.08 1514.96C2332.12 1475.29 2329.07 1440.67 2352.88 1399.21C2403.08 1311.83 2432.13 1237.29 2432.13 1114.92C2432.13 905.173 2348.76 706.52 2197.36 555.586C2037.88 396.586 1823.73 309.12 1594.15 309.12V309.12ZM1594.12 2089.21C1353.27 2089.21 1133.69 2055.87 975.866 1995.33C800.84 1928.2 703.653 1830.25 694.84 1712.11C690.44 1653.05 703.12 1598.17 741.666 1509.6C754.56 1479.99 756.653 1451.64 748.666 1414.81C739.826 1374.01 728 1341.05 716.546 1309.17C696.826 1254.24 678.2 1202.36 677.587 1121.17C676.013 910.64 762.387 706.52 920.8 546.426C1097.04 368.32 1341.4 265.72 1591.24 264.96C1592.21 264.96 1593.19 264.96 1594.15 264.96C1835.53 264.96 2060.71 356.986 2228.55 524.32C2388.31 683.6 2476.29 893.347 2476.29 1114.92C2476.29 1247.15 2445.09 1327.35 2391.17 1421.2C2376.48 1446.8 2378.04 1462.36 2397.89 1487.8C2408.11 1500.91 2417.64 1511.56 2426.87 1521.87C2459.36 1558.21 2485.03 1586.92 2476.13 1659.45C2451.23 1862.72 2082.87 2089.21 1594.12 2089.21" fill="#000072"/>
<path d="M1634.6 1815.11C1634.6 1815.11 1491.99 1890.53 1446.93 1806.67C1411.49 1740.67 1446.93 1665.23 1446.93 1665.23L1634.6 1815.11Z" fill="#F7528A"/>
<path d="M1520.99 1868.43C1484.36 1868.43 1448.49 1856.21 1427.49 1817.11C1387.24 1742.19 1425.32 1659.33 1426.96 1655.84C1432.15 1644.81 1445.28 1640.04 1456.33 1645.25C1467.36 1650.44 1472.11 1663.59 1466.92 1674.63C1466.65 1675.23 1436.8 1741.12 1466.39 1796.21C1499.99 1858.76 1623.07 1796.23 1624.29 1795.57C1635.07 1789.91 1648.44 1794.04 1654.12 1804.81C1659.81 1815.59 1655.69 1828.93 1644.92 1834.63C1640.84 1836.79 1579.93 1868.43 1520.99 1868.43" fill="#000072"/>
<path d="M1140.15 1028.97C1120.64 1042.49 1096.33 1020.28 1108.43 999.853C1134.93 955.067 1175.69 909.747 1234.04 902.72C1339.57 890 1311.41 955.067 1255.07 971.507C1222.19 981.107 1179.11 1001.97 1140.15 1028.97" fill="#000072"/>
<path d="M2234.39 1028.97C2253.89 1042.49 2278.2 1020.28 2266.12 999.853C2239.61 955.067 2198.84 909.747 2140.51 902.72C2034.96 890 2063.13 955.067 2119.47 971.507C2152.35 981.107 2195.43 1001.97 2234.39 1028.97" fill="#000072"/>
<path d="M1561.72 371.987C1546.96 270.56 1566.67 122.733 1738.71 33.4535C1835.96 -17.0132 1917.92 125.467 1823.77 181.533C1821.93 182.627 1820.04 183.707 1818.09 184.747C1748.95 221.813 1664.6 284.973 1651.19 353.88L1561.72 371.987" fill="#B3C2D1"/>
<path d="M1558.31 372.48C1545.71 285.92 1552.17 126.373 1737.12 30.4001C1789.97 2.94672 1836.15 30.1467 1856.68 67.0133C1876.6 102.8 1875.36 154.84 1825.55 184.507C1823.65 185.627 1821.72 186.733 1819.71 187.8C1784.96 206.413 1670.35 273.493 1654.56 354.547L1647.8 353.227C1664.16 269.187 1781.03 200.707 1816.45 181.707C1818.37 180.68 1820.23 179.64 1822.01 178.573C1867.87 151.253 1869 103.333 1850.64 70.3735C1831.68 36.3202 1789.07 11.2134 1740.29 36.5201C1559.15 130.533 1552.8 286.747 1565.13 371.493L1558.31 372.48" fill="#000072"/>
<path d="M1594.91 222.387C1615.13 161.947 1659.41 99.4801 1748.88 53.0534C1759.83 47.3734 1770.31 44.8932 1780.04 44.8932C1804.05 44.8932 1823.55 60.0001 1834.37 79.4401C1839.2 88.1201 1842.61 98.3334 1843.27 108.907C1827.84 90.5068 1805.45 78.0266 1779.87 78.0266C1766.81 78.0266 1752.92 81.2801 1738.71 88.6534C1667.39 125.667 1622.27 172.733 1594.91 222.387Z" fill="#D9E1E8"/>
<path d="M1561.69 394.067C1550.91 394.067 1541.48 386.16 1539.88 375.174C1526.56 283.707 1533.36 115.147 1728.53 13.8669C1789.59 -17.8397 1847.4 12.0535 1872.95 57.9469C1897.88 102.734 1892.88 166.08 1835.08 200.507C1832.93 201.787 1830.73 203.027 1828.47 204.24C1760.67 240.574 1684.15 300.107 1672.85 358.107C1670.52 370.08 1658.92 377.893 1646.96 375.56C1635 373.227 1627.17 361.627 1629.51 349.667C1646.95 260.094 1759.91 190.88 1807.65 165.293C1809.36 164.387 1810.95 163.48 1812.49 162.56C1850.27 140.067 1847.89 103.72 1834.37 79.4404C1819.16 52.107 1786.81 33.347 1748.88 53.0536C1577.96 141.76 1571.95 288.96 1583.57 368.8C1585.33 380.88 1576.97 392.08 1564.91 393.84C1563.83 394 1562.76 394.067 1561.69 394.067" fill="#000072"/>
<path d="M1653.73 352.6C1693.03 284.653 1775.05 205.2 1920.81 233.24C2003.2 249.093 1984.8 373.613 1901.61 362.6C1899.99 362.387 1898.35 362.133 1896.67 361.84C1837.53 351.267 1756.85 349.173 1716.08 384.2L1653.73 352.6Z" fill="#B3C2D1"/>
<path d="M1718.33 386.813L1713.83 381.587C1763.84 338.627 1866.88 353 1897.28 358.44C1898.89 358.733 1900.49 358.987 1902.07 359.187C1942.07 364.427 1965.17 336.587 1969.75 308.453C1974.47 279.36 1960.96 244.48 1920.16 236.627C1767.19 207.213 1689.44 297.747 1656.72 354.333L1650.75 350.88C1684.39 292.693 1764.28 199.587 1921.47 229.853C1966.79 238.573 1981.79 277.28 1976.55 309.56C1971.47 340.88 1945.71 371.987 1901.16 366.027C1899.48 365.8 1897.79 365.533 1896.07 365.227C1866.43 359.933 1766.03 345.853 1718.33 386.813" fill="#000072"/>
<path d="M1659.6 355.574L1656.81 354.174C1685.2 305.16 1747.25 230.894 1862.59 230.894C1880.47 230.894 1899.64 232.68 1920.16 236.627C1960.96 244.48 1974.47 279.36 1969.75 308.454C1967.75 320.76 1962.2 333 1953.25 342.454C1954.81 312.72 1938.32 281.987 1900.11 274.64C1879.48 270.667 1860.13 268.854 1842 268.854C1755.89 268.854 1697.2 309.814 1659.6 355.574" fill="#D9E1E8"/>
<path d="M1656.81 354.174L1653.73 352.6C1687.47 294.267 1752.68 227.454 1862.69 227.454C1880.83 227.454 1900.19 229.28 1920.81 233.24C1981.73 244.96 1987.49 316.04 1952.76 347.867C1953 346.067 1953.16 344.267 1953.25 342.454C1962.2 333 1967.75 320.76 1969.75 308.454C1974.47 279.36 1960.96 244.48 1920.16 236.627C1899.64 232.68 1880.47 230.893 1862.59 230.893C1747.25 230.893 1685.2 305.16 1656.81 354.174" fill="#8080B9"/>
<path d="M1716.09 406.28C1709.88 406.28 1703.71 403.68 1699.33 398.587C1691.39 389.333 1692.44 375.4 1701.69 367.453C1756.39 320.467 1858.97 332.667 1900.56 340.093C1901.89 340.333 1903.21 340.547 1904.51 340.72C1934.21 344.627 1948.32 324.173 1951.36 305.467C1953.92 289.667 1949.49 261.24 1916.64 254.92C1775.01 227.707 1703.09 311.347 1672.85 363.667C1666.75 374.213 1653.23 377.813 1642.68 371.72C1632.12 365.627 1628.52 352.107 1634.61 341.56C1663.69 291.267 1750.17 177.907 1924.99 211.56C1979.95 222.133 2001.79 270.36 1994.95 312.533C1988.25 353.747 1953.07 391.72 1898.72 384.493C1896.76 384.24 1894.79 383.933 1892.77 383.56C1835.92 373.413 1763.43 372.64 1730.47 400.947C1726.31 404.533 1721.19 406.28 1716.09 406.28Z" fill="#000072"/>
<path d="M1935.76 1342.03C1935.76 1342.03 1969.41 1542.08 2217.07 1481.69C2492.4 1414.56 2349.09 1150.04 2465.48 1099.32C2505.61 1081.84 2530.64 1103.96 2550.75 1132.43C2557.05 1141.36 2570.79 1144.4 2582.69 1143.79C2611.83 1142.31 2634.31 1162.57 2644.59 1212.52C2675.47 1362.6 2576.12 1754.71 2246.4 1852.92C2046.81 1912.36 1667.03 1933.61 1446.93 1665.23L1935.76 1342.03" fill="#B3C2D1"/>
<path d="M2439.13 1744.52C2439.15 1744.51 2439.17 1744.48 2439.19 1744.47C2439.17 1744.48 2439.16 1744.49 2439.13 1744.52ZM2439.67 1744.04C2439.72 1743.99 2439.77 1743.93 2439.83 1743.89C2439.79 1743.93 2439.71 1744 2439.67 1744.04ZM2440.24 1743.52C2440.32 1743.44 2440.4 1743.37 2440.48 1743.31C2440.41 1743.37 2440.31 1743.45 2440.24 1743.52ZM2440.69 1743.11C2440.85 1742.97 2441 1742.83 2441.15 1742.69C2441 1742.84 2440.85 1742.96 2440.69 1743.11Z" fill="#000072"/>
<path d="M2475.16 1709.01C2594.04 1580.68 2645.81 1405.6 2649.69 1286.56C2645.81 1405.59 2594.04 1580.68 2475.16 1709.01Z" fill="#B23F8D"/>
<path d="M2453.99 1730.67C2461.27 1723.63 2468.33 1716.39 2475.16 1709.01C2468.32 1716.39 2461.27 1723.61 2453.99 1730.67Z" fill="#000072"/>
<path d="M2441.25 1742.6C2445.57 1738.68 2449.81 1734.71 2453.99 1730.67C2449.83 1734.69 2445.57 1738.68 2441.25 1742.6Z" fill="#000072"/>
<path d="M1465.36 1653.05C1463.2 1649.77 1460.13 1647.04 1456.33 1645.25C1455.69 1644.95 1455.05 1644.68 1454.41 1644.45L1474.49 1588.55C1486.64 1600.53 1499.09 1611.79 1511.8 1622.35L1465.36 1653.05" fill="#7D87B4"/>
<path d="M1446.95 1665.23L1454.41 1644.45C1455.05 1644.68 1455.69 1644.95 1456.33 1645.25C1460.13 1647.04 1463.2 1649.77 1465.36 1653.05L1446.93 1665.23" fill="#000072"/>
<path d="M1978.76 1890.53C1795.65 1890.53 1588.36 1837.67 1446.95 1665.23L1465.36 1653.05L1511.8 1622.35C1643.85 1732.01 1804.09 1765.92 1950.33 1765.93C2074.69 1765.93 2188.92 1741.43 2267.21 1718.11C2487.89 1652.36 2605.41 1454.97 2649.69 1286.56C2645.81 1405.6 2594.04 1580.68 2475.16 1709.01C2468.33 1716.39 2461.27 1723.63 2453.99 1730.67C2449.81 1734.71 2445.57 1738.68 2441.25 1742.6C2441.23 1742.63 2441.19 1742.67 2441.15 1742.69C2441 1742.83 2440.85 1742.97 2440.69 1743.11C2440.63 1743.17 2440.55 1743.24 2440.48 1743.31C2440.4 1743.37 2440.32 1743.44 2440.24 1743.52C2440.09 1743.65 2439.97 1743.76 2439.83 1743.89C2439.77 1743.93 2439.72 1743.99 2439.67 1744.04C2439.51 1744.19 2439.35 1744.32 2439.19 1744.47C2439.17 1744.48 2439.15 1744.51 2439.13 1744.52C2386.33 1791.91 2322.51 1830.24 2246.4 1852.91C2175.05 1874.16 2080.64 1890.52 1978.76 1890.53" fill="#7D87B4"/>
<path d="M1952.4 1431.43C1943.59 1421.85 1934.52 1412.84 1924.75 1404.6C1914.72 1396.69 1904.2 1389.55 1893.04 1383.39C1881.77 1377.47 1869.95 1372.67 1857.69 1368.99C1845.41 1365.39 1832.65 1363.33 1819.73 1362.72C1806.79 1362.03 1793.72 1363.29 1780.77 1365.91C1767.93 1368.51 1754.4 1372.84 1741.89 1378.24C1716.47 1388.89 1693.12 1405.17 1673.03 1426.24C1671.81 1427.52 1669.8 1427.57 1668.52 1426.36C1667.48 1425.37 1667.25 1423.83 1667.88 1422.6C1681.61 1395.87 1703.25 1372.45 1729.25 1355.16C1735.75 1350.83 1742.53 1346.93 1749.45 1343.29C1752.92 1341.45 1756.44 1339.76 1759.99 1338.09C1763.64 1336.55 1767.43 1335.12 1771.17 1333.64C1786.28 1328.23 1802.23 1323.92 1818.59 1322.93C1851.21 1320.07 1884.93 1326.19 1914.71 1340.67C1929.52 1348.01 1943.43 1357.19 1955.92 1367.97C1968.23 1378.97 1979.11 1391.49 1987.97 1405.25C1994.59 1415.52 1991.63 1429.2 1981.36 1435.81C1972.17 1441.73 1960.27 1439.99 1953.12 1432.21L1952.4 1431.43" fill="#000072"/>
<path d="M1980.19 1912.03C1792.23 1912.03 1576.68 1858.25 1429.87 1679.24C1422.13 1669.8 1423.51 1655.89 1432.93 1648.16C1442.36 1640.41 1456.28 1641.8 1464.01 1651.23C1678.2 1912.41 2052.63 1887.6 2240.09 1831.76C2556.76 1737.43 2652 1358.07 2622.96 1216.97C2612.15 1164.39 2590.83 1165.51 2583.81 1165.84C2561.69 1166.93 2542.63 1159.23 2532.71 1145.16C2509.65 1112.51 2493.84 1111.05 2474.29 1119.57C2442.11 1133.59 2436.28 1172.52 2429.44 1234.89C2419.08 1329.31 2404.89 1458.63 2222.29 1503.15C2073.33 1539.44 1995.09 1486.55 1955.67 1435.73C1948.19 1426.11 1949.93 1412.24 1959.57 1404.76C1969.2 1397.29 1983.08 1399.03 1990.55 1408.67C2036.25 1467.55 2110.69 1484.91 2211.83 1460.24C2364.37 1423.05 2375.13 1324.95 2385.55 1230.07C2392.65 1165.27 2399.37 1104.05 2456.65 1079.08C2520.48 1051.27 2556.83 1102.76 2568.79 1119.69C2569.64 1120.37 2574.65 1122.08 2581.57 1121.75C2606.25 1120.48 2650.15 1130.03 2666.21 1208.07C2681.83 1283.95 2667.6 1422.73 2600.61 1561.75C2547.04 1672.92 2443.2 1817.33 2252.69 1874.07C2181.73 1895.21 2085.25 1912.03 1980.19 1912.03" fill="#000072"/>
<path d="M1307.24 1677.36C1329.51 1675.07 1351.13 1672.15 1370.39 1666.49C1389.83 1661.09 1406.95 1652.91 1422.23 1641.8C1424.29 1640.47 1425.44 1639 1427.17 1637.68C1428.75 1636.32 1430.51 1635.09 1431.75 1633.39C1433.11 1631.77 1434.57 1630.25 1436.07 1628.73L1439.8 1623.41C1444.63 1616.12 1448.87 1607.79 1451.96 1598.37C1458.15 1579.68 1461.16 1557.6 1462.61 1535.45L1462.67 1534.56C1462.97 1530.04 1466.87 1526.63 1471.39 1526.92C1474.44 1527.12 1477 1528.99 1478.24 1531.56C1489.25 1554.59 1493.68 1579.67 1491.05 1606.37C1489.71 1619.68 1485.71 1633.24 1479.28 1646.08C1473.11 1659.08 1462.68 1670.51 1451.71 1679.69C1430.33 1696.81 1403.61 1707.16 1377.36 1708.91C1364.23 1709.85 1351.2 1709 1338.68 1706.43C1326.09 1703.72 1314.31 1699.75 1302.83 1692.84C1298.89 1690.48 1297.63 1685.37 1299.99 1681.44C1301.37 1679.13 1303.72 1677.73 1306.2 1677.47L1307.24 1677.36" fill="#000072"/>
<path d="M1794.99 1541.29C1797.69 1530.79 1801.67 1520.88 1806.73 1511.35C1809.11 1506.48 1812.09 1502 1814.91 1497.31C1818.04 1492.88 1821.13 1488.33 1824.52 1483.99C1838.25 1466.81 1855.84 1451.79 1876.32 1441.27C1881.29 1438.27 1886.65 1436.21 1892.04 1434.07C1897.43 1431.99 1902.76 1429.41 1908.45 1428.39L1925.41 1424.36C1931.12 1423.53 1936.88 1423.27 1942.64 1422.73C1945.52 1422.53 1948.4 1422.24 1951.29 1422.13C1954.16 1422.09 1956.99 1422.43 1959.83 1422.57C1965.52 1422.89 1971.2 1423.4 1976.87 1424C1988.04 1425.63 1998.83 1428.77 2009.48 1431.99C2021.08 1435.49 2027.65 1447.75 2024.15 1459.35C2021.19 1469.13 2012.01 1475.35 2002.25 1474.95L1998.6 1474.79C1989.21 1474.4 1980.13 1472.64 1971.13 1471.75C1962.17 1471.76 1953.13 1469.81 1944.37 1470.61L1931.09 1470.79L1917.99 1472.21C1913.51 1472.44 1909.32 1473.69 1904.95 1474.52C1900.6 1475.41 1896.16 1476.17 1892.03 1477.85C1874.88 1482.97 1858.24 1491.45 1842.89 1502.81C1827.47 1514 1813.19 1528.08 1800.76 1543.81L1800.56 1544.07C1799.48 1545.44 1797.47 1545.68 1796.09 1544.59C1795.07 1543.79 1794.68 1542.48 1794.99 1541.29" fill="#000072"/>
<path d="M1154.43 1348.91C1185.97 1445.93 1278.69 1496.91 1361.55 1462.75C1444.4 1428.6 1486 1322.25 1454.45 1225.23C1422.92 1128.2 1330.19 1077.24 1247.33 1111.39C1164.49 1145.55 1122.89 1251.88 1154.43 1348.91Z" fill="#000072"/>
<path d="M1204.13 1256.35C1206.56 1291.73 1227.68 1318.31 1251.32 1315.71C1274.96 1313.09 1292.16 1282.28 1289.73 1246.89C1287.32 1211.51 1266.2 1184.92 1242.56 1187.53C1218.92 1190.15 1201.72 1220.95 1204.13 1256.35Z" fill="white"/>
<path d="M1362.28 1337.16C1364.52 1354.8 1375.84 1367.75 1387.59 1366.08C1399.32 1364.43 1407.03 1348.77 1404.8 1331.15C1402.56 1313.51 1391.24 1300.56 1379.49 1302.23C1367.76 1303.88 1360.05 1319.53 1362.28 1337.16Z" fill="white"/>
<path d="M2219.61 1159.73C2203.35 1167.92 2186.92 1176.92 2172 1186.77C2156.96 1196.61 2143 1207.37 2130.28 1219.01C2123.76 1224.68 2118.07 1231.05 2112.12 1237.12L2104.01 1246.89C2102.72 1248.56 2101.21 1250.05 2100 1251.77L2096.37 1256.95C2086.07 1270.32 2078.71 1285.53 2071.51 1300.88L2034.44 1271.52C2035.93 1270.56 2036.87 1270.03 2037.88 1269.43C2038.92 1268.8 2039.91 1268.24 2040.87 1267.73C2042.83 1266.69 2044.79 1265.65 2046.72 1264.76C2050.6 1262.84 2054.49 1261.2 2058.39 1259.55C2066.19 1256.35 2074.2 1253.84 2082.25 1251.65C2098.37 1247.35 2115.04 1245.2 2131.63 1245.32C2148.17 1245.51 2164.71 1247.45 2180.29 1252.37C2196.03 1256.49 2210.59 1263.91 2223.97 1272.13C2227.99 1274.6 2229.24 1279.84 2226.77 1283.85C2224.96 1286.81 2221.63 1288.28 2218.39 1287.85L2217.37 1287.71C2210.04 1286.73 2203.13 1285.01 2196.07 1284.24C2188.97 1283.6 2182.12 1282.55 2175.16 1282.55C2161.35 1281.96 2147.75 1282.99 2134.53 1285.23C2121.31 1287.28 2108.4 1290.88 2096.04 1295.59C2089.84 1297.91 2083.84 1300.65 2077.97 1303.48C2075.08 1304.97 2072.17 1306.41 2069.47 1308.04C2068.05 1308.81 2066.77 1309.63 2065.49 1310.44C2064.81 1310.84 2064.19 1311.21 2063.64 1311.59L2062.33 1312.47L2061.83 1312.8C2050.51 1320.35 2035.2 1317.28 2027.64 1305.96C2023 1298.99 2022.43 1290.36 2025.27 1283.11C2033.16 1263.43 2042.33 1243.79 2055.67 1226.93C2061.64 1218 2069.44 1210.61 2076.59 1202.75C2084.55 1195.71 2092.24 1188.36 2101.04 1182.52C2118.13 1170.25 2136.75 1160.53 2156.19 1153.83C2175.77 1147.28 2195.49 1143 2216.6 1143.09C2221.33 1143.11 2225.16 1146.96 2225.15 1151.71C2225.13 1155.04 2223.21 1157.92 2220.43 1159.33L2219.61 1159.73" fill="#000072"/>
<path d="M2646.03 2029.87C2626.28 2085.13 2569.97 2115.53 2520.27 2097.77C2470.55 2080.01 2446.25 2020.81 2466 1965.55C2485.75 1910.28 2542.05 1879.87 2591.77 1897.63C2641.48 1915.39 2665.77 1974.6 2646.03 2029.87" fill="white"/>
<path d="M2566.45 1833.72C2565.23 1850.49 2551.99 1863.21 2536.89 1862.11C2521.8 1861 2510.56 1846.49 2511.79 1829.72C2513.01 1812.93 2526.24 1800.23 2541.35 1801.32C2556.44 1802.43 2567.68 1816.93 2566.45 1833.72Z" fill="white"/>
<path d="M2645.56 1849.48C2641.39 1865.77 2626.12 1875.95 2611.45 1872.2C2596.79 1868.44 2588.28 1852.19 2592.45 1835.88C2596.63 1819.59 2611.89 1809.41 2626.56 1813.16C2641.23 1816.92 2649.73 1833.17 2645.56 1849.48Z" fill="white"/>
<path d="M2700.21 1901.61C2695.04 1914.13 2681.71 1920.52 2670.44 1915.85C2659.17 1911.2 2654.23 1897.28 2659.41 1884.75C2664.59 1872.23 2677.91 1865.84 2689.17 1870.51C2700.44 1875.16 2705.39 1889.08 2700.21 1901.61Z" fill="white"/>
<path d="M1374.32 3176.4C1368.36 3228.48 1325.55 3266.37 1278.69 3261.01C1231.84 3255.65 1198.68 3209.09 1204.64 3157C1210.59 3104.91 1253.4 3067.03 1300.25 3072.37C1347.11 3077.73 1380.27 3124.31 1374.32 3176.4" fill="white"/>
<path d="M1209.16 3052.19C1214.72 3070.12 1206.15 3088.72 1190.01 3093.72C1173.88 3098.73 1156.29 3088.24 1150.73 3070.31C1145.17 3052.37 1153.73 3033.77 1169.88 3028.77C1186.01 3023.76 1203.6 3034.25 1209.16 3052.19Z" fill="white"/>
<path d="M1297.59 2993.81C1300.4 3016.55 1286.11 3037.03 1265.65 3039.56C1245.21 3042.09 1226.36 3025.72 1223.53 3002.99C1220.72 2980.25 1235.01 2959.77 1255.47 2957.24C1275.91 2954.71 1294.77 2971.08 1297.59 2993.81Z" fill="white"/>
<path d="M1374.03 3019.8C1373.72 3036.52 1361.28 3049.87 1346.24 3049.59C1331.2 3049.32 1319.25 3035.55 1319.56 3018.83C1319.85 3002.11 1332.29 2988.76 1347.33 2989.04C1362.37 2989.31 1374.33 3003.08 1374.03 3019.8Z" fill="white"/>
<path d="M2452.52 3150.44C2439.13 3200.37 2400.04 3228.25 2365.23 3212.72C2330.4 3197.17 2313.03 3144.11 2326.41 3094.16C2339.81 3044.23 2378.89 3016.35 2413.72 3031.89C2448.55 3047.43 2465.92 3100.51 2452.52 3150.44Z" fill="white"/>
<path d="M2352.87 2993.83C2354.09 3013.24 2344.12 3030.15 2330.57 3031.57C2317.04 3033 2305.07 3018.41 2303.83 2999C2302.6 2979.57 2312.59 2962.68 2326.12 2961.25C2339.67 2959.83 2351.64 2974.41 2352.87 2993.83Z" fill="white"/>
<path d="M2432.39 2955.79C2430.61 2979.6 2415.71 2997.23 2399.11 2995.16C2382.51 2993.09 2370.49 2972.13 2372.27 2948.32C2374.04 2924.52 2388.95 2906.89 2405.55 2908.96C2422.15 2911.01 2434.16 2931.99 2432.39 2955.79Z" fill="white"/>
<path d="M2484.17 2997.85C2481.11 3014.23 2469.36 3024.63 2457.93 3021.07C2446.51 3017.49 2439.73 3001.33 2442.8 2984.95C2445.88 2968.56 2457.63 2958.17 2469.05 2961.73C2480.48 2965.29 2487.25 2981.47 2484.17 2997.85" fill="white"/>
<path d="M1335.23 2911.11C1314.27 2902.27 1293.01 2895.37 1271.79 2892.36C1261.19 2891 1250.65 2890.52 1240.31 2891.13C1229.97 2891.8 1219.88 2893.65 1210.13 2896.6C1171.05 2908.47 1139.24 2941.56 1120.99 2982.67C1118.71 2987.77 1116.59 2993 1114.51 2998.67L1113.19 3002.16L1111.69 3006.47C1110.79 3009.16 1109.93 3011.87 1109.11 3014.61C1105.85 3025.57 1103.27 3036.89 1101.37 3048.37C1097.53 3071.36 1095.92 3094.81 1097.45 3118.27C1100.28 3165.8 1111.44 3213.41 1128.48 3259.09C1129.11 3260.72 1128.29 3262.55 1126.65 3263.17C1125.2 3263.73 1123.56 3263.11 1122.79 3261.8C1110.33 3240.32 1100.27 3217.52 1091.6 3194.09C1082.81 3170.75 1076.52 3146.07 1072.05 3121.31C1067.76 3096.07 1066.48 3070.15 1068.45 3044.45C1069.4 3031.59 1071.12 3018.72 1073.72 3005.88C1074.37 3002.67 1075.08 2999.45 1075.85 2996.24L1076.96 2991.75L1078.41 2986.47C1080.05 2980.45 1082.12 2974.15 1084.39 2967.88C1093.51 2942.99 1106.63 2918.71 1125.27 2897.96C1143.77 2877.27 1167.88 2860.2 1195.21 2851.15C1222.41 2841.8 1251.69 2840.45 1278.92 2844.77C1306.24 2849.17 1331.69 2858.89 1354.76 2871.51C1365.47 2877.36 1369.41 2890.79 1363.56 2901.49C1358.08 2911.52 1345.97 2915.61 1335.67 2911.29L1335.23 2911.11" fill="#000072"/>
<path d="M2244.45 3195.67C2232.57 3176.05 2225.88 3154.01 2220.72 3131.99C2215.56 3109.88 2212.83 3087.27 2211.47 3064.55C2209.21 3019.13 2212.83 2972.76 2226.77 2927.59C2233.92 2905.12 2243.47 2882.77 2257.44 2862.29C2271.25 2841.83 2289.61 2823.13 2312.07 2809.99C2334.37 2796.69 2360.21 2789.47 2385.29 2788.16C2410.47 2786.69 2434.89 2790.33 2457.92 2796.63C2469.69 2799.84 2476.63 2811.97 2473.41 2823.75C2470.43 2834.69 2459.69 2841.47 2448.73 2839.75L2447.77 2839.6C2427.64 2836.49 2407.83 2834.63 2388.83 2836.12C2384.16 2836.79 2379.43 2837.17 2374.8 2837.95L2361.24 2841.03L2348.28 2845.6C2344.21 2847.71 2340.05 2849.56 2335.91 2851.53C2303.83 2869.27 2279.68 2902.71 2264.28 2940.92C2248.8 2979.27 2240.71 3021.83 2237.76 3064.67C2236.23 3086.13 2236.35 3107.79 2237.77 3129.39C2239.27 3150.97 2242.75 3172.51 2250.08 3192.81L2250.13 3192.96C2250.73 3194.6 2249.88 3196.41 2248.24 3197.01C2246.8 3197.53 2245.23 3196.93 2244.45 3195.67" fill="#000072"/>
<path d="M2361.36 3366.11C2349.59 3366.11 2318.12 3361.55 2281.88 3356.39C2183.41 3342.37 2008.12 3317.43 1809.97 3317.43C1697.03 3317.43 1576.64 3325.53 1458.91 3348.4C1460.03 3345.76 1461.11 3343.11 1462.15 3340.44L1466.65 3339.09L1613.04 3252.23C1667.05 3252.73 1724.13 3255.28 1781.01 3257.83C1844.56 3260.67 1907.87 3263.52 1966.35 3263.52C1995.88 3263.52 2024.17 3262.8 2050.67 3260.97C2155.11 3253.8 2230.19 3205.93 2244.71 3196.03C2245.31 3196.76 2246.21 3197.2 2247.16 3197.2C2247.52 3197.2 2247.88 3197.13 2248.24 3197.01C2248.36 3196.96 2248.48 3196.91 2248.6 3196.85C2257.36 3213.65 2309.08 3305.92 2389.03 3306.96C2389.57 3306.97 2390.13 3306.97 2390.68 3306.97C2463.15 3306.97 2509.65 3244.39 2537.24 3163.04C2532.27 3186.53 2525.44 3209.01 2517.01 3229.76C2482.88 3313.75 2426.75 3363.43 2363 3366.07C2362.51 3366.09 2361.96 3366.11 2361.36 3366.11" fill="#878AB5"/>
<path d="M2361.77 3388.15C2338.88 3388.15 2269.59 3375.95 2171.68 3363.73C2073.77 3351.53 1947.27 3339.32 1809.92 3339.32C1693.11 3339.32 1568.47 3348.15 1446.92 3373.31C1451.37 3365.17 1455.33 3356.84 1458.91 3348.4C1576.64 3325.53 1697.03 3317.43 1809.97 3317.43C2008.12 3317.43 2183.41 3342.37 2281.88 3356.39C2318.12 3361.55 2349.59 3366.11 2361.36 3366.11C2361.96 3366.11 2362.51 3366.09 2363 3366.07C2426.75 3363.43 2482.88 3313.75 2517.01 3229.76C2525.44 3209.01 2532.27 3186.53 2537.24 3163.04C2551.61 3120.64 2560.83 3073.15 2565.89 3026.77C2584.77 3194.69 2501.43 3382.41 2363.92 3388.11C2363.25 3388.13 2362.55 3388.15 2361.77 3388.15" fill="#000072"/>
<path d="M1462.15 3340.44C1464.13 3335.41 1465.99 3330.35 1467.73 3325.25C1474.65 3305.91 1479.17 3286.04 1482.96 3266.13C1483.51 3262.93 1484.03 3259.75 1484.52 3256.55C1518.39 3253.35 1555.35 3252.13 1594.13 3252.13C1600.39 3252.13 1606.69 3252.16 1613.04 3252.23L1466.65 3339.09L1462.15 3340.44" fill="#7D87B4"/>
<path d="M1414.04 3380.49C1402.36 3380.51 1461.84 3259.07 1461.84 3259.07C1469.23 3258.12 1476.79 3257.28 1484.52 3256.55C1484.03 3259.75 1483.51 3262.93 1482.96 3266.13C1479.17 3286.04 1474.65 3305.91 1467.73 3325.25C1465.99 3330.35 1464.13 3335.41 1462.15 3340.44C1461.11 3343.11 1460.03 3345.76 1458.91 3348.4C1455.33 3356.84 1451.37 3365.17 1446.92 3373.31C1436.09 3375.55 1425.29 3377.92 1414.53 3380.43C1414.36 3380.47 1414.2 3380.49 1414.04 3380.49" fill="#000072"/>
<path d="M2247.16 3197.2C2246.21 3197.2 2245.31 3196.76 2244.71 3196.03C2246.4 3194.88 2247.27 3194.24 2247.27 3194.24C2247.27 3194.24 2247.72 3195.17 2248.6 3196.85C2248.48 3196.91 2248.36 3196.96 2248.24 3197.01C2247.88 3197.13 2247.52 3197.2 2247.16 3197.2" fill="#000072"/>
</svg>
