<svg width="200" viewBox="0 0 3301 3316" fill="none" xmlns="http://www.w3.org/2000/svg">
<path d="M2120.07 3315.13C1645.93 3315.13 1258.49 3239.72 1232.37 3144.72C1259.35 3154.01 1287.79 3158.83 1316.48 3158.97C1316.95 3158.97 1317.41 3158.97 1317.87 3158.97C1318.43 3158.97 1319 3158.97 1319.56 3158.97C1347.89 3158.79 1376.43 3154.07 1403.99 3144.63C1410.28 3142.48 1416.52 3140.07 1422.71 3137.43L1589.88 3065.75C1611.25 3056.59 1630.63 3044.01 1647.39 3028.77C1667.48 3039.68 1688.41 3049.05 1709.97 3056.72C1744.91 3068.91 1778.35 3076.67 1812.8 3083.87C1847.09 3090.89 1881.6 3096.17 1916.16 3100.33C1985.29 3108.6 2054.65 3111.88 2123.83 3112.04C2193 3111.81 2262.35 3108.29 2331.44 3099.91C2365.97 3095.67 2400.45 3090.31 2434.71 3083.21C2469.13 3075.93 2502.53 3068.09 2537.36 3055.87C2550.39 3051.2 2563.17 3045.92 2575.68 3040.05C2596.15 3060.45 2620.55 3077.12 2647.87 3088.84L2815.04 3160.52C2852.36 3176.52 2891.49 3184.27 2930.09 3184.27C2947.27 3184.27 2964.32 3182.73 2981.08 3179.71C2882.28 3257.59 2534.25 3315.13 2120.07 3315.13Z" fill="#DCDCDC"/>
<path d="M1594.04 1838.28L1572.93 1928.01L1493.75 2264.76L1493.39 2266.41C1470.71 2261.17 1448.67 2255.72 1427.35 2249.83C1424.19 2248.97 1422.53 2248.53 1422.53 2248.53C852.84 2091.25 749.826 1720.83 840.053 1601.16C868.2 1563.76 902.373 1543.67 936.32 1533.83C968.986 1524.35 1002.59 1525.15 1033.88 1534.33C1070.64 1545.09 1104.24 1567.49 1129.43 1598.51C1214.79 1703.45 1377.09 1771.37 1485.43 1807.27C1549.03 1828.29 1594.04 1838.28 1594.04 1838.28" fill="#60547B"/>
<path d="M1401.28 2216.35C1260.32 2174.61 1141.37 2116.93 1046.73 2044.33C928.932 1953.99 877.839 1862.73 855.719 1802.11C840.106 1759.29 833.972 1717.67 837.212 1682.41L927.772 1858.04C938.226 1878.32 955.946 1893.32 977.679 1900.27C978.826 1900.64 979.973 1900.97 981.119 1901.29C1060.8 1984.84 1159.55 2046.04 1237.24 2085.97C1255.09 2095.16 1274.17 2099.51 1292.95 2099.51C1338.24 2099.52 1381.77 2074.2 1402.17 2030.27C1424.53 1982.13 1451 1950.52 1470.85 1931.47C1472.93 1929.48 1475.35 1928.63 1477.68 1928.63C1480.91 1928.63 1484 1930.27 1485.88 1932.84C1477.21 1948.03 1469.96 1963.52 1463.23 1979.33C1456.28 1995.25 1450.2 2011.49 1444.56 2027.87C1433.32 2060.64 1424.11 2094.07 1416.76 2127.91C1410.43 2157.16 1405.53 2186.71 1401.28 2216.35" fill="#433B78"/>
<path d="M984.012 1552.21C970.372 1552.21 956.719 1554.09 943.346 1557.96C909.999 1567.61 881.999 1587.23 860.119 1616.25C830.119 1656.09 828.439 1727.29 855.719 1802.11C877.839 1862.73 928.933 1953.99 1046.73 2044.33C1157.37 2129.21 1301.25 2193.69 1474.69 2236.16L1563.88 1856.75C1483.12 1835.85 1228.75 1760.53 1109.93 1614.35C1077.55 1574.48 1030.97 1552.21 984.012 1552.21V1552.21ZM1493.41 2291.55C1491.56 2291.55 1489.67 2291.33 1487.77 2290.91C988.146 2176.27 846.306 1922.92 808.506 1819.33C774.946 1727.32 779.239 1640.11 819.999 1586.01C848.559 1548.11 885.359 1522.43 929.373 1509.69C1008.19 1486.88 1094.37 1515.52 1148.93 1582.65C1277.15 1740.4 1596.29 1813.01 1599.49 1813.72C1606.05 1815.19 1611.76 1819.2 1615.32 1824.89C1618.89 1830.59 1620.04 1837.47 1618.49 1844L1517.85 2272.16C1515.13 2283.73 1504.83 2291.55 1493.41 2291.55" fill="#000072"/>
<path d="M2796.54 2741.07C2756.26 2885.51 2643.41 2999.21 2498.98 3039.48C2409.17 3064.47 2287.13 3083.49 2123.82 3083.49C1960.5 3083.49 1838.46 3064.47 1748.66 3039.48C1604.22 2999.21 1491.38 2885.51 1451.1 2741.07C1402.93 2568.56 1405.02 2392.19 1422.53 2248.53C1444.86 2064.76 1492.53 1934.61 1492.53 1934.61V1773.45H2748.86L2755.12 1934.61C2755.12 1934.61 2802.78 2064.76 2825.1 2248.53C2842.62 2392.19 2844.7 2568.56 2796.54 2741.07" fill="white"/>
<path d="M2825.11 2248.53C2673.28 2279.76 2528.49 2299.15 2393.67 2309.99C1962.31 2344.95 1632.16 2293.04 1493.75 2264.76C1459.29 2257.72 1436.68 2252.2 1427.35 2249.83C1424.19 2248.97 1422.53 2248.53 1422.53 2248.53C1437.19 2127.93 1462.73 2030.45 1478.6 1977.61C1485.71 1953.77 1489.59 1929.16 1490.01 1904.39C1490.23 1897.51 1490.09 1890.61 1489.73 1883.72L1485.43 1807.27L1483.56 1773.45H2748.87L2749.01 1777.33L2754.04 1906.4L2755.12 1934.61C2755.12 1934.61 2802.79 2064.76 2825.11 2248.53" fill="#60547B"/>
<path d="M2124.52 3054.97C2124.29 3054.97 2124.05 3054.97 2123.82 3054.97C2056.52 3054.92 1989.3 3051.79 1922.88 3043.93C1889.68 3039.99 1856.65 3034.97 1824.06 3028.33C1791.74 3021.69 1758.56 3013.81 1729.02 3003.49C1713.7 2998.07 1698.74 2991.65 1684.24 2984.35C1696.6 2964.24 1705.56 2941.89 1710.42 2918.13C1710.88 2915.93 1711.32 2913.72 1711.74 2911.48C1713.37 2903.09 1714.86 2894.39 1716.18 2885.44C1726.81 2889.35 1737.64 2892.84 1748.66 2895.91C1838.46 2920.89 1960.5 2939.92 2123.82 2939.92C2287.13 2939.92 2409.17 2920.89 2498.98 2895.91C2501.76 2895.13 2504.52 2894.33 2507.28 2893.51C2508.86 2903.81 2510.68 2913.73 2512.61 2923.17C2517.93 2949.16 2527.62 2973.67 2541 2995.81C2533.73 2998.89 2526.37 3001.73 2518.92 3004.35C2489.28 3014.63 2456.08 3022.43 2423.7 3028.99C2391.09 3035.56 2358.04 3040.49 2324.82 3044.37C2258.57 3052.05 2191.58 3054.97 2124.52 3054.97" fill="#B2B2D4"/>
<path d="M2761.88 1932.15C2778.64 1963.04 2791.09 1995.29 2802.03 2028.15C2813.07 2060.95 2821.72 2094.47 2828.79 2128.31C2842.37 2196.11 2851.88 2264.77 2856.77 2333.91C2866.56 2472 2858.01 2612.85 2821.31 2748.29C2802.01 2818.01 2766.08 2883.2 2716.84 2936.41C2667.75 2989.65 2605.81 3031.36 2537.36 3055.87C2502.53 3068.09 2469.13 3075.93 2434.71 3083.21C2400.45 3090.31 2365.97 3095.67 2331.44 3099.91C2262.35 3108.29 2193 3111.81 2123.83 3112.04C2054.65 3111.88 1985.29 3108.6 1916.16 3100.33C1881.6 3096.17 1847.09 3090.89 1812.8 3083.87C1778.35 3076.67 1744.91 3068.91 1709.97 3056.72C1641.35 3032.31 1579.16 2990.65 1529.8 2937.35C1480.39 2884.01 1444.21 2818.69 1424.77 2748.73C1387.81 2613.12 1379.07 2472.07 1388.69 2333.77C1391 2299.13 1394.71 2264.65 1399.33 2230.31C1404.03 2195.99 1409.44 2161.75 1416.76 2127.91C1424.11 2094.07 1433.32 2060.64 1444.56 2027.87C1450.2 2011.49 1456.28 1995.25 1463.23 1979.33C1470.04 1963.33 1477.39 1947.65 1486.19 1932.31C1488.07 1929.01 1492.27 1927.88 1495.56 1929.76C1498.09 1931.21 1499.35 1934.05 1498.93 1936.77L1498.91 1936.96C1488.2 2004.52 1476.16 2070.89 1464.96 2137.24C1453.4 2203.49 1444.03 2270.16 1440.16 2337.16C1431.88 2470.93 1441.61 2606.12 1477.56 2733.97C1495.13 2795.45 1527.57 2852.43 1571.05 2899.08C1614.43 2945.79 1668.95 2982.23 1729.03 3003.49C1758.56 3013.81 1791.75 3021.69 1824.07 3028.33C1856.65 3034.97 1889.68 3039.99 1922.88 3043.93C1989.31 3051.79 2056.52 3054.92 2123.83 3054.97C2191.12 3055 2258.36 3052.08 2324.83 3044.37C2358.04 3040.49 2391.09 3035.56 2423.71 3028.99C2456.08 3022.43 2489.28 3014.63 2518.92 3004.35C2579.2 2983.19 2633.97 2946.77 2677.61 2900.01C2721.27 2853.23 2753.93 2796.13 2771.65 2734.41C2807.84 2606.39 2817.77 2471 2809.68 2337.01C2805.73 2269.93 2796.92 2203.07 2784.8 2136.83L2766.57 2037.29C2760.43 2004.08 2754.05 1970.65 2748.33 1937.11L2748.29 1936.85C2747.61 1932.88 2750.28 1929.12 2754.25 1928.44C2757.4 1927.91 2760.43 1929.49 2761.88 1932.15" fill="#000072"/>
<path d="M1418.33 2470.68C1418.33 2470.68 1563.92 2448.75 1671.65 2620.37C1733.31 2718.59 1727.47 2834.87 1710.43 2918.13C1696.92 2984.12 1651.79 3039.2 1589.88 3065.75L1422.71 3137.43C1320.37 3181.29 1200.13 3157.2 1125.99 3074.13C1084.73 3027.95 1046.47 2959.51 1039.64 2856.63C1017.47 2522.28 1418.33 2470.68 1418.33 2470.68" fill="#60547B"/>
<path d="M1427.72 2846.52C1432.93 2967.47 1364.8 3068.64 1275.56 3072.48C1186.31 3076.32 1109.73 2981.39 1104.53 2860.43C1099.32 2739.48 1167.45 2638.31 1256.69 2634.47C1345.95 2630.63 1422.52 2725.56 1427.72 2846.52" fill="white"/>
<path d="M1317.87 3158.97C1317.41 3158.97 1316.95 3158.97 1316.48 3158.97C1316.95 3158.97 1317.41 3158.97 1317.87 3158.97ZM1319.56 3158.97C1347.89 3158.79 1376.43 3154.07 1403.99 3144.63C1376.43 3154.07 1347.89 3158.79 1319.56 3158.97Z" fill="#218DB4"/>
<path d="M1127.16 3075.45C1127.15 3075.44 1127.13 3075.43 1127.12 3075.41C1127.13 3075.43 1127.15 3075.44 1127.16 3075.45ZM1126.59 3074.81C1126.39 3074.59 1126.19 3074.36 1125.99 3074.13C1125.91 3074.05 1125.83 3073.96 1125.75 3073.88C1125.83 3073.96 1125.91 3074.05 1125.99 3074.13C1126.19 3074.36 1126.39 3074.59 1126.59 3074.81ZM1125.68 3073.8C1125.63 3073.73 1125.57 3073.68 1125.52 3073.61C1125.57 3073.68 1125.63 3073.73 1125.68 3073.8ZM1125.41 3073.49C1125.37 3073.45 1125.33 3073.4 1125.28 3073.36C1125.32 3073.4 1125.37 3073.45 1125.41 3073.49ZM1125.16 3073.21C1125.12 3073.17 1125.09 3073.15 1125.05 3073.11C1125.09 3073.15 1125.12 3073.17 1125.16 3073.21ZM1124.91 3072.93C1124.88 3072.91 1124.87 3072.88 1124.83 3072.85C1124.85 3072.88 1124.88 3072.91 1124.91 3072.93ZM1124.68 3072.67C1124.65 3072.64 1124.63 3072.61 1124.61 3072.59C1124.63 3072.61 1124.65 3072.64 1124.68 3072.67ZM1124.43 3072.39C1124.41 3072.37 1124.4 3072.36 1124.39 3072.35C1124.4 3072.36 1124.43 3072.37 1124.43 3072.39ZM1124.19 3072.12C1124.19 3072.11 1124.19 3072.11 1124.19 3072.11C1124.19 3072.11 1124.19 3072.11 1124.19 3072.12Z" fill="#29B0C5"/>
<path d="M1721.92 2809.96C1721.93 2747.97 1709.57 2680.99 1671.89 2620.76C1709.57 2680.99 1721.93 2747.97 1721.92 2809.96ZM1671.87 2620.72C1671.85 2620.71 1671.84 2620.68 1671.83 2620.65C1671.84 2620.68 1671.85 2620.71 1671.87 2620.72ZM1671.65 2620.37C1671.56 2620.24 1671.49 2620.12 1671.4 2619.97C1671.49 2620.11 1671.57 2620.24 1671.65 2620.37ZM1671.28 2619.79C1671.24 2619.72 1671.19 2619.64 1671.16 2619.57C1671.2 2619.65 1671.24 2619.71 1671.28 2619.79ZM1670.93 2619.23C1670.92 2619.21 1670.92 2619.21 1670.91 2619.2C1670.92 2619.2 1670.92 2619.21 1670.93 2619.23ZM1670.69 2618.85C1670.68 2618.83 1670.68 2618.83 1670.67 2618.8C1670.67 2618.81 1670.68 2618.84 1670.69 2618.85ZM1670.47 2618.48C1670.44 2618.45 1670.43 2618.44 1670.41 2618.4C1670.43 2618.44 1670.44 2618.45 1670.47 2618.48ZM1670.17 2618.04V2618.03V2618.04ZM1669.93 2617.65C1669.92 2617.64 1669.92 2617.64 1669.92 2617.63C1669.92 2617.64 1669.92 2617.64 1669.93 2617.65Z" fill="#B2B2D4"/>
<path d="M1317.87 3158.97C1317.41 3158.97 1316.95 3158.97 1316.48 3158.97C1245.71 3158.6 1176.45 3129.89 1127.16 3075.45C1127.15 3075.44 1127.13 3075.43 1127.12 3075.41C1126.95 3075.21 1126.76 3075.01 1126.59 3074.81C1126.39 3074.59 1126.19 3074.36 1125.99 3074.13C1125.91 3074.05 1125.83 3073.96 1125.75 3073.88C1125.72 3073.85 1125.71 3073.83 1125.68 3073.8C1125.63 3073.73 1125.57 3073.68 1125.52 3073.61C1125.48 3073.57 1125.44 3073.53 1125.41 3073.49C1125.37 3073.45 1125.32 3073.4 1125.28 3073.36C1125.24 3073.31 1125.2 3073.27 1125.16 3073.21C1125.12 3073.17 1125.09 3073.15 1125.05 3073.11C1125.01 3073.05 1124.96 3072.99 1124.91 3072.93C1124.88 3072.91 1124.85 3072.88 1124.83 3072.85C1124.79 3072.79 1124.73 3072.73 1124.68 3072.67C1124.65 3072.64 1124.63 3072.61 1124.61 3072.59C1124.55 3072.52 1124.49 3072.45 1124.43 3072.39C1124.43 3072.37 1124.4 3072.36 1124.39 3072.35C1124.32 3072.27 1124.25 3072.2 1124.19 3072.12C1124.19 3072.11 1124.19 3072.11 1124.19 3072.11C1111.93 3058.16 1099.97 3042.21 1089.08 3023.96C1075.93 2992.23 1066.15 2955.16 1062.12 2911.6C1068.75 2920.97 1075.64 2929.56 1082.64 2937.4C1098.79 2955.48 1117.39 2970.43 1137.61 2982.09C1168.19 3037.09 1216.73 3072.6 1270.32 3072.6C1272.05 3072.6 1273.81 3072.56 1275.56 3072.48C1332.08 3070.05 1380.13 3028.59 1406.45 2967.76L1494.65 2929.95C1549.64 2906.37 1589.72 2857.45 1601.72 2798.85C1616.25 2727.83 1621.61 2629.77 1573.52 2544.85C1612.77 2566.71 1655.32 2603.12 1693.19 2663.44C1694.13 2664.95 1694.92 2666.49 1695.83 2668C1689.31 2651.96 1681.51 2636.12 1671.89 2620.76C1709.57 2680.99 1721.93 2747.97 1721.92 2809.96C1721.91 2846.31 1717.65 2880.95 1711.75 2911.48C1711.32 2913.72 1710.88 2915.93 1710.43 2918.13C1696.92 2984.12 1651.79 3039.2 1589.88 3065.75L1422.71 3137.43C1416.52 3140.07 1410.28 3142.48 1403.99 3144.63C1376.43 3154.07 1347.89 3158.79 1319.56 3158.97C1319 3158.97 1318.43 3158.97 1317.87 3158.97V3158.97ZM1671.87 2620.72C1671.8 2620.6 1671.72 2620.48 1671.65 2620.37C1671.56 2620.24 1671.49 2620.11 1671.4 2619.97C1671.49 2620.12 1671.56 2620.24 1671.65 2620.37C1671.71 2620.47 1671.77 2620.56 1671.83 2620.65C1671.84 2620.68 1671.85 2620.71 1671.87 2620.72ZM1671.37 2619.92C1671.29 2619.81 1671.23 2619.69 1671.15 2619.57H1671.16C1671.19 2619.64 1671.24 2619.72 1671.28 2619.79C1671.31 2619.83 1671.33 2619.88 1671.37 2619.92ZM1671.07 2619.45C1671.01 2619.36 1670.96 2619.28 1670.91 2619.19C1670.91 2619.19 1670.91 2619.19 1670.91 2619.2C1670.92 2619.21 1670.92 2619.21 1670.93 2619.23C1670.97 2619.31 1671.03 2619.37 1671.07 2619.45V2619.45ZM1670.77 2618.99C1670.73 2618.92 1670.69 2618.85 1670.65 2618.79C1670.65 2618.8 1670.65 2618.8 1670.67 2618.8C1670.68 2618.83 1670.68 2618.83 1670.69 2618.85C1670.72 2618.89 1670.75 2618.95 1670.77 2618.99V2618.99ZM1670.52 2618.57C1670.48 2618.52 1670.44 2618.47 1670.4 2618.4H1670.41C1670.43 2618.44 1670.44 2618.45 1670.47 2618.48C1670.48 2618.52 1670.51 2618.55 1670.52 2618.57V2618.57ZM1670.25 2618.16C1670.21 2618.11 1670.19 2618.07 1670.16 2618.01C1670.16 2618.01 1670.16 2618.01 1670.17 2618.03V2618.04C1670.2 2618.08 1670.23 2618.12 1670.25 2618.16V2618.16ZM1669.97 2617.72C1669.95 2617.68 1669.93 2617.65 1669.92 2617.63C1669.92 2617.64 1669.92 2617.64 1669.93 2617.65C1669.95 2617.67 1669.96 2617.69 1669.97 2617.72V2617.72ZM1669.72 2617.32C1669.71 2617.29 1669.68 2617.25 1669.67 2617.24C1669.68 2617.27 1669.69 2617.29 1669.72 2617.32ZM1669.45 2616.91C1669.44 2616.89 1669.43 2616.87 1669.41 2616.85C1669.43 2616.87 1669.44 2616.89 1669.45 2616.91ZM1669.19 2616.49C1669.19 2616.48 1669.17 2616.48 1669.17 2616.47C1669.17 2616.48 1669.19 2616.49 1669.19 2616.49ZM1668.96 2616.12C1668.95 2616.11 1668.93 2616.09 1668.92 2616.08C1668.93 2616.09 1668.95 2616.11 1668.96 2616.12ZM1668.69 2615.72L1668.68 2615.69C1668.68 2615.71 1668.69 2615.71 1668.69 2615.72ZM1668.44 2615.33C1668.44 2615.32 1668.43 2615.32 1668.43 2615.31C1668.44 2615.32 1668.44 2615.32 1668.44 2615.33Z" fill="#433B78"/>
<path d="M1270.32 3072.6C1216.73 3072.6 1168.19 3037.09 1137.61 2982.09C1172.68 3002.33 1212.61 3012.75 1253.07 3012.75C1284.47 3012.75 1316.2 3006.47 1346.17 2993.61L1406.45 2967.76C1380.13 3028.59 1332.08 3070.05 1275.56 3072.48C1273.81 3072.56 1272.05 3072.6 1270.32 3072.6Z" fill="#B2B2D4"/>
<path d="M1040.4 2866.51C1040.4 2866.48 1040.4 2866.47 1040.4 2866.44C1040.4 2866.47 1040.4 2866.48 1040.4 2866.51ZM1040.3 2865.33C1040.29 2865.28 1040.29 2865.24 1040.29 2865.2C1040.29 2865.25 1040.29 2865.28 1040.3 2865.33ZM1040.2 2864.12C1040.2 2864.07 1040.18 2864.04 1040.18 2863.99C1040.18 2864.03 1040.2 2864.08 1040.2 2864.12ZM1040.16 2863.65C1040.16 2863.61 1040.16 2863.56 1040.14 2863.51C1040.16 2863.56 1040.16 2863.61 1040.16 2863.65ZM1040.1 2862.95C1040.09 2862.88 1040.09 2862.83 1040.09 2862.76C1040.09 2862.83 1040.09 2862.88 1040.1 2862.95ZM1040.06 2862.47C1040.06 2862.39 1040.05 2862.32 1040.05 2862.24C1040.05 2862.31 1040.06 2862.39 1040.06 2862.47ZM1040.01 2861.84C1040.01 2861.73 1040 2861.64 1039.98 2861.53C1040 2861.63 1040.01 2861.73 1040.01 2861.84ZM1039.97 2861.29C1039.97 2861.19 1039.96 2861.08 1039.94 2860.99C1039.96 2861.09 1039.97 2861.19 1039.97 2861.29ZM1039.93 2860.77C1039.92 2860.61 1039.9 2860.45 1039.9 2860.31C1039.9 2860.47 1039.92 2860.61 1039.93 2860.77ZM1039.88 2860.08C1039.88 2859.99 1039.86 2859.88 1039.86 2859.79C1039.86 2859.88 1039.88 2859.99 1039.88 2860.08ZM1039.84 2859.56C1039.84 2859.4 1039.82 2859.24 1039.81 2859.08C1039.82 2859.24 1039.84 2859.41 1039.84 2859.56ZM1039.8 2858.92C1039.78 2858.79 1039.78 2858.68 1039.77 2858.55C1039.78 2858.68 1039.78 2858.79 1039.8 2858.92ZM1039.76 2858.35C1039.74 2858.19 1039.73 2858.03 1039.72 2857.85C1039.73 2858.03 1039.74 2858.19 1039.76 2858.35ZM1039.72 2857.75C1039.7 2857.6 1039.69 2857.47 1039.69 2857.32C1039.69 2857.47 1039.7 2857.6 1039.72 2857.75ZM1039.68 2857.16C1039.66 2856.97 1039.65 2856.8 1039.64 2856.63C1039.4 2853.04 1039.21 2849.48 1039.08 2845.95C1039.21 2849.48 1039.4 2853.04 1039.64 2856.63C1039.65 2856.8 1039.66 2856.99 1039.68 2857.16Z" fill="#B1FEF6"/>
<path d="M1671.89 2620.76C1671.88 2620.75 1671.88 2620.73 1671.87 2620.72C1671.88 2620.73 1671.88 2620.75 1671.89 2620.76Z" fill="white"/>
<path d="M1420.16 2470.47C1421.71 2470.29 1424.17 2470.08 1427.48 2469.93C1424.17 2470.08 1421.69 2470.29 1420.16 2470.47Z" fill="#9999C7"/>
<path d="M1089.11 3024.04C1065.25 2984.11 1046.41 2933.13 1040.51 2867.69C1040.47 2867.29 1040.44 2866.91 1040.4 2866.51C1040.4 2866.48 1040.4 2866.47 1040.4 2866.44C1040.36 2866.08 1040.33 2865.69 1040.31 2865.33C1040.29 2865.28 1040.29 2865.25 1040.29 2865.2C1040.25 2864.84 1040.23 2864.48 1040.2 2864.12C1040.2 2864.08 1040.19 2864.03 1040.19 2863.99C1040.19 2863.88 1040.17 2863.76 1040.16 2863.65C1040.16 2863.61 1040.16 2863.56 1040.15 2863.51C1040.13 2863.32 1040.12 2863.13 1040.11 2862.95C1040.09 2862.88 1040.09 2862.83 1040.09 2862.76C1040.08 2862.65 1040.08 2862.56 1040.07 2862.47C1040.07 2862.39 1040.05 2862.31 1040.05 2862.24C1040.04 2862.11 1040.03 2861.97 1040.01 2861.84C1040.01 2861.73 1040 2861.63 1039.99 2861.53C1039.99 2861.45 1039.99 2861.37 1039.97 2861.29C1039.97 2861.19 1039.96 2861.09 1039.95 2860.99C1039.95 2860.91 1039.95 2860.84 1039.93 2860.77C1039.92 2860.61 1039.91 2860.47 1039.91 2860.31C1039.89 2860.23 1039.89 2860.16 1039.88 2860.08C1039.88 2859.99 1039.87 2859.88 1039.87 2859.79C1039.85 2859.71 1039.85 2859.64 1039.84 2859.56C1039.84 2859.41 1039.83 2859.24 1039.81 2859.08C1039.81 2859.03 1039.8 2858.97 1039.8 2858.92C1039.79 2858.79 1039.79 2858.68 1039.77 2858.55C1039.77 2858.48 1039.76 2858.41 1039.76 2858.35C1039.75 2858.19 1039.73 2858.03 1039.72 2857.85C1039.72 2857.81 1039.72 2857.79 1039.72 2857.75C1039.71 2857.6 1039.69 2857.47 1039.69 2857.32C1039.68 2857.27 1039.68 2857.21 1039.68 2857.16C1039.67 2856.99 1039.65 2856.8 1039.64 2856.63C1039.4 2853.04 1039.21 2849.48 1039.08 2845.95C1026.04 2521.19 1418.33 2470.68 1418.33 2470.68C1418.33 2470.68 1418.96 2470.59 1420.16 2470.47C1421.69 2470.29 1424.17 2470.08 1427.48 2469.93C1429.61 2469.84 1432.09 2469.77 1434.89 2469.77C1475.53 2469.77 1583.12 2483.35 1668.43 2615.31C1627.07 2551.33 1580.49 2515.27 1538.84 2495C1548.53 2506.65 1558.07 2519.71 1567.28 2534.39C1569.45 2537.85 1571.53 2541.35 1573.52 2544.85C1523.83 2517.19 1479.41 2512.85 1456.43 2512.85C1445.91 2512.85 1439.87 2513.76 1439.87 2513.76C1439.87 2513.76 1039 2565.36 1061.17 2899.71C1061.44 2903.72 1061.76 2907.68 1062.12 2911.6C1054.88 2901.35 1047.96 2890.13 1041.59 2877.88C1048.45 2938.4 1066.51 2986.13 1089.08 3023.96C1089.09 3023.99 1089.11 3024.01 1089.11 3024.04V3024.04ZM1671.4 2619.97C1671.39 2619.96 1671.39 2619.93 1671.37 2619.92C1671.37 2619.93 1671.4 2619.96 1671.4 2619.97ZM1671.15 2619.57C1671.12 2619.53 1671.09 2619.49 1671.07 2619.45C1671.09 2619.49 1671.12 2619.53 1671.15 2619.57ZM1670.91 2619.19C1670.87 2619.12 1670.81 2619.05 1670.77 2618.99C1670.81 2619.05 1670.87 2619.12 1670.91 2619.19ZM1670.65 2618.79C1670.61 2618.72 1670.56 2618.65 1670.52 2618.57C1670.56 2618.65 1670.61 2618.72 1670.65 2618.79ZM1670.4 2618.4C1670.36 2618.32 1670.31 2618.24 1670.25 2618.16C1670.31 2618.24 1670.36 2618.32 1670.4 2618.4ZM1670.16 2618.01C1670.09 2617.92 1670.04 2617.81 1669.97 2617.72C1670.03 2617.81 1670.11 2617.92 1670.16 2618.01ZM1669.92 2617.63C1669.85 2617.52 1669.79 2617.41 1669.72 2617.32C1669.79 2617.43 1669.85 2617.52 1669.92 2617.63ZM1669.67 2617.24C1669.6 2617.12 1669.52 2617.01 1669.45 2616.91C1669.53 2617.03 1669.59 2617.12 1669.67 2617.24ZM1669.41 2616.85C1669.35 2616.73 1669.27 2616.61 1669.19 2616.49C1669.27 2616.61 1669.35 2616.73 1669.41 2616.85ZM1669.17 2616.47C1669.09 2616.35 1669.03 2616.24 1668.96 2616.12C1669.03 2616.24 1669.11 2616.36 1669.17 2616.47ZM1668.92 2616.08C1668.84 2615.96 1668.77 2615.84 1668.69 2615.72C1668.77 2615.84 1668.84 2615.95 1668.92 2616.08ZM1668.68 2615.69C1668.6 2615.57 1668.52 2615.45 1668.44 2615.33C1668.52 2615.45 1668.6 2615.57 1668.68 2615.69Z" fill="#BFBBCA"/>
<path d="M1671.89 2620.76C1671.88 2620.75 1671.88 2620.73 1671.87 2620.72C1671.88 2620.73 1671.88 2620.75 1671.89 2620.76Z" fill="#E0E0EE"/>
<path d="M1089.08 3023.96C1066.51 2986.13 1048.45 2938.4 1041.59 2877.88C1047.96 2890.13 1054.88 2901.35 1062.12 2911.6C1066.15 2955.16 1075.93 2992.23 1089.08 3023.96ZM1695.83 2668C1694.92 2666.49 1694.13 2664.95 1693.19 2663.44C1655.32 2603.12 1612.77 2566.71 1573.52 2544.85C1571.53 2541.35 1569.45 2537.85 1567.28 2534.39C1558.07 2519.71 1548.53 2506.65 1538.84 2495C1580.49 2515.27 1627.07 2551.33 1668.43 2615.31C1668.43 2615.32 1668.44 2615.32 1668.44 2615.33C1668.52 2615.45 1668.6 2615.57 1668.68 2615.69L1668.69 2615.72C1668.77 2615.84 1668.84 2615.96 1668.92 2616.08C1668.93 2616.09 1668.95 2616.11 1668.96 2616.12C1669.03 2616.24 1669.09 2616.35 1669.17 2616.47C1669.17 2616.48 1669.19 2616.48 1669.19 2616.49C1669.27 2616.61 1669.35 2616.73 1669.41 2616.85C1669.43 2616.87 1669.44 2616.89 1669.45 2616.91C1669.52 2617.01 1669.6 2617.12 1669.67 2617.24C1669.68 2617.25 1669.71 2617.29 1669.72 2617.32C1669.79 2617.41 1669.85 2617.52 1669.92 2617.63C1669.93 2617.65 1669.95 2617.68 1669.97 2617.72C1670.04 2617.81 1670.09 2617.92 1670.16 2618.01C1670.19 2618.07 1670.21 2618.11 1670.25 2618.16C1670.31 2618.24 1670.36 2618.32 1670.4 2618.4C1670.44 2618.47 1670.48 2618.52 1670.52 2618.57C1670.56 2618.65 1670.61 2618.72 1670.65 2618.79C1670.69 2618.85 1670.73 2618.92 1670.77 2618.99C1670.81 2619.05 1670.87 2619.12 1670.91 2619.19C1670.96 2619.28 1671.01 2619.36 1671.07 2619.45C1671.09 2619.49 1671.12 2619.53 1671.15 2619.57C1671.23 2619.69 1671.29 2619.81 1671.37 2619.92C1671.39 2619.93 1671.39 2619.96 1671.4 2619.97C1671.49 2620.11 1671.56 2620.24 1671.65 2620.37C1671.72 2620.48 1671.8 2620.6 1671.87 2620.72C1671.88 2620.73 1671.88 2620.75 1671.89 2620.76C1681.51 2636.12 1689.31 2651.96 1695.83 2668" fill="#B4B1C9"/>
<path d="M1418.33 2470.68H1418.4H1418.33ZM1421.56 2495.6C1420.6 2495.73 1323.85 2508.83 1231.77 2560.87C1112.45 2628.31 1056.24 2727.25 1064.72 2854.96C1070.08 2935.84 1097 3003.95 1144.72 3057.41C1211.11 3131.75 1318.85 3154.63 1412.8 3114.33L1579.97 3042.65C1634.41 3019.31 1673.99 2970.88 1685.81 2913.09C1701.51 2836.41 1708.11 2725.69 1650.37 2633.73C1553.43 2479.28 1427.21 2494.81 1421.93 2495.56L1421.56 2495.6ZM1317.56 3184.27C1238.41 3184.27 1161.53 3151.69 1107.24 3090.88C1051.87 3028.87 1020.69 2950.6 1014.57 2858.29C1004.83 2711.24 1071.84 2593 1208.37 2516.37C1307.63 2460.67 1408.23 2446.68 1414.92 2445.8C1425.16 2444.33 1579.25 2425.89 1692.93 2607.01C1759.52 2713.07 1752.59 2837.48 1735.04 2923.17C1719.91 2997.08 1669.35 3059.01 1599.79 3088.84L1432.61 3160.52C1395.29 3176.51 1356.15 3184.27 1317.56 3184.27" fill="#000072"/>
<path d="M2829.31 2470.68C2829.31 2470.68 2683.73 2448.75 2576 2620.37C2514.35 2718.59 2520.17 2834.87 2537.23 2918.13C2550.73 2984.12 2595.87 3039.2 2657.77 3065.75L2824.95 3137.43C2927.28 3181.29 3047.52 3157.2 3121.67 3074.13C3162.92 3027.95 3201.19 2959.51 3208 2856.63C3230.19 2522.28 2829.31 2470.68 2829.31 2470.68Z" fill="#60547B"/>
<path d="M2819.92 2846.52C2814.72 2967.47 2882.84 3068.64 2972.09 3072.48C3061.35 3076.32 3137.91 2981.39 3143.12 2860.43C3148.32 2739.48 3080.2 2638.31 2990.95 2634.47C2901.71 2630.63 2825.13 2725.56 2819.92 2846.52" fill="white"/>
<path d="M2930.09 3134C2898.16 3134 2865.76 3127.59 2834.85 3114.33L2667.67 3042.65C2613.23 3019.31 2573.67 2970.88 2561.84 2913.09C2554.83 2878.84 2549.63 2837.79 2551.17 2794.65C2573.6 2792.64 2595.49 2787.6 2616.16 2780.32C2624.6 2777.36 2632.85 2774.05 2640.92 2770.45C2642.37 2780.31 2644.08 2789.79 2645.93 2798.85C2657.93 2857.45 2698.01 2906.37 2753 2929.95L2841.2 2967.76C2867.52 3028.59 2915.57 3070.05 2972.09 3072.48C2973.84 3072.56 2975.59 3072.6 2977.32 3072.6C3030.92 3072.6 3079.45 3037.09 3110.03 2982.09C3130.25 2970.43 3148.85 2955.48 3165 2937.4C3166.85 2935.32 3168.71 2933.19 3170.55 2931C3157.47 2979.32 3134.85 3021.64 3102.92 3057.4C3058.39 3107.29 2995.23 3134 2930.09 3134" fill="#433B78"/>
<path d="M2977.32 3072.6C2975.59 3072.6 2973.84 3072.56 2972.09 3072.48C2915.57 3070.05 2867.52 3028.59 2841.2 2967.76L2901.47 2993.61C2931.45 3006.47 2963.17 3012.75 2994.59 3012.75C3035.04 3012.75 3074.96 3002.33 3110.03 2982.09C3079.45 3037.09 3030.92 3072.6 2977.32 3072.6" fill="#B2B2D4"/>
<path d="M3183.67 2821.8C3157.11 2642.09 2993.33 2564.4 2890.92 2533.05C2895.07 2526.56 2899.13 2520.01 2903.12 2513.41C2935.93 2523.33 2975.6 2538.25 3014.68 2560.19C3124.25 2621.69 3180.97 2709.59 3183.67 2821.8" fill="#BFBBCA"/>
<path d="M2811.69 2494.8C2775.41 2494.8 2676.57 2507.4 2597.28 2633.73C2539.55 2725.69 2546.15 2836.41 2561.84 2913.09C2573.67 2970.88 2613.23 3019.31 2667.67 3042.65L2834.85 3114.33C2928.83 3154.63 3036.55 3131.75 3102.92 3057.4C3150.65 3003.95 3177.57 2935.84 3182.93 2854.96C3191.44 2726.8 3134.83 2627.63 3014.68 2560.19C2922.55 2508.48 2827.07 2495.73 2826.11 2495.6C2825.97 2495.59 2825.83 2495.57 2825.69 2495.55C2824.68 2495.41 2819.72 2494.8 2811.69 2494.8V2494.8ZM2930.09 3184.27C2891.49 3184.27 2852.36 3176.52 2815.04 3160.52L2647.87 3088.84C2578.31 3059.01 2527.73 2997.08 2512.61 2923.17C2495.07 2837.48 2488.13 2713.07 2554.72 2607.01C2668.41 2425.88 2822.52 2444.33 2832.73 2445.8C2839.44 2446.68 2940.03 2460.67 3039.28 2516.37C3175.81 2593 3242.83 2711.24 3233.08 2858.29C3226.95 2950.6 3195.77 3028.87 3140.41 3090.87C3086.12 3151.68 3009.24 3184.27 2930.09 3184.27" fill="#000072"/>
<path d="M2910.11 2438.71C2815.41 2630.59 2600.49 2860.01 2406.01 2727C2269.19 2633.32 2321.52 2443.44 2393.67 2309.99C2424.11 2253.77 2457.99 2207.61 2482.76 2182.85C2566.39 2099.23 2574.87 1970.44 2574.87 1970.44L2570.69 1952.13L2544.21 1836.55L2749.01 1777.33L2833.29 1752.99C2868.91 1780.56 2897.76 1809.99 2921.01 1840.85C3068.04 2036.27 2985.41 2285.93 2910.11 2438.71" fill="#60547B"/>
<path d="M2355.52 2574.36C2353.29 2572.39 2351.16 2570.39 2349.09 2568.35C2347.29 2538.77 2350.88 2507.85 2357.4 2477.56C2366.8 2434.13 2383 2391.47 2402.4 2350.4C2422.15 2309.49 2445.4 2269.72 2472.32 2233.72C2478.99 2224.65 2486.08 2216.17 2493.21 2207.97C2499.77 2201.01 2509.53 2190.49 2517.71 2180.92C2534.01 2160.97 2547.49 2139.13 2557.81 2116.16C2568.04 2093.32 2575.07 2069.4 2579.01 2045.16C2583.49 2087.67 2577.81 2155.71 2515 2214.33C2515 2214.33 2380.76 2394.27 2355.52 2574.36" fill="#BFBBCA"/>
<path d="M2527.79 2737.31C2510.31 2737.31 2492.97 2734.69 2476.25 2729.51C2456.89 2723.55 2438.25 2714.11 2420.95 2702.4C2387.08 2679.2 2363.8 2645.33 2354.49 2605.24C2353.89 2602.8 2353.36 2600.33 2352.85 2597.87C2353.52 2590.04 2354.41 2582.2 2355.52 2574.36C2361.07 2579.29 2367.08 2584 2373.6 2588.47C2408.76 2612.52 2444.67 2623 2480.27 2622.99C2616.44 2622.97 2747.87 2469.68 2813.35 2336.97C2872.28 2217.51 2936.25 2030.13 2856.47 1869.79C2869.96 1864.27 2883.28 1858.52 2896.43 1852.51C2900.72 1858.13 2904.87 1863.87 2908.87 1869.69C2920.83 1888.15 2932.07 1907.05 2940.79 1927.21C2949.41 1947.33 2957.11 1967.95 2962.03 1989.41C2972.61 2032.09 2975.72 2076.75 2973.07 2121.33C2970.51 2165.97 2961.92 2210.49 2950.05 2254.28C2937.92 2298.03 2922.15 2341.03 2903.47 2382.89C2894.16 2403.79 2884.15 2424.71 2873.61 2444.61C2863.01 2464.67 2851.28 2484.16 2839.05 2503.32C2814.57 2541.61 2786.75 2577.8 2756.11 2610.87C2725.32 2643.71 2691.53 2673.65 2654.33 2696.47C2617.33 2719.24 2576.79 2735.39 2536.08 2737.11C2533.31 2737.24 2530.55 2737.31 2527.79 2737.31" fill="#433B78"/>
<path d="M2352.85 2597.87C2350.92 2588.23 2349.69 2578.36 2349.09 2568.35C2351.16 2570.39 2353.29 2572.39 2355.52 2574.36C2354.41 2582.2 2353.52 2590.04 2352.85 2597.87Z" fill="#8583AF"/>
<path d="M2580.07 1970.8C2584.07 1995.57 2582.89 2020.21 2579.11 2044.67C2575.17 2069.07 2568.11 2093.16 2557.81 2116.16C2547.49 2139.13 2534.01 2160.97 2517.71 2180.92C2509.53 2190.49 2499.77 2201.01 2493.21 2207.97C2486.08 2216.17 2478.99 2224.65 2472.32 2233.72C2445.4 2269.72 2422.15 2309.49 2402.4 2350.4C2383 2391.47 2366.8 2434.13 2357.4 2477.56C2348.09 2520.76 2344.79 2565.23 2354.49 2605.24C2363.8 2645.33 2387.08 2679.2 2420.95 2702.4C2438.25 2714.11 2456.89 2723.55 2476.25 2729.51C2495.61 2735.51 2515.79 2738.05 2536.08 2737.11C2576.79 2735.39 2617.33 2719.24 2654.33 2696.47C2691.53 2673.65 2725.32 2643.71 2756.11 2610.87C2786.75 2577.8 2814.57 2541.61 2839.05 2503.32C2851.28 2484.16 2863.01 2464.67 2873.61 2444.61C2884.15 2424.71 2894.16 2403.79 2903.47 2382.89C2922.15 2341.03 2937.92 2298.03 2950.05 2254.28C2961.92 2210.49 2970.51 2165.97 2973.07 2121.33C2975.72 2076.75 2972.61 2032.09 2962.03 1989.41C2957.11 1967.95 2949.41 1947.33 2940.79 1927.21C2932.07 1907.05 2920.83 1888.15 2908.87 1869.69C2883.96 1833.37 2853.04 1800.85 2817.93 1772.83L2817.8 1772.72C2806.96 1764.05 2805.19 1748.24 2813.85 1737.4C2822.39 1726.72 2837.88 1724.87 2848.71 1733.09C2887.92 1762.96 2923.64 1798.45 2952.87 1839.33C2966.84 1860.19 2979.96 1881.76 2990.29 1904.77C3000.55 1927.73 3009.6 1951.39 3015.59 1975.81C3028.32 2024.49 3032.36 2074.88 3030.05 2124.32C3027.71 2173.83 3019.28 2222.52 3006.6 2269.68C2993.76 2316.8 2977.13 2362.56 2957.61 2406.83C2947.85 2429.01 2937.61 2450.65 2926.21 2472.47C2914.83 2494.09 2902.48 2515.13 2889.27 2535.63C2862.91 2576.65 2833.01 2615.45 2799.55 2651.44C2765.88 2687.19 2728.56 2720.4 2685.32 2746.88C2663.75 2760.09 2640.76 2771.71 2616.16 2780.32C2591.64 2788.96 2565.39 2794.45 2538.59 2795.47C2511.8 2796.53 2484.57 2792.88 2459.03 2784.72C2433.43 2776.6 2409.73 2764.27 2388.2 2749.37C2366.35 2734.15 2346.79 2714.57 2331.56 2692C2316.29 2669.43 2305.77 2643.89 2299.84 2618.01C2293.91 2592.08 2292.01 2565.81 2293.43 2540.31C2294.73 2514.75 2298.71 2489.81 2304.32 2465.53C2309.89 2441.23 2317.4 2417.65 2326.05 2394.69C2334.72 2371.72 2344.47 2349.28 2355.31 2327.45C2377.17 2283.85 2402.27 2242.23 2432.33 2203.15C2439.79 2193.35 2447.91 2183.83 2456.41 2174.4C2466.13 2164.35 2472.44 2157.61 2479.75 2149.45C2493.6 2133.13 2504.91 2114.53 2515.51 2095.35C2536.61 2056.79 2553.05 2014.47 2569.71 1970.11L2569.84 1969.77C2570.87 1967.03 2573.93 1965.63 2576.68 1966.67C2578.53 1967.36 2579.77 1968.97 2580.07 1970.8" fill="#000072"/>
<path d="M1490.01 1904.39C1295.36 1842.59 1114.08 1738.88 1044.64 1564.77C1048.23 1566.29 1051.77 1567.96 1055.27 1569.75C1057.29 1573.04 1059.37 1576.32 1061.51 1579.57C1141.27 1701.79 1284.43 1795.28 1488.32 1858.64L1489.73 1883.72C1490.09 1890.61 1490.23 1897.51 1490.01 1904.39" fill="#433B78"/>
<path d="M1055.27 1569.75C1051.77 1567.96 1048.23 1566.29 1044.64 1564.77C1040.68 1554.85 1037.09 1544.71 1033.88 1534.33C1034.56 1534.52 1035.23 1534.72 1035.89 1534.93C1041.79 1546.76 1048.24 1558.36 1055.27 1569.75" fill="#000072"/>
<path d="M2116.85 1995.17C2068.5 1995.17 1821.09 1991.88 1572.93 1928.01C1545.14 1920.97 1517.44 1913.08 1490.01 1904.39C1490.22 1897.51 1490.09 1890.61 1489.73 1883.72L1488.32 1858.64C1549.93 1877.79 1617.08 1894.19 1689.71 1907.79C1895.11 1946.28 2079.17 1948.48 2118.14 1948.48C2122 1948.48 2124.44 1948.47 2125.33 1948.45C2126.22 1948.47 2128.61 1948.48 2132.4 1948.48C2171.09 1948.48 2355.13 1946.31 2560.54 1907.87L2570.69 1952.13C2362.09 1992.77 2175.04 1995.17 2133.77 1995.17C2128.24 1995.17 2125.33 1995.13 2125.33 1995.13C2125.33 1995.13 2122.4 1995.17 2116.85 1995.17Z" fill="#433B78"/>
<path d="M2570.69 1952.13L2560.54 1907.87C2560.69 1907.84 2560.81 1907.81 2560.94 1907.79C2663.48 1888.57 2755.12 1863.8 2835.62 1833.59C2843.45 1845.47 2850.38 1857.55 2856.46 1869.79C2823.08 1883.43 2788.76 1895.57 2754.04 1906.4C2693.17 1925.43 2631.06 1940.43 2570.69 1952.13Z" fill="#433B78"/>
<path d="M2856.47 1869.79C2850.39 1857.55 2843.45 1845.47 2835.62 1833.59C2847.09 1829.29 2858.29 1824.89 2869.29 1820.37C2878.88 1830.68 2887.93 1841.4 2896.42 1852.51C2883.28 1858.52 2869.96 1864.27 2856.47 1869.79Z" fill="#2F2976"/>
<path d="M2896.43 1852.51C2887.93 1841.4 2878.88 1830.68 2869.29 1820.37C2877.97 1816.8 2886.53 1813.17 2894.92 1809.47C2904.32 1819.75 2913 1830.21 2921.01 1840.85C2912.91 1844.84 2904.71 1848.73 2896.43 1852.51" fill="#000072"/>
<path d="M1687 381.427C1687 577.84 1527.77 737.067 1331.37 737.067C1241.92 737.067 1160.08 703.974 1097.56 649.414C1022.83 584.307 975.666 488.387 975.666 381.427C975.666 184.947 1134.89 25.7203 1331.37 25.7203C1418.31 25.7203 1497.92 56.8804 1559.72 108.707C1637.53 173.96 1687 271.96 1687 381.427" fill="#60547B"/>
<path d="M1138.53 680.28C1124.12 670.96 1110.43 660.64 1097.56 649.413C1163.89 475.507 1283.33 278.853 1498.09 144.187C1512.15 152.973 1525.53 162.72 1538.19 173.32C1539.21 174.173 1540.23 175.04 1541.24 175.907C1535.15 179.534 1529.13 183.227 1523.15 187C1391.68 269.88 1285.08 385.307 1206.32 530.093C1178.64 581 1156.4 631.733 1138.53 680.28" fill="#433B78"/>
<path d="M1318.49 25.96C1318.52 25.96 1318.55 25.9467 1318.57 25.9467C1318.56 25.9467 1318.52 25.96 1318.49 25.96ZM1318.97 25.9334C1319.01 25.9334 1319.07 25.9334 1319.11 25.9334C1319.05 25.9334 1319.03 25.9334 1318.97 25.9334ZM1319.49 25.9201C1319.53 25.9201 1319.57 25.9201 1319.61 25.9201C1319.57 25.9201 1319.53 25.9201 1319.49 25.9201ZM1320 25.9068C1320.04 25.9068 1320.08 25.9068 1320.12 25.9068C1320.08 25.9068 1320.04 25.9068 1320 25.9068ZM1321.36 25.8667C1321.41 25.8667 1321.47 25.8668 1321.52 25.8535C1321.47 25.8668 1321.41 25.8667 1321.36 25.8667ZM1321.84 25.8535C1321.92 25.8535 1321.99 25.8535 1322.05 25.8402C1322 25.8535 1321.91 25.8535 1321.84 25.8535ZM1322.36 25.8402C1322.44 25.8402 1322.52 25.84 1322.59 25.8266C1322.52 25.84 1322.44 25.8402 1322.36 25.8402ZM1322.89 25.8266C1322.97 25.8266 1323.04 25.8267 1323.12 25.8133C1323.05 25.8267 1322.96 25.8266 1322.89 25.8266ZM1323.41 25.8133C1323.49 25.8133 1323.59 25.8133 1323.67 25.8133C1323.57 25.8133 1323.51 25.8133 1323.41 25.8133ZM1323.95 25.8001C1324.11 25.8001 1324.27 25.8001 1324.41 25.7868C1324.27 25.8001 1324.11 25.8001 1323.95 25.8001ZM1324.67 25.7868C1324.77 25.7868 1324.88 25.7868 1324.99 25.7868C1324.88 25.7868 1324.77 25.7868 1324.67 25.7868ZM1325.24 25.7735C1325.33 25.7735 1325.43 25.7735 1325.52 25.7735C1325.43 25.7735 1325.33 25.7735 1325.24 25.7735ZM1325.77 25.7735C1325.87 25.7735 1325.97 25.76 1326.07 25.76C1325.97 25.76 1325.87 25.7735 1325.77 25.7735ZM1326.31 25.76C1326.41 25.76 1326.52 25.76 1326.61 25.76C1326.51 25.76 1326.41 25.76 1326.31 25.76ZM1326.84 25.76C1326.95 25.7466 1327.07 25.7467 1327.17 25.7467C1327.07 25.7467 1326.95 25.7466 1326.84 25.76ZM1327.39 25.7467C1327.56 25.7467 1327.73 25.7467 1327.91 25.7467C1327.73 25.7467 1327.57 25.7467 1327.39 25.7467ZM1328.01 25.7467C1328.16 25.7467 1328.29 25.7467 1328.44 25.7334C1328.29 25.7467 1328.16 25.7467 1328.01 25.7467ZM1328.65 25.7334C1328.76 25.7334 1328.88 25.7334 1328.99 25.7334C1328.87 25.7334 1328.77 25.7334 1328.65 25.7334ZM1329.2 25.7334C1329.31 25.7334 1329.41 25.7334 1329.52 25.7334C1329.41 25.7334 1329.31 25.7334 1329.2 25.7334ZM1329.75 25.7334C1329.85 25.7334 1329.97 25.7334 1330.08 25.7334C1329.97 25.7334 1329.87 25.7334 1329.75 25.7334ZM1330.29 25.7334C1330.41 25.7334 1330.53 25.7334 1330.65 25.7334C1330.53 25.7334 1330.41 25.7334 1330.29 25.7334ZM1330.83 25.7201C1331 25.7201 1331.19 25.7201 1331.37 25.7201C1331.19 25.7201 1331.01 25.7201 1330.83 25.7201Z" fill="#B1FEF6"/>
<path d="M984.76 301.64C1020.05 147.64 1155.2 31.7733 1318.49 25.9599C1318.52 25.9599 1318.56 25.9467 1318.57 25.9467C1318.71 25.9467 1318.84 25.9467 1318.97 25.9334C1319.03 25.9334 1319.05 25.9334 1319.11 25.9334C1319.24 25.9334 1319.36 25.9201 1319.49 25.9201C1319.53 25.9201 1319.57 25.9201 1319.61 25.9201C1319.73 25.9068 1319.88 25.9068 1320 25.9068C1320.04 25.9068 1320.08 25.9068 1320.12 25.9068C1320.55 25.8935 1320.95 25.88 1321.36 25.8667C1321.41 25.8667 1321.47 25.8668 1321.52 25.8534C1321.63 25.8534 1321.75 25.8534 1321.84 25.8534C1321.91 25.8534 1322 25.8535 1322.05 25.8402C1322.16 25.8402 1322.27 25.8402 1322.36 25.8402C1322.44 25.8402 1322.52 25.8399 1322.59 25.8266C1322.69 25.8266 1322.79 25.8266 1322.89 25.8266C1322.96 25.8266 1323.05 25.8267 1323.12 25.8133C1323.23 25.8133 1323.32 25.8133 1323.41 25.8133C1323.51 25.8133 1323.57 25.8133 1323.67 25.8133C1323.76 25.8133 1323.84 25.8 1323.95 25.8C1324.11 25.8 1324.27 25.8001 1324.41 25.7868C1324.51 25.7868 1324.59 25.7868 1324.67 25.7868C1324.77 25.7868 1324.88 25.7868 1324.99 25.7868C1325.08 25.7868 1325.15 25.7868 1325.24 25.7735C1325.33 25.7735 1325.43 25.7735 1325.52 25.7735C1325.6 25.7735 1325.69 25.7735 1325.77 25.7735C1325.87 25.7735 1325.97 25.7599 1326.07 25.7599C1326.15 25.7599 1326.23 25.7599 1326.31 25.7599C1326.41 25.7599 1326.51 25.7599 1326.61 25.7599C1326.71 25.7599 1326.76 25.7599 1326.84 25.7599C1326.95 25.7466 1327.07 25.7467 1327.17 25.7467C1327.24 25.7467 1327.32 25.7467 1327.39 25.7467C1327.57 25.7467 1327.73 25.7467 1327.91 25.7467C1327.93 25.7467 1327.97 25.7467 1328.01 25.7467C1328.16 25.7467 1328.29 25.7467 1328.44 25.7334C1328.52 25.7334 1328.57 25.7334 1328.65 25.7334C1328.77 25.7334 1328.87 25.7334 1328.99 25.7334C1329.07 25.7334 1329.13 25.7334 1329.2 25.7334C1329.31 25.7334 1329.41 25.7334 1329.52 25.7334C1329.6 25.7334 1329.67 25.7334 1329.75 25.7334C1329.87 25.7334 1329.97 25.7334 1330.08 25.7334C1330.15 25.7334 1330.21 25.7334 1330.29 25.7334C1330.41 25.7334 1330.53 25.7334 1330.65 25.7334C1330.72 25.7334 1330.76 25.7334 1330.83 25.7201C1331.01 25.7201 1331.19 25.7201 1331.37 25.7201C1418.31 25.7201 1497.92 56.8801 1559.72 108.707C1538.36 119.973 1517.81 131.827 1498.09 144.187C1443.49 110.04 1378.97 90.3334 1309.83 90.3334C1164.79 90.3334 1040.12 177.16 984.76 301.64" fill="#BFBBCA"/>
<path d="M1541.24 175.907C1540.23 175.04 1539.21 174.174 1538.19 173.32C1525.53 162.72 1512.15 152.974 1498.09 144.187C1517.81 131.827 1538.36 119.974 1559.72 108.707C1573.09 119.92 1585.61 132.094 1597.2 145.12C1578.09 154.774 1559.43 165.04 1541.24 175.907" fill="#B4B1C9"/>
<path d="M1331.33 50.8666C1149.08 50.8666 1000.8 199.147 1000.8 381.4C1000.8 563.667 1149.08 711.947 1331.33 711.947C1513.6 711.947 1661.88 563.667 1661.88 381.4C1661.88 199.147 1513.6 50.8666 1331.33 50.8666V50.8666ZM1331.33 762.2C1121.37 762.2 950.545 591.373 950.545 381.4C950.545 171.427 1121.37 0.613193 1331.33 0.613193C1541.31 0.613193 1712.13 171.427 1712.13 381.4C1712.13 591.373 1541.31 762.2 1331.33 762.2Z" fill="#000072"/>
<path d="M2563.67 381.427C2563.67 577.84 2722.88 737.067 2919.29 737.067C3008.75 737.067 3090.57 703.974 3153.11 649.414C3227.84 584.307 3275 488.387 3275 381.427C3275 184.947 3115.77 25.7203 2919.29 25.7203C2832.36 25.7203 2752.75 56.8804 2690.95 108.707C2613.12 173.96 2563.67 271.96 2563.67 381.427" fill="#60547B"/>
<path d="M3112.13 680.28C3094.27 631.733 3072.03 581 3044.35 530.093C2965.59 385.307 2858.99 269.88 2727.52 187C2721.53 183.227 2715.52 179.534 2709.43 175.907C2710.44 175.04 2711.45 174.173 2712.48 173.32C2725.12 162.72 2738.52 152.973 2752.57 144.187C2967.33 278.853 3086.76 475.507 3153.11 649.413C3140.23 660.64 3126.55 670.96 3112.13 680.28" fill="#433B78"/>
<path d="M2932.17 25.96C2932.13 25.96 2932.12 25.9467 2932.08 25.9467C2932.12 25.9467 2932.15 25.96 2932.17 25.96ZM2931.68 25.9334C2931.64 25.9334 2931.61 25.9334 2931.56 25.9334C2931.6 25.9334 2931.64 25.9334 2931.68 25.9334ZM2931.17 25.9201C2931.13 25.9201 2931.08 25.9201 2931.04 25.9201C2931.09 25.9201 2931.13 25.9201 2931.17 25.9201ZM2930.67 25.9068C2930.63 25.9068 2930.57 25.9068 2930.53 25.9068C2930.59 25.9068 2930.63 25.9068 2930.67 25.9068ZM2929.31 25.8667C2929.25 25.8667 2929.19 25.8668 2929.15 25.8535C2929.19 25.8668 2929.25 25.8667 2929.31 25.8667ZM2928.81 25.8535C2928.76 25.8535 2928.67 25.8535 2928.6 25.8402C2928.68 25.8535 2928.75 25.8535 2928.81 25.8535ZM2928.29 25.8402C2928.23 25.8402 2928.15 25.84 2928.08 25.8266C2928.15 25.84 2928.23 25.8402 2928.29 25.8402ZM2927.77 25.8266C2927.69 25.8266 2927.61 25.8267 2927.53 25.8133C2927.61 25.8267 2927.69 25.8266 2927.77 25.8266ZM2927.24 25.8133C2927.16 25.8133 2927.08 25.8133 2927 25.8133C2927.08 25.8133 2927.16 25.8133 2927.24 25.8133ZM2926.72 25.8001C2926.55 25.8001 2926.4 25.8001 2926.24 25.7868C2926.39 25.8001 2926.56 25.8001 2926.72 25.8001ZM2926 25.7868C2925.89 25.7868 2925.79 25.7868 2925.68 25.7868C2925.77 25.7868 2925.89 25.7868 2926 25.7868ZM2925.43 25.7735C2925.33 25.7735 2925.24 25.7735 2925.15 25.7735C2925.24 25.7735 2925.32 25.7735 2925.43 25.7735ZM2924.89 25.7735C2924.8 25.7735 2924.69 25.76 2924.6 25.76C2924.69 25.76 2924.8 25.7735 2924.89 25.7735ZM2924.36 25.76C2924.24 25.76 2924.15 25.76 2924.04 25.76C2924.15 25.76 2924.25 25.76 2924.36 25.76ZM2923.83 25.76C2923.72 25.7466 2923.6 25.7467 2923.49 25.7467C2923.6 25.7467 2923.72 25.7466 2923.83 25.76ZM2923.28 25.7467C2923.09 25.7467 2922.93 25.7467 2922.76 25.7467C2922.93 25.7467 2923.11 25.7467 2923.28 25.7467ZM2922.65 25.7467C2922.51 25.7467 2922.36 25.7467 2922.21 25.7334C2922.36 25.7467 2922.51 25.7467 2922.65 25.7467ZM2922.01 25.7334C2921.89 25.7334 2921.79 25.7334 2921.67 25.7334C2921.79 25.7334 2921.91 25.7334 2922.01 25.7334ZM2921.45 25.7334C2921.35 25.7334 2921.25 25.7334 2921.13 25.7334C2921.24 25.7334 2921.36 25.7334 2921.45 25.7334ZM2920.91 25.7334C2920.8 25.7334 2920.69 25.7334 2920.59 25.7334C2920.68 25.7334 2920.8 25.7334 2920.91 25.7334ZM2920.37 25.7334C2920.25 25.7334 2920.13 25.7334 2920.01 25.7334C2920.13 25.7334 2920.25 25.7334 2920.37 25.7334ZM2919.84 25.7201C2919.65 25.7201 2919.48 25.7201 2919.29 25.7201C2919.47 25.7201 2919.65 25.7201 2919.84 25.7201Z" fill="#B1FEF6"/>
<path d="M3265.91 301.64C3210.53 177.16 3085.88 90.3334 2940.83 90.3334C2871.69 90.3334 2807.17 110.04 2752.57 144.187C2732.85 131.827 2712.31 119.973 2690.95 108.707C2752.75 56.8801 2832.36 25.7201 2919.29 25.7201C2919.48 25.7201 2919.65 25.7201 2919.84 25.7201C2919.89 25.7334 2919.95 25.7334 2920.01 25.7334C2920.13 25.7334 2920.25 25.7334 2920.37 25.7334C2920.44 25.7334 2920.51 25.7334 2920.59 25.7334C2920.69 25.7334 2920.8 25.7334 2920.91 25.7334C2920.99 25.7334 2921.05 25.7334 2921.13 25.7334C2921.25 25.7334 2921.35 25.7334 2921.45 25.7334C2921.53 25.7334 2921.6 25.7334 2921.67 25.7334C2921.79 25.7334 2921.89 25.7334 2922.01 25.7334C2922.08 25.7334 2922.15 25.7334 2922.21 25.7334C2922.36 25.7467 2922.51 25.7467 2922.65 25.7467C2922.68 25.7467 2922.72 25.7467 2922.76 25.7467C2922.93 25.7467 2923.09 25.7467 2923.28 25.7467C2923.35 25.7467 2923.43 25.7467 2923.49 25.7467C2923.6 25.7467 2923.72 25.7466 2923.83 25.7599C2923.91 25.7599 2923.96 25.7599 2924.04 25.7599C2924.15 25.7599 2924.24 25.7599 2924.36 25.7599C2924.44 25.7599 2924.52 25.7599 2924.6 25.7599C2924.69 25.7599 2924.8 25.7735 2924.89 25.7735C2924.97 25.7735 2925.05 25.7735 2925.15 25.7735C2925.24 25.7735 2925.33 25.7735 2925.43 25.7735C2925.51 25.7868 2925.6 25.7868 2925.68 25.7868C2925.79 25.7868 2925.89 25.7868 2926 25.7868C2926.08 25.7868 2926.15 25.7868 2926.24 25.7868C2926.4 25.8001 2926.55 25.8 2926.72 25.8C2926.81 25.8 2926.89 25.8133 2927 25.8133C2927.08 25.8133 2927.16 25.8133 2927.24 25.8133C2927.33 25.8133 2927.44 25.8133 2927.53 25.8133C2927.61 25.8267 2927.69 25.8266 2927.77 25.8266C2927.87 25.8266 2927.97 25.8266 2928.08 25.8266C2928.15 25.8399 2928.23 25.8402 2928.29 25.8402C2928.4 25.8402 2928.51 25.8402 2928.6 25.8402C2928.67 25.8535 2928.76 25.8534 2928.81 25.8534C2928.92 25.8534 2929.04 25.8534 2929.15 25.8534C2929.19 25.8668 2929.25 25.8667 2929.31 25.8667C2929.72 25.88 2930.12 25.8935 2930.53 25.9068C2930.57 25.9068 2930.63 25.9068 2930.67 25.9068C2930.79 25.9068 2930.92 25.9068 2931.04 25.9201C2931.08 25.9201 2931.13 25.9201 2931.17 25.9201C2931.31 25.9201 2931.43 25.9334 2931.56 25.9334C2931.61 25.9334 2931.64 25.9334 2931.68 25.9334C2931.81 25.9467 2931.95 25.9467 2932.08 25.9467C2932.12 25.9467 2932.13 25.9599 2932.17 25.9599C3095.47 31.7733 3230.6 147.64 3265.91 301.64" fill="#BFBBCA"/>
<path d="M2709.43 175.907C2691.24 165.04 2672.57 154.774 2653.47 145.12C2665.05 132.094 2677.57 119.92 2690.95 108.707C2712.31 119.974 2732.85 131.827 2752.57 144.187C2738.52 152.974 2725.12 162.72 2712.48 173.32C2711.45 174.174 2710.44 175.04 2709.43 175.907" fill="#B4B1C9"/>
<path d="M2919.32 50.8666C2737.07 50.8666 2588.79 199.147 2588.79 381.4C2588.79 563.667 2737.07 711.947 2919.32 711.947C3101.59 711.947 3249.87 563.667 3249.87 381.4C3249.87 199.147 3101.59 50.8666 2919.32 50.8666ZM2919.32 762.2C2709.36 762.2 2538.53 591.373 2538.53 381.4C2538.53 171.427 2709.36 0.613193 2919.32 0.613193C3129.29 0.613193 3300.12 171.427 3300.12 381.4C3300.12 591.373 3129.29 762.2 2919.32 762.2Z" fill="#000072"/>
<path d="M3159.84 1027.69C3159.84 1027.69 3137.81 56.5069 2125.33 56.5069C1112.85 56.5069 1090.81 1027.69 1090.81 1027.69C671.187 1944.87 2125.33 1923.33 2125.33 1923.33C2125.33 1923.33 3579.48 1944.87 3159.84 1027.69" fill="white"/>
<path d="M2125.28 1920C2127.39 1920.03 2328.21 1922.45 2555.83 1879.8C2765.52 1840.49 3041.48 1753.81 3165.33 1564.01C3257.49 1422.83 3254.61 1242.84 3156.81 1029.08L3156.52 1027.77C3156.47 1025.35 3149.48 782.8 3019.23 543.48C2899.15 322.853 2646.59 59.8401 2125.33 59.8401C1604.08 59.8401 1351.52 322.853 1231.44 543.48C1101.19 782.8 1094.2 1025.35 1094.15 1027.77L1093.85 1029.08C996.039 1242.84 993.172 1422.83 1085.33 1564.01C1209.19 1753.81 1485.15 1840.49 1694.84 1879.8C1922.44 1922.45 2123.27 1920.01 2125.28 1920V1920ZM2132.61 1926.69C2128.01 1926.69 2125.51 1926.67 2125.28 1926.65C2123.37 1926.67 1921.97 1929.13 1693.73 1886.37C1482.72 1846.84 1204.92 1759.45 1079.75 1567.67C986.345 1424.57 988.972 1242.63 1087.51 1026.92C1088 1012.25 1098 774.853 1225.47 540.507C1302.43 399.027 1406.49 286.293 1534.77 205.44C1695.07 104.4 1893.75 53.1734 2125.33 53.1734C2356.92 53.1734 2555.61 104.4 2715.89 205.44C2844.17 286.293 2948.24 399.027 3025.2 540.507C3152.65 774.84 3162.67 1012.23 3163.16 1026.92C3261.71 1242.64 3264.32 1424.56 3170.92 1567.67C3045.75 1759.45 2767.95 1846.84 2556.95 1886.37C2353.21 1924.55 2170.87 1926.69 2132.61 1926.69" fill="#000072"/>
<path d="M1721.97 1184.08C1721.97 1184.08 1777.21 1003.28 1885.55 877.574C1944.2 809.507 1954.09 710.294 1904.59 635.32C1873.09 587.64 1817.93 549.493 1721.97 549.493C1466.09 549.493 1285.28 872.027 1280.16 1070.69C1275.05 1269.36 1392.75 1362.64 1472.92 1369.73C1553.09 1376.83 1679.33 1352.96 1721.97 1184.08" fill="#60547B"/>
<path d="M2528.69 1184.08C2528.69 1184.08 2473.45 1003.28 2365.12 877.574C2306.47 809.507 2296.56 710.294 2346.08 635.32C2377.56 587.64 2432.73 549.493 2528.69 549.493C2784.56 549.493 2965.39 872.027 2970.49 1070.69C2975.61 1269.36 2857.92 1362.64 2777.73 1369.73C2697.56 1376.83 2571.33 1352.96 2528.69 1184.08" fill="#60547B"/>
<path d="M2118.91 1898.23C2045.08 1898.23 1323.4 1889.01 1103.55 1552.07C1040.53 1455.48 1024.52 1339.11 1055.47 1204.72C1049.47 1764.97 2031.77 1777.43 2119.15 1777.43C2123.21 1777.43 2125.33 1777.4 2125.33 1777.4C2125.33 1777.4 2126.92 1777.41 2129.96 1777.41C2206.91 1777.41 3217.35 1766.43 3190.53 1185.68C3227.55 1328.15 3213.09 1450.95 3147.11 1552.07C2927.21 1889.09 2205.13 1898.23 2131.69 1898.23C2128.12 1898.23 2126.07 1898.21 2125.71 1898.2C2125.59 1898.2 2125.45 1898.2 2125.33 1898.2C2125.21 1898.2 2125.09 1898.2 2124.96 1898.2C2124.6 1898.21 2122.53 1898.23 2118.91 1898.23" fill="#B2B2D4"/>
<path d="M2271.68 1363.33L2125.19 1268.08L1978.71 1363.33C1978.71 1363.33 1879.55 1347.4 1850.76 1269.36C1831.71 1217.71 1857.21 1172.49 1876.64 1147.83C1879.25 1144.52 1882.91 1142.99 1886.53 1142.99C1892.07 1142.99 1897.49 1146.56 1898.92 1152.85C1906.41 1186.19 1927.16 1241.23 1982.48 1241.23C1982.92 1241.23 1983.37 1241.21 1983.81 1241.21C2064.41 1239.93 2050.99 1117.75 2050.99 1117.75H2125.19H2199.39C2199.39 1117.75 2185.96 1239.93 2266.56 1241.21C2267.01 1241.21 2267.45 1241.23 2267.89 1241.23C2323.21 1241.21 2343.97 1186.19 2351.47 1152.85C2352.88 1146.56 2358.31 1142.99 2363.85 1142.99C2367.47 1142.99 2371.13 1144.52 2373.73 1147.83C2393.16 1172.49 2418.67 1217.71 2399.61 1269.36C2370.83 1347.4 2271.68 1363.33 2271.68 1363.33Z" fill="#B2B2D4"/>
<path d="M2274.45 1004.89C2220.2 973.813 2125.33 975.6 2125.33 975.6C2125.33 975.6 2030.47 973.813 1976.2 1004.89C1958.15 1015.24 1950.8 1037.72 1958.45 1057.08C1974.49 1097.67 2017.48 1165.8 2125.33 1165.8C2233.19 1165.8 2276.17 1097.67 2292.21 1057.08C2299.85 1037.72 2292.52 1015.24 2274.45 1004.89" fill="#000072"/>
<path d="M2153.88 1132.19C2154.27 1135.77 2154.4 1137.96 2154.59 1140.75L2154.92 1148.52C2155.05 1153.68 2155.09 1158.79 2154.85 1163.91C2154.43 1174.12 2153.48 1184.35 2151.8 1194.6C2148.39 1215 2142.27 1235.75 2131.64 1255.31C2126.25 1265.05 2119.69 1274.43 2112.03 1283.03C2104.45 1291.75 2095.17 1299.07 2085.49 1305.39C2075.72 1311.75 2065.09 1316.21 2054.44 1319.89C2043.73 1323.11 2032.88 1325.47 2022.21 1326.27C2000.61 1328.04 1981.04 1326.65 1960.47 1322.89C1950.23 1320.89 1939.97 1317.97 1929.89 1313.72C1919.85 1309.59 1909.95 1304.2 1901 1297.13C1883.03 1283.24 1869.19 1262.8 1864.75 1241.37C1862.49 1230.69 1862.12 1219.97 1863.52 1209.71C1864.99 1199.37 1867.76 1189.71 1873.11 1180.36C1874.83 1177.35 1878.65 1176.31 1881.67 1178.03C1883.24 1178.93 1884.28 1180.41 1884.65 1182.05L1884.84 1182.85C1888.84 1200.41 1893.37 1216.79 1899.81 1230.24C1906.25 1243.71 1914.49 1254.64 1926.36 1261.96C1932.16 1265.72 1938.79 1268.56 1945.88 1270.68C1952.88 1272.96 1960.51 1274.2 1968.27 1275.2C1983.77 1276.95 2001.07 1276.79 2015.75 1274.37C2023.27 1273.24 2030.23 1271.16 2036.92 1268.88C2043.35 1266.15 2049.57 1263.24 2054.92 1259.25C2065.73 1251.49 2074.36 1241.05 2080.91 1228.33C2087.19 1215.47 2091.84 1200.81 2094.19 1185.16C2095.45 1177.37 2096.32 1169.4 2096.71 1161.36C2096.88 1157.35 2097.07 1153.33 2097.07 1149.35L2097.01 1143.44L2096.79 1138.31L2096.71 1136.55C2096 1120.72 2108.27 1107.32 2124.09 1106.63C2139.28 1105.95 2152.24 1117.31 2153.88 1132.19" fill="#000072"/>
<path d="M2153.88 1138.31L2153.65 1143.44L2153.6 1149.35C2153.59 1153.33 2153.77 1157.35 2153.95 1161.36C2154.35 1169.4 2155.21 1177.37 2156.48 1185.16C2158.81 1200.81 2163.48 1215.47 2169.76 1228.33C2176.31 1241.05 2184.93 1251.49 2195.75 1259.25C2201.09 1263.24 2207.31 1266.15 2213.75 1268.88C2220.44 1271.16 2227.4 1273.24 2234.92 1274.37C2249.59 1276.79 2266.88 1276.95 2282.39 1275.2C2290.16 1274.2 2297.79 1272.96 2304.79 1270.68C2311.88 1268.56 2318.51 1265.72 2324.31 1261.96C2336.17 1254.64 2344.4 1243.71 2350.85 1230.24C2357.28 1216.79 2361.83 1200.41 2365.83 1182.85L2366 1182.08C2366.77 1178.71 2370.13 1176.59 2373.51 1177.36C2375.28 1177.76 2376.72 1178.89 2377.56 1180.36C2382.91 1189.71 2385.68 1199.37 2387.13 1209.71C2388.55 1219.97 2388.17 1230.69 2385.92 1241.37C2381.48 1262.8 2367.64 1283.24 2349.67 1297.13C2340.72 1304.2 2330.81 1309.59 2320.77 1313.72C2310.69 1317.97 2300.44 1320.89 2290.2 1322.89C2269.63 1326.65 2250.05 1328.04 2228.44 1326.27C2217.79 1325.47 2206.93 1323.11 2196.21 1319.89C2185.57 1316.21 2174.93 1311.75 2165.17 1305.39C2155.49 1299.07 2146.2 1291.75 2138.63 1283.03C2130.97 1274.43 2124.41 1265.05 2119.03 1255.31C2108.4 1235.75 2102.27 1215 2098.85 1194.6C2097.19 1184.35 2096.24 1174.12 2095.8 1163.91C2095.57 1158.79 2095.6 1153.68 2095.75 1148.52L2096.08 1140.75C2096.27 1137.96 2096.39 1135.77 2096.79 1132.19C2098.48 1116.44 2112.64 1105.05 2128.39 1106.76C2143.51 1108.4 2154.6 1121.49 2153.96 1136.45L2153.88 1138.31" fill="#000072"/>
<path d="M2125.33 1172.95C2125.33 1180.71 2125.04 1188.17 2124.61 1195.2C2124.11 1188.17 2123.83 1180.71 2123.83 1172.95H2125.33" fill="#222A66"/>
<path d="M2121.28 1195.44C2120.76 1188.03 2120.49 1180.45 2120.49 1172.95V1169.61H2128.67V1172.95C2128.67 1180.03 2128.43 1187.37 2127.93 1195.4L2121.28 1195.44" fill="#000072"/>
<path d="M2125.33 1543.85H2124.61C2039.57 1543.85 1992.51 1505.63 1966.63 1459.39C1927.03 1388.45 1937.36 1298.6 1937.36 1298.6C1937.36 1298.6 2112.2 1356.53 2124.68 1182.81C2137.09 1356.53 2311.93 1298.6 2311.93 1298.6C2311.93 1298.6 2340.08 1543.33 2125.33 1543.85Z" fill="#000072"/>
<path d="M2125.33 1369.73C2013.24 1369.73 1966.62 1459.39 1966.62 1459.39C1992.5 1505.63 2039.57 1543.85 2124.61 1543.85H2125.33H2126.05C2211.09 1543.85 2258.16 1505.63 2284.04 1459.39C2284.04 1459.39 2237.43 1369.73 2125.33 1369.73" fill="#FF4379"/>
<path d="M1961.32 1329.8C1961.79 1366.35 1968.64 1430.27 2006.96 1473.11C2034.03 1503.36 2073.63 1518.71 2124.64 1518.71C2175.65 1518.71 2215.24 1503.36 2242.31 1473.11C2280.63 1430.28 2287.48 1366.36 2287.93 1329.8C2254.29 1335.21 2200.43 1337.04 2158.01 1306.41C2144.64 1296.75 2133.51 1284.77 2124.64 1270.52C2115.77 1284.77 2104.64 1296.75 2091.25 1306.41C2048.85 1337.04 1994.99 1335.21 1961.32 1329.8V1329.8ZM2124.64 1568.96C2058.59 1568.96 2006.32 1547.91 1969.31 1506.39C1898.24 1426.67 1911.79 1301.03 1912.39 1295.72C1913.25 1288.2 1917.45 1281.48 1923.84 1277.41C1930.21 1273.33 1938.08 1272.36 1945.25 1274.73C1945.92 1274.96 2017.6 1297.79 2061.99 1265.56C2083.79 1249.73 2096.35 1221.95 2099.45 1182.79C2099.03 1176.28 2098.81 1169.57 2098.81 1162.68C2098.81 1148.56 2110.43 1137.13 2124.64 1137.56C2138.68 1137.15 2150.45 1148.56 2150.45 1162.68C2150.45 1169.57 2150.25 1176.28 2149.83 1182.79C2152.92 1221.95 2165.48 1249.73 2187.29 1265.56C2231.68 1297.79 2303.35 1274.96 2304.07 1274.72C2311.24 1272.39 2319.11 1273.39 2325.45 1277.45C2331.8 1281.53 2336.01 1288.23 2336.88 1295.72C2337.49 1301.03 2351.03 1426.67 2279.96 1506.39C2242.95 1547.91 2190.68 1568.96 2124.64 1568.96" fill="#000072"/>
<path d="M2211.55 1014.4C2211.55 1022.17 2172.88 1028.48 2125.19 1028.48C2077.49 1028.48 2038.83 1022.17 2038.83 1014.4C2038.83 1006.63 2077.49 1000.33 2125.19 1000.33C2172.88 1000.33 2211.55 1006.63 2211.55 1014.4Z" fill="white"/>
<path d="M2042.35 1014.4C2045.71 1018.23 2072.91 1025.15 2125.19 1025.15C2177.48 1025.15 2204.67 1018.23 2208.04 1014.4C2204.67 1010.57 2177.48 1003.67 2125.19 1003.67C2072.91 1003.67 2045.71 1010.57 2042.35 1014.4ZM2125.19 1031.81C2116.01 1031.81 2035.49 1031.32 2035.49 1014.4C2035.49 997.493 2116.01 997 2125.19 997C2134.37 997 2214.88 997.493 2214.88 1014.4C2214.88 1031.32 2134.37 1031.81 2125.19 1031.81Z" fill="#000072"/>
<path d="M2125.33 1898.2C2125.45 1898.2 2125.59 1898.2 2125.71 1898.2C2133.49 1898.35 2916.48 1905.53 3147.11 1552.07C3234.88 1417.55 3231.48 1244.64 3137 1038.15C3135.59 1035.05 3134.81 1031.69 3134.73 1028.28C3134.67 1025.89 3127.56 787.227 2999.32 552.507C2828.64 240.054 2534.57 81.6402 2125.33 81.6402C1716.09 81.6402 1422.04 240.054 1251.35 552.507C1123.11 787.227 1115.99 1025.89 1115.93 1028.28C1115.85 1031.68 1115.08 1035.05 1113.67 1038.15C1019.19 1244.64 1015.79 1417.55 1103.55 1552.07C1334.2 1905.56 2117.17 1898.35 2124.96 1898.2C2125.09 1898.2 2125.21 1898.2 2125.33 1898.2ZM2132.4 1948.48C2128.61 1948.48 2126.23 1948.47 2125.33 1948.45C2115.37 1948.57 1915.41 1950.08 1689.71 1907.79C1376.73 1849.15 1165.37 1738.72 1061.51 1579.57C964.332 1430.71 965.812 1243.05 1065.88 1021.84C1067.48 983.774 1082.04 758.573 1206.32 530.093C1285.08 385.307 1391.68 269.88 1523.15 187C1686.97 83.7468 1889.57 31.3868 2125.33 31.3868C2361.09 31.3868 2563.69 83.7468 2727.52 187C2858.99 269.88 2965.59 385.307 3044.35 530.093C3168.63 758.587 3183.19 983.8 3184.79 1021.84C3284.84 1243.05 3286.33 1430.71 3189.16 1579.57C3085.29 1738.72 2873.93 1849.15 2560.95 1907.79C2355.37 1946.31 2171.12 1948.48 2132.4 1948.48" fill="#000072"/>
<path d="M1652.29 736.547C1588.19 729.974 1528.92 795.827 1519.93 883.627C1510.93 971.427 1555.61 1047.92 1619.72 1054.49C1683.83 1061.07 1743.09 995.214 1752.08 907.414C1761.08 819.614 1716.4 743.107 1652.29 736.547Z" fill="#000072"/>
<path d="M1644.56 777.827C1620 775.307 1597.78 795.72 1594.94 823.427C1592.1 851.12 1609.72 875.613 1634.28 878.133C1658.84 880.653 1681.05 860.227 1683.89 832.533C1686.73 804.84 1669.12 780.347 1644.56 777.827Z" fill="white"/>
<path d="M1593.08 1000.29C1591.97 1000.29 1590.85 1000.24 1589.72 1000.12C1571.87 998.294 1558.87 982.334 1560.69 964.467C1562.41 947.734 1576.53 935.267 1593 935.267C1594.11 935.267 1595.23 935.32 1596.35 935.44C1614.21 937.267 1627.2 953.24 1625.37 971.093C1623.67 987.827 1609.55 1000.29 1593.08 1000.29" fill="#4D4D9D"/>
<path d="M2586.39 736.547C2650.49 729.974 2709.76 795.827 2718.75 883.627C2727.75 971.427 2683.07 1047.92 2618.96 1054.49C2554.85 1061.07 2495.59 995.214 2486.6 907.414C2477.6 819.614 2522.28 743.107 2586.39 736.547Z" fill="#000072"/>
<path d="M2594.12 777.827C2618.69 775.307 2640.91 795.72 2643.73 823.427C2646.57 851.12 2628.96 875.613 2604.4 878.133C2579.84 880.653 2557.63 860.227 2554.79 832.533C2551.95 804.84 2569.56 780.347 2594.12 777.827Z" fill="white"/>
<path d="M2645.61 1000.29C2629.15 1000.29 2615.03 987.827 2613.31 971.093C2611.48 953.24 2624.48 937.267 2642.33 935.44C2643.45 935.32 2644.57 935.267 2645.68 935.267C2662.15 935.267 2676.28 947.734 2677.99 964.467C2679.81 982.334 2666.83 998.294 2648.96 1000.12C2647.84 1000.24 2646.72 1000.29 2645.61 1000.29Z" fill="#4D4D9D"/>
<path d="M521.792 976.214C521.792 976.214 468.654 1304.55 100.795 1379.75C100.795 1379.75 209.062 1038.83 521.792 976.214Z" fill="#248943"/>
<path d="M517.567 980.48C235.646 1040 121.499 1331.52 105.86 1375.29C437.976 1304.33 509.058 1021 517.567 980.48ZM95.9004 1384.16L97.6191 1378.75C98.7057 1375.32 210.079 1035.23 521.135 972.947L525.847 972L525.08 976.747C524.951 977.573 511.004 1060.57 452.039 1151.6C397.619 1235.6 292.619 1343.93 101.467 1383.01L95.9004 1384.16" fill="#000072"/>
<path d="M144.037 1342.12C144.678 1340.68 145.336 1339.23 146.013 1337.75C244.074 1285.37 306.256 1212.44 345.196 1146.95C364.858 1128.99 384.849 1111.49 405.491 1094.76C426.839 1077.36 448.557 1060.45 470.649 1044.12C472.257 1042.93 473.869 1041.75 475.482 1040.56C464.772 1068.4 448.937 1102.27 425.991 1137.35C359.872 1238.44 265.184 1307.16 144.037 1342.12V1342.12ZM376.608 1085.53C381.43 1074.43 385.54 1063.93 389.028 1054.28C399.502 1048.2 410.333 1042.45 421.53 1037.11C409.628 1049.47 397.914 1062 386.389 1074.68C383.105 1078.28 379.845 1081.89 376.608 1085.53Z" fill="#196051"/>
<path d="M537.683 997.133C515.357 1011.79 492.665 1027.88 470.649 1044.12C448.557 1060.45 426.838 1077.36 405.49 1094.76C384.086 1112.12 363.379 1130.29 343.015 1148.93C322.713 1167.65 303.266 1187.28 284.438 1207.68C283.91 1208.27 283 1208.32 282.404 1207.8C281.864 1207.32 281.785 1206.49 282.169 1205.91C297.79 1182.89 314.301 1160.32 331.818 1138.52C349.395 1116.8 367.491 1095.37 386.389 1074.68C405.235 1053.95 424.585 1033.61 444.438 1013.75C464.402 993.827 484.393 974.547 505.899 955.293C516.746 945.587 533.406 946.507 543.113 957.36C552.821 968.2 551.895 984.867 541.05 994.573C540.095 995.427 539.097 996.2 538.062 996.88L537.683 997.133" fill="#000072"/>
<path d="M485.373 1012.37C285.972 1072.52 182.646 1255.95 144.039 1342.12C265.186 1307.16 359.874 1238.44 425.992 1137.35C457.432 1089.28 475.517 1043.52 485.373 1012.37ZM100.798 1406.03C93.4268 1406.03 86.2975 1402.92 81.2655 1397.32C75.0362 1390.39 72.9402 1380.68 75.7588 1371.8C80.3735 1357.28 192.444 1015.36 516.638 950.453C525.082 948.76 533.817 951.32 540.023 957.293C546.22 963.267 549.097 971.907 547.724 980.4C547.144 983.973 532.847 1069.04 471.292 1164.07C414.482 1251.75 305.003 1364.81 106.058 1405.49C104.307 1405.85 102.543 1406.03 100.798 1406.03" fill="#000072"/>
<path d="M539.625 1011.32C539.625 1011.32 210.761 1061.09 26.7051 733.84C26.7051 733.84 384.405 732.694 539.625 1011.32Z" fill="#248943"/>
<path d="M32.5082 737.293C201.591 1031.8 493.075 1012.88 534.266 1008.6C391.376 758.293 78.9469 738.787 32.5082 737.293ZM492.15 1017.28C457.723 1017.28 407.619 1013.75 351.318 998.52C254.696 972.373 119.448 905.533 23.8042 735.467L21.0176 730.52L26.6949 730.507H26.7269C31.9936 730.507 388.518 733.227 542.533 1009.69L544.879 1013.89L540.126 1014.61C539.742 1014.67 521.734 1017.28 492.15 1017.28" fill="#000072"/>
<path d="M464.172 986.88C462.402 986.773 460.608 986.667 458.785 986.547C456.937 984 455.07 981.48 453.186 978.987C455.238 980.44 457.289 981.907 459.334 983.373C460.946 984.547 462.56 985.707 464.172 986.88V986.88ZM450.852 934.4C435.486 926.867 420.024 919.573 404.472 912.493C396.637 908.907 388.758 905.413 380.848 902C301.294 833.173 209.462 794.72 139.928 773.68C230.089 791.907 356.41 834.573 450.852 934.4Z" fill="#A7D0B4"/>
<path d="M524.57 1032.84C503.791 1016.05 481.529 999.373 459.335 983.373C437.023 967.347 414.299 951.827 391.199 936.813C368.131 921.747 344.502 907.587 320.517 893.893C296.49 880.293 271.855 867.773 246.685 856.08C245.957 855.76 245.627 854.907 245.95 854.187C246.239 853.52 246.998 853.2 247.674 853.387C274.362 861.227 300.905 870.04 327.011 880.053C353.073 890.147 378.999 900.827 404.473 912.493C429.983 924.107 455.254 936.307 480.247 949.133C505.315 962.053 529.781 975.2 554.683 989.787C567.242 997.147 571.454 1013.29 564.097 1025.85C556.738 1038.41 540.591 1042.63 528.037 1035.27C526.93 1034.61 525.89 1033.89 524.917 1033.12L524.57 1032.84" fill="#000072"/>
<path d="M75.8232 763.587C146.122 868.2 240.483 937.32 356.923 969.36C412.294 984.6 461.714 987.8 494.051 987.693C376.036 816.68 169.735 774.147 75.8232 763.587V763.587ZM491.897 1040.32C455.959 1040.32 404.111 1036.56 345.327 1020.65C244.474 993.373 103.355 923.707 3.80988 746.707C-0.752784 738.587 -0.680781 728.653 4.01255 720.613C8.69922 712.56 17.3059 707.587 26.6232 707.56C26.7339 707.56 26.8712 707.56 27.0206 707.56C47.1632 707.56 402.852 711.827 562.574 998.533C566.766 1006.05 567.001 1015.16 563.205 1022.88C559.417 1030.61 552.072 1036 543.556 1037.29C541.903 1037.53 522.769 1040.32 491.897 1040.32" fill="#000072"/>
<path d="M930.732 1856.52L514.27 1048.77C495.448 1012.27 490.953 970.04 501.665 930.4L527.309 835.467C534.821 807.667 572.606 803.64 585.805 829.24L1076.65 1781.28C1097.44 1821.57 1081.61 1871.09 1041.31 1891.87C1001.01 1912.64 951.505 1896.81 930.732 1856.52" fill="#59E041"/>
<path d="M557.802 815.48C556.766 815.48 555.758 815.533 554.774 815.64C545.49 816.627 534.24 822.587 530.523 836.333L504.878 931.267C494.363 970.2 498.752 1011.39 517.235 1047.24L933.692 1854.99C943.332 1873.69 959.679 1887.52 979.719 1893.92C999.746 1900.32 1021.08 1898.55 1039.79 1888.91C1058.48 1879.27 1072.31 1862.92 1078.71 1842.88C1085.12 1822.84 1083.33 1801.51 1073.69 1782.81L582.846 830.773C577.007 819.44 566.584 815.48 557.802 815.48V815.48ZM1003.79 1904.37C995.039 1904.37 986.252 1903.01 977.679 1900.27C955.946 1893.32 938.226 1878.32 927.772 1858.04L511.311 1050.29C492.059 1012.96 487.488 970.08 498.447 929.533L524.091 834.6C527.932 820.373 539.415 810.573 554.071 809.013C568.726 807.427 582.02 814.613 588.771 827.72L1079.61 1779.76C1090.08 1800.04 1092.01 1823.17 1085.07 1844.91C1078.12 1866.64 1063.12 1884.37 1042.84 1894.83C1030.56 1901.16 1017.23 1904.37 1003.79 1904.37" fill="#000072"/>
<path d="M512.457 865.773L520.644 835.467C523.281 825.707 529.646 818.88 537.372 815.227C530.998 819.76 526.292 826.453 524.092 834.6L516.364 863.2C515.006 863.96 513.698 864.813 512.457 865.773Z" fill="#B1FEF6"/>
<path d="M1057.12 1824.03C1054.17 1824.03 1051.24 1823.87 1048.32 1823.55L559.912 876.253C557.85 872.253 555.189 868.973 552.137 866.4C552.941 862.067 553.92 857.747 555.079 853.467L565.091 816.4C566.559 816.773 568.026 817.28 569.468 817.92C573.316 820.667 576.662 824.427 579.14 829.24L1069.99 1781.28C1076.55 1794.01 1079.45 1807.65 1079.09 1821.01C1071.84 1823.04 1064.45 1824.03 1057.12 1824.03ZM546.123 862.453C541.713 860.253 536.874 859.187 532.042 859.187C529.363 859.187 526.687 859.507 524.086 860.16L530.523 836.333C534.241 822.587 545.49 816.627 554.774 815.64C555.758 815.533 556.766 815.48 557.802 815.48C558.135 815.48 558.471 815.493 558.809 815.493L546.123 862.453" fill="#BDF3B3"/>
<path d="M516.363 863.2L524.091 834.6C526.291 826.453 530.998 819.76 537.371 815.227C541.701 813.187 546.455 812.147 551.219 812.147C553.981 812.147 556.743 812.493 559.429 813.2L558.809 815.493C558.471 815.493 558.135 815.48 557.802 815.48C556.766 815.48 555.758 815.533 554.774 815.64C545.49 816.627 534.241 822.587 530.523 836.333L524.086 860.16C521.403 860.84 518.801 861.853 516.363 863.2V863.2ZM569.468 817.92C568.026 817.28 566.559 816.773 565.091 816.4L565.351 815.44C566.773 816.147 568.151 816.973 569.468 817.92" fill="#9999C7"/>
<path d="M1036.27 1877.13C1006.53 1877.13 977.839 1860.93 963.266 1832.68L546.815 1024.93C527.994 988.427 523.498 946.213 534.209 906.56L546.123 862.453C548.243 863.507 550.263 864.827 552.137 866.4C545.509 902.173 550.899 939.28 567.685 971.84L984.146 1779.59C997.266 1805.04 1021.84 1820.69 1048.32 1823.55L1050.76 1828.29C1057.99 1842.31 1060.69 1857.4 1059.59 1872.04C1071.73 1857.72 1078.59 1839.64 1079.09 1821.01C1080.23 1820.69 1081.36 1820.36 1082.48 1819.99C1082.37 1827.67 1081.12 1835.36 1078.71 1842.88C1075 1854.51 1068.79 1864.88 1060.57 1873.43C1052.57 1875.93 1044.37 1877.13 1036.27 1877.13" fill="#3E9C50"/>
<path d="M1060.57 1873.43C1068.79 1864.88 1075 1854.51 1078.71 1842.88C1081.12 1835.36 1082.37 1827.67 1082.48 1819.99C1083.57 1819.63 1084.65 1819.25 1085.73 1818.85C1085.73 1837.85 1079.11 1856.4 1066.99 1871.13C1064.87 1872 1062.73 1872.76 1060.57 1873.43V1873.43ZM565.35 815.44C563.445 814.48 561.458 813.733 559.428 813.2L559.677 812.28C561.785 812.4 563.886 812.707 565.941 813.253L565.35 815.44Z" fill="#000072"/>
<path d="M1059.59 1872.04C1060.69 1857.4 1057.99 1842.31 1050.76 1828.29L1048.32 1823.55C1051.24 1823.87 1054.17 1824.03 1057.12 1824.03C1064.45 1824.03 1071.84 1823.04 1079.09 1821.01C1078.59 1839.64 1071.73 1857.72 1059.59 1872.04V1872.04ZM552.136 866.4C550.263 864.827 548.243 863.507 546.123 862.453L558.808 815.493C560.854 815.573 562.972 815.853 565.091 816.4L555.079 853.467C553.92 857.747 552.94 862.067 552.136 866.4Z" fill="#84AA9F"/>
<path d="M565.091 816.4C562.973 815.853 560.854 815.573 558.809 815.493L559.429 813.2C561.459 813.733 563.446 814.48 565.351 815.44L565.091 816.4" fill="#6B6BAD"/>
<path d="M620.145 1212.52C608.559 1212.52 596.368 1210.96 583.589 1207.47C574.845 1205.07 569.696 1196.04 572.091 1187.29C574.48 1178.56 583.504 1173.39 592.26 1175.79C674.999 1198.44 719.372 1116.04 721.225 1112.52C725.425 1104.51 735.345 1101.39 743.372 1105.59C751.385 1109.77 754.519 1119.65 750.345 1127.68C733.532 1160.07 687.252 1212.52 620.145 1212.52Z" fill="#000072"/>
<path d="M792.866 1546.37C781.28 1546.37 769.093 1544.81 756.306 1541.31C747.573 1538.92 742.413 1529.88 744.813 1521.15C747.2 1512.4 756.213 1507.24 764.987 1509.64C847.693 1532.29 892.093 1449.88 893.946 1446.36C898.16 1438.35 908.066 1435.24 916.093 1439.43C924.106 1443.63 927.24 1453.49 923.066 1461.53C906.253 1493.92 859.973 1546.37 792.866 1546.37" fill="#000072"/>
<path d="M557.95 838.413C557.715 838.413 557.462 838.427 557.201 838.44C553.607 838.827 552.898 841.453 552.664 842.32L527.02 937.253C518.002 970.653 521.765 1005.97 537.618 1036.73L954.078 1844.48C960.918 1857.73 972.491 1867.53 986.705 1872.07C1000.89 1876.61 1016.01 1875.35 1029.28 1868.52C1042.53 1861.68 1052.33 1850.09 1056.86 1835.89C1061.41 1821.69 1060.14 1806.57 1053.3 1793.32L562.462 841.28C562.078 840.547 560.977 838.413 557.95 838.413V838.413ZM1003.81 1927.32C992.718 1927.32 981.571 1925.59 970.705 1922.12C943.131 1913.31 920.652 1894.28 907.385 1868.56L490.925 1060.81C469.044 1018.37 463.856 969.627 476.304 923.547L501.948 828.613C508.217 805.4 527.722 788.747 551.642 786.213C575.529 783.653 598.133 795.827 609.158 817.2L1100 1769.24C1113.26 1794.97 1115.72 1824.32 1106.9 1851.89C1098.09 1879.47 1079.08 1901.95 1053.34 1915.21C1037.77 1923.25 1020.85 1927.32 1003.81 1927.32" fill="#000072"/>
</svg>
