<svg width="200" viewBox="0 0 2976 3719" fill="none" xmlns="http://www.w3.org/2000/svg">
<path d="M1473.33 3718.33C659.64 3718.33 0 3622.51 0 3504.29C0 3459.11 96.4533 3417.17 261.04 3382.63C280.533 3411.29 306.827 3438.25 342.2 3460.33C395.867 3493.93 470.467 3516.2 573.933 3516.2H2390.53C2559.53 3516.2 2651.51 3456.72 2701.12 3385.95C2856.27 3419.84 2946.67 3460.53 2946.67 3504.29C2946.67 3622.51 2287.03 3718.33 1473.33 3718.33Z" fill="#DCDCDC"/>
<path d="M1051.67 2274.4C1051.67 2274.4 1043.73 2281.87 1029.8 2296.73C966.599 2364.47 780.466 2585.87 667.133 2951.27C646.799 3016.73 598.666 3070.93 534.333 3094.73C461.399 3121.73 365.799 3112.13 285.466 2953.47C280.666 2944.07 275.933 2934.13 271.266 2923.6C259.333 2896.73 252.733 2867.87 251.866 2838.53C248.199 2718.4 262.866 2378.33 517.333 2116.8C563.666 2069.13 617.999 2024.07 681.666 1983.4L887.599 2145.4L1051.67 2274.4Z" fill="#D68650"/>
<path d="M679.974 2022.63C297.507 2280.24 279.854 2710.27 283.734 2837.56C284.507 2862.85 290.107 2887.45 300.4 2910.64C360.24 3045.52 435.214 3097.39 523.254 3064.84C576.48 3045.15 618.88 2999.16 636.667 2941.79C750.947 2573.31 936 2350.56 1004.03 2277.52L679.974 2022.63V2022.63ZM473.427 3138.04C402.84 3138.05 313.774 3098.07 242.094 2936.51C228.44 2905.72 221 2873.08 219.974 2839.49C215.787 2701.65 235.427 2230.56 664.507 1956.51C675.934 1949.2 690.734 1949.93 701.387 1958.32L1071.39 2249.36C1078.69 2255.11 1083.13 2263.75 1083.53 2273.04C1083.95 2282.31 1080.29 2291.29 1073.52 2297.65C1071.12 2299.92 831.334 2529.44 697.6 2960.68C673.974 3036.85 617.08 3098.15 545.374 3124.67C525.614 3131.97 500.92 3138.04 473.427 3138.04" fill="#650000"/>
<path d="M2940.53 1883.33C2937.67 1912.53 2929.2 1940.93 2915.53 1966.87C2860.87 2070.6 2688.07 2347.8 2354.53 2456.27C2283.8 2479.33 2205.8 2494.73 2120.2 2499.33L2003.4 2214.4L1958.07 2103.93L1941.6 2063.73C1941.6 2063.73 2270 1983.8 2609.67 1664.2C2616.13 1658.13 2622.93 1652.4 2630 1647.2C2677.33 1611.73 2737 1595.2 2795.93 1604.73C2825.53 1609.53 2855.33 1620.73 2880.33 1642.8C2924.13 1681.47 2953.2 1753.53 2940.53 1883.33Z" fill="#D68650"/>
<path d="M2349.92 2423.95C2348.91 2417.96 2347.68 2411.19 2346.24 2403.64C2338.77 2362.96 2331.8 2338.93 2331.8 2338.93C2331.8 2338.93 2328.07 2299.27 2355.27 2293.6C2356.71 2293.29 2358.13 2293.15 2359.53 2293.15C2364.72 2293.15 2369.6 2295.13 2374.08 2298.27C2389.49 2309.05 2407.56 2314.2 2425.79 2314.2C2443.27 2314.2 2460.89 2309.47 2476.52 2300.41C2611.55 2222.19 2883.76 2023.75 2882.81 1695.73C2908.05 1736.95 2916.77 1798.57 2908.79 1880.21C2906.31 1905.47 2899.08 1929.63 2887.28 1952.01C2837.73 2046.11 2671.16 2316.45 2349.92 2423.95" fill="#B45E38"/>
<path d="M1984.56 2084.53L2140.99 2465.99C2600.72 2430.23 2827.95 2064.71 2887.28 1952.01C2899.08 1929.63 2906.31 1905.47 2908.79 1880.21C2923.16 1733.35 2883.47 1651.27 2790.81 1636.24C2734.79 1627.13 2675.23 1646.28 2631.49 1687.44C2350.52 1951.8 2079.73 2054.48 1984.56 2084.53ZM2120.17 2531.2C2107.29 2531.2 2095.6 2523.43 2090.67 2511.4L1912.07 2075.85C1908.53 2067.25 1908.93 2057.55 1913.16 2049.27C1917.37 2041 1924.99 2034.97 1934 2032.77C1937.21 2031.97 2258.96 1950.37 2587.79 1640.97C2645.87 1586.35 2725.59 1561 2801.04 1573.28C2875.25 1585.32 2996.19 1642.01 2972.27 1886.43C2968.99 1919.93 2959.39 1952 2943.72 1981.73C2879.45 2103.77 2630.28 2504.03 2121.88 2531.15C2121.31 2531.17 2120.73 2531.2 2120.17 2531.2" fill="#650000"/>
<path d="M2390.53 3516.2H573.933C470.466 3516.2 395.866 3493.93 342.2 3460.33C179.4 3358.73 208.933 3153.8 208.933 3153.8C216.333 3053.33 246.266 2991.07 285.466 2953.47C384.533 2858.27 542.4 2920.73 542.4 2920.73C583.466 2884.53 645 2884.53 645 2884.53C551.8 2617.93 632.666 2338.93 632.666 2338.93C632.666 2338.93 643.866 2286.33 724 2227.4C761.466 2199.87 814.066 2170.93 887.6 2145.4C896.133 2142.4 904.933 2139.47 914.066 2136.6C1039.73 2097.07 1221.07 2067.53 1482.27 2067.53C1482.27 2067.53 1724.4 2046.4 1958.07 2103.93C1987.47 2111.2 2016.8 2119.67 2045.47 2129.6C2077.33 2140.67 2108.33 2153.47 2137.93 2168.4C2217.67 2208.47 2286.8 2263.6 2331.8 2338.93C2331.8 2338.93 2345 2384.47 2354.53 2456.27C2368.73 2562.27 2375 2725.6 2319.47 2884.53C2319.47 2884.53 2381 2884.53 2422.07 2920.73C2422.07 2920.73 2729.47 2799.13 2755.53 3153.8C2755.53 3153.8 2807.67 3516.2 2390.53 3516.2Z" fill="#D68650"/>
<path d="M2176.23 2540.88C2176.23 2929.64 1865.52 3244.79 1482.24 3244.79C1098.95 3244.79 788.24 2929.64 788.24 2540.88C788.24 2390.43 834.787 2250.99 914.054 2136.6C1039.75 2097.05 1221.05 2067.55 1482.24 2067.55C1482.24 2067.55 1789.17 2040.72 2045.48 2129.61C2127.8 2245.32 2176.23 2387.32 2176.23 2540.88" fill="#FFB98A"/>
<path d="M580.508 3198.08C580.508 3296.33 517.041 3375.97 438.734 3375.97C360.428 3375.97 296.961 3296.33 296.961 3198.08C296.961 3099.84 360.428 3020.2 438.734 3020.2C517.041 3020.2 580.508 3099.84 580.508 3198.08Z" fill="#FFB98A"/>
<path d="M2383.96 3198.08C2383.96 3296.33 2447.44 3375.97 2525.73 3375.97C2604.04 3375.97 2667.52 3296.33 2667.52 3198.08C2667.52 3099.84 2604.04 3020.2 2525.73 3020.2C2447.44 3020.2 2383.96 3099.84 2383.96 3198.08Z" fill="#FFB98A"/>
<path d="M2720.96 3353.01C2770.36 3256.83 2755.53 3153.8 2755.53 3153.8C2755.37 3151.64 2755.2 3149.45 2755.03 3147.33C2755.21 3149.45 2755.39 3151.6 2755.55 3153.77C2755.55 3153.77 2770.36 3256.83 2720.96 3353.01V3353.01ZM206.867 3187.15C207.094 3166.49 208.934 3153.77 208.934 3153.77C209.054 3152.09 209.187 3150.43 209.321 3148.77C209.187 3150.43 209.054 3152.11 208.934 3153.8C208.934 3153.8 207.107 3166.49 206.867 3187.15" fill="#3A9A9A"/>
<path d="M2390.51 3516.2H573.96C470.48 3516.2 395.893 3493.93 342.226 3460.35C219.96 3384.04 206.16 3249.45 206.866 3187.15C207.106 3166.49 208.933 3153.8 208.933 3153.8C209.053 3152.11 209.186 3150.43 209.32 3148.77C209.866 3142.36 210.52 3136.13 211.226 3130.01C221.293 3197.17 252.586 3284.4 342.226 3340.35C354.733 3348.17 368.386 3355.39 383.266 3361.85C392.373 3366.71 401.946 3370.4 411.906 3372.8C455.946 3387.51 509.32 3396.2 573.96 3396.2H2390.51C2455.12 3396.2 2508.48 3387.51 2552.51 3372.81C2562.47 3370.43 2572.05 3366.72 2581.16 3361.87C2702.64 3309.23 2741.76 3206.6 2753.25 3130.08C2753.91 3135.72 2754.51 3141.45 2755.03 3147.33C2755.2 3149.45 2755.37 3151.64 2755.53 3153.8C2755.53 3153.8 2770.36 3256.83 2720.96 3353.01C2677.71 3437.24 2585.24 3516.2 2390.51 3516.2Z" fill="#B45E38"/>
<path d="M411.906 3372.8C401.946 3370.4 392.372 3366.71 383.266 3361.85C392.346 3365.79 401.879 3369.45 411.906 3372.8Z" fill="#D08160"/>
<path d="M2552.51 3372.81C2562.53 3369.47 2572.08 3365.81 2581.16 3361.87C2572.05 3366.72 2562.47 3370.43 2552.51 3372.81Z" fill="#D08160"/>
<path d="M310.894 2933.12C307.347 2925.91 303.84 2918.41 300.4 2910.64C290.107 2887.45 284.507 2862.85 283.734 2837.56C283.267 2822.05 283.107 2802.08 283.894 2778.45C285.014 2779.2 286.174 2779.95 287.36 2780.69C308.307 2793.72 331.054 2799.71 353.4 2799.71C413.4 2799.71 470.507 2756.61 482.187 2691.4C501.84 2581.64 545.387 2410.33 632.654 2338.97C632.614 2339.11 632.48 2339.6 632.24 2340.45C630.987 2344.88 627.147 2358.93 622.64 2381.07C604.347 2468.87 573.614 2680.33 645 2884.53C645 2884.53 644.947 2884.53 644.854 2884.53C644.107 2884.41 640.947 2883.97 635.8 2883.97C623.56 2883.97 600.12 2886.48 571.254 2901.88C561.374 2906.63 551.6 2912.69 542.774 2920.4C542.64 2920.51 542.52 2920.6 542.387 2920.71C542.387 2920.71 500.507 2899.76 440.774 2899.76C433.067 2899.76 425.054 2900.11 416.8 2900.89C381.907 2902.49 344.387 2911 310.894 2933.12" fill="#B45E38"/>
<path d="M285.44 2953.48C285.44 2953.48 236.866 2884.57 253.28 2748.28C253.28 2748.28 261.92 2763.8 283.893 2778.45C283.106 2802.08 283.266 2822.05 283.733 2837.56C284.506 2862.85 290.106 2887.45 300.4 2910.64C303.84 2918.41 307.346 2925.91 310.893 2933.12C302.106 2938.92 293.6 2945.64 285.493 2953.44C285.48 2953.45 285.453 2953.47 285.44 2953.48" fill="#650000"/>
<path d="M285.494 2953.44C293.601 2945.64 302.107 2938.92 310.894 2933.12C344.387 2911 381.907 2902.49 416.801 2900.89C376.841 2904.71 331.121 2918.81 285.494 2953.44ZM542.774 2920.4C551.601 2912.69 561.374 2906.63 571.254 2901.88C562.227 2906.69 552.681 2912.76 542.774 2920.4ZM645.027 2884.56C645.027 2884.56 644.974 2884.55 644.854 2884.53C644.947 2884.53 645.001 2884.53 645.001 2884.53C573.614 2680.33 604.347 2468.87 622.641 2381.07C605.814 2463.81 579.761 2659.32 645.027 2884.56ZM632.241 2340.45C632.481 2339.6 632.614 2339.11 632.654 2338.97C632.667 2338.96 632.667 2338.96 632.681 2338.96C632.681 2338.96 632.521 2339.47 632.241 2340.45" fill="#B45E38"/>
<path d="M449.066 2145.16C445.839 2142.81 442.666 2140.44 439.506 2138.07C458.573 2118.45 478.892 2099.27 500.546 2080.59C502.079 2081.68 503.626 2082.77 505.173 2083.87C485.106 2103.85 466.439 2124.33 449.066 2145.16Z" fill="#3A9A9A"/>
<path d="M681.387 2263.99C674.64 2261.64 667.974 2259.24 661.4 2256.81C602.027 2234.83 549.307 2209.29 502.547 2180.83C520.387 2159.8 539.627 2139.19 560.427 2119.11C619.374 2153.28 685.654 2181.6 759.187 2204.04C746.187 2211.87 734.494 2219.68 724 2227.4C706.814 2240.04 692.8 2252.39 681.387 2263.99" fill="#B45E38"/>
<path d="M502.546 2180.83C483.773 2169.4 465.96 2157.49 449.066 2145.16C466.44 2124.33 485.106 2103.85 505.173 2083.87C522.826 2096.24 541.226 2107.97 560.426 2119.11C539.626 2139.19 520.386 2159.8 502.546 2180.83" fill="#650000"/>
<path d="M2181.65 2192.61C2167.52 2183.99 2152.91 2175.93 2137.93 2168.4C2120.51 2159.61 2102.59 2151.56 2084.29 2144.16C2328.32 2058.03 2496.48 1928.31 2586.49 1756.05C2591.24 1746.99 2595.72 1737.88 2599.95 1728.72C2628.43 1704.73 2657.19 1679.23 2685.99 1652.12C2686.81 1651.35 2687.65 1650.57 2688.49 1649.8C2694.21 1647.32 2700.03 1645.11 2705.91 1643.2C2661.12 1854.96 2516.51 2059.04 2181.65 2192.61" fill="#B45E38"/>
<path d="M2688.49 1649.8C2694.68 1644.15 2701.13 1638.79 2707.83 1633.87C2707.21 1636.97 2706.57 1640.09 2705.91 1643.2C2700.03 1645.11 2694.21 1647.32 2688.49 1649.8Z" fill="#650000"/>
<path d="M828.2 2304.92C775.387 2293.45 726.547 2279.72 681.387 2263.99C692.8 2252.39 706.813 2240.04 724 2227.4C734.493 2219.68 746.187 2211.87 759.187 2204.04C791.213 2213.8 824.64 2222.47 859.413 2230C847.653 2254.21 837.2 2279.23 828.2 2304.92ZM2101.16 2222.13C2089.05 2197.99 2075.6 2174.64 2060.91 2152.2C2068.79 2149.56 2076.57 2146.88 2084.29 2144.16C2102.59 2151.56 2120.51 2159.61 2137.93 2168.4C2152.91 2175.93 2167.52 2183.99 2181.65 2192.61C2180.95 2192.89 2180.21 2193.19 2179.51 2193.47C2154.44 2203.45 2128.35 2213 2101.16 2222.13" fill="#B45E38"/>
<path d="M1246.73 2345C1153.61 2345 1068.16 2340.23 989.733 2331.25C932.173 2324.68 878.399 2315.81 828.199 2304.92C837.199 2279.23 847.652 2254.21 859.412 2230C976.346 2255.35 1108.76 2268.05 1256.41 2268.05C1334.92 2268.05 1417.83 2264.45 1504.91 2257.25C1719.61 2239.49 1905.12 2204.4 2060.91 2152.2C2075.6 2174.64 2089.05 2197.99 2101.16 2222.13C2079.81 2229.31 2057.79 2236.21 2035.05 2242.85C1890.25 2285.16 1717.25 2316.44 1511.32 2333.47C1416.93 2341.28 1328.85 2345 1246.73 2345" fill="#D08160"/>
<path d="M556.799 2892.28C560.079 2893.93 561.933 2894.96 564.306 2896.28L570.799 2900.07C575.066 2902.61 579.146 2905.29 583.133 2908.08C591.133 2913.61 598.839 2919.44 606.133 2925.76C620.906 2938.19 634.346 2952.17 646.466 2967.31C658.546 2982.47 669.053 2998.96 677.959 3016.29C686.693 3033.72 693.386 3052.17 698.226 3070.95C702.933 3089.76 705.666 3109.01 706.146 3128.11L706.439 3135.27L706.293 3142.4C706.186 3147.15 706.053 3151.91 705.746 3156.63C704.719 3166.01 704.039 3175.44 701.999 3184.59C695.106 3221.39 681.173 3255.91 660.919 3285.88C658.839 3288.96 654.666 3289.76 651.599 3287.68C649.386 3286.19 648.346 3283.6 648.706 3281.12L648.719 3281.08C653.986 3246.25 658.159 3212.83 658.226 3180.28C658.479 3147.84 654.519 3116.19 643.826 3087.11C633.719 3057.89 617.506 3031.29 597.293 3007.95C587.279 2996.17 576.039 2985.39 564.186 2975.35C558.253 2970.33 552.106 2965.59 545.893 2961.07C542.773 2958.81 539.599 2956.67 536.493 2954.57L531.853 2951.55L527.959 2949.17L525.866 2947.89C510.853 2938.73 506.106 2919.15 515.266 2904.12C523.946 2889.88 542.146 2884.93 556.799 2892.28" fill="#650000"/>
<path d="M2436.52 2949.17L2432.63 2951.55L2427.97 2954.57C2424.88 2956.67 2421.69 2958.81 2418.59 2961.07C2412.36 2965.59 2406.21 2970.33 2400.28 2975.35C2388.43 2985.39 2377.19 2996.17 2367.17 3007.95C2346.96 3031.29 2330.75 3057.89 2320.65 3087.11C2309.95 3116.19 2305.99 3147.84 2306.24 3180.28C2306.31 3212.83 2310.48 3246.25 2315.75 3281.08L2315.76 3281.12C2316.31 3284.79 2313.79 3288.21 2310.12 3288.76C2307.48 3289.16 2304.96 3287.96 2303.55 3285.88C2283.31 3255.91 2269.37 3221.39 2262.47 3184.59C2260.43 3175.44 2259.76 3166.01 2258.72 3156.63C2258.43 3151.91 2258.28 3147.15 2258.17 3142.4L2258.03 3135.27L2258.33 3128.11C2258.81 3109.01 2261.53 3089.76 2266.25 3070.95C2271.08 3052.17 2277.79 3033.72 2286.51 3016.29C2295.41 2998.96 2305.92 2982.47 2318 2967.31C2330.12 2952.17 2343.56 2938.19 2358.33 2925.76C2365.63 2919.44 2373.33 2913.61 2381.35 2908.08C2385.33 2905.29 2389.4 2902.61 2393.67 2900.07L2400.17 2896.28C2402.55 2894.96 2404.39 2893.93 2407.68 2892.28C2423.37 2884.36 2442.53 2890.67 2450.45 2906.36C2457.97 2921.27 2452.68 2939.25 2438.71 2947.83L2436.52 2949.17" fill="#650000"/>
<path d="M674.88 2873.27C678.694 2880.25 681.934 2889.13 684.947 2897.44C687.867 2905.97 690.534 2914.67 692.987 2923.56C695.44 2932.47 697.787 2941.48 699.44 2951.08C700.907 2960.84 702.574 2970.57 702.44 2982.15L702.427 2982.32C702.387 2985.55 699.747 2988.12 696.52 2988.08C695.84 2988.08 695.16 2987.95 694.56 2987.72C683.627 2983.65 674.667 2977.63 666.44 2971.04C658.267 2964.4 651.254 2956.87 644.88 2948.95C638.48 2941.04 632.667 2932.73 627.627 2924C622.654 2915.08 618.294 2906.53 615.214 2895.83C610.32 2878.85 620.107 2861.15 637.08 2856.25C651.734 2852.03 666.96 2858.76 673.974 2871.61L674.88 2873.27" fill="#650000"/>
<path d="M2349.27 2895.83C2346.17 2906.53 2341.81 2915.08 2336.84 2924C2331.81 2932.73 2326 2941.04 2319.59 2948.95C2313.21 2956.87 2306.2 2964.4 2298.04 2971.04C2289.8 2977.63 2280.85 2983.65 2269.92 2987.72C2266.89 2988.84 2263.53 2987.31 2262.4 2984.28C2262.17 2983.64 2262.05 2982.99 2262.04 2982.35V2982.15C2261.91 2970.57 2263.56 2960.84 2265.03 2951.08C2266.69 2941.48 2269.04 2932.47 2271.49 2923.56C2273.93 2914.67 2276.6 2905.97 2279.53 2897.44C2282.53 2889.13 2285.77 2880.25 2289.6 2873.27L2290.49 2871.64C2298.96 2856.15 2318.39 2850.45 2333.88 2858.92C2347.27 2866.24 2353.32 2881.75 2349.27 2895.83" fill="#650000"/>
<path d="M2346.21 2334.77C2354.95 2357.45 2361.43 2379.77 2367.43 2402.69C2370.36 2414.11 2372.81 2425.61 2375.53 2437.12L2382.17 2471.88L2387.44 2506.91C2388.92 2518.63 2390.15 2530.39 2391.43 2542.16C2392.79 2553.92 2393.07 2565.77 2393.93 2577.6L2394.99 2595.37L2395.23 2613.17C2395.17 2625.05 2395.79 2636.95 2395.19 2648.84C2394.76 2660.73 2394.32 2672.65 2393.71 2684.55C2393.04 2696.45 2391.51 2708.32 2390.44 2720.23L2388.59 2738.05C2387.81 2743.99 2386.69 2749.88 2385.76 2755.8L2379.73 2791.24L2371.27 2826.28L2366.84 2843.73L2361.21 2860.91C2357.44 2872.35 2353.52 2883.73 2349.53 2895.07L2319.43 2852.65H2319.44C2323.33 2852.71 2325.64 2852.85 2328.53 2853.04C2331.28 2853.23 2333.99 2853.48 2336.65 2853.76C2342 2854.33 2347.27 2855.11 2352.52 2856.01C2363.04 2857.88 2373.47 2860.48 2383.84 2863.88C2394.21 2867.17 2404.48 2871.68 2414.49 2877C2424.55 2882.28 2434.11 2889.17 2443.17 2896.8L2410.36 2891.07C2413.97 2889.68 2416.39 2888.87 2419.28 2887.88L2427.52 2885.25C2433 2883.57 2438.45 2882.07 2443.93 2880.65C2454.89 2877.8 2465.96 2875.6 2477.11 2873.65C2499.45 2870.03 2522.28 2868.21 2545.47 2868.97C2568.61 2869.75 2592.16 2873.16 2615.15 2880.28C2638.09 2887.36 2660.37 2898.32 2680.04 2912.92C2699.75 2927.47 2716.61 2945.47 2730.43 2965.03C2743.68 2984.89 2754.28 3005.95 2762.27 3027.51C2778.45 3070.6 2784.28 3115.43 2788 3157.49C2790.07 3180.63 2789.8 3202.77 2788.15 3225.24C2786.39 3247.59 2782.87 3269.88 2777.41 3291.87C2771.92 3313.84 2764.37 3335.49 2754.65 3356.32C2744.95 3377.12 2733.15 3397.24 2718.72 3415.48C2704.44 3433.75 2688.31 3450.83 2670.05 3465.13C2661.29 3472.81 2651.44 3478.87 2642 3485.53C2637.16 3488.64 2632.09 3491.36 2627.13 3494.27C2622.13 3497.09 2617.24 3500.16 2612.01 3502.44C2571.03 3522.83 2527.23 3534.87 2483.63 3541.32L2467.25 3543.76L2450.88 3545.2C2439.96 3546.13 2429.03 3547.28 2418.17 3547.33C2407.39 3547.57 2396.2 3548.05 2385.76 3548.08H2354.61H2229.99H1980.73H1482.24H983.734H734.494H609.867H578.707C568.28 3548.05 557.08 3547.57 546.307 3547.33C535.44 3547.28 524.507 3546.13 513.6 3545.2L497.227 3543.76L480.84 3541.32C437.24 3534.87 393.44 3522.83 352.454 3502.44C347.227 3500.16 342.334 3497.09 337.334 3494.27C332.374 3491.36 327.32 3488.64 322.467 3485.53C313.04 3478.87 303.174 3472.81 294.427 3465.13C276.16 3450.83 260.04 3433.75 245.747 3415.48C231.32 3397.24 219.534 3377.12 209.814 3356.32C200.094 3335.49 192.547 3313.84 187.054 3291.87C181.614 3269.88 178.094 3247.59 176.334 3225.24C174.667 3202.77 174.4 3180.63 176.467 3157.49C180.187 3115.43 186.027 3070.6 202.214 3027.51C210.187 3005.95 220.787 2984.89 234.04 2965.03C247.854 2945.47 264.72 2927.47 284.44 2912.92C304.094 2898.32 326.387 2887.36 349.334 2880.28C372.307 2873.16 395.854 2869.75 419 2868.97C442.187 2868.21 465.014 2870.03 487.36 2873.65C498.507 2875.6 509.587 2877.8 520.534 2880.65C526.014 2882.07 531.48 2883.57 536.947 2885.25L545.2 2887.88C548.094 2888.87 550.494 2889.68 554.107 2891.07L521.294 2896.8C530.36 2889.17 539.934 2882.28 549.987 2877C560 2871.68 570.267 2867.17 580.627 2863.88C591 2860.48 601.44 2857.88 611.947 2856.01C617.214 2855.11 622.48 2854.33 627.827 2853.76C630.494 2853.48 633.187 2853.23 635.934 2853.04C638.84 2852.85 641.134 2852.71 645.04 2852.65L614.934 2895.07C611.294 2883.61 607.44 2872.21 603.987 2860.69L598.707 2843.44L594.56 2825.93L586.387 2790.89L580.774 2755.47C579.88 2749.56 578.8 2743.67 578.08 2737.75L576.387 2719.95C575.387 2708.07 573.92 2696.23 573.334 2684.35L571.974 2648.72C571.414 2636.85 572.067 2624.99 572.067 2613.15L572.294 2595.39L573.267 2577.67C574.147 2565.87 574.44 2554.05 575.814 2542.31C577.054 2530.56 578.107 2518.83 579.494 2507.12C581.054 2495.44 582.667 2483.76 584.507 2472.13C588.507 2448.92 593.374 2425.87 599.88 2403.2C606.347 2380.49 613.827 2358.27 624.12 2336.48C626.254 2331.99 631.614 2330.07 636.094 2332.19C639.56 2333.83 641.494 2337.39 641.227 2341L641.187 2341.41C637.614 2387.05 633.507 2432.44 630.654 2477.51C630.2 2488.81 629.534 2500.08 628.814 2511.32L627.84 2545.12C627.347 2556.36 627.947 2567.63 627.934 2578.85L628.054 2595.69L628.827 2612.49C629.494 2623.68 629.494 2634.91 630.694 2646.03L633.614 2679.41C634.627 2690.53 636.494 2701.52 637.88 2712.56L640.094 2729.11C640.907 2734.6 642.067 2740.03 643.04 2745.49C649.84 2789.48 662.28 2831.89 675.147 2874.03L675.52 2875.25C680.667 2892.09 671.187 2909.91 654.36 2915.04C651.307 2915.99 648.08 2916.43 645.04 2916.44L640.294 2916.68C638.44 2916.8 636.534 2916.97 634.6 2917.19C630.76 2917.59 626.88 2918.17 623.04 2918.83C615.347 2920.19 607.814 2922.09 600.614 2924.44C593.36 2926.72 586.667 2929.77 580.36 2933.08C574 2936.37 568.614 2940.49 563.454 2944.65L563.294 2944.79C553.8 2952.45 541.374 2954.15 530.64 2950.39L524.88 2948.33L518.294 2946.24C513.827 2944.88 509.28 2943.63 504.707 2942.44C495.547 2940.05 486.227 2938.23 476.92 2936.57C458.28 2933.56 439.507 2932.11 421.16 2932.72C384.44 2933.84 349.6 2943.79 322.307 2964.24C308.6 2974.37 296.72 2986.99 286.507 3001.31C276.774 3016.08 268.467 3032.24 262.027 3049.67C248.854 3084.57 243.507 3122.96 239.974 3163.47C236.88 3200.49 239.907 3240 248.947 3276.48C253.547 3294.8 259.774 3312.55 267.614 3329.35C275.467 3346.15 284.8 3362.13 296.2 3376.47C307.494 3390.84 320.04 3404.28 334.547 3415.55C341.374 3421.67 349.387 3426.4 356.84 3431.8C360.72 3434.29 364.867 3436.45 368.84 3438.81C372.894 3441.09 376.774 3443.63 381.107 3445.45C414.587 3462.09 451.8 3472.56 490.28 3478.24L504.707 3480.43L519.374 3481.68C529.147 3482.51 538.894 3483.59 548.827 3483.6C558.814 3483.8 568.374 3484.27 578.707 3484.29H609.867H734.494H983.734H1482.24H1980.73H2229.99H2354.61H2385.76C2396.11 3484.27 2405.67 3483.8 2415.65 3483.6C2425.59 3483.59 2435.32 3482.51 2445.11 3481.68L2459.76 3480.43L2474.2 3478.24C2512.67 3472.56 2549.89 3462.09 2583.36 3445.45C2587.69 3443.63 2591.57 3441.09 2595.63 3438.81C2599.61 3436.45 2603.75 3434.29 2607.63 3431.8C2615.08 3426.4 2623.09 3421.67 2629.92 3415.55C2644.44 3404.28 2656.97 3390.84 2668.27 3376.47C2679.67 3362.13 2689.01 3346.15 2696.85 3329.35C2704.71 3312.55 2710.93 3294.8 2715.52 3276.48C2724.56 3240 2727.59 3200.49 2724.49 3163.47C2720.96 3122.96 2715.61 3084.57 2702.45 3049.67C2696 3032.24 2687.71 3016.08 2677.97 3001.31C2667.75 2986.99 2655.87 2974.37 2642.16 2964.24C2614.88 2943.79 2580.03 2933.84 2543.32 2932.72C2524.97 2932.11 2506.2 2933.56 2487.55 2936.57C2478.24 2938.23 2468.92 2940.05 2459.76 2942.44C2455.2 2943.63 2450.64 2944.88 2446.19 2946.24L2439.59 2948.33L2433.83 2950.39C2422.32 2954.45 2410.08 2951.95 2401.21 2944.83L2401.01 2944.65C2395.87 2940.49 2390.48 2936.37 2384.11 2933.08C2377.8 2929.77 2371.12 2926.72 2363.85 2924.44C2356.65 2922.09 2349.12 2920.19 2341.44 2918.83C2337.59 2918.17 2333.71 2917.59 2329.87 2917.19C2327.95 2916.97 2326.04 2916.8 2324.17 2916.68L2319.43 2916.44C2301.85 2916.44 2287.61 2902.2 2287.61 2884.63C2287.61 2881.85 2287.96 2879.17 2288.63 2876.61L2289.32 2874.03C2292.16 2863.33 2295.05 2852.71 2298.11 2842.13L2302.69 2826.28L2306.28 2810.12L2313.71 2777.87L2319.37 2745.16C2320.31 2739.71 2321.41 2734.28 2322.19 2728.8L2324.24 2712.28C2325.55 2701.25 2327.35 2690.29 2328.29 2679.2C2329.11 2668.11 2330.09 2657.01 2331.09 2645.91C2332.25 2634.81 2332.21 2623.61 2332.84 2612.47L2333.61 2595.71L2333.81 2578.91C2333.79 2567.71 2334.37 2556.48 2333.87 2545.27L2333.2 2511.53L2331.61 2477.76C2328.84 2432.88 2324.16 2387.27 2317.41 2343.12L2317.31 2342.45C2316.05 2334.24 2321.69 2326.56 2329.91 2325.31C2337.03 2324.23 2343.73 2328.32 2346.21 2334.77" fill="#650000"/>
<path d="M1502.28 2225.47C3092.6 2093.97 2576.01 1047.92 2446.55 824.507C2432 799.4 2433.13 768.027 2450.04 744.454C2584.57 557 2574.36 401.067 2527.96 290.04C2474.4 161.84 2357.87 71.5604 2221.87 43.1737C1947.03 -14.213 1789.51 184.16 1733.68 273.854C1718.31 298.56 1689.84 311.707 1661 307.96C1503.28 287.467 1343.29 302.56 1343.29 302.56C1343.29 302.56 1182.99 313.947 1030.79 360.067C1002.95 368.507 972.706 360.214 953.493 338.374C883.679 259.067 695.719 89.2536 434.039 191C304.546 241.347 204.426 349.534 172.639 484.787C145.109 601.934 160.639 757.414 324.146 920.24C344.693 940.707 350.959 971.467 340.733 998.627C249.719 1240.27 -88.0328 2356.96 1502.28 2225.47" fill="#D68650"/>
<path d="M1934.55 1649.24C1949.65 1832 1748.45 1997.8 1485.15 2019.57C1221.85 2041.35 996.146 1910.84 981.04 1728.08C965.92 1545.32 1167.12 1379.51 1430.43 1357.73C1693.73 1335.96 1919.43 1466.47 1934.55 1649.24" fill="#FFB98A"/>
<path d="M475.88 752.214C522.76 688.974 620.573 569.747 759.027 466.4C780.88 450.094 782.587 418.094 763.04 399.08C703.986 341.654 574.293 256.667 411.4 397.147C411.4 397.147 241.013 546.627 405.573 753.56C423.693 776.36 458.546 775.614 475.88 752.214" fill="#FFB98A"/>
<path d="M2272.76 603.64C2216.13 548.947 2100.08 447.413 1946.52 368.213C1922.29 355.72 1915.35 324.427 1931.51 302.467C1980.33 236.12 2094.31 130.974 2278.05 242.8C2278.05 242.8 2470.68 362.253 2342.35 593.427C2328.21 618.88 2293.71 623.867 2272.76 603.64Z" fill="#FFB98A"/>
<path d="M1255.04 2204.35C843.173 2204.35 558.28 2103.03 406.6 1902.08C330.693 1801.51 295.506 1684.64 284.213 1568.44C384.413 1816.65 645.373 2024.29 1238.36 2024.29C1284.52 2024.29 1332.68 2023.04 1382.93 2020.45C1397.75 2021.44 1412.76 2021.95 1427.97 2021.95C1446.79 2021.95 1465.87 2021.17 1485.15 2019.57C1520 2016.69 1553.76 2011.29 1586.07 2003.65C2278.64 1924.83 2533.33 1658.96 2595.89 1377.28C2603.85 1493.77 2588.33 1614.81 2529.97 1726.51C2391.53 1991.41 2044.88 2148.6 1499.65 2193.68C1413.67 2200.8 1332.16 2204.35 1255.04 2204.35" fill="#B45E38"/>
<path d="M1427.97 2021.95C1412.76 2021.95 1397.75 2021.44 1382.93 2020.45C1415.93 2018.75 1449.92 2016.45 1484.76 2013.57C1519.55 2010.71 1553.28 2007.39 1586.07 2003.65C1553.76 2011.29 1520 2016.69 1485.15 2019.57C1465.87 2021.17 1446.79 2021.95 1427.97 2021.95Z" fill="#D08160"/>
<path d="M1123.03 470.32C1071.57 470.32 1031.11 457.533 1018.05 435.76C1012.59 436.947 1007.07 437.52 1001.59 437.52C979.867 437.52 958.747 428.44 943.934 411.614C887.281 347.254 755.787 225.56 571.401 225.56C519.574 225.56 463.547 235.174 403.854 258.387C369.201 271.854 336.601 289.334 306.721 310.24C345.361 272.12 392.454 241.387 445.587 220.734C498.507 200.16 548.214 191.627 594.321 191.627C760.227 191.627 879.107 302.147 929.547 359.454C949.854 382.507 979.054 395.187 1009.08 395.187C1019.41 395.187 1029.84 393.694 1040.03 390.587C1186.84 346.094 1343.99 334.48 1345.56 334.374C1345.79 334.36 1346.04 334.334 1346.28 334.32C1347.2 334.227 1402.76 329.147 1479.57 329.147C1532.27 329.147 1594.99 331.547 1656.88 339.587C1661.49 340.187 1666.08 340.48 1670.65 340.48C1707.01 340.48 1741.36 321.867 1760.75 290.72C1806.04 217.974 1925.33 64.9602 2126.85 64.9602C2154.76 64.9602 2184.27 67.8937 2215.35 74.387C2271.16 86.0403 2322.67 108.627 2367.04 139.88C2334.13 124.16 2299.11 112.28 2262.71 104.68C2227.57 97.3469 2194.29 94.0404 2162.81 94.0404C1938.29 94.0404 1806.04 262.747 1755.12 344.534C1740.95 367.32 1716.07 380.654 1689.68 380.654C1686.33 380.654 1682.95 380.427 1679.56 379.987C1613.25 371.374 1546.57 368.814 1490.65 368.814C1408.25 368.814 1349.23 374.387 1349.23 374.387C1349.23 374.387 1343.04 374.827 1332.01 375.867C1330.28 411.454 1267.23 450.16 1184.75 464.72C1163.2 468.52 1142.35 470.32 1123.03 470.32" fill="#F3DACA"/>
<path d="M1439.33 1985.39C1190.2 1985.37 1146.08 1790.79 1146.08 1790.79C988.386 1666.67 1100.11 1527.65 1100.11 1527.65C1100.11 1527.65 1124.53 1625.93 1238.87 1630.16C1241.92 1630.28 1244.89 1630.33 1247.79 1630.33C1308.67 1630.33 1334.49 1605.92 1345.09 1581.41C1368.43 1593.91 1399.33 1602.08 1440.21 1602.08C1443.65 1602.08 1447.15 1602.03 1450.72 1601.91C1496.4 1595.84 1528.68 1581.91 1551.41 1564.45C1563.25 1582.75 1585.09 1599.29 1625.4 1599.29C1636.77 1599.29 1649.63 1597.97 1664.13 1595C1776.21 1572.05 1784.17 1471.09 1784.17 1471.09C1784.17 1471.09 1917.21 1589.88 1782.04 1738.2C1782.04 1738.2 1769.21 1959.84 1482.17 1983.57C1467.25 1984.8 1453 1985.39 1439.33 1985.39" fill="#D08160"/>
<path d="M1684.35 1839.48C1655.83 1892.76 1597.39 1942.81 1479.64 1952.55C1361.91 1962.28 1296.04 1922.51 1259.08 1874.64C1211.44 1812.73 1212.09 1737.29 1212.09 1737.29C1212.09 1737.29 1418.91 1778.79 1450.65 1601.95C1510.95 1771.19 1708.2 1696.28 1708.2 1696.28C1708.2 1696.28 1721.25 1770.57 1684.35 1839.48" fill="#650000"/>
<path d="M1684.35 1839.48C1655.83 1892.76 1597.39 1942.81 1479.64 1952.55C1361.91 1962.28 1296.04 1922.51 1259.08 1874.64C1259.08 1874.64 1438.49 1684.44 1684.35 1839.48Z" fill="#F90030"/>
<path d="M1248.33 1773.12C1254.32 1802.29 1268.59 1843.73 1302.48 1874.97C1342.24 1911.64 1400.93 1927.03 1477 1920.76C1553.03 1914.47 1608.43 1889.63 1641.63 1846.93C1669.92 1810.56 1677.19 1767.35 1678.31 1737.57C1638.25 1745.93 1575.44 1751.73 1519.03 1725.68C1494.64 1714.41 1473.89 1698.48 1456.93 1678.05C1443.55 1700.99 1425.71 1720.11 1403.49 1735.23C1352.13 1770.21 1289.23 1774.77 1248.33 1773.12ZM1444.81 1985.91C1367.37 1985.92 1304.85 1964.25 1258.63 1921.31C1180.11 1848.36 1180.15 1741.55 1180.19 1737.04C1180.28 1727.53 1184.6 1718.56 1191.97 1712.56C1199.36 1706.57 1209.03 1704.17 1218.35 1706.05C1219.17 1706.21 1308.39 1723.04 1367.83 1682.35C1395.43 1663.45 1412.25 1635.29 1419.24 1596.29C1421.79 1582.05 1433.6 1571.32 1448 1570.13C1462.41 1568.96 1475.83 1577.59 1480.68 1591.21C1493.97 1628.55 1515.19 1653.55 1545.52 1667.65C1610.84 1698.03 1696.09 1666.77 1696.95 1666.45C1705.81 1663.13 1715.76 1663.92 1723.99 1668.63C1732.21 1673.33 1737.96 1681.44 1739.6 1690.79C1740.37 1695.23 1757.96 1800.57 1692.49 1885.43C1647.92 1943.2 1577.17 1976.47 1482.25 1984.32C1469.41 1985.39 1456.93 1985.91 1444.81 1985.91" fill="#650000"/>
<path d="M1450.72 1601.91C1572.13 1585.77 1598.89 1514.15 1603.24 1468.19C1605.99 1439.17 1587.96 1412.76 1559.93 1404.77C1507.64 1389.87 1433.76 1396.83 1433.76 1396.83C1433.76 1396.83 1357.49 1402.25 1308.4 1426.45C1283.83 1438.57 1271.11 1466.41 1277.79 1492.99C1288.99 1537.6 1326.41 1605.99 1450.72 1601.91" fill="#650000"/>
<path d="M1481.31 1588.87L1480.97 1595.33L1480.49 1600.84C1480.13 1604.45 1479.68 1607.99 1479.13 1611.49C1478.07 1618.52 1476.69 1625.45 1474.84 1632.28C1471.24 1645.96 1466.47 1659.49 1459.89 1672.45C1453.4 1685.41 1445.4 1697.93 1435.81 1709.41C1426.15 1720.83 1414.89 1731.09 1402.55 1739.77C1377.71 1757.17 1348.75 1766.81 1320.77 1770.81C1292.61 1774.77 1265.39 1773.29 1238.91 1769.29C1212.36 1765.32 1185.13 1757.41 1159.99 1743.28C1134.81 1729.4 1112.21 1708.2 1097.65 1682.91C1083.01 1657.56 1077.03 1629.19 1077.08 1602.48C1077.32 1575.65 1082.96 1549.89 1093.87 1526.6C1095.41 1523.32 1099.32 1521.91 1102.6 1523.44C1104.71 1524.43 1106.04 1526.39 1106.32 1528.53L1106.35 1528.71C1109.36 1553.13 1112.6 1576.23 1118.6 1597.51C1124.4 1618.77 1132.73 1637.91 1144.11 1653.52C1155.37 1669.2 1170.12 1681.41 1188.05 1689.56C1197.05 1693.57 1206.44 1697.03 1216.53 1699.37C1221.43 1700.83 1226.71 1701.59 1231.76 1702.72C1237.05 1703.39 1242.17 1704.45 1247.59 1704.87C1269.08 1707.04 1290.69 1706.79 1310.47 1703.71C1330.28 1700.36 1348.05 1693.37 1363.13 1683.17C1377.99 1672.64 1390.23 1658.51 1399.45 1641.41C1403.97 1632.85 1408.01 1623.71 1410.99 1614.09C1412.52 1609.31 1413.85 1604.41 1415.03 1599.55C1415.63 1597.12 1416.13 1594.67 1416.57 1592.29L1417.57 1586.2L1418.27 1582.03C1421.15 1564.73 1437.51 1553.04 1454.8 1555.92C1470.91 1558.59 1482.15 1572.95 1481.31 1588.87" fill="#650000"/>
<path d="M1480.65 1580.99L1482.65 1586.83C1483.48 1589.09 1484.37 1591.43 1485.36 1593.73C1487.33 1598.33 1489.44 1602.95 1491.73 1607.41C1496.25 1616.41 1501.75 1624.76 1507.61 1632.47C1519.51 1647.81 1533.92 1659.75 1550.28 1667.69C1566.84 1675.28 1585.52 1679.25 1605.61 1679.31C1625.63 1679.08 1646.99 1675.8 1667.84 1670.12C1673.09 1668.83 1677.97 1666.93 1683.09 1665.41C1687.89 1663.45 1692.97 1661.84 1697.56 1659.6C1707.13 1655.63 1715.83 1650.68 1724.04 1645.24C1740.39 1634.27 1752.93 1619.8 1761.47 1602.47C1770.12 1585.2 1775.2 1564.96 1777.43 1543.03C1779.85 1521.07 1779.25 1497.75 1778.23 1473.15L1778.21 1473.03C1778.07 1469.4 1780.88 1466.35 1784.49 1466.19C1786.83 1466.09 1788.93 1467.25 1790.17 1469.03C1804.77 1490.21 1814.56 1514.69 1819.2 1541.12C1823.65 1567.45 1822.4 1596.43 1812.12 1623.84C1801.91 1651.17 1783.09 1675.79 1760.55 1693.61C1738.07 1711.69 1712.51 1723.97 1686.97 1732.24C1661.52 1740.53 1634.89 1746.48 1606.47 1747.19C1578.21 1747.84 1548.08 1743.08 1520.72 1730C1507.11 1723.47 1494.31 1715.19 1482.91 1705.52C1471.57 1695.76 1461.61 1684.73 1453.08 1673.01C1444.47 1661.31 1437.53 1648.75 1431.75 1635.84C1428.79 1629.41 1426.29 1622.8 1424.09 1616.05C1422.97 1612.68 1421.96 1609.27 1421 1605.76L1419.61 1600.4L1418.23 1594.08C1414.47 1576.95 1425.31 1560.01 1442.43 1556.25C1458.37 1552.75 1474.15 1561.89 1479.29 1576.99L1480.65 1580.99" fill="#650000"/>
<path d="M594.32 191.627C548.213 191.627 498.507 200.16 445.587 220.734C322.84 268.454 232.4 369.894 203.693 492.094C170.427 633.6 218.52 770.054 346.64 897.641C375.893 926.761 385.293 970.814 370.587 1009.87C320.8 1142.01 176.293 1596.93 406.6 1902.08C586.68 2140.65 954.453 2238.79 1499.65 2193.68C2044.88 2148.6 2391.53 1991.41 2529.97 1726.51C2707.03 1387.69 2489.76 962.68 2418.96 840.494C2398.04 804.4 2400.07 759.4 2424.13 725.854C2529.56 578.96 2554.59 436.467 2498.53 302.334C2450.15 186.52 2344.28 101.307 2215.35 74.3872C1959.81 21.0272 1812.31 207.907 1760.75 290.72C1738.92 325.774 1698.15 344.96 1656.88 339.587C1504.76 319.814 1347.84 334.174 1346.28 334.32C1346.04 334.334 1345.79 334.361 1345.56 334.374C1343.99 334.481 1186.84 346.094 1040.03 390.587C1000.21 402.694 956.827 390.44 929.547 359.454C879.107 302.147 760.227 191.627 594.32 191.627V191.627ZM1502.28 2225.47H1502.35H1502.28ZM1256.41 2268.05C822.427 2268.05 520.067 2158.28 355.693 1940.51C105.753 1609.35 258.213 1127.24 310.893 987.374C316.773 971.774 313.133 954.28 301.64 942.827C121.199 763.147 115.012 590.6 141.599 477.494C175.12 334.827 280.133 216.627 422.48 161.28C703.307 52.0937 904.12 234.014 977.427 317.294C988.24 329.587 1005.56 334.374 1021.53 329.547C1173.32 283.56 1330.05 271.547 1340.68 270.787C1351.56 269.76 1507.97 255.92 1665.11 276.334C1681.65 278.534 1697.96 270.907 1706.6 257C1765.24 162.814 1933.45 -49.626 2228.39 11.9473C2377.89 43.174 2500.89 142.534 2557.39 277.747C2602.2 384.947 2624.43 556.16 2475.96 763.054C2466.49 776.24 2465.79 794.081 2474.15 808.507C2549.08 937.827 2778.65 1388.35 2586.49 1756.05C2437.25 2041.63 2073.36 2210.25 1504.91 2257.25C1417.83 2264.45 1334.92 2268.05 1256.41 2268.05" fill="#650000"/>
<path d="M1411.67 1471.87C1384.77 1471.87 1364.21 1465.12 1363.39 1455.09C1362.43 1443.39 1388.75 1431.67 1422.17 1428.91C1426.99 1428.51 1431.68 1428.31 1436.2 1428.31C1463.08 1428.31 1483.64 1435.07 1484.47 1445.08C1485.44 1456.79 1459.12 1468.52 1425.68 1471.28C1420.88 1471.68 1416.17 1471.87 1411.67 1471.87" fill="#A36666"/>
<path d="M745.747 1212.59C745.414 1351.13 833.68 1463.65 942.894 1463.92C1052.11 1464.19 1140.92 1352.09 1141.25 1213.56C1141.6 1075.01 1053.33 962.494 944.12 962.227C834.894 961.96 746.094 1074.05 745.747 1212.59" fill="white"/>
<path d="M771.361 1212.65C771.067 1336.85 848.04 1438.07 942.947 1438.31H943.28C987.974 1438.31 1030.41 1415.8 1062.83 1374.88C1096.73 1332.08 1115.49 1274.76 1115.64 1213.49C1115.95 1089.29 1038.97 988.067 944.054 987.84H943.721C899.041 987.84 856.587 1010.35 824.174 1051.27C790.267 1094.07 771.507 1151.39 771.361 1212.65V1212.65ZM943.294 1489.53C943.134 1489.53 942.987 1489.53 942.827 1489.53C819.667 1489.23 719.761 1364.97 720.134 1212.52C720.307 1139.8 743.001 1071.23 784.027 1019.45C826.361 966.027 883.067 936.613 943.721 936.613C943.881 936.613 944.027 936.613 944.174 936.613C1067.35 936.92 1167.24 1061.17 1166.87 1213.61C1166.69 1286.35 1144 1354.92 1102.97 1406.69C1060.64 1460.12 1003.95 1489.53 943.294 1489.53" fill="#650000"/>
<path d="M817.399 1236.96C817.133 1350.05 887.839 1441.91 975.346 1442.12C1062.85 1442.33 1134.01 1350.83 1134.28 1237.73C1134.56 1124.63 1063.85 1032.77 976.346 1032.56C888.839 1032.35 817.679 1123.85 817.399 1236.96" fill="#650000"/>
<path d="M901.787 1167.57C901.721 1197.59 918.267 1221.96 938.774 1222.01C959.267 1222.05 975.947 1197.77 976.014 1167.76C976.094 1137.75 959.534 1113.37 939.041 1113.32C918.534 1113.27 901.867 1137.56 901.787 1167.57Z" fill="white"/>
<path d="M2050.25 1078.55C2079.11 1214.04 2015.91 1342.33 1909.09 1365.08C1802.28 1387.84 1692.28 1296.44 1663.43 1160.93C1634.56 1025.44 1697.76 897.147 1804.57 874.4C1911.4 851.64 2021.39 943.04 2050.25 1078.55" fill="white"/>
<path d="M1837.67 896.534C1828.43 896.534 1819.16 897.48 1809.92 899.44C1717.08 919.214 1662.6 1034.13 1688.48 1155.6C1701.24 1215.53 1731.4 1267.76 1773.39 1302.65C1813.63 1336.08 1859.93 1349.39 1903.76 1340.03C1947.59 1330.69 1984.45 1299.71 2007.57 1252.77C2031.71 1203.79 2037.96 1143.81 2025.2 1083.88C2001.91 974.507 1921.27 896.534 1837.67 896.534ZM1875.77 1394.21C1828.76 1394.21 1781.89 1376.32 1740.65 1342.05C1689.85 1299.83 1653.52 1237.41 1638.37 1166.28C1606.61 1017.17 1678.79 875 1799.24 849.347C1919.71 823.68 2043.55 924.12 2075.31 1073.2C2090.45 1144.35 2082.72 1216.15 2053.53 1275.41C2023.33 1336.72 1973.92 1377.47 1914.43 1390.13C1901.61 1392.85 1888.68 1394.21 1875.77 1394.21Z" fill="#650000"/>
<path d="M1985.15 1117.15C2008.71 1227.76 1958.43 1332.21 1872.85 1350.44C1787.27 1368.67 1698.79 1293.77 1675.23 1183.16C1651.67 1072.53 1701.95 968.081 1787.52 949.854C1873.11 931.627 1961.59 1006.52 1985.15 1117.15" fill="#650000"/>
<path d="M1888.28 1066.63C1894.53 1095.97 1883.36 1123.24 1863.31 1127.51C1843.27 1131.77 1821.95 1111.44 1815.69 1082.09C1809.44 1052.73 1820.61 1025.48 1840.67 1021.2C1860.72 1016.93 1882.04 1037.27 1888.28 1066.63Z" fill="white"/>
</svg>
