<svg width="200" viewBox="0 0 3918 2412" fill="none" xmlns="http://www.w3.org/2000/svg">
<path d="M3005.79 1664.47C3005.79 1844.09 2392.95 2118.05 1637 2118.05C881 2118.05 268.222 1844.09 268.222 1664.47C268.222 1613.61 317.291 1565.52 404.743 1522.65C468.062 1033.07 1073.44 650.96 1637 650.96C2200.57 650.96 2805.88 1033.07 2869.2 1522.65C2956.72 1565.52 3005.79 1613.61 3005.79 1664.47" fill="#ECF4A2"/>
<path d="M1637 654.293C1042.19 654.293 467.904 1060.27 408.051 1523.08L407.82 1524.87L406.212 1525.65C316.86 1569.45 271.553 1616.15 271.553 1664.45C271.553 1842.27 883.267 2114.72 1637 2114.72C2390.73 2114.72 3002.45 1842.27 3002.45 1664.45C3002.45 1616.13 2957.13 1569.44 2867.73 1525.65L2866.13 1524.87L2865.89 1523.08C2806.04 1060.27 2231.8 654.293 1637 654.293ZM1637 2121.39C1292.49 2121.39 948.347 2064.69 667.96 1961.75C419.337 1870.47 264.887 1756.55 264.887 1664.45C264.887 1613.69 310.907 1565.25 401.671 1520.45C432.26 1288.84 584.813 1068.71 831.4 900.453C1066.89 739.773 1360.53 647.627 1637 647.627C1913.48 647.627 2207.09 739.773 2442.57 900.453C2689.15 1068.71 2841.69 1288.83 2872.28 1520.45C2963.08 1565.24 3009.12 1613.68 3009.12 1664.45C3009.12 1756.55 2854.67 1870.47 2606.03 1961.75C2325.64 2064.69 1981.49 2121.39 1637 2121.39" fill="#000072"/>
<path d="M1637 2096.72C1503.2 2096.72 1369.47 2088.11 1239.6 2071.51C1238.12 2056.04 1235.48 2040.51 1231.89 2025.01C1359.92 2041.69 1496 2051.23 1637.03 2051.23C1964.31 2051.23 2264.72 1999.89 2500.23 1927.07C2501.24 1927.69 2502.24 1928.32 2503.21 1928.96L2503.24 1928.95C2514.69 1936.41 2523.99 1945.29 2527.19 1955.43C2527.04 1958.13 2526.6 1960.81 2525.89 1963.43C2262.21 2049.63 1949.83 2096.72 1637 2096.72ZM574.907 1897.75C378.659 1811.09 289.555 1721.2 289.555 1664.45C289.555 1662.88 289.621 1661.29 289.753 1659.72C335.768 1729.65 453.32 1806.47 621.013 1873.39C613.64 1883.32 597.187 1891.28 574.907 1897.75Z" fill="#9A9F91"/>
<path d="M1637 672.293C1050.61 672.293 484.676 1070.93 425.903 1525.39L424.431 1536.76L414.136 1541.81C332.635 1581.76 289.555 1624.17 289.555 1664.45C289.555 1730.2 409.191 1840.47 676.467 1938.6C954.187 2040.56 1295.32 2096.72 1637 2096.72C1978.67 2096.72 2319.79 2040.56 2597.52 1938.6C2864.81 1840.45 2984.45 1730.2 2984.45 1664.45C2984.45 1624.17 2941.36 1581.76 2859.81 1541.81L2849.52 1536.77L2848.04 1525.39C2789.27 1070.93 2223.36 672.293 1637 672.293ZM1637 2139.39C901.4 2139.39 246.886 1873.8 246.886 1664.45C246.886 1608.01 293.39 1555.6 385.144 1508.61C419.252 1275.33 573.72 1054.48 821.254 885.587C1059.67 722.92 1357 629.627 1637 629.627C1917 629.627 2214.32 722.92 2452.72 885.587C2700.24 1054.48 2854.69 1275.33 2888.8 1508.61C2980.6 1555.59 3027.12 1608 3027.12 1664.45C3027.12 1873.8 2372.61 2139.39 1637 2139.39Z" fill="#000072"/>
<path d="M1045.19 1729.89C1045.19 1729.89 1388.11 2120.97 1112.35 2275.83C871.813 2410.91 332.896 2352.81 91.7349 2206.71C-91.4518 2095.73 109.542 1967.87 404.126 1943.81C711.2 1918.73 658.52 1876.47 611.707 1729.89H1045.19" fill="#C9E447"/>
<path d="M728.733 2355.47C494.676 2355.47 236.845 2298.52 90.0081 2209.56C21.1081 2167.81 13.9467 2128.08 20.076 2102.11C38.52 2023.89 196.336 1957.44 403.855 1940.49C552.12 1928.37 617.493 1911.95 637.027 1881.87C652.56 1857.97 640.307 1823.01 623.36 1774.61C618.76 1761.51 613.56 1746.65 608.533 1730.91L614.88 1728.88C619.88 1744.53 624.84 1758.71 629.64 1772.41C647.227 1822.6 659.933 1858.85 642.627 1885.49C621.533 1917.97 556.96 1934.68 404.396 1947.13C202.973 1963.59 44.0694 2029.4 26.5628 2103.64C18.5041 2137.8 41.6388 2172.47 93.4654 2203.87C332.951 2348.95 869.253 2408.51 1110.72 2272.92C1168.81 2240.29 1203.31 2194.36 1213.23 2136.39C1242.95 1962.93 1044.68 1734.39 1042.68 1732.09L1047.69 1727.69C1049.72 1730.01 1250.05 1960.91 1219.8 2137.51C1209.52 2197.56 1173.92 2245.07 1113.97 2278.73C1018.99 2332.07 878.733 2355.47 728.733 2355.47" fill="#000072"/>
<path d="M1112.35 2275.84C871.826 2410.89 332.903 2352.81 91.7505 2206.69C-91.4748 2095.75 109.545 1967.89 404.136 1943.83C536.322 1933.03 601.867 1919.04 629.893 1894.88C661.307 1867.85 645.493 1827.97 623.68 1765.45C637.04 1752.93 654.266 1741.04 674.773 1729.92H1045.19C1045.19 1729.92 1194.28 1899.95 1216.77 2060.16C1228.41 2142.92 1206.28 2223.08 1112.35 2275.84" fill="#B5E924"/>
<path d="M729.521 2330.69C689.134 2330.69 647.147 2328.97 604.014 2325.45C404.939 2309.21 217.567 2258 102.791 2188.47C80.2699 2174.83 55.4619 2155.67 46.4912 2133.71C51.1299 2124.79 57.6939 2116.04 66.0245 2107.55C66.6112 2107.91 67.2019 2108.27 67.7966 2108.64C214.558 2197.56 471.671 2253.89 704.627 2253.89C854.454 2253.89 994.254 2230.61 1088.4 2177.73C1088.96 2177.41 1089.52 2177.09 1090.08 2176.77C1148.69 2143.39 1131.04 2054.63 1064.31 2044.79C908.067 2021.72 760.854 1977.05 662.561 1917.87C664.974 1908.49 664.761 1897.99 662.721 1886.16C665.134 1880.79 666.761 1875.23 667.734 1869.47C812.894 1921.91 987.56 1965.88 1178.71 1994.09C1194.84 2041.05 1203.05 2089.23 1195.49 2133.35C1186.4 2186.44 1155.79 2226.96 1101.89 2257.23C1016.56 2305.15 884.707 2330.69 729.521 2330.69" fill="#76983F"/>
<path d="M66.024 2107.55C59.736 2103.68 53.9174 2099.79 48.5547 2095.89C76.0067 2042.45 203.712 1981.59 405.86 1965.07C548.009 1953.47 616.027 1937.88 647.173 1907.99C651.613 1911.04 656.32 1914.08 661.307 1917.12C661.72 1917.36 662.147 1917.61 662.56 1917.87C652.173 1958.12 593.12 1977.6 420.888 1991.68C256.879 2005.09 121.859 2050.63 66.024 2107.55Z" fill="#E1F6A7"/>
<path d="M46.4905 2133.71C43.1012 2125.41 41.9719 2116.72 44.0825 2107.77C45.0025 2103.87 46.4959 2099.91 48.5545 2095.89C53.9172 2099.79 59.7359 2103.68 66.0239 2107.55C57.6932 2116.04 51.1292 2124.79 46.4905 2133.71ZM662.56 1917.87C662.147 1917.61 661.72 1917.36 661.306 1917.12C656.32 1914.08 651.613 1911.04 647.173 1907.99C651.306 1904.03 654.8 1899.8 657.72 1895.31C659.653 1892.32 661.32 1889.27 662.72 1886.16C664.76 1897.99 664.973 1908.49 662.56 1917.87" fill="#C8D6B2"/>
<path d="M729.133 2372.87C491.232 2372.88 229.639 2315.21 80.6815 2224.96C2.52414 2177.6 -4.94385 2129.76 2.55615 2097.97C26.2735 1997.41 220.46 1937.4 402.391 1922.55C499.911 1914.59 602.253 1902.36 621.947 1872.05C632.64 1855.57 621.627 1824.12 606.36 1780.56C601.733 1767.35 596.493 1752.37 591.387 1736.39C587.8 1725.16 593.987 1713.16 605.213 1709.57C616.427 1706 628.44 1712.19 632.027 1723.4C636.947 1738.83 641.867 1752.87 646.627 1766.45C665.187 1819.41 679.84 1861.25 657.72 1895.31C632.8 1933.67 566.893 1951.92 405.86 1965.07C188.552 1982.81 57.2735 2051.84 44.0828 2107.77C36.3842 2140.4 71.7588 2169.67 102.791 2188.47C217.567 2258 404.939 2309.21 604.013 2325.45C812.893 2342.48 994.347 2317.63 1101.89 2257.23C1155.79 2226.96 1186.4 2186.44 1195.49 2133.35C1223.77 1968.2 1031.09 1746.19 1029.15 1743.96C1021.37 1735.11 1022.27 1721.63 1031.12 1713.85C1039.99 1706.09 1053.47 1706.97 1061.23 1715.83C1069.73 1725.53 1269.23 1955.57 1237.55 2140.55C1226.29 2206.21 1187.69 2257.99 1122.79 2294.43C1025.69 2348.95 882.307 2372.87 729.133 2372.87" fill="#000072"/>
<path d="M1045.19 1006.63C1045.19 1006.63 1388.11 1397.71 1112.35 1552.56C871.813 1687.64 332.896 1629.55 91.7349 1483.45C-91.4518 1372.47 109.542 1244.6 404.126 1220.55C711.2 1195.47 658.52 1153.2 611.707 1006.63H1045.19" fill="#B5E924"/>
<path d="M249.198 1531.39C193.11 1512.12 143.402 1489.8 102.791 1465.2C71.7593 1446.4 36.3846 1417.13 44.0833 1384.51C45.9259 1376.69 50.0673 1368.63 56.4286 1360.48C66.0513 1369.09 77.7952 1377.65 91.7512 1386.12C144.121 1417.85 210.578 1445.44 284.927 1467.8C265.834 1488.28 253.899 1509.49 249.198 1531.39" fill="#76983F"/>
<path d="M729.147 1649.61C491.24 1649.61 229.643 1591.93 80.6815 1501.69C2.52414 1454.33 -4.94385 1406.51 2.55615 1374.71C26.2708 1274.15 220.46 1214.15 402.387 1199.28C499.911 1191.32 602.253 1179.09 621.947 1148.79C632.64 1132.31 621.627 1100.85 606.36 1057.29C601.733 1044.08 596.493 1029.11 591.387 1013.12C587.8 1001.91 593.987 989.893 605.213 986.307C616.427 982.747 628.44 988.92 632.027 1000.15C636.947 1015.56 641.867 1029.6 646.627 1043.19C665.187 1096.15 679.84 1137.99 657.72 1172.04C632.8 1210.4 566.893 1228.65 405.86 1241.8C188.55 1259.55 57.2735 1328.57 44.0828 1384.51C36.3842 1417.13 71.7588 1446.4 102.791 1465.2C217.57 1534.73 404.939 1585.95 604.013 1602.19C812.893 1619.24 994.347 1594.36 1101.89 1533.96C1155.79 1503.71 1186.4 1463.19 1195.49 1410.08C1223.77 1244.95 1031.09 1022.92 1029.15 1020.69C1021.37 1011.84 1022.27 998.36 1031.12 990.587C1039.99 982.827 1053.47 983.707 1061.23 992.573C1069.73 1002.27 1269.23 1232.32 1237.55 1417.28C1226.29 1482.95 1187.69 1534.72 1122.79 1571.16C1025.69 1625.69 882.32 1649.6 729.147 1649.61" fill="#000072"/>
<path d="M2875.61 1510.16C2875.61 1510.16 2713.16 1878.33 1636.97 1878.33C560.8 1878.33 398.343 1510.16 398.343 1510.16C398.343 1476.72 400.483 1443.68 404.761 1411.12C468.064 921.507 1073.43 539.4 1637.03 539.4C2200.59 539.4 2805.89 921.507 2869.2 1411.12C2873.43 1443.68 2875.61 1476.72 2875.61 1510.16" fill="#52A51C"/>
<path d="M401.674 1509.41C405.62 1517.52 451.304 1605.16 616.533 1691.76C776 1775.36 1082.49 1875 1636.97 1875C2191.47 1875 2497.95 1775.36 2657.43 1691.76C2822.65 1605.16 2868.33 1517.52 2872.28 1509.41C2872.25 1476.88 2870.09 1443.96 2865.89 1411.55C2806.05 948.72 2231.81 542.733 1637.03 542.733C1042.19 542.733 467.907 948.72 408.068 1411.55C403.855 1443.6 401.706 1476.51 401.674 1509.41V1509.41ZM1636.97 1881.68C1080.37 1881.68 772.666 1781.36 612.546 1697.2C438.376 1605.67 396.966 1515.31 395.29 1511.51L395.008 1510.16C395.008 1476.72 397.175 1443.25 401.456 1410.68C431.488 1178.4 584.187 957.587 831.4 788.907C1066.89 628.227 1360.53 536.067 1637.03 536.067C1913.49 536.067 2207.11 628.227 2442.59 788.907C2689.79 957.587 2842.47 1178.4 2872.51 1410.69C2876.77 1443.63 2878.95 1477.09 2878.95 1510.16L2878.67 1511.51C2876.99 1515.31 2835.57 1605.67 2661.41 1697.2C2501.29 1781.36 2193.57 1881.68 1636.97 1881.68" fill="#000072"/>
<path d="M445.199 1334.48H441.404C551.2 913.987 1085.05 560.733 1637.03 560.733C1731.48 560.733 1825.43 571.08 1916.77 590.333L1880.32 644.547C1799.51 629.64 1717.84 621.774 1637.03 621.774C1136.11 621.774 602.214 923.613 445.199 1334.48V1334.48ZM2225.04 753.133C2133.07 711.387 2035.87 678.533 1936.8 656.133L1972.39 603.227C2063.25 626.227 2151.07 657.96 2233.81 696.974C2229.92 715.547 2226.99 734.28 2225.04 753.133" fill="#97C977"/>
<path d="M3005.76 1552.91C3005.76 1732.53 2392.95 2006.51 1637.03 2006.51C881.014 2006.51 268.243 1732.53 268.243 1552.91C268.243 1502.08 317.298 1453.96 404.762 1411.12C400.483 1443.68 398.343 1476.72 398.343 1510.16C398.343 1510.16 560.801 1878.33 1636.97 1878.33C2713.16 1878.33 2875.61 1510.16 2875.61 1510.16C2875.61 1476.72 2873.43 1443.68 2869.2 1411.12C2956.71 1453.96 3005.76 1502.08 3005.76 1552.91" fill="#CBDB70"/>
<path d="M400.668 1416.87C316.18 1459.31 271.578 1506.27 271.578 1552.91C271.578 1730.72 883.294 2003.17 1637.03 2003.17C2390.73 2003.17 3002.43 1730.72 3002.43 1552.91C3002.43 1506.25 2957.81 1459.29 2873.28 1416.87C2877.04 1447.8 2878.95 1479.16 2878.95 1510.16L2878.67 1511.51C2876.99 1515.31 2835.57 1605.67 2661.41 1697.2C2501.29 1781.36 2193.57 1881.68 1636.97 1881.68C1080.37 1881.68 772.667 1781.36 612.547 1697.2C438.376 1605.67 396.967 1515.31 395.291 1511.51L395.008 1510.16C395.008 1478.84 396.911 1447.48 400.668 1416.87V1416.87ZM1637.03 2009.84C1292.51 2009.84 948.36 1953.15 667.974 1850.2C419.356 1758.91 264.911 1645 264.911 1552.91C264.911 1501.81 311.469 1453.11 403.293 1408.12L408.875 1405.39L408.065 1411.56C403.855 1443.6 401.707 1476.51 401.675 1509.41C405.62 1517.52 451.304 1605.16 616.534 1691.76C776 1775.36 1082.49 1875 1636.97 1875C2191.47 1875 2497.95 1775.36 2657.43 1691.76C2822.65 1605.16 2868.33 1517.52 2872.28 1509.41C2872.25 1476.88 2870.09 1443.96 2865.88 1411.55L2865.09 1405.4L2870.65 1408.12C2962.52 1453.09 3009.09 1501.81 3009.09 1552.91C3009.09 1644.99 2854.64 1758.91 2606.01 1850.2C2325.63 1953.15 1981.51 2009.84 1637.03 2009.84" fill="#000072"/>
<path d="M1637.03 1985.17C1295.33 1985.17 954.214 1929.01 676.48 1827.04C409.21 1728.91 289.579 1618.64 289.579 1552.91C289.579 1552.76 289.579 1552.61 289.58 1552.48C403.83 1726.92 963.6 1944.31 1637.03 1944.31C2002.45 1944.31 2334.4 1880.28 2579.88 1793.85C2553.25 1817.71 2522.44 1841.37 2486.76 1864.27C2231.59 1942.6 1934.51 1985.17 1637.03 1985.17" fill="#848F71"/>
<path d="M379.389 1448.8C320.456 1483.15 289.579 1518.79 289.579 1552.91C289.579 1618.64 409.209 1728.91 676.48 1827.04C954.213 1929.01 1295.33 1985.17 1637.03 1985.17C1978.68 1985.17 2319.79 1929.01 2597.52 1827.04C2864.79 1728.89 2984.43 1618.64 2984.43 1552.91C2984.43 1518.77 2953.52 1483.13 2894.55 1448.77C2896.15 1469.24 2896.95 1489.77 2896.95 1510.16V1514.67L2895.13 1518.77C2893.35 1522.81 2849.45 1618.72 2669.79 1713.13C2434.27 1836.92 2086.79 1899.68 1636.97 1899.68C1187.17 1899.68 839.68 1836.92 604.173 1713.13C424.506 1618.72 380.603 1522.81 378.823 1518.77L377.007 1514.67V1510.16C377.007 1489.65 377.804 1469.13 379.389 1448.8V1448.8ZM1637.03 2027.84C901.426 2027.84 246.909 1762.25 246.909 1552.91C246.909 1494.37 296.859 1440.23 395.376 1391.96L431.09 1374.47L425.913 1413.89C421.993 1443.73 419.9 1474.37 419.69 1505.03C429.306 1522.27 479.301 1600.61 629.693 1678.33C787.44 1759.84 1090.24 1857 1636.97 1857C2183.72 1857 2486.52 1759.84 2644.25 1678.33C2794.45 1600.72 2844.51 1522.48 2854.27 1505.01C2854.04 1474.69 2851.96 1444.05 2848.04 1413.87L2842.93 1374.51L2878.57 1391.96C2977.12 1440.21 3027.09 1494.36 3027.09 1552.91C3027.09 1762.25 2372.61 2027.84 1637.03 2027.84" fill="#000072"/>
<path d="M737.72 1472.64H1118.09L1304.55 1195.43L1118.09 918.213H737.72L551.28 1195.43L737.72 1472.64ZM1146.51 1525.97H709.32L487 1195.43L709.32 864.88H1146.51L1368.83 1195.43L1146.51 1525.97" fill="#C9D64C"/>
<path d="M1957.32 1472.64H2337.69L2524.13 1195.43L2337.69 918.213H1957.32L1770.87 1195.43L1957.32 1472.64V1472.64ZM2366.09 1525.97H1928.92L1706.59 1195.43L1928.92 864.88H2366.09L2588.41 1195.43L2366.09 1525.97Z" fill="#C9D64C"/>
<path d="M1346.31 1168.76H1726.67L1913.12 891.547L1726.67 614.333H1346.31L1159.85 891.547L1346.31 1168.76ZM1755.08 1222.09H1317.89L1095.57 891.547L1317.89 561H1755.08L1977.4 891.547L1755.08 1222.09Z" fill="#C9D64C"/>
<path d="M1346.31 1776.53H1726.67L1913.12 1499.31L1726.67 1222.09H1346.31L1159.85 1499.31L1346.31 1776.53V1776.53ZM1755.08 1829.87H1317.89L1095.57 1499.31L1317.89 1168.76H1755.08L1977.4 1499.31L1755.08 1829.87Z" fill="#C9D64C"/>
<path d="M2566.73 1168.76H2947.11L3133.55 891.547L2947.11 614.333H2566.73L2380.28 891.547L2566.73 1168.76ZM2975.51 1222.09H2538.32L2316 891.547L2538.32 561H2975.51L3197.83 891.547L2975.51 1222.09Z" fill="#C9D64C"/>
<path d="M2875.61 1510.16H2875.68H2875.61ZM419.691 1505.03C429.307 1522.27 479.302 1600.61 629.694 1678.33C787.44 1759.84 1090.24 1857 1636.97 1857C2183.72 1857 2486.52 1759.84 2644.25 1678.33C2794.45 1600.72 2844.51 1522.48 2854.27 1505.01C2854.04 1474.69 2851.96 1444.05 2848.04 1413.87C2789.28 959.387 2223.39 560.733 1637.03 560.733C1050.61 560.733 484.678 959.387 425.916 1413.85C421.99 1443.73 419.9 1474.37 419.691 1505.03V1505.03ZM1636.97 1899.68C1187.17 1899.68 839.68 1836.92 604.173 1713.13C424.507 1618.72 380.603 1522.81 378.823 1518.77L377.007 1514.67V1510.16C377.007 1475.93 379.229 1441.68 383.608 1408.33C414.305 1170.93 569.734 945.653 821.254 774.04C1059.67 611.373 1357 518.067 1637.03 518.067C1917.03 518.067 2214.33 611.373 2452.73 774.04C2704.24 945.653 2859.65 1170.93 2890.35 1408.39C2894.73 1442.08 2896.95 1476.32 2896.95 1510.16V1514.67L2895.13 1518.77C2893.35 1522.81 2849.45 1618.72 2669.79 1713.13C2434.27 1836.92 2086.79 1899.68 1636.97 1899.68Z" fill="#000072"/>
<path d="M1636.97 1825C1539.63 1825 1449.79 1822 1366.84 1816.52L1264.96 1665.03L1293.05 1623.25C1359.97 1626.65 1431.17 1628.47 1506.88 1628.47C1684.68 1628.47 1837.56 1618.41 1968.87 1601.64L2011.49 1665.03L1909.73 1816.35C1826.05 1821.93 1735.36 1825 1636.97 1825V1825ZM1294.24 1810.95C1095.67 1793.56 939.866 1761.55 818.066 1723.64L839.546 1691.69H1214.03L1294.24 1810.95V1810.95ZM1979.77 1810.95L2059.99 1691.69H2434.45L2455.93 1723.63C2334.13 1761.55 2178.37 1793.55 1979.77 1810.95V1810.95ZM764.453 1705.84C551.667 1630.49 457.341 1538.51 419.938 1490.19C420.622 1464.51 422.625 1438.92 425.913 1413.89L426.268 1411.19C490.709 1451.79 579.8 1494.59 702.013 1531.39L791.906 1665.03L764.453 1705.84V1705.84ZM2511.51 1705.12L2484.55 1665.03L2661.99 1401.21C2690.93 1413.84 2720.89 1425.15 2751.77 1435.08C2752.84 1458.49 2751.92 1511.53 2729.41 1576.95C2726.04 1586.75 2722.08 1597.08 2717.43 1607.87C2665.96 1640.25 2598.72 1674.09 2511.51 1705.12V1705.12ZM2434.45 1638.36H2059.99L2029.59 1593.19C2307.43 1551.19 2480.75 1478.33 2587.07 1411.47L2434.45 1638.36ZM1214.03 1638.36H839.546L782.426 1553.44C901.906 1583.19 1048.17 1607 1226.84 1619.31L1214.03 1638.36" fill="#356B3A"/>
<path d="M419.938 1490.19C420.621 1464.51 422.622 1438.91 425.916 1413.85C426.03 1412.96 426.147 1412.08 426.265 1411.19H426.268L425.913 1413.89C422.625 1438.92 420.622 1464.51 419.938 1490.19" fill="#000072"/>
<path d="M1264.96 1665.03L1262.67 1661.63L1288.61 1623.03C1290.11 1623.11 1291.56 1623.19 1293.05 1623.25L1264.96 1665.03V1665.03ZM791.907 1665.03L702.014 1531.39C702.56 1531.55 703.107 1531.71 703.654 1531.88L792.56 1664.07L791.907 1665.03" fill="#838B59"/>
<path d="M1366.84 1816.52C1365.25 1816.41 1363.63 1816.31 1362.04 1816.2L1260.37 1665.03L1262.67 1661.63L1264.96 1665.03L1366.84 1816.52V1816.52ZM765.506 1706.21C765.173 1706.09 764.8 1705.96 764.453 1705.84L791.906 1665.03L792.56 1664.07L793.213 1665.03L765.506 1706.21ZM1214.03 1691.69H839.546L857.48 1665.03L839.546 1638.36H1214.03L1196.09 1665.03L1214.03 1691.69Z" fill="#838B59"/>
<path d="M2484.55 1665.03L2482.68 1662.25L2659.09 1399.95C2660.05 1400.37 2661.03 1400.79 2661.99 1401.21L2484.55 1665.03V1665.03ZM2011.49 1665.03L1968.87 1601.64C1969.55 1601.56 1970.16 1601.48 1970.84 1601.39L2012.57 1663.44L2011.49 1665.03Z" fill="#838B59"/>
<path d="M1909.73 1816.35L2011.49 1665.03L2012.57 1663.44L2013.64 1665.03L1911.97 1816.19C1911.24 1816.24 1910.47 1816.29 1909.73 1816.35V1816.35ZM2508.48 1706.2L2480.8 1665.03L2482.68 1662.25L2484.55 1665.03L2511.51 1705.12C2510.49 1705.48 2509.51 1705.84 2508.48 1706.2V1706.2ZM2434.45 1691.69H2059.99L2077.92 1665.03L2059.99 1638.36H2434.45L2416.52 1665.03L2434.45 1691.69Z" fill="#838B59"/>
<path d="M1362.04 1816.2C1338.89 1814.64 1316.32 1812.88 1294.24 1810.95L1214.03 1691.69L1196.09 1665.03L1214.03 1638.36L1226.84 1619.31C1247.01 1620.71 1267.61 1621.95 1288.61 1623.03L1262.67 1661.63L1260.37 1665.03L1362.04 1816.2V1816.2ZM1911.97 1816.19L2013.64 1665.03L2012.57 1663.44L1970.84 1601.39C1990.91 1598.81 2010.51 1596.07 2029.59 1593.19L2059.99 1638.36L2077.92 1665.03L2059.99 1691.69L1979.77 1810.95C1957.71 1812.88 1935.12 1814.63 1911.97 1816.19" fill="#838B59"/>
<path d="M818.067 1723.64C799.773 1717.95 782.307 1712.15 765.507 1706.21L793.213 1665.03L792.56 1664.07L703.653 1531.88C728.52 1539.33 754.76 1546.55 782.427 1553.44L839.547 1638.36L857.48 1665.03L839.547 1691.69L818.067 1723.64" fill="#838B59"/>
<path d="M2455.93 1723.63L2434.45 1691.69L2416.52 1665.03L2434.45 1638.36L2587.07 1411.47C2601.41 1402.45 2614.52 1393.55 2626.52 1384.84C2637.21 1390.05 2648.09 1395.09 2659.09 1399.95L2482.68 1662.25L2480.8 1665.03L2508.48 1706.2C2491.73 1712.12 2474.19 1717.95 2455.93 1723.63" fill="#838B59"/>
<path d="M419.939 1490.19C408.68 1475.64 402.588 1465.07 399.966 1460.08C401.036 1443.65 402.632 1427.32 404.762 1411.12C405.338 1406.84 405.91 1402.61 406.536 1398.33C412.838 1402.59 419.418 1406.88 426.266 1411.19C426.147 1412.08 426.031 1412.96 425.916 1413.85C422.623 1438.91 420.622 1464.51 419.939 1490.19" fill="#000072"/>
<path d="M3895.91 809.36C3895.91 911.747 3866.11 1008.65 3812.97 1094.92C3722.07 1242.71 3562.69 1359.35 3367.52 1419.05C3367.52 1419.05 3295.4 1586.67 3089.57 1733.57C2831.77 1917.64 2476.96 1895.45 2476.96 1895.45C2812.93 1693.44 2771.87 1419.05 2771.87 1419.05C2496.95 1334.97 2293.11 1137.92 2251.36 899.96C2246.15 870.36 2243.48 840.093 2243.48 809.36C2243.48 728.16 2262.21 650.4 2296.4 578.64C2276 528.96 2264.63 473.693 2264.63 415.507C2264.63 198.053 2423.68 21.7734 2619.96 21.7734C2732.36 21.7734 2832.61 79.64 2897.69 169.973C2953.11 160.693 3010.72 155.84 3069.69 155.84C3128.61 155.84 3186.17 160.693 3241.64 169.973C3306.72 79.64 3406.97 21.7734 3519.39 21.7734C3715.65 21.7734 3874.72 198.053 3874.72 415.507C3874.72 473.693 3863.33 528.907 3842.93 578.587C3877.17 650.4 3895.91 728.107 3895.91 809.36" fill="#B5E924"/>
<path d="M2304.13 294.16C2349.37 148.2 2473.85 43.0797 2619.95 43.0797C2721.67 43.0797 2816.59 93.8798 2880.39 182.453L2888.13 193.226L2901.23 191.026C2955.97 181.826 3012.77 177.213 3069.63 177.213C3126.43 177.213 3183.27 181.813 3238.11 191.026L3251.2 193.226L3258.95 182.453C3322.75 93.8798 3417.67 43.0797 3519.39 43.0797C3665.48 43.0797 3789.96 148.186 3835.2 294.16C3776.12 167.56 3656.88 81.0263 3519.39 81.0263C3406.97 81.0263 3306.72 138.907 3241.64 229.24C3186.17 219.947 3128.61 215.093 3069.69 215.093C3010.72 215.093 2953.11 219.947 2897.69 229.24C2832.61 138.907 2732.36 81.0263 2619.96 81.0263C2482.45 81.0263 2363.2 167.56 2304.13 294.16" fill="#E1F6A7"/>
<path d="M2602.04 1831.21C2700.63 1745.03 2747.93 1655.39 2770.61 1588.31C2803.61 1490.69 2793.4 1418.88 2792.95 1415.87L2790.96 1402.56L2778.09 1398.61C2529.95 1322.75 2347.61 1153.48 2286.83 954.813C2399.85 1116.96 2641.28 1355.39 3083.52 1355.39C3390.27 1355.39 3604.93 1255.87 3746.95 1149.28C3656.56 1260.2 3522.88 1349.21 3361.29 1398.61L3351.87 1401.53L3347.95 1410.57C3347.25 1412.2 3275.17 1574.91 3077.19 1716.23C3007.83 1765.73 2930.8 1799.92 2855.69 1823.49C2819.71 1816.25 2782.76 1812.61 2745.71 1812.61C2697.45 1812.61 2649 1818.77 2602.04 1831.21" fill="#76983F"/>
<path d="M2619.95 43.08C2435.77 43.08 2285.93 210.16 2285.93 415.52C2285.93 469.573 2296.11 521.733 2316.16 570.547L2319.75 579.307L2315.68 587.84C2281.93 658.613 2264.83 733.147 2264.83 809.347C2264.83 1067.95 2471.09 1304.75 2778.09 1398.61L2790.96 1402.56L2792.95 1415.87C2793.4 1418.88 2803.61 1490.69 2770.61 1588.31C2744.13 1666.65 2684.04 1775.77 2547.89 1874.24C2662.43 1870.36 2896.01 1845.55 3077.19 1716.23C3275.17 1574.91 3347.25 1412.2 3347.95 1410.57L3351.87 1401.53L3361.29 1398.61C3668.29 1304.75 3874.56 1067.95 3874.56 809.347C3874.56 733.133 3857.44 658.587 3823.65 587.787L3819.59 579.24L3823.17 570.493C3843.23 521.68 3853.4 469.533 3853.4 415.52C3853.4 210.16 3703.56 43.08 3519.39 43.08C3417.67 43.08 3322.75 93.8801 3258.95 182.453L3251.2 193.227L3238.11 191.027C3128.37 172.6 3010.67 172.627 2901.23 191.027L2888.13 193.227L2880.39 182.453C2816.59 93.8801 2721.67 43.08 2619.95 43.08V43.08ZM2516.73 1917.76C2493.05 1917.76 2478.41 1916.93 2475.64 1916.76L2407.27 1912.49L2465.97 1877.19C2632.84 1776.84 2701.33 1658.52 2729.41 1576.95C2751.92 1511.53 2752.84 1458.49 2751.77 1435.08C2600.09 1386.28 2470.31 1304.16 2375.76 1197.04C2275.28 1083.19 2222.16 949.133 2222.16 809.347C2222.16 729.787 2239.32 652 2273.19 577.987C2253.33 526.56 2243.27 471.947 2243.27 415.52C2243.27 186.627 2412.24 0.413379 2619.95 0.413379C2731.37 0.413379 2835.32 53.6134 2907.07 146.867C3013.12 130.453 3125.96 130.427 3232.27 146.867C3304.01 53.6134 3407.96 0.413379 3519.39 0.413379C3727.09 0.413379 3896.07 186.627 3896.07 415.52C3896.07 471.907 3886 526.493 3866.15 577.92C3900.05 651.96 3917.24 729.773 3917.24 809.347C3917.24 949.133 3864.12 1083.19 3763.64 1197.04C3668.09 1305.27 3536.6 1387.97 3382.89 1436.59C3364.49 1474.41 3285.33 1620.07 3101.97 1750.96C2890.05 1902.23 2619.05 1917.76 2516.73 1917.76" fill="#000072"/>
<path d="M2894.99 770.973C2902.67 791.28 2911.32 807.986 2922.81 821.6C2934.16 835.24 2947.64 846.24 2962.96 855.44C2978.27 864.573 2995.19 872.253 3013.28 877.546C3031.36 882.8 3050.55 885.48 3069.69 885.2C3108.03 884.786 3145.79 873.453 3176.28 855.226C3183.95 850.68 3190.93 845.386 3197.6 839.8C3201.01 837.053 3203.6 833.653 3206.87 830.733C3209.76 827.56 3212.35 824.147 3215.37 820.92C3226.43 807.32 3235.16 791.253 3244.39 770.973L3244.43 770.893C3245.31 768.946 3247.6 768.093 3249.55 768.973C3250.45 769.387 3251.13 770.12 3251.49 770.973C3260.63 792.307 3259.47 818.2 3249.31 840.613C3246.45 845.96 3243.72 851.56 3240.28 856.626C3236.6 861.44 3233 866.546 3228.83 870.933L3222.47 877.44C3220.35 879.64 3218.21 881.827 3215.79 883.587C3211.03 887.173 3206.52 891.387 3201.43 894.387C3181.55 907.627 3159.48 916.133 3137.17 921.146C3114.83 926.253 3092.21 928.24 3069.69 928.133C3047.17 927.746 3024.67 925.507 3002.37 920.507C2980.15 915.507 2957.89 907.507 2938.08 894.173C2918.39 881.013 2900.97 862.373 2891.25 839.92C2881.55 817.533 2880.29 792.293 2887.88 770.973C2888.57 769.013 2890.73 767.986 2892.69 768.68C2893.77 769.066 2894.57 769.893 2894.96 770.88L2894.99 770.973" fill="#000072"/>
<path d="M2775.69 827.36C2775.69 881.133 2708.83 924.733 2626.33 924.733C2543.84 924.733 2476.97 881.133 2476.97 827.36C2476.97 773.573 2543.84 729.974 2626.33 729.974C2708.83 729.974 2775.69 773.573 2775.69 827.36Z" fill="#FDA098"/>
<path d="M3704.97 827.36C3704.97 881.133 3638.11 924.733 3555.61 924.733C3473.12 924.733 3406.25 881.133 3406.25 827.36C3406.25 773.573 3473.12 729.974 3555.61 729.974C3638.11 729.974 3704.97 773.573 3704.97 827.36Z" fill="#FDA098"/>
<path d="M2437.91 1901.79C2437.91 1901.79 2612.2 1945.72 2476.99 2014.43C2366.84 2070.4 1991.97 2074 1952 2183.6C1937.64 2222.97 1975.21 2340.64 2361.05 2379.49C2800.96 2423.79 3218.91 2326.84 3173.4 2073.95C3163.84 2020.88 3130.45 1974.6 3085.73 1935.03C2930.71 1797.84 2684.09 1774.23 2493.56 1872.96L2437.91 1901.79Z" fill="#B5E924"/>
<path d="M1963.99 2163.4C1982.24 2141.72 2015.41 2124.89 2056.75 2111.08C2056.79 2111.08 2056.76 2111.08 2056.8 2111.08C2015.45 2124.88 1982.25 2141.72 1963.99 2163.4" fill="#A7EAFF"/>
<path d="M2056.75 2111.08C2157.91 2077.29 2307.8 2061.68 2406.48 2037.87C2307.8 2061.68 2157.96 2077.29 2056.8 2111.08C2056.76 2111.08 2056.79 2111.08 2056.75 2111.08Z" fill="#9999C7"/>
<path d="M3172.19 2067.83C3172.19 2067.81 3172.19 2067.81 3172.17 2067.81C3171.33 2063.93 3170.37 2060.09 3169.28 2056.29C3170.37 2060.11 3171.35 2063.95 3172.19 2067.83Z" fill="#A7EAFF"/>
<path d="M2525.89 1963.43C2526.6 1960.81 2527.04 1958.13 2527.19 1955.43C2527.93 1957.75 2528.35 1960.15 2528.39 1962.6C2527.55 1962.88 2526.75 1963.15 2525.89 1963.43Z" fill="#D7D9D3"/>
<path d="M2477.39 2014.23C2491.61 2006.87 2519.45 1987.51 2525.89 1963.43C2526.75 1963.15 2527.55 1962.88 2528.39 1962.6C2528.65 1977.56 2515.23 1994.92 2477.39 2014.23Z" fill="#9999C7"/>
<path d="M2500.23 1927.07C2495.97 1924.45 2491.48 1922.03 2486.93 1919.8C2491.48 1922.03 2495.99 1924.45 2500.25 1927.07H2500.23Z" fill="#F7FBDA"/>
<path d="M2503.21 1928.96C2502.24 1928.32 2501.24 1927.69 2500.23 1927.07H2500.25C2501.25 1927.68 2502.25 1928.31 2503.24 1928.95L2503.21 1928.96Z" fill="#D7D9D3"/>
<path d="M3053.43 1909.01C3053.4 1909 3053.4 1909 3053.39 1908.99C3053.4 1909 3053.41 1909.01 3053.43 1909.01ZM3052.85 1908.6C3052.77 1908.55 3052.68 1908.47 3052.6 1908.41C3052.68 1908.47 3052.77 1908.55 3052.85 1908.6ZM3052.28 1908.17C3052.16 1908.09 3052.07 1908.03 3051.95 1907.95C3052.05 1908.01 3052.17 1908.11 3052.28 1908.17ZM3051.71 1907.76C3051.53 1907.64 3051.35 1907.51 3051.17 1907.39C3051.36 1907.52 3051.52 1907.63 3051.71 1907.76ZM3051.12 1907.35C3035.11 1895.77 3018.37 1885.27 3001 1875.8C3018.37 1885.27 3035.11 1895.77 3051.12 1907.35Z" fill="#A7EAFF"/>
<path d="M2437.95 1901.77C2437.93 1901.77 2437.93 1901.77 2437.93 1901.77L2475.52 1882.31L2437.95 1901.77" fill="#9999C7"/>
<path d="M1950.53 2209.11C1950.53 2209.09 1950.53 2209.09 1950.53 2209.08C1950.53 2209.08 1950.53 2209.09 1950.53 2209.11ZM1950.52 2209.04C1948.67 2198.85 1949.61 2190.12 1952.03 2183.57C1954.64 2176.41 1958.68 2169.69 1963.99 2163.4C1982.25 2141.72 2015.45 2124.88 2056.8 2111.08C2157.96 2077.29 2307.8 2061.68 2406.48 2037.87C2435.09 2030.96 2459.4 2023.36 2476.96 2014.44C2477.11 2014.37 2477.24 2014.29 2477.39 2014.23C2515.23 1994.92 2528.65 1977.56 2528.39 1962.6C2528.35 1960.15 2527.93 1957.75 2527.19 1955.43C2527.73 1945.55 2524.36 1935.07 2514.91 1924.41C2514.15 1924.27 2513.47 1924.15 2512.71 1924L2503.24 1928.95C2502.25 1928.31 2501.25 1927.68 2500.25 1927.07C2495.99 1924.45 2491.48 1922.03 2486.93 1919.8C2463.48 1908.29 2438.67 1901.96 2437.95 1901.77L2475.52 1882.31L2493.56 1872.96C2571.57 1832.53 2659.01 1812.63 2745.69 1812.63C2834.99 1812.63 2923.48 1833.73 3000.11 1875.31C3000.17 1875.35 3000.27 1875.4 3000.33 1875.43C3000.4 1875.47 3000.45 1875.49 3000.52 1875.53C3000.67 1875.61 3000.83 1875.69 3000.96 1875.77C3000.97 1875.79 3000.99 1875.79 3001 1875.8C3018.37 1885.27 3035.11 1895.77 3051.12 1907.35C3051.13 1907.35 3051.16 1907.37 3051.17 1907.39C3051.35 1907.51 3051.53 1907.64 3051.71 1907.76C3051.79 1907.83 3051.87 1907.88 3051.95 1907.95C3052.07 1908.03 3052.16 1908.09 3052.28 1908.17C3052.39 1908.27 3052.48 1908.33 3052.6 1908.41C3052.68 1908.47 3052.77 1908.55 3052.85 1908.6C3053.04 1908.73 3053.2 1908.85 3053.39 1908.99C3053.4 1909 3053.4 1909 3053.43 1909.01C3064.57 1917.17 3075.35 1925.84 3085.72 1935.01C3095.35 1943.55 3104.45 1952.39 3112.91 1961.53C3113.11 1962.73 3113.37 1963.97 3113.59 1965.17C3115.56 1976.15 3116.65 1986.83 3116.92 1997.21C3113 1993.45 3108.99 1989.75 3104.87 1986.11C3013.36 1905.11 2889.85 1863.68 2764.85 1863.68C2732.45 1863.68 2699.99 1866.45 2667.91 1872.05C2622.33 1880 2589.65 1918.23 2584.97 1964.25C2581.44 1999.09 2550.16 2041.03 2496.12 2065.48C2396.28 2110.65 2091.97 2122.59 1996.56 2201.17C1980.25 2193.64 1966.27 2185.91 1954.32 2178.15C1953.48 2179.92 1952.71 2181.75 1952.03 2183.57C1949.63 2190.13 1948.67 2198.87 1950.52 2209.04V2209.04ZM3172.17 2067.81C3172.17 2067.8 3172.17 2067.79 3172.16 2067.79C3164.24 2031.28 3145.05 1998.09 3118.81 1968.11C3142.29 1994.91 3160.11 2024.29 3169.28 2056.29C3170.37 2060.09 3171.33 2063.93 3172.17 2067.81" fill="#E1F6A7"/>
<path d="M2152.31 2343.68C2024.27 2309.24 1972.87 2262.87 1956.25 2226.79C1972.87 2262.87 2024.25 2309.24 2152.31 2343.68ZM1956.24 2226.76H1956.23H1956.24Z" fill="#1784CE"/>
<path d="M2563.08 2389.85C2497.37 2389.85 2429.49 2386.37 2361.05 2379.48C2275.37 2370.85 2206.89 2358.36 2152.31 2343.68C2024.25 2309.24 1972.87 2262.87 1956.25 2226.79C1956.24 2226.79 1956.24 2226.77 1956.24 2226.76H1956.23C1953.37 2220.53 1951.55 2214.61 1950.53 2209.11C1952.6 2220.32 1958.07 2233.29 1968.77 2247.03C1968.99 2242.33 1969.83 2238.21 1971.12 2234.67C1975.64 2222.28 1984.4 2211.19 1996.56 2201.17C2058.87 2229.97 2155.08 2256 2301.25 2270.72C2369.67 2277.61 2437.59 2281.09 2503.28 2281.09C2841.64 2281.09 3121.81 2188.99 3116.92 1997.21C3139.45 2018.84 3158.52 2042.37 3172.16 2067.79C3172.61 2069.83 3173.01 2071.87 3173.39 2073.93C3211.81 2287.48 2919.75 2389.85 2563.08 2389.85V2389.85ZM1950.53 2209.08C1950.52 2209.07 1950.52 2209.05 1950.52 2209.04C1950.52 2209.05 1950.52 2209.07 1950.53 2209.08ZM3118.81 1968.11C3116.88 1965.89 3114.91 1963.71 3112.91 1961.53V1961.52C3114.91 1963.69 3116.88 1965.89 3118.81 1968.11Z" fill="#76983F"/>
<path d="M1968.77 2247.03C1958.07 2233.29 1952.6 2220.32 1950.53 2209.11C1950.53 2209.09 1950.53 2209.08 1950.53 2209.08C1950.52 2209.07 1950.52 2209.05 1950.52 2209.04C1948.67 2198.87 1949.63 2190.13 1952.03 2183.57C1952.71 2181.75 1953.48 2179.92 1954.32 2178.15C1966.27 2185.91 1980.25 2193.64 1996.56 2201.17C1984.4 2211.19 1975.64 2222.28 1971.12 2234.67C1969.83 2238.21 1968.99 2242.33 1968.77 2247.03V2247.03ZM3172.16 2067.79C3158.52 2042.37 3139.45 2018.84 3116.92 1997.21C3116.65 1986.83 3115.56 1976.15 3113.59 1965.17C3113.37 1963.97 3113.11 1962.73 3112.91 1961.53C3114.91 1963.71 3116.88 1965.89 3118.81 1968.11C3145.05 1998.09 3164.24 2031.28 3172.16 2067.79" fill="#92A095"/>
<path d="M2491.55 1898.03C2518.71 1910.6 2546.32 1930.07 2549.44 1957.93C2554.05 1999.19 2503.32 2024.97 2486.64 2033.44C2442.52 2055.87 2362.08 2069.84 2276.91 2084.63C2150.33 2106.61 1992.81 2133.97 1972.04 2190.91C1969.55 2197.75 1970.37 2210.61 1980.17 2226.23C1999 2256.23 2074 2329.16 2363.2 2358.28C2708.21 2393.01 3001.31 2339.64 3109.89 2222.28C3147.95 2181.15 3162.25 2132.51 3152.4 2077.72C3144.56 2034.16 3117.37 1991.52 3071.59 1951C2925.6 1821.81 2686.63 1796.95 2503.37 1891.89L2491.55 1898.03ZM2563.47 2411.27C2497.39 2411.27 2428.8 2407.76 2358.92 2400.72C2076.92 2372.33 1977.65 2302.49 1944.03 2248.89C1928.53 2224.2 1924.13 2197.75 1931.96 2176.29C1961.19 2096.16 2117.97 2068.92 2269.6 2042.59C2351.53 2028.36 2428.91 2014.92 2467.32 1995.41C2500.99 1978.31 2507.4 1965.99 2507.04 1962.69C2505.77 1951.39 2469.64 1931.85 2432.68 1922.48L2378.28 1908.67L2483.75 1854.01C2685.27 1749.6 2938.61 1776.36 3099.87 1919.05C3153.01 1966.08 3184.81 2016.92 3194.39 2070.17C3206.75 2138.84 3188.85 2199.76 3141.2 2251.27C3080.6 2316.76 2971.2 2364.87 2824.83 2390.37C2745.07 2404.28 2656.76 2411.27 2563.47 2411.27Z" fill="#000072"/>
<path d="M2439.47 458.653C2448.56 590.853 2540.8 679.373 2645.48 656.36C2750.15 633.36 2827.63 507.533 2818.52 375.333C2809.41 243.133 2717.19 154.613 2612.51 177.613C2507.84 200.627 2430.36 326.453 2439.47 458.653" fill="#000072"/>
<path d="M2522.4 352.507C2515.29 398.454 2532.12 437.787 2560 440.36C2587.87 442.947 2616.23 407.787 2623.33 361.84C2630.45 315.894 2613.61 276.547 2585.75 273.974C2557.88 271.4 2529.52 306.56 2522.4 352.507Z" fill="white"/>
<path d="M2681.41 495.653C2679.05 518.8 2688.44 538.227 2702.37 539.04C2716.32 539.853 2729.55 521.733 2731.91 498.587C2734.27 475.44 2724.88 456.013 2710.95 455.2C2697 454.386 2683.77 472.493 2681.41 495.653Z" fill="white"/>
<path d="M3307.56 458.653C3316.65 590.853 3408.89 679.373 3513.57 656.36C3618.24 633.36 3695.72 507.533 3686.61 375.333C3677.51 243.133 3585.28 154.613 3480.6 177.613C3375.93 200.627 3298.45 326.453 3307.56 458.653" fill="#000072"/>
<path d="M3390.49 352.507C3383.39 398.454 3400.21 437.787 3428.09 440.36C3455.96 442.947 3484.32 407.787 3491.43 361.84C3498.55 315.894 3481.71 276.547 3453.84 273.974C3425.97 271.4 3397.61 306.56 3390.49 352.507Z" fill="white"/>
<path d="M3549.51 495.653C3547.15 518.8 3556.52 538.227 3570.47 539.04C3584.41 539.853 3597.63 521.733 3600 498.587C3602.36 475.44 3592.97 456.013 3579.04 455.2C3565.09 454.386 3551.87 472.493 3549.51 495.653Z" fill="white"/>
</svg>
